ISO-10303-21;
HEADER;
FILE_DESCRIPTION (( 'STEP AP214' ),
    '1' );
FILE_NAME ('Arms.STEP',
    '2026-02-05T02:30:35',
    ( '' ),
    ( '' ),
    'SwSTEP 2.0',
    'SolidWorks 2025',
    '' );
FILE_SCHEMA (( 'AUTOMOTIVE_DESIGN' ));
ENDSEC;

DATA;
#1 = PRODUCT ( 'Elevator ARm', 'Elevator ARm', '', ( #96 ) ) ;
#2 = PRODUCT_RELATED_PRODUCT_CATEGORY ( 'part', '', ( #70 ) ) ;
#3 = CARTESIAN_POINT ( 'NONE',  ( 0.000000000000000000, 0.000000000000000000, 0.000000000000000000 ) ) ;
#4 = DIRECTION ( 'NONE',  ( 0.000000000000000000, 0.000000000000000000, 1.000000000000000000 ) ) ;
#5 = PROPERTY_DEFINITION_REPRESENTATION ( #21, #90 ) ;
#6 = UNCERTAINTY_MEASURE_WITH_UNIT (LENGTH_MEASURE( 1.000000000000000082E-05 ), #63, 'distance_accuracy_value', 'NONE');
#7 = PROPERTY_DEFINITION_REPRESENTATION ( #62, #75 ) ;
#8 = PRODUCT_DEFINITION_SHAPE ( 'NONE', 'NONE',  #108 ) ;
#9 = DIRECTION ( 'NONE',  ( 1.501769749675768643E-18, -0.7289686274214205453, -0.6845471059286790672 ) ) ;
#10 =( NAMED_UNIT ( * ) PLANE_ANGLE_UNIT ( ) SI_UNIT ( $, .RADIAN. ) );
#11 = APPLICATION_PROTOCOL_DEFINITION ( 'draft international standard', 'automotive_design', 1998, #44 ) ;
#12 = APPLIED_DOCUMENT_REFERENCE ( #14,'',( #99) ) ;
#13 = APPLICATION_CONTEXT ( 'automotive_design' ) ;
#14 = DOCUMENT_FILE ( 'spur gear_am_Metric - Spur gear 2M 25T 20PA 2FW ---S25N75H50L8N.STEP' , '', '', #64, '' ,$ ) ;
#15 = APPLICATION_CONTEXT ( 'automotive_design' ) ;
#16 = PRODUCT_DEFINITION_FORMATION_WITH_SPECIFIED_SOURCE ( 'Symmetric', '', #1, .NOT_KNOWN. ) ;
#17 = PRODUCT_DEFINITION_SHAPE ( 'NONE', 'NONE',  #99 ) ;
#18 = PRODUCT_DEFINITION ( 'General', '', #84, #71 ) ;
#19 = ROLE_ASSOCIATION ( #53, #20 ) ;
#20 = APPLIED_DOCUMENT_REFERENCE ( #100,'',( #93) ) ;
#21 = PROPERTY_DEFINITION ('external definition','', #100 ) ;
#22 =( GEOMETRIC_REPRESENTATION_CONTEXT ( 3 ) GLOBAL_UNCERTAINTY_ASSIGNED_CONTEXT ( ( #88 ) ) GLOBAL_UNIT_ASSIGNED_CONTEXT ( ( #95, #83, #72 ) ) REPRESENTATION_CONTEXT ( 'NONE', 'WORKASPACE' ) );
#23 = CARTESIAN_POINT ( 'NONE',  ( 0.000000000000000000, 0.000000000000000000, 0.000000000000000000 ) ) ;
#24 = DIRECTION ( 'NONE',  ( 1.000000000000000000, 4.137224671013156841E-19, 1.753245379762877173E-18 ) ) ;
#25 = APPLICATION_CONTEXT ( 'automotive_design' ) ;
#26 = UNCERTAINTY_MEASURE_WITH_UNIT (LENGTH_MEASURE( 1.000000000000000082E-05 ), #31, 'distance_accuracy_value', 'NONE');
#27 = PRODUCT_DEFINITION_FORMATION_WITH_SPECIFIED_SOURCE ( 'Symmetric', '', #70, .NOT_KNOWN. ) ;
#28 = PRODUCT ( 'Arms', 'Arms', '', ( #91 ) ) ;
#29 =( NAMED_UNIT ( * ) SI_UNIT ( $, .STERADIAN. ) SOLID_ANGLE_UNIT ( ) );
#30 = AXIS2_PLACEMENT_3D ( 'NONE', #92, #94, #54 ) ;
#31 =( LENGTH_UNIT ( ) NAMED_UNIT ( * ) SI_UNIT ( .MILLI., .METRE. ) );
#32 = PRODUCT_DEFINITION_CONTEXT ( 'detailed design', #44, 'design' ) ;
#33 = ITEM_DEFINED_TRANSFORMATION ( 'NONE', 'NONE', #98,  #37 ) ;
#34 = APPLIED_EXTERNAL_IDENTIFICATION_ASSIGNMENT ( 'spur gear_am_Metric - Spur gear 2M 25T 20PA 2FW ---S25N75H50L8N.STEP' , #101, #43,( #14) ) ;
#35 = APPLICATION_CONTEXT ( 'automotive_design' ) ;
#36 = PRODUCT_DEFINITION_SHAPE ( 'NONE', 'NONE',  #107 ) ;
#37 = AXIS2_PLACEMENT_3D ( 'NONE', #3, #4, #38 ) ;
#38 = DIRECTION ( 'NONE',  ( 1.000000000000000000, 0.000000000000000000, 0.000000000000000000 ) ) ;
#39 = APPLICATION_PROTOCOL_DEFINITION ( 'draft international standard', 'automotive_design', 1998, #65 ) ;
#40 = SHAPE_DEFINITION_REPRESENTATION ( #17, #75 ) ;
#41 = ITEM_DEFINED_TRANSFORMATION ( 'NONE', 'NONE', #61,  #30 ) ;
#42 = PROPERTY_DEFINITION_REPRESENTATION ( #81, #75 ) ;
#43 = EXTERNAL_SOURCE (IDENTIFIER('') ) ;
#44 = APPLICATION_CONTEXT ( 'automotive_design' ) ;
#45 = APPLICATION_PROTOCOL_DEFINITION ( 'draft international standard', 'automotive_design', 1998, #25 ) ;
#46 =( NAMED_UNIT ( * ) SI_UNIT ( $, .STERADIAN. ) SOLID_ANGLE_UNIT ( ) );
#47 =( NAMED_UNIT ( * ) PLANE_ANGLE_UNIT ( ) SI_UNIT ( $, .RADIAN. ) );
#48 = PRODUCT_RELATED_PRODUCT_CATEGORY ( 'part', '', ( #1 ) ) ;
#49 = APPLICATION_PROTOCOL_DEFINITION ( 'draft international standard', 'automotive_design', 1998, #15 ) ;
#50 = CONTEXT_DEPENDENT_SHAPE_REPRESENTATION ( #55, #8 ) ;
#51 =( REPRESENTATION_RELATIONSHIP ('NONE','NONE', #73, #90 ) REPRESENTATION_RELATIONSHIP_WITH_TRANSFORMATION ( #33 )SHAPE_REPRESENTATION_RELATIONSHIP( ) );
#52 = PRODUCT_DEFINITION_SHAPE ( 'NONE', 'NONE',  #93 ) ;
#53 = OBJECT_ROLE ('mandatory',$ ) ;
#54 = DIRECTION ( 'NONE',  ( 1.000000000000000000, 0.000000000000000000, 0.000000000000000000 ) ) ;
#55 =( REPRESENTATION_RELATIONSHIP ('NONE','NONE', #73, #75 ) REPRESENTATION_RELATIONSHIP_WITH_TRANSFORMATION ( #41 )SHAPE_REPRESENTATION_RELATIONSHIP( ) );
#56 = SHAPE_DEFINITION_REPRESENTATION ( #52, #90 ) ;
#57 = APPLICATION_PROTOCOL_DEFINITION ( 'draft international standard', 'automotive_design', 1998, #13 ) ;
#58 = PRODUCT_RELATED_PRODUCT_CATEGORY ( 'part', '', ( #28 ) ) ;
#59 = PRODUCT_CONTEXT ( 'NONE', #13, 'mechanical' ) ;
#60 = DIRECTION ( 'NONE',  ( 0.000000000000000000, 0.000000000000000000, 1.000000000000000000 ) ) ;
#61 = AXIS2_PLACEMENT_3D ( 'NONE', #105, #9, #24 ) ;
#62 = PROPERTY_DEFINITION ('document property','', #14 ) ;
#63 =( LENGTH_UNIT ( ) NAMED_UNIT ( * ) SI_UNIT ( .MILLI., .METRE. ) );
#64 = DOCUMENT_TYPE ( 'geometry' ) ;
#65 = APPLICATION_CONTEXT ( 'automotive_design' ) ;
#66 = IDENTIFICATION_ROLE ( 'external document id and location', $) ;
#67 = CONTEXT_DEPENDENT_SHAPE_REPRESENTATION ( #51, #36 ) ;
#68 = OBJECT_ROLE ('mandatory',$ ) ;
#69 = APPLIED_EXTERNAL_IDENTIFICATION_ASSIGNMENT ( 'Elevator ARm.STEP' , #66, #80,( #100) ) ;
#70 = PRODUCT ( 'spur gear_am_Metric - Spur gear 2M 25T 20PA 2FW ---S25N75H50L8N', 'spur gear_am_Metric - Spur gear 2M 25T 20PA 2FW ---S25N75H50L8N', '', ( #59 ) ) ;
#71 = PRODUCT_DEFINITION_CONTEXT ( 'detailed design', #25, 'design' ) ;
#72 =( NAMED_UNIT ( * ) SI_UNIT ( $, .STERADIAN. ) SOLID_ANGLE_UNIT ( ) );
#73 = SHAPE_REPRESENTATION ( 'Arms', ( #104, #98, #61 ), #22 ) ;
#74 = CARTESIAN_POINT ( 'NONE',  ( 0.000000000000000000, 0.000000000000000000, 0.000000000000000000 ) ) ;
#75 = SHAPE_REPRESENTATION ( 'spur gear_am_Metric - Spur gear 2M 25T 20PA 2FW ---S25N75H50L8N', ( #30 ), #103 ) ;
#76 = DIRECTION ( 'NONE',  ( 0.000000000000000000, -1.396198652153168811E-33, 1.000000000000000000 ) ) ;
#77 = DOCUMENT_TYPE ( 'geometry' ) ;
#78 = PRODUCT_DEFINITION_CONTEXT ( 'detailed design', #35, 'design' ) ;
#79 = DIRECTION ( 'NONE',  ( 1.000000000000000000, 0.000000000000000000, 0.000000000000000000 ) ) ;
#80 = EXTERNAL_SOURCE (IDENTIFIER('') ) ;
#81 = PROPERTY_DEFINITION ('external definition','', #14 ) ;
#82 = DIRECTION ( 'NONE',  ( 1.000000000000000000, 0.000000000000000000, 0.000000000000000000 ) ) ;
#83 =( NAMED_UNIT ( * ) PLANE_ANGLE_UNIT ( ) SI_UNIT ( $, .RADIAN. ) );
#84 = PRODUCT_DEFINITION_FORMATION_WITH_SPECIFIED_SOURCE ( 'Symmetric', '', #28, .NOT_KNOWN. ) ;
#85 = SHAPE_DEFINITION_REPRESENTATION ( #89, #73 ) ;
#86 =( GEOMETRIC_REPRESENTATION_CONTEXT ( 3 ) GLOBAL_UNCERTAINTY_ASSIGNED_CONTEXT ( ( #26 ) ) GLOBAL_UNIT_ASSIGNED_CONTEXT ( ( #31, #10, #29 ) ) REPRESENTATION_CONTEXT ( 'NONE', 'WORKASPACE' ) );
#87 = PROPERTY_DEFINITION_REPRESENTATION ( #102, #90 ) ;
#88 = UNCERTAINTY_MEASURE_WITH_UNIT (LENGTH_MEASURE( 1.000000000000000082E-05 ), #95, 'distance_accuracy_value', 'NONE');
#89 = PRODUCT_DEFINITION_SHAPE ( 'NONE', 'NONE',  #18 ) ;
#90 = SHAPE_REPRESENTATION ( 'Elevator ARm', ( #37 ), #86 ) ;
#91 = PRODUCT_CONTEXT ( 'NONE', #65, 'mechanical' ) ;
#92 = CARTESIAN_POINT ( 'NONE',  ( 0.000000000000000000, 0.000000000000000000, 0.000000000000000000 ) ) ;
#93 = PRODUCT_DEFINITION ( 'General', '', #16, #78 ) ;
#94 = DIRECTION ( 'NONE',  ( 0.000000000000000000, 0.000000000000000000, 1.000000000000000000 ) ) ;
#95 =( LENGTH_UNIT ( ) NAMED_UNIT ( * ) SI_UNIT ( .MILLI., .METRE. ) );
#96 = PRODUCT_CONTEXT ( 'NONE', #15, 'mechanical' ) ;
#97 = APPLICATION_PROTOCOL_DEFINITION ( 'draft international standard', 'automotive_design', 1998, #35 ) ;
#98 = AXIS2_PLACEMENT_3D ( 'NONE', #74, #76, #82 ) ;
#99 = PRODUCT_DEFINITION ( 'General', '', #27, #32 ) ;
#100 = DOCUMENT_FILE ( 'Elevator ARm.STEP' , '', '', #77, '' ,$ ) ;
#101 = IDENTIFICATION_ROLE ( 'external document id and location', $) ;
#102 = PROPERTY_DEFINITION ('document property','', #100 ) ;
#103 =( GEOMETRIC_REPRESENTATION_CONTEXT ( 3 ) GLOBAL_UNCERTAINTY_ASSIGNED_CONTEXT ( ( #6 ) ) GLOBAL_UNIT_ASSIGNED_CONTEXT ( ( #63, #47, #46 ) ) REPRESENTATION_CONTEXT ( 'NONE', 'WORKASPACE' ) );
#104 = AXIS2_PLACEMENT_3D ( 'NONE', #23, #60, #79 ) ;
#105 = CARTESIAN_POINT ( 'NONE',  ( -1.000000000000002665, 0.000000000000000000, 37.49999999999998579 ) ) ;
#106 = ROLE_ASSOCIATION ( #68, #12 ) ;
#107 = NEXT_ASSEMBLY_USAGE_OCCURRENCE ( 'NAUO1', ' ', ' ', #18, #93, $ ) ;
#108 = NEXT_ASSEMBLY_USAGE_OCCURRENCE ( 'NAUO2', ' ', ' ', #18, #99, $ ) ;
ENDSEC;
END-ISO-10303-21;
