ISO-10303-21;
HEADER;
FILE_DESCRIPTION (( 'STEP AP214' ),
    '1' );
FILE_NAME ('Arms2.STEP',
    '2026-02-05T02:31:44',
    ( '' ),
    ( '' ),
    'SwSTEP 2.0',
    'SolidWorks 2025',
    '' );
FILE_SCHEMA (( 'AUTOMOTIVE_DESIGN' ));
ENDSEC;

DATA;
#1 =( GEOMETRIC_REPRESENTATION_CONTEXT ( 3 ) GLOBAL_UNCERTAINTY_ASSIGNED_CONTEXT ( ( #85 ) ) GLOBAL_UNIT_ASSIGNED_CONTEXT ( ( #24, #56, #54 ) ) REPRESENTATION_CONTEXT ( 'NONE', 'WORKASPACE' ) );
#2 = UNCERTAINTY_MEASURE_WITH_UNIT (LENGTH_MEASURE( 1.000000000000000082E-05 ), #16, 'distance_accuracy_value', 'NONE');
#3 = PROPERTY_DEFINITION ('external definition','', #18 ) ;
#4 =( GEOMETRIC_REPRESENTATION_CONTEXT ( 3 ) GLOBAL_UNCERTAINTY_ASSIGNED_CONTEXT ( ( #2 ) ) GLOBAL_UNIT_ASSIGNED_CONTEXT ( ( #16, #51, #37 ) ) REPRESENTATION_CONTEXT ( 'NONE', 'WORKASPACE' ) );
#5 = AXIS2_PLACEMENT_3D ( 'NONE', #36, #12, #72 ) ;
#6 = APPLICATION_PROTOCOL_DEFINITION ( 'draft international standard', 'automotive_design', 1998, #97 ) ;
#7 = PRODUCT_RELATED_PRODUCT_CATEGORY ( 'part', '', ( #101 ) ) ;
#8 = PROPERTY_DEFINITION_REPRESENTATION ( #52, #74 ) ;
#9 = APPLIED_DOCUMENT_REFERENCE ( #18,'',( #42) ) ;
#10 = APPLICATION_CONTEXT ( 'automotive_design' ) ;
#11 = PRODUCT_RELATED_PRODUCT_CATEGORY ( 'part', '', ( #60 ) ) ;
#12 = DIRECTION ( 'NONE',  ( 0.000000000000000000, 0.5358267949790048723, 0.8443279255020099683 ) ) ;
#13 = PRODUCT_DEFINITION_CONTEXT ( 'detailed design', #97, 'design' ) ;
#14 = APPLICATION_PROTOCOL_DEFINITION ( 'draft international standard', 'automotive_design', 1998, #92 ) ;
#15 = PRODUCT_DEFINITION ( 'General', '', #63, #82 ) ;
#16 =( LENGTH_UNIT ( ) NAMED_UNIT ( * ) SI_UNIT ( .MILLI., .METRE. ) );
#17 = DIRECTION ( 'NONE',  ( 1.000000000000000000, 0.000000000000000000, 0.000000000000000000 ) ) ;
#18 = DOCUMENT_FILE ( 'Elevator ARm.STEP' , '', '', #83, '' ,$ ) ;
#19 = SHAPE_DEFINITION_REPRESENTATION ( #29, #46 ) ;
#20 = CONTEXT_DEPENDENT_SHAPE_REPRESENTATION ( #81, #70 ) ;
#21 = PROPERTY_DEFINITION ('external definition','', #26 ) ;
#22 = AXIS2_PLACEMENT_3D ( 'NONE', #35, #53, #103 ) ;
#23 = PRODUCT_DEFINITION_SHAPE ( 'NONE', 'NONE',  #100 ) ;
#24 =( LENGTH_UNIT ( ) NAMED_UNIT ( * ) SI_UNIT ( .MILLI., .METRE. ) );
#25 = PRODUCT_DEFINITION_FORMATION_WITH_SPECIFIED_SOURCE ( 'Symmetric', '', #60, .NOT_KNOWN. ) ;
#26 = DOCUMENT_FILE ( 'spur gear_am_Metric - Spur gear 2M 25T 20PA 2FW ---S25N75H50L8N.STEP' , '', '', #49, '' ,$ ) ;
#27 = OBJECT_ROLE ('mandatory',$ ) ;
#28 = AXIS2_PLACEMENT_3D ( 'NONE', #79, #76, #65 ) ;
#29 = PRODUCT_DEFINITION_SHAPE ( 'NONE', 'NONE',  #42 ) ;
#30 = SHAPE_DEFINITION_REPRESENTATION ( #106, #89 ) ;
#31 = APPLICATION_CONTEXT ( 'automotive_design' ) ;
#32 = ROLE_ASSOCIATION ( #68, #59 ) ;
#33 =( GEOMETRIC_REPRESENTATION_CONTEXT ( 3 ) GLOBAL_UNCERTAINTY_ASSIGNED_CONTEXT ( ( #58 ) ) GLOBAL_UNIT_ASSIGNED_CONTEXT ( ( #75, #87, #39 ) ) REPRESENTATION_CONTEXT ( 'NONE', 'WORKASPACE' ) );
#34 = PRODUCT_DEFINITION_SHAPE ( 'NONE', 'NONE',  #108 ) ;
#35 = CARTESIAN_POINT ( 'NONE',  ( 0.000000000000000000, 0.000000000000000000, 0.000000000000000000 ) ) ;
#36 = CARTESIAN_POINT ( 'NONE',  ( -1.000000000000004885, -8.495942275113625300E-14, 37.50000000000000000 ) ) ;
#37 =( NAMED_UNIT ( * ) SI_UNIT ( $, .STERADIAN. ) SOLID_ANGLE_UNIT ( ) );
#38 = APPLICATION_CONTEXT ( 'automotive_design' ) ;
#39 =( NAMED_UNIT ( * ) SI_UNIT ( $, .STERADIAN. ) SOLID_ANGLE_UNIT ( ) );
#40 = AXIS2_PLACEMENT_3D ( 'NONE', #77, #45, #17 ) ;
#41 = PRODUCT_CONTEXT ( 'NONE', #38, 'mechanical' ) ;
#42 = PRODUCT_DEFINITION ( 'General', '', #25, #102 ) ;
#43 = IDENTIFICATION_ROLE ( 'external document id and location', $) ;
#44 = PROPERTY_DEFINITION ('document property','', #18 ) ;
#45 = DIRECTION ( 'NONE',  ( 0.000000000000000000, 0.000000000000000000, 1.000000000000000000 ) ) ;
#46 = SHAPE_REPRESENTATION ( 'Elevator ARm', ( #28 ), #33 ) ;
#47 = SHAPE_DEFINITION_REPRESENTATION ( #23, #74 ) ;
#48 = CONTEXT_DEPENDENT_SHAPE_REPRESENTATION ( #55, #34 ) ;
#49 = DOCUMENT_TYPE ( 'geometry' ) ;
#50 = APPLICATION_PROTOCOL_DEFINITION ( 'draft international standard', 'automotive_design', 1998, #10 ) ;
#51 =( NAMED_UNIT ( * ) PLANE_ANGLE_UNIT ( ) SI_UNIT ( $, .RADIAN. ) );
#52 = PROPERTY_DEFINITION ('document property','', #26 ) ;
#53 = DIRECTION ( 'NONE',  ( 0.000000000000000000, 0.000000000000000000, 1.000000000000000000 ) ) ;
#54 =( NAMED_UNIT ( * ) SI_UNIT ( $, .STERADIAN. ) SOLID_ANGLE_UNIT ( ) );
#55 =( REPRESENTATION_RELATIONSHIP ('NONE','NONE', #89, #46 ) REPRESENTATION_RELATIONSHIP_WITH_TRANSFORMATION ( #66 )SHAPE_REPRESENTATION_RELATIONSHIP( ) );
#56 =( NAMED_UNIT ( * ) PLANE_ANGLE_UNIT ( ) SI_UNIT ( $, .RADIAN. ) );
#57 = ROLE_ASSOCIATION ( #27, #9 ) ;
#58 = UNCERTAINTY_MEASURE_WITH_UNIT (LENGTH_MEASURE( 1.000000000000000082E-05 ), #75, 'distance_accuracy_value', 'NONE');
#60 = PRODUCT ( 'Elevator ARm', 'Elevator ARm', '', ( #41 ) ) ;
#59 = APPLIED_DOCUMENT_REFERENCE ( #26,'',( #100) ) ;
#61 = PROPERTY_DEFINITION_REPRESENTATION ( #3, #46 ) ;
#62 = IDENTIFICATION_ROLE ( 'external document id and location', $) ;
#63 = PRODUCT_DEFINITION_FORMATION_WITH_SPECIFIED_SOURCE ( 'Symmetric', '', #91, .NOT_KNOWN. ) ;
#64 = AXIS2_PLACEMENT_3D ( 'NONE', #71, #88, #104 ) ;
#65 = DIRECTION ( 'NONE',  ( 1.000000000000000000, 0.000000000000000000, 0.000000000000000000 ) ) ;
#66 = ITEM_DEFINED_TRANSFORMATION ( 'NONE', 'NONE', #64,  #28 ) ;
#67 = PROPERTY_DEFINITION_REPRESENTATION ( #21, #74 ) ;
#68 = OBJECT_ROLE ('mandatory',$ ) ;
#69 = PRODUCT_DEFINITION_FORMATION_WITH_SPECIFIED_SOURCE ( 'Symmetric', '', #101, .NOT_KNOWN. ) ;
#70 = PRODUCT_DEFINITION_SHAPE ( 'NONE', 'NONE',  #107 ) ;
#71 = CARTESIAN_POINT ( 'NONE',  ( 0.000000000000000000, 0.000000000000000000, 0.000000000000000000 ) ) ;
#72 = DIRECTION ( 'NONE',  ( 1.000000000000000000, 0.000000000000000000, 0.000000000000000000 ) ) ;
#73 = ITEM_DEFINED_TRANSFORMATION ( 'NONE', 'NONE', #5,  #40 ) ;
#74 = SHAPE_REPRESENTATION ( 'spur gear_am_Metric - Spur gear 2M 25T 20PA 2FW ---S25N75H50L8N', ( #40 ), #4 ) ;
#75 =( LENGTH_UNIT ( ) NAMED_UNIT ( * ) SI_UNIT ( .MILLI., .METRE. ) );
#76 = DIRECTION ( 'NONE',  ( 0.000000000000000000, 0.000000000000000000, 1.000000000000000000 ) ) ;
#77 = CARTESIAN_POINT ( 'NONE',  ( 0.000000000000000000, 0.000000000000000000, 0.000000000000000000 ) ) ;
#78 = EXTERNAL_SOURCE (IDENTIFIER('') ) ;
#79 = CARTESIAN_POINT ( 'NONE',  ( 0.000000000000000000, 0.000000000000000000, 0.000000000000000000 ) ) ;
#80 = APPLIED_EXTERNAL_IDENTIFICATION_ASSIGNMENT ( 'spur gear_am_Metric - Spur gear 2M 25T 20PA 2FW ---S25N75H50L8N.STEP' , #43, #78,( #26) ) ;
#81 =( REPRESENTATION_RELATIONSHIP ('NONE','NONE', #89, #74 ) REPRESENTATION_RELATIONSHIP_WITH_TRANSFORMATION ( #73 )SHAPE_REPRESENTATION_RELATIONSHIP( ) );
#82 = PRODUCT_DEFINITION_CONTEXT ( 'detailed design', #92, 'design' ) ;
#83 = DOCUMENT_TYPE ( 'geometry' ) ;
#84 = PRODUCT_CONTEXT ( 'NONE', #98, 'mechanical' ) ;
#85 = UNCERTAINTY_MEASURE_WITH_UNIT (LENGTH_MEASURE( 1.000000000000000082E-05 ), #24, 'distance_accuracy_value', 'NONE');
#86 = PRODUCT_RELATED_PRODUCT_CATEGORY ( 'part', '', ( #91 ) ) ;
#87 =( NAMED_UNIT ( * ) PLANE_ANGLE_UNIT ( ) SI_UNIT ( $, .RADIAN. ) );
#88 = DIRECTION ( 'NONE',  ( 0.000000000000000000, 0.000000000000000000, 1.000000000000000000 ) ) ;
#89 = SHAPE_REPRESENTATION ( 'Arms2', ( #22, #5, #64 ), #1 ) ;
#90 = APPLICATION_PROTOCOL_DEFINITION ( 'draft international standard', 'automotive_design', 1998, #98 ) ;
#91 = PRODUCT ( 'Arms2', 'Arms2', '', ( #95 ) ) ;
#92 = APPLICATION_CONTEXT ( 'automotive_design' ) ;
#93 = APPLICATION_PROTOCOL_DEFINITION ( 'draft international standard', 'automotive_design', 1998, #31 ) ;
#94 = APPLIED_EXTERNAL_IDENTIFICATION_ASSIGNMENT ( 'Elevator ARm.STEP' , #62, #105,( #18) ) ;
#95 = PRODUCT_CONTEXT ( 'NONE', #31, 'mechanical' ) ;
#96 = APPLICATION_PROTOCOL_DEFINITION ( 'draft international standard', 'automotive_design', 1998, #38 ) ;
#97 = APPLICATION_CONTEXT ( 'automotive_design' ) ;
#98 = APPLICATION_CONTEXT ( 'automotive_design' ) ;
#99 = PROPERTY_DEFINITION_REPRESENTATION ( #44, #46 ) ;
#100 = PRODUCT_DEFINITION ( 'General', '', #69, #13 ) ;
#101 = PRODUCT ( 'spur gear_am_Metric - Spur gear 2M 25T 20PA 2FW ---S25N75H50L8N', 'spur gear_am_Metric - Spur gear 2M 25T 20PA 2FW ---S25N75H50L8N', '', ( #84 ) ) ;
#102 = PRODUCT_DEFINITION_CONTEXT ( 'detailed design', #10, 'design' ) ;
#103 = DIRECTION ( 'NONE',  ( 1.000000000000000000, 0.000000000000000000, 0.000000000000000000 ) ) ;
#104 = DIRECTION ( 'NONE',  ( 1.000000000000000000, 0.000000000000000000, 0.000000000000000000 ) ) ;
#105 = EXTERNAL_SOURCE (IDENTIFIER('') ) ;
#106 = PRODUCT_DEFINITION_SHAPE ( 'NONE', 'NONE',  #15 ) ;
#107 = NEXT_ASSEMBLY_USAGE_OCCURRENCE ( 'NAUO1', ' ', ' ', #15, #100, $ ) ;
#108 = NEXT_ASSEMBLY_USAGE_OCCURRENCE ( 'NAUO2', ' ', ' ', #15, #42, $ ) ;
ENDSEC;
END-ISO-10303-21;
