ISO-10303-21;
HEADER;
FILE_DESCRIPTION (( 'STEP AP214' ),
    '1' );
FILE_NAME ('bracket axles.STEP',
    '2026-02-05T02:30:36',
    ( '' ),
    ( '' ),
    'SwSTEP 2.0',
    'SolidWorks 2025',
    '' );
FILE_SCHEMA (( 'AUTOMOTIVE_DESIGN' ));
ENDSEC;

DATA;
#1 = DIRECTION ( 'NONE',  ( -0.000000000000000000, 9.061988307341530334E-17, -1.000000000000000000 ) ) ;
#2 = DIRECTION ( 'NONE',  ( 0.000000000000000000, 1.000000000000000000, 6.994852725712933940E-17 ) ) ;
#3 = CIRCLE ( 'NONE', #142, 4.000000000000003553 ) ;
#4 = LINE ( 'NONE', #38, #178 ) ;
#5 = DIRECTION ( 'NONE',  ( 0.000000000000000000, 1.000000000000000000, 9.061988307341530334E-17 ) ) ;
#6 = CARTESIAN_POINT ( 'NONE',  ( 4.898587196589416773E-16, -4.000000000000003553, 3.499999999999996003 ) ) ;
#7 = AXIS2_PLACEMENT_3D ( 'NONE', #67, #65, #163 ) ;
#8 = VERTEX_POINT ( 'NONE', #157 ) ;
#9 = CIRCLE ( 'NONE', #100, 4.000000000000003553 ) ;
#10 = DIRECTION ( 'NONE',  ( -0.000000000000000000, 9.061988307341530334E-17, -1.000000000000000000 ) ) ;
#11 = ORIENTED_EDGE ( 'NONE', *, *, #125, .F. ) ;
#12 = PLANE ( 'NONE',  #144 ) ;
#13 = DIRECTION ( 'NONE',  ( -0.000000000000000000, 9.061988307341530334E-17, -1.000000000000000000 ) ) ;
#14 = CYLINDRICAL_SURFACE ( 'NONE', #120, 4.000000000000001776 ) ;
#15 = EDGE_CURVE ( 'NONE', #121, #109, #3, .T. ) ;
#16 = DIRECTION ( 'NONE',  ( -0.000000000000000000, 9.061988307341530334E-17, -1.000000000000000000 ) ) ;
#17 = VECTOR ( 'NONE', #145, 1000.000000000000000 ) ;
#18 = CARTESIAN_POINT ( 'NONE',  ( 0.000000000000000000, -3.171695907569538082E-16, 3.500000000000003109 ) ) ;
#19 = CYLINDRICAL_SURFACE ( 'NONE', #137, 4.000000000000001776 ) ;
#20 = DIRECTION ( 'NONE',  ( -0.000000000000000000, 9.061988307341530334E-17, -1.000000000000000000 ) ) ;
#21 = VERTEX_POINT ( 'NONE', #32 ) ;
#22 = AXIS2_PLACEMENT_3D ( 'NONE', #184, #87, #5 ) ;
#23 = ORIENTED_EDGE ( 'NONE', *, *, #141, .F. ) ;
#24 = APPLICATION_PROTOCOL_DEFINITION ( 'draft international standard', 'automotive_design', 1998, #156 ) ;
#25 = ORIENTED_EDGE ( 'NONE', *, *, #54, .T. ) ;
#26 = AXIS2_PLACEMENT_3D ( 'NONE', #102, #197, #2 ) ;
#27 =( LENGTH_UNIT ( ) NAMED_UNIT ( * ) SI_UNIT ( .MILLI., .METRE. ) );
#28 = ADVANCED_FACE ( 'NONE', ( #107, #172 ), #12, .F. ) ;
#29 =( NAMED_UNIT ( * ) PLANE_ANGLE_UNIT ( ) SI_UNIT ( $, .RADIAN. ) );
#30 = CARTESIAN_POINT ( 'NONE',  ( 4.898587196589415787E-16, -4.000000000000001776, -3.624795322936613613E-16 ) ) ;
#31 = CIRCLE ( 'NONE', #161, 6.199999999999998401 ) ;
#32 = CARTESIAN_POINT ( 'NONE',  ( 7.592810154713587863E-16, -6.199999999999998401, 3.500000000000002665 ) ) ;
#33 = MANIFOLD_SOLID_BREP ( 'Revolve1', #82 ) ;
#34 = EDGE_CURVE ( 'NONE', #8, #154, #128, .T. ) ;
#35 = CARTESIAN_POINT ( 'NONE',  ( 0.000000000000000000, -3.171695907569532659E-16, 3.499999999999996447 ) ) ;
#36 = DIRECTION ( 'NONE',  ( 0.000000000000000000, 1.000000000000000000, 0.000000000000000000 ) ) ;
#37 = PRODUCT ( 'bracket axles', 'bracket axles', '', ( #93 ) ) ;
#38 = CARTESIAN_POINT ( 'NONE',  ( 0.000000000000000000, 4.000000000000001776, 3.624795322936613613E-16 ) ) ;
#39 = AXIS2_PLACEMENT_3D ( 'NONE', #174, #96, #124 ) ;
#40 = DIRECTION ( 'NONE',  ( -0.000000000000000000, 9.061988307341530334E-17, -1.000000000000000000 ) ) ;
#41 = AXIS2_PLACEMENT_3D ( 'NONE', #146, #76, #61 ) ;
#42 = ADVANCED_FACE ( 'NONE', ( #108 ), #192, .F. ) ;
#43 = EDGE_LOOP ( 'NONE', ( #135, #139 ) ) ;
#44 = DIRECTION ( 'NONE',  ( 0.000000000000000000, 1.000000000000000000, 9.061988307341530334E-17 ) ) ;
#45 = PRESENTATION_LAYER_ASSIGNMENT (  '', '', ( #66 ) ) ;
#46 = EDGE_LOOP ( 'NONE', ( #188, #85 ) ) ;
#47 = DIRECTION ( 'NONE',  ( 0.000000000000000000, 1.000000000000000000, 9.061988307341530334E-17 ) ) ;
#48 = ORIENTED_EDGE ( 'NONE', *, *, #141, .T. ) ;
#49 = ADVANCED_FACE ( 'NONE', ( #138 ), #126, .T. ) ;
#50 = FACE_OUTER_BOUND ( 'NONE', #158, .T. ) ;
#51 = CIRCLE ( 'NONE', #26, 6.199999999999998401 ) ;
#52 = CARTESIAN_POINT ( 'NONE',  ( 0.000000000000000000, -3.035766082959412021E-15, 33.49999999999999289 ) ) ;
#53 = DIRECTION ( 'NONE',  ( 0.000000000000000000, 1.000000000000000000, 9.061988307341530334E-17 ) ) ;
#54 = EDGE_CURVE ( 'NONE', #80, #121, #176, .T. ) ;
#55 = MECHANICAL_DESIGN_GEOMETRIC_PRESENTATION_REPRESENTATION (  '', ( #66 ), #72 ) ;
#56 = ADVANCED_BREP_SHAPE_REPRESENTATION ( 'bracket axles', ( #33, #41 ), #183 ) ;
#57 = DIRECTION ( 'NONE',  ( -0.000000000000000000, 9.061988307341530334E-17, -1.000000000000000000 ) ) ;
#58 = ORIENTED_EDGE ( 'NONE', *, *, #182, .T. ) ;
#59 =( NAMED_UNIT ( * ) PLANE_ANGLE_UNIT ( ) SI_UNIT ( $, .RADIAN. ) );
#60 = DIRECTION ( 'NONE',  ( -0.000000000000000000, 9.061988307341530334E-17, -1.000000000000000000 ) ) ;
#61 = DIRECTION ( 'NONE',  ( 1.000000000000000000, 0.000000000000000000, 0.000000000000000000 ) ) ;
#62 = FILL_AREA_STYLE_COLOUR ( '', #123 ) ;
#63 = FILL_AREA_STYLE ('',( #62 ) ) ;
#64 = DIRECTION ( 'NONE',  ( 0.000000000000000000, 1.000000000000000000, 9.061988307341530334E-17 ) ) ;
#65 = DIRECTION ( 'NONE',  ( -0.000000000000000000, 9.061988307341530334E-17, -1.000000000000000000 ) ) ;
#66 = STYLED_ITEM ( 'NONE', ( #98 ), #33 ) ;
#67 = CARTESIAN_POINT ( 'NONE',  ( 0.000000000000000000, -3.035766082959412021E-15, 33.49999999999999289 ) ) ;
#68 = AXIS2_PLACEMENT_3D ( 'NONE', #196, #117, #53 ) ;
#69 = FACE_OUTER_BOUND ( 'NONE', #194, .T. ) ;
#70 =( LENGTH_UNIT ( ) NAMED_UNIT ( * ) SI_UNIT ( .MILLI., .METRE. ) );
#71 = CARTESIAN_POINT ( 'NONE',  ( 4.898587196589416773E-16, -4.000000000000003553, 33.49999999999999289 ) ) ;
#72 =( GEOMETRIC_REPRESENTATION_CONTEXT ( 3 ) GLOBAL_UNCERTAINTY_ASSIGNED_CONTEXT ( ( #77 ) ) GLOBAL_UNIT_ASSIGNED_CONTEXT ( ( #27, #29, #122 ) ) REPRESENTATION_CONTEXT ( 'NONE', 'WORKASPACE' ) );
#73 = ORIENTED_EDGE ( 'NONE', *, *, #189, .T. ) ;
#74 = EDGE_CURVE ( 'NONE', #190, #80, #191, .T. ) ;
#75 = EDGE_LOOP ( 'NONE', ( #134, #149, #48, #186 ) ) ;
#76 = DIRECTION ( 'NONE',  ( 0.000000000000000000, 0.000000000000000000, 1.000000000000000000 ) ) ;
#77 = UNCERTAINTY_MEASURE_WITH_UNIT (LENGTH_MEASURE( 1.000000000000000082E-05 ), #27, 'distance_accuracy_value', 'NONE');
#78 = EDGE_LOOP ( 'NONE', ( #175, #136 ) ) ;
#79 = ADVANCED_FACE ( 'NONE', ( #132 ), #14, .T. ) ;
#80 = VERTEX_POINT ( 'NONE', #71 ) ;
#81 = CARTESIAN_POINT ( 'NONE',  ( 0.000000000000000000, -5.091417189108465976E-32, 5.618432750551748807E-16 ) ) ;
#82 = CLOSED_SHELL ( 'NONE', ( #110, #113, #202, #42, #79, #28, #49 ) ) ;
#83 = SURFACE_SIDE_STYLE ('',( #201 ) ) ;
#84 = PRODUCT_DEFINITION_CONTEXT ( 'detailed design', #177, 'design' ) ;
#85 = ORIENTED_EDGE ( 'NONE', *, *, #182, .F. ) ;
#86 = DIRECTION ( 'NONE',  ( 0.000000000000000000, 1.000000000000000000, 9.061988307341530334E-17 ) ) ;
#87 = DIRECTION ( 'NONE',  ( -0.000000000000000000, 9.061988307341530334E-17, -1.000000000000000000 ) ) ;
#88 = DIRECTION ( 'NONE',  ( -0.000000000000000000, 9.061988307341530334E-17, -1.000000000000000000 ) ) ;
#89 = ORIENTED_EDGE ( 'NONE', *, *, #15, .F. ) ;
#90 = PRODUCT_RELATED_PRODUCT_CATEGORY ( 'part', '', ( #37 ) ) ;
#91 = AXIS2_PLACEMENT_3D ( 'NONE', #81, #10, #44 ) ;
#92 = ORIENTED_EDGE ( 'NONE', *, *, #166, .F. ) ;
#93 = PRODUCT_CONTEXT ( 'NONE', #156, 'mechanical' ) ;
#94 = EDGE_LOOP ( 'NONE', ( #169, #58, #160, #89 ) ) ;
#95 = VECTOR ( 'NONE', #88, 1000.000000000000000 ) ;
#96 = DIRECTION ( 'NONE',  ( -0.000000000000000000, 9.061988307341530334E-17, -1.000000000000000000 ) ) ;
#97 = ORIENTED_EDGE ( 'NONE', *, *, #34, .T. ) ;
#98 = PRESENTATION_STYLE_ASSIGNMENT (( #203 ) ) ;
#99 = AXIS2_PLACEMENT_3D ( 'NONE', #193, #13, #47 ) ;
#100 = AXIS2_PLACEMENT_3D ( 'NONE', #35, #185, #164 ) ;
#101 = CARTESIAN_POINT ( 'NONE',  ( 0.000000000000000000, 6.199999999999998401, 3.500000000000003553 ) ) ;
#102 = CARTESIAN_POINT ( 'NONE',  ( 0.000000000000000000, -3.171695907569538082E-16, 3.500000000000003109 ) ) ;
#103 = LINE ( 'NONE', #168, #17 ) ;
#104 = CARTESIAN_POINT ( 'NONE',  ( 0.000000000000000000, 0.000000000000000000, 0.000000000000000000 ) ) ;
#105 = FACE_OUTER_BOUND ( 'NONE', #200, .T. ) ;
#106 = SHAPE_DEFINITION_REPRESENTATION ( #198, #56 ) ;
#107 = FACE_OUTER_BOUND ( 'NONE', #43, .T. ) ;
#108 = FACE_OUTER_BOUND ( 'NONE', #46, .T. ) ;
#109 = VERTEX_POINT ( 'NONE', #143 ) ;
#110 = ADVANCED_FACE ( 'NONE', ( #50 ), #195, .T. ) ;
#111 = CARTESIAN_POINT ( 'NONE',  ( 0.000000000000000000, -4.000000000000003553, 3.499999999999999556 ) ) ;
#112 = ORIENTED_EDGE ( 'NONE', *, *, #74, .T. ) ;
#113 = ADVANCED_FACE ( 'NONE', ( #105 ), #19, .T. ) ;
#114 = DIRECTION ( 'NONE',  ( 0.000000000000000000, 1.000000000000000000, 9.061988307341530334E-17 ) ) ;
#115 = DIRECTION ( 'NONE',  ( -0.000000000000000000, 9.061988307341530334E-17, -1.000000000000000000 ) ) ;
#116 = CARTESIAN_POINT ( 'NONE',  ( 0.000000000000000000, -6.200000000000000178, -2.809216375275874403E-16 ) ) ;
#117 = DIRECTION ( 'NONE',  ( -0.000000000000000000, 9.061988307341530334E-17, -1.000000000000000000 ) ) ;
#118 = DIRECTION ( 'NONE',  ( -0.000000000000000000, 9.061988307341530334E-17, -1.000000000000000000 ) ) ;
#119 = EDGE_CURVE ( 'NONE', #21, #8, #147, .T. ) ;
#120 = AXIS2_PLACEMENT_3D ( 'NONE', #130, #118, #86 ) ;
#121 = VERTEX_POINT ( 'NONE', #6 ) ;
#122 =( NAMED_UNIT ( * ) SI_UNIT ( $, .STERADIAN. ) SOLID_ANGLE_UNIT ( ) );
#123 = COLOUR_RGB ( '',0.7921568627450980005, 0.8196078431372548767, 0.9333333333333333481 ) ;
#124 = DIRECTION ( 'NONE',  ( 0.000000000000000000, 1.000000000000000000, 9.061988307341530334E-17 ) ) ;
#125 = EDGE_CURVE ( 'NONE', #109, #121, #9, .T. ) ;
#126 = CYLINDRICAL_SURFACE ( 'NONE', #99, 6.199999999999999289 ) ;
#127 = CARTESIAN_POINT ( 'NONE',  ( 0.000000000000000000, 3.999999999999998224, 33.49999999999999289 ) ) ;
#128 = CIRCLE ( 'NONE', #91, 6.200000000000000178 ) ;
#129 = AXIS2_PLACEMENT_3D ( 'NONE', #116, #181, #165 ) ;
#130 = CARTESIAN_POINT ( 'NONE',  ( 0.000000000000000000, 0.000000000000000000, 0.000000000000000000 ) ) ;
#131 = PLANE ( 'NONE',  #129 ) ;
#132 = FACE_OUTER_BOUND ( 'NONE', #94, .T. ) ;
#133 = CIRCLE ( 'NONE', #68, 6.200000000000000178 ) ;
#134 = ORIENTED_EDGE ( 'NONE', *, *, #119, .F. ) ;
#135 = ORIENTED_EDGE ( 'NONE', *, *, #189, .F. ) ;
#136 = ORIENTED_EDGE ( 'NONE', *, *, #15, .T. ) ;
#137 = AXIS2_PLACEMENT_3D ( 'NONE', #104, #40, #114 ) ;
#138 = FACE_OUTER_BOUND ( 'NONE', #75, .T. ) ;
#139 = ORIENTED_EDGE ( 'NONE', *, *, #171, .F. ) ;
#140 = DIRECTION ( 'NONE',  ( 0.000000000000000000, 1.000000000000000000, 6.994852725712933940E-17 ) ) ;
#141 = EDGE_CURVE ( 'NONE', #152, #154, #103, .T. ) ;
#142 = AXIS2_PLACEMENT_3D ( 'NONE', #179, #60, #205 ) ;
#143 = CARTESIAN_POINT ( 'NONE',  ( 0.000000000000000000, 4.000000000000003553, 3.499999999999996891 ) ) ;
#144 = AXIS2_PLACEMENT_3D ( 'NONE', #111, #1, #64 ) ;
#145 = DIRECTION ( 'NONE',  ( -0.000000000000000000, 9.061988307341530334E-17, -1.000000000000000000 ) ) ;
#146 = CARTESIAN_POINT ( 'NONE',  ( 0.000000000000000000, 0.000000000000000000, 0.000000000000000000 ) ) ;
#147 = LINE ( 'NONE', #180, #95 ) ;
#148 = ORIENTED_EDGE ( 'NONE', *, *, #162, .F. ) ;
#149 = ORIENTED_EDGE ( 'NONE', *, *, #171, .T. ) ;
#150 = ORIENTED_EDGE ( 'NONE', *, *, #119, .T. ) ;
#151 =( NAMED_UNIT ( * ) SI_UNIT ( $, .STERADIAN. ) SOLID_ANGLE_UNIT ( ) );
#152 = VERTEX_POINT ( 'NONE', #101 ) ;
#153 = VECTOR ( 'NONE', #57, 1000.000000000000000 ) ;
#154 = VERTEX_POINT ( 'NONE', #167 ) ;
#155 = ORIENTED_EDGE ( 'NONE', *, *, #166, .T. ) ;
#156 = APPLICATION_CONTEXT ( 'automotive_design' ) ;
#157 = CARTESIAN_POINT ( 'NONE',  ( 7.592810154713590821E-16, -6.200000000000001066, 9.629649721936179265E-32 ) ) ;
#158 = EDGE_LOOP ( 'NONE', ( #73, #150, #92, #23 ) ) ;
#159 = UNCERTAINTY_MEASURE_WITH_UNIT (LENGTH_MEASURE( 1.000000000000000082E-05 ), #70, 'distance_accuracy_value', 'NONE');
#160 = ORIENTED_EDGE ( 'NONE', *, *, #162, .T. ) ;
#161 = AXIS2_PLACEMENT_3D ( 'NONE', #18, #20, #140 ) ;
#162 = EDGE_CURVE ( 'NONE', #190, #109, #4, .T. ) ;
#163 = DIRECTION ( 'NONE',  ( 0.000000000000000000, 1.000000000000000000, 0.000000000000000000 ) ) ;
#164 = DIRECTION ( 'NONE',  ( 0.000000000000000000, 1.000000000000000000, 1.084202172485503448E-16 ) ) ;
#165 = DIRECTION ( 'NONE',  ( 0.000000000000000000, -1.000000000000000000, -9.061988307341530334E-17 ) ) ;
#166 = EDGE_CURVE ( 'NONE', #154, #8, #133, .T. ) ;
#167 = CARTESIAN_POINT ( 'NONE',  ( 0.000000000000000000, 6.200000000000000178, 1.123686550110349761E-15 ) ) ;
#168 = CARTESIAN_POINT ( 'NONE',  ( 0.000000000000000000, 6.199999999999999289, 5.618432750551747821E-16 ) ) ;
#169 = ORIENTED_EDGE ( 'NONE', *, *, #54, .F. ) ;
#170 = APPLICATION_PROTOCOL_DEFINITION ( 'draft international standard', 'automotive_design', 1998, #177 ) ;
#171 = EDGE_CURVE ( 'NONE', #21, #152, #31, .T. ) ;
#172 = FACE_BOUND ( 'NONE', #78, .T. ) ;
#173 = CIRCLE ( 'NONE', #204, 4.000000000000000888 ) ;
#174 = CARTESIAN_POINT ( 'NONE',  ( 0.000000000000000000, -3.035766082959412415E-15, 33.49999999999999289 ) ) ;
#175 = ORIENTED_EDGE ( 'NONE', *, *, #125, .T. ) ;
#176 = LINE ( 'NONE', #30, #153 ) ;
#177 = APPLICATION_CONTEXT ( 'automotive_design' ) ;
#178 = VECTOR ( 'NONE', #16, 1000.000000000000000 ) ;
#179 = CARTESIAN_POINT ( 'NONE',  ( 0.000000000000000000, -3.171695907569532659E-16, 3.499999999999996447 ) ) ;
#180 = CARTESIAN_POINT ( 'NONE',  ( 7.592810154713588849E-16, -6.199999999999999289, -5.618432750551747821E-16 ) ) ;
#181 = DIRECTION ( 'NONE',  ( 0.000000000000000000, -9.061988307341530334E-17, 1.000000000000000000 ) ) ;
#182 = EDGE_CURVE ( 'NONE', #80, #190, #173, .T. ) ;
#183 =( GEOMETRIC_REPRESENTATION_CONTEXT ( 3 ) GLOBAL_UNCERTAINTY_ASSIGNED_CONTEXT ( ( #159 ) ) GLOBAL_UNIT_ASSIGNED_CONTEXT ( ( #70, #59, #151 ) ) REPRESENTATION_CONTEXT ( 'NONE', 'WORKASPACE' ) );
#184 = CARTESIAN_POINT ( 'NONE',  ( 0.000000000000000000, 0.000000000000000000, 0.000000000000000000 ) ) ;
#185 = DIRECTION ( 'NONE',  ( -0.000000000000000000, 9.061988307341530334E-17, -1.000000000000000000 ) ) ;
#186 = ORIENTED_EDGE ( 'NONE', *, *, #34, .F. ) ;
#187 = PRODUCT_DEFINITION_FORMATION_WITH_SPECIFIED_SOURCE ( 'Symmetric', '', #37, .NOT_KNOWN. ) ;
#188 = ORIENTED_EDGE ( 'NONE', *, *, #74, .F. ) ;
#189 = EDGE_CURVE ( 'NONE', #152, #21, #51, .T. ) ;
#190 = VERTEX_POINT ( 'NONE', #127 ) ;
#191 = CIRCLE ( 'NONE', #7, 4.000000000000000888 ) ;
#192 = PLANE ( 'NONE',  #39 ) ;
#193 = CARTESIAN_POINT ( 'NONE',  ( 0.000000000000000000, 0.000000000000000000, 0.000000000000000000 ) ) ;
#194 = EDGE_LOOP ( 'NONE', ( #155, #97 ) ) ;
#195 = CYLINDRICAL_SURFACE ( 'NONE', #22, 6.199999999999999289 ) ;
#196 = CARTESIAN_POINT ( 'NONE',  ( 0.000000000000000000, -5.091417189108465976E-32, 5.618432750551748807E-16 ) ) ;
#197 = DIRECTION ( 'NONE',  ( -0.000000000000000000, 9.061988307341530334E-17, -1.000000000000000000 ) ) ;
#198 = PRODUCT_DEFINITION_SHAPE ( 'NONE', 'NONE',  #199 ) ;
#199 = PRODUCT_DEFINITION ( 'General', '', #187, #84 ) ;
#200 = EDGE_LOOP ( 'NONE', ( #112, #25, #11, #148 ) ) ;
#201 = SURFACE_STYLE_FILL_AREA ( #63 ) ;
#202 = ADVANCED_FACE ( 'NONE', ( #69 ), #131, .F. ) ;
#203 = SURFACE_STYLE_USAGE ( .BOTH. , #83 ) ;
#204 = AXIS2_PLACEMENT_3D ( 'NONE', #52, #115, #36 ) ;
#205 = DIRECTION ( 'NONE',  ( 0.000000000000000000, 1.000000000000000000, 1.084202172485503448E-16 ) ) ;
ENDSEC;
END-ISO-10303-21;
