ISO-10303-21;
HEADER;
FILE_DESCRIPTION (( 'STEP AP214' ),
    '1' );
FILE_NAME ('Elevator ARm.STEP',
    '2026-02-05T02:31:44',
    ( '' ),
    ( '' ),
    'SwSTEP 2.0',
    'SolidWorks 2025',
    '' );
FILE_SCHEMA (( 'AUTOMOTIVE_DESIGN' ));
ENDSEC;

DATA;
#1 = CARTESIAN_POINT ( 'NONE',  ( 1.000000000000000000, 3.469446951953614189E-15, 37.50000000000000000 ) ) ;
#2 = EDGE_CURVE ( 'NONE', #101, #69, #131, .T. ) ;
#3 = ORIENTED_EDGE ( 'NONE', *, *, #104, .F. ) ;
#4 = DIRECTION ( 'NONE',  ( 1.000000000000000000, -0.000000000000000000, -0.000000000000000000 ) ) ;
#5 = DIRECTION ( 'NONE',  ( -1.000000000000000000, -0.000000000000000000, -0.000000000000000000 ) ) ;
#6 = ORIENTED_EDGE ( 'NONE', *, *, #349, .F. ) ;
#7 = CIRCLE ( 'NONE', #133, 11.50000000000000355 ) ;
#8 = DIRECTION ( 'NONE',  ( 1.000000000000000000, -0.000000000000000000, -0.000000000000000000 ) ) ;
#9 = ORIENTED_EDGE ( 'NONE', *, *, #270, .T. ) ;
#10 = CYLINDRICAL_SURFACE ( 'NONE', #253, 11.50000000000000355 ) ;
#11 = ORIENTED_EDGE ( 'NONE', *, *, #240, .F. ) ;
#12 = PRODUCT_DEFINITION_CONTEXT ( 'detailed design', #91, 'design' ) ;
#13 = CARTESIAN_POINT ( 'NONE',  ( -1.224646799147353256E-15, 4.877790770973069970E-15, 49.00000000000000000 ) ) ;
#14 = ADVANCED_FACE ( 'NONE', ( #75 ), #338, .F. ) ;
#15 = VERTEX_POINT ( 'NONE', #379 ) ;
#16 = AXIS2_PLACEMENT_3D ( 'NONE', #55, #134, #224 ) ;
#17 = AXIS2_PLACEMENT_3D ( 'NONE', #153, #555, #289 ) ;
#18 = CARTESIAN_POINT ( 'NONE',  ( -1.000000000000001332, 16.49999999999997868, -37.50000000000002132 ) ) ;
#19 = ORIENTED_EDGE ( 'NONE', *, *, #344, .T. ) ;
#20 = CARTESIAN_POINT ( 'NONE',  ( -1.000000000000001332, -16.50000000000001776, -37.50000000000000000 ) ) ;
#21 = EDGE_LOOP ( 'NONE', ( #48, #223, #186, #489 ) ) ;
#22 = DIRECTION ( 'NONE',  ( -1.000000000000000000, 0.000000000000000000, 0.000000000000000000 ) ) ;
#23 = ORIENTED_EDGE ( 'NONE', *, *, #392, .T. ) ;
#24 = VECTOR ( 'NONE', #284, 1000.000000000000000 ) ;
#25 = CIRCLE ( 'NONE', #317, 16.50000000000000000 ) ;
#26 = LINE ( 'NONE', #549, #479 ) ;
#27 = ORIENTED_EDGE ( 'NONE', *, *, #270, .F. ) ;
#28 = PRESENTATION_STYLE_ASSIGNMENT (( #205 ) ) ;
#29 = DIRECTION ( 'NONE',  ( 0.000000000000000000, 0.000000000000000000, -1.000000000000000000 ) ) ;
#30 = LINE ( 'NONE', #76, #278 ) ;
#31 = CARTESIAN_POINT ( 'NONE',  ( 0.000000000000000000, 3.469446951953614189E-15, 37.50000000000000000 ) ) ;
#32 = AXIS2_PLACEMENT_3D ( 'NONE', #221, #439, #312 ) ;
#33 = CARTESIAN_POINT ( 'NONE',  ( 0.000000000000000000, -2.081668171172168513E-14, -37.50000000000000000 ) ) ;
#34 = ADVANCED_FACE ( 'NONE', ( #554 ), #428, .T. ) ;
#35 = CARTESIAN_POINT ( 'NONE',  ( 1.000000000000000000, -16.50000000000002132, -37.50000000000000000 ) ) ;
#36 = DIRECTION ( 'NONE',  ( -1.000000000000000000, -0.000000000000000000, -0.000000000000000000 ) ) ;
#37 = AXIS2_PLACEMENT_3D ( 'NONE', #238, #229, #326 ) ;
#38 = CARTESIAN_POINT ( 'NONE',  ( 1.000000000000000000, -2.081668171172168513E-14, -29.50000000000000000 ) ) ;
#39 = EDGE_CURVE ( 'NONE', #459, #214, #517, .T. ) ;
#40 = CARTESIAN_POINT ( 'NONE',  ( 1.000000000000000000, -2.081668171172168513E-14, -54.00000000000000000 ) ) ;
#41 = CARTESIAN_POINT ( 'NONE',  ( -1.000000000000001332, -16.49999999999999645, 37.50000000000001421 ) ) ;
#42 = DIRECTION ( 'NONE',  ( 0.000000000000000000, 0.000000000000000000, -1.000000000000000000 ) ) ;
#43 = CARTESIAN_POINT ( 'NONE',  ( 0.000000000000000000, 0.000000000000000000, 0.000000000000000000 ) ) ;
#44 = DIRECTION ( 'NONE',  ( -1.000000000000000000, 0.000000000000000000, 0.000000000000000000 ) ) ;
#45 = VERTEX_POINT ( 'NONE', #564 ) ;
#46 = CARTESIAN_POINT ( 'NONE',  ( -6.000000000000001776, -1.879601449312855203E-14, -20.99999999999999645 ) ) ;
#47 = CARTESIAN_POINT ( 'NONE',  ( 1.000000000000000000, -2.081668171172168513E-14, -37.50000000000000000 ) ) ;
#48 = ORIENTED_EDGE ( 'NONE', *, *, #482, .T. ) ;
#49 = CARTESIAN_POINT ( 'NONE',  ( -1.000000000000001332, -16.50000000000001776, -37.50000000000000000 ) ) ;
#50 = EDGE_CURVE ( 'NONE', #305, #281, #113, .T. ) ;
#51 = ORIENTED_EDGE ( 'NONE', *, *, #279, .F. ) ;
#52 = CIRCLE ( 'NONE', #61, 8.000000000000000000 ) ;
#53 = EDGE_CURVE ( 'NONE', #541, #115, #293, .T. ) ;
#54 = CARTESIAN_POINT ( 'NONE',  ( -1.000000000000001332, 4.877790770973069970E-15, 49.00000000000000000 ) ) ;
#55 = CARTESIAN_POINT ( 'NONE',  ( -6.000000000000001776, -2.081668171172168513E-14, -37.50000000000000000 ) ) ;
#56 = ORIENTED_EDGE ( 'NONE', *, *, #534, .F. ) ;
#57 = FACE_OUTER_BOUND ( 'NONE', #539, .T. ) ;
#58 = ORIENTED_EDGE ( 'NONE', *, *, #279, .T. ) ;
#59 = LINE ( 'NONE', #495, #478 ) ;
#60 = ORIENTED_EDGE ( 'NONE', *, *, #466, .T. ) ;
#61 = AXIS2_PLACEMENT_3D ( 'NONE', #321, #276, #323 ) ;
#62 = EDGE_CURVE ( 'NONE', #367, #319, #473, .T. ) ;
#63 = DIRECTION ( 'NONE',  ( 0.000000000000000000, 0.000000000000000000, -1.000000000000000000 ) ) ;
#64 = VERTEX_POINT ( 'NONE', #345 ) ;
#65 = CARTESIAN_POINT ( 'NONE',  ( 0.000000000000000000, 4.449164391271496952E-15, 29.50000000000000000 ) ) ;
#66 = EDGE_LOOP ( 'NONE', ( #138, #402, #438, #266 ) ) ;
#67 = EDGE_CURVE ( 'NONE', #308, #64, #148, .T. ) ;
#68 = CARTESIAN_POINT ( 'NONE',  ( -1.000000000000001332, 16.50000000000000355, 37.50000000000000711 ) ) ;
#69 = VERTEX_POINT ( 'NONE', #433 ) ;
#70 = AXIS2_PLACEMENT_3D ( 'NONE', #397, #529, #177 ) ;
#71 = DIRECTION ( 'NONE',  ( 1.000000000000000000, -0.000000000000000000, -0.000000000000000000 ) ) ;
#72 = CARTESIAN_POINT ( 'NONE',  ( -1.000000000000001332, -1.879601449312855203E-14, -20.99999999999999645 ) ) ;
#73 =( GEOMETRIC_REPRESENTATION_CONTEXT ( 3 ) GLOBAL_UNCERTAINTY_ASSIGNED_CONTEXT ( ( #294 ) ) GLOBAL_UNIT_ASSIGNED_CONTEXT ( ( #220, #526, #128 ) ) REPRESENTATION_CONTEXT ( 'NONE', 'WORKASPACE' ) );
#74 = DIRECTION ( 'NONE',  ( 1.000000000000000000, 0.000000000000000000, 0.000000000000000000 ) ) ;
#75 = FACE_OUTER_BOUND ( 'NONE', #162, .T. ) ;
#76 = CARTESIAN_POINT ( 'NONE',  ( 1.000000000000000000, -16.49999999999999645, 37.50000000000002132 ) ) ;
#77 = DIRECTION ( 'NONE',  ( 0.000000000000000000, 2.775557561562891351E-16, 1.000000000000000000 ) ) ;
#78 = AXIS2_PLACEMENT_3D ( 'NONE', #209, #475, #258 ) ;
#79 = CARTESIAN_POINT ( 'NONE',  ( -1.224646799147353256E-15, 3.469446951953614189E-15, 37.50000000000000000 ) ) ;
#80 = FACE_BOUND ( 'NONE', #87, .T. ) ;
#81 = ADVANCED_FACE ( 'NONE', ( #562 ), #339, .F. ) ;
#82 = CARTESIAN_POINT ( 'NONE',  ( 1.000000000000000000, -2.081668171172168513E-14, -37.50000000000000000 ) ) ;
#83 = FACE_OUTER_BOUND ( 'NONE', #369, .T. ) ;
#84 = CARTESIAN_POINT ( 'NONE',  ( -1.000000000000001332, -16.49999999999999645, 37.50000000000001421 ) ) ;
#85 = SHAPE_DEFINITION_REPRESENTATION ( #93, #557 ) ;
#86 = LINE ( 'NONE', #391, #231 ) ;
#87 = EDGE_LOOP ( 'NONE', ( #491, #58 ) ) ;
#88 = LINE ( 'NONE', #54, #363 ) ;
#89 = DIRECTION ( 'NONE',  ( 1.000000000000000000, -0.000000000000000000, -0.000000000000000000 ) ) ;
#90 = ORIENTED_EDGE ( 'NONE', *, *, #320, .F. ) ;
#91 = APPLICATION_CONTEXT ( 'automotive_design' ) ;
#92 = DIRECTION ( 'NONE',  ( 0.000000000000000000, 0.000000000000000000, 1.000000000000000000 ) ) ;
#93 = PRODUCT_DEFINITION_SHAPE ( 'NONE', 'NONE',  #440 ) ;
#94 = ORIENTED_EDGE ( 'NONE', *, *, #365, .T. ) ;
#95 = VECTOR ( 'NONE', #302, 1000.000000000000000 ) ;
#96 = FACE_OUTER_BOUND ( 'NONE', #353, .T. ) ;
#97 = VERTEX_POINT ( 'NONE', #35 ) ;
#98 = AXIS2_PLACEMENT_3D ( 'NONE', #372, #227, #241 ) ;
#99 = ADVANCED_FACE ( 'NONE', ( #80, #83 ), #166, .F. ) ;
#100 = CYLINDRICAL_SURFACE ( 'NONE', #37, 8.000000000000000000 ) ;
#101 = VERTEX_POINT ( 'NONE', #41 ) ;
#102 = CARTESIAN_POINT ( 'NONE',  ( -1.224646799147353256E-15, -1.940833789270222777E-14, -25.99999999999999645 ) ) ;
#103 = ORIENTED_EDGE ( 'NONE', *, *, #341, .F. ) ;
#104 = EDGE_CURVE ( 'NONE', #69, #45, #126, .T. ) ;
#105 = ADVANCED_FACE ( 'NONE', ( #206 ), #335, .F. ) ;
#106 = CARTESIAN_POINT ( 'NONE',  ( -6.000000000000001776, -1.940833789270222777E-14, -25.99999999999999645 ) ) ;
#107 = ORIENTED_EDGE ( 'NONE', *, *, #330, .F. ) ;
#108 = AXIS2_PLACEMENT_3D ( 'NONE', #47, #174, #314 ) ;
#109 = CARTESIAN_POINT ( 'NONE',  ( -1.000000000000001332, -16.50000000000001776, -37.50000000000000000 ) ) ;
#110 = EDGE_LOOP ( 'NONE', ( #297, #331, #408, #51 ) ) ;
#111 = CARTESIAN_POINT ( 'NONE',  ( -1.224646799147353256E-15, 3.469446951953614189E-15, 37.50000000000000000 ) ) ;
#112 = ORIENTED_EDGE ( 'NONE', *, *, #50, .F. ) ;
#113 = CIRCLE ( 'NONE', #78, 8.000000000000000000 ) ;
#114 = DIRECTION ( 'NONE',  ( 0.000000000000000000, 0.000000000000000000, -1.000000000000000000 ) ) ;
#115 = VERTEX_POINT ( 'NONE', #423 ) ;
#116 = PLANE ( 'NONE',  #17 ) ;
#117 = ORIENTED_EDGE ( 'NONE', *, *, #67, .F. ) ;
#118 = LINE ( 'NONE', #332, #523 ) ;
#119 = DIRECTION ( 'NONE',  ( -1.000000000000000000, 0.000000000000000000, 0.000000000000000000 ) ) ;
#120 = ADVANCED_FACE ( 'NONE', ( #515, #381 ), #255, .T. ) ;
#121 = CARTESIAN_POINT ( 'NONE',  ( 1.000000000000000000, -1.983696427240380079E-14, -45.50000000000000000 ) ) ;
#122 = DIRECTION ( 'NONE',  ( -1.000000000000000000, -0.000000000000000000, -0.000000000000000000 ) ) ;
#123 = FILL_AREA_STYLE ('',( #421 ) ) ;
#124 = DIRECTION ( 'NONE',  ( -1.000000000000000000, 0.000000000000000000, 0.000000000000000000 ) ) ;
#125 = CARTESIAN_POINT ( 'NONE',  ( 1.000000000000000000, -2.081668171172168513E-14, -37.50000000000000000 ) ) ;
#126 = LINE ( 'NONE', #477, #156 ) ;
#127 = ORIENTED_EDGE ( 'NONE', *, *, #189, .F. ) ;
#128 =( NAMED_UNIT ( * ) SI_UNIT ( $, .STERADIAN. ) SOLID_ANGLE_UNIT ( ) );
#129 = CYLINDRICAL_SURFACE ( 'NONE', #70, 8.000000000000000000 ) ;
#130 = ORIENTED_EDGE ( 'NONE', *, *, #466, .F. ) ;
#131 = CIRCLE ( 'NONE', #366, 16.50000000000000000 ) ;
#132 = EDGE_CURVE ( 'NONE', #15, #147, #431, .T. ) ;
#133 = AXIS2_PLACEMENT_3D ( 'NONE', #263, #44, #92 ) ;
#134 = DIRECTION ( 'NONE',  ( 1.000000000000000000, 0.000000000000000000, -0.000000000000000000 ) ) ;
#135 = ORIENTED_EDGE ( 'NONE', *, *, #189, .T. ) ;
#136 = ADVANCED_FACE ( 'NONE', ( #568 ), #356, .F. ) ;
#137 = CYLINDRICAL_SURFACE ( 'NONE', #32, 16.50000000000000000 ) ;
#138 = ORIENTED_EDGE ( 'NONE', *, *, #563, .T. ) ;
#139 = DIRECTION ( 'NONE',  ( 1.000000000000000000, 0.000000000000000000, 0.000000000000000000 ) ) ;
#140 = EDGE_CURVE ( 'NONE', #375, #97, #437, .T. ) ;
#141 = VERTEX_POINT ( 'NONE', #213 ) ;
#142 = CARTESIAN_POINT ( 'NONE',  ( -1.224646799147353256E-15, -2.081668171172168513E-14, -37.50000000000000000 ) ) ;
#143 = EDGE_LOOP ( 'NONE', ( #285, #456, #107, #3 ) ) ;
#144 = DIRECTION ( 'NONE',  ( 0.000000000000000000, 0.000000000000000000, 1.000000000000000000 ) ) ;
#145 = ORIENTED_EDGE ( 'NONE', *, *, #544, .T. ) ;
#146 = FACE_OUTER_BOUND ( 'NONE', #533, .T. ) ;
#147 = VERTEX_POINT ( 'NONE', #168 ) ;
#148 = CIRCLE ( 'NONE', #340, 8.000000000000000000 ) ;
#149 = FACE_OUTER_BOUND ( 'NONE', #66, .T. ) ;
#150 = ORIENTED_EDGE ( 'NONE', *, *, #246, .T. ) ;
#151 = DIRECTION ( 'NONE',  ( 0.000000000000000000, 0.000000000000000000, 1.000000000000000000 ) ) ;
#152 = ORIENTED_EDGE ( 'NONE', *, *, #50, .T. ) ;
#153 = CARTESIAN_POINT ( 'NONE',  ( 1.000000000000000000, -2.081668171172168513E-14, -37.50000000000000000 ) ) ;
#154 = ORIENTED_EDGE ( 'NONE', *, *, #291, .T. ) ;
#155 = DIRECTION ( 'NONE',  ( 0.000000000000000000, 0.000000000000000000, 1.000000000000000000 ) ) ;
#156 = VECTOR ( 'NONE', #522, 1000.000000000000000 ) ;
#157 = CARTESIAN_POINT ( 'NONE',  ( 0.000000000000000000, -2.081668171172168513E-14, -37.50000000000000000 ) ) ;
#158 = AXIS2_PLACEMENT_3D ( 'NONE', #490, #139, #352 ) ;
#159 = CYLINDRICAL_SURFACE ( 'NONE', #560, 16.50000000000000000 ) ;
#160 = CARTESIAN_POINT ( 'NONE',  ( -1.000000000000001332, -2.081668171172168513E-14, -37.50000000000000000 ) ) ;
#161 = DIRECTION ( 'NONE',  ( 0.000000000000000000, -3.238150488490038759E-16, -1.000000000000000000 ) ) ;
#162 = EDGE_LOOP ( 'NONE', ( #566, #324, #216, #395 ) ) ;
#163 = DIRECTION ( 'NONE',  ( 1.000000000000000000, 0.000000000000000000, 0.000000000000000000 ) ) ;
#164 = AXIS2_PLACEMENT_3D ( 'NONE', #196, #374, #187 ) ;
#165 = PRODUCT_CONTEXT ( 'NONE', #199, 'mechanical' ) ;
#166 = PLANE ( 'NONE',  #415 ) ;
#167 = CARTESIAN_POINT ( 'NONE',  ( 1.000000000000000000, 16.50000000000000355, 37.50000000000000711 ) ) ;
#168 = CARTESIAN_POINT ( 'NONE',  ( 0.000000000000000000, -2.081668171172168513E-14, -29.50000000000000000 ) ) ;
#169 = EDGE_LOOP ( 'NONE', ( #451, #191 ) ) ;
#170 = CARTESIAN_POINT ( 'NONE',  ( 1.000000000000000000, 4.449164391271496952E-15, 29.50000000000000000 ) ) ;
#171 = AXIS2_PLACEMENT_3D ( 'NONE', #448, #267, #436 ) ;
#172 = ORIENTED_EDGE ( 'NONE', *, *, #414, .F. ) ;
#173 = DIRECTION ( 'NONE',  ( 0.000000000000000000, 0.000000000000000000, -1.000000000000000000 ) ) ;
#174 = DIRECTION ( 'NONE',  ( 1.000000000000000000, 0.000000000000000000, 0.000000000000000000 ) ) ;
#175 = ORIENTED_EDGE ( 'NONE', *, *, #53, .F. ) ;
#176 = EDGE_CURVE ( 'NONE', #281, #308, #535, .T. ) ;
#177 = DIRECTION ( 'NONE',  ( 0.000000000000000000, 0.000000000000000000, 1.000000000000000000 ) ) ;
#178 = AXIS2_PLACEMENT_3D ( 'NONE', #111, #412, #151 ) ;
#179 = ORIENTED_EDGE ( 'NONE', *, *, #446, .T. ) ;
#180 = CIRCLE ( 'NONE', #259, 11.50000000000000355 ) ;
#181 = CARTESIAN_POINT ( 'NONE',  ( -1.000000000000001332, -2.081668171172168513E-14, -37.50000000000000000 ) ) ;
#182 = ORIENTED_EDGE ( 'NONE', *, *, #230, .T. ) ;
#183 = AXIS2_PLACEMENT_3D ( 'NONE', #470, #245, #77 ) ;
#184 = ADVANCED_FACE ( 'NONE', ( #532 ), #268, .F. ) ;
#185 = CARTESIAN_POINT ( 'NONE',  ( -1.000000000000001332, 3.469446951953614189E-15, 37.50000000000000000 ) ) ;
#186 = ORIENTED_EDGE ( 'NONE', *, *, #291, .F. ) ;
#187 = DIRECTION ( 'NONE',  ( 0.000000000000000000, 0.000000000000000000, 1.000000000000000000 ) ) ;
#188 = EDGE_LOOP ( 'NONE', ( #152, #454, #461, #127 ) ) ;
#189 = EDGE_CURVE ( 'NONE', #305, #64, #86, .T. ) ;
#190 = CARTESIAN_POINT ( 'NONE',  ( 1.000000000000000000, 3.469446951953614189E-15, 45.50000000000000000 ) ) ;
#191 = ORIENTED_EDGE ( 'NONE', *, *, #67, .T. ) ;
#192 = CARTESIAN_POINT ( 'NONE',  ( -1.224646799147353256E-15, -2.081668171172168513E-14, -49.00000000000000000 ) ) ;
#193 = ORIENTED_EDGE ( 'NONE', *, *, #534, .T. ) ;
#194 = CIRCLE ( 'NONE', #273, 11.50000000000000355 ) ;
#195 = AXIS2_PLACEMENT_3D ( 'NONE', #79, #202, #430 ) ;
#196 = CARTESIAN_POINT ( 'NONE',  ( -6.000000000000001776, -2.081668171172168513E-14, -37.50000000000000000 ) ) ;
#197 = ORIENTED_EDGE ( 'NONE', *, *, #487, .T. ) ;
#198 = CIRCLE ( 'NONE', #410, 8.000000000000000000 ) ;
#199 = APPLICATION_CONTEXT ( 'automotive_design' ) ;
#200 =( LENGTH_UNIT ( ) NAMED_UNIT ( * ) SI_UNIT ( .MILLI., .METRE. ) );
#201 = CARTESIAN_POINT ( 'NONE',  ( -1.000000000000001332, -2.081668171172168513E-14, -49.00000000000000000 ) ) ;
#202 = DIRECTION ( 'NONE',  ( -1.000000000000000000, 0.000000000000000000, 0.000000000000000000 ) ) ;
#203 = CARTESIAN_POINT ( 'NONE',  ( -1.000000000000001332, 3.469446951953614189E-15, 37.50000000000000000 ) ) ;
#204 = AXIS2_PLACEMENT_3D ( 'NONE', #265, #218, #484 ) ;
#205 = SURFACE_STYLE_USAGE ( .BOTH. , #469 ) ;
#206 = FACE_OUTER_BOUND ( 'NONE', #143, .T. ) ;
#207 = ADVANCED_FACE ( 'NONE', ( #274 ), #129, .F. ) ;
#208 = DIRECTION ( 'NONE',  ( 1.000000000000000000, -0.000000000000000000, -0.000000000000000000 ) ) ;
#209 = CARTESIAN_POINT ( 'NONE',  ( 1.000000000000000000, 3.469446951953614189E-15, 37.50000000000000000 ) ) ;
#210 = FACE_BOUND ( 'NONE', #169, .T. ) ;
#211 = CARTESIAN_POINT ( 'NONE',  ( 1.000000000000000000, -1.983696427240380079E-14, -45.50000000000000000 ) ) ;
#212 = ADVANCED_FACE ( 'NONE', ( #359 ), #137, .T. ) ;
#213 = CARTESIAN_POINT ( 'NONE',  ( 1.000000000000000000, -16.49999999999999645, 37.50000000000002132 ) ) ;
#214 = VERTEX_POINT ( 'NONE', #307 ) ;
#215 = PLANE ( 'NONE',  #16 ) ;
#216 = ORIENTED_EDGE ( 'NONE', *, *, #510, .F. ) ;
#217 = EDGE_CURVE ( 'NONE', #441, #287, #429, .T. ) ;
#218 = DIRECTION ( 'NONE',  ( 1.000000000000000000, -0.000000000000000000, -0.000000000000000000 ) ) ;
#219 = EDGE_LOOP ( 'NONE', ( #485, #550, #179, #530 ) ) ;
#220 =( LENGTH_UNIT ( ) NAMED_UNIT ( * ) SI_UNIT ( .MILLI., .METRE. ) );
#221 = CARTESIAN_POINT ( 'NONE',  ( -1.000000000000001332, -2.081668171172168513E-14, -37.50000000000000000 ) ) ;
#222 = VECTOR ( 'NONE', #378, 1000.000000000000000 ) ;
#223 = ORIENTED_EDGE ( 'NONE', *, *, #405, .T. ) ;
#224 = DIRECTION ( 'NONE',  ( -0.000000000000000000, 0.000000000000000000, -1.000000000000000000 ) ) ;
#225 = CIRCLE ( 'NONE', #178, 11.50000000000000355 ) ;
#226 = ORIENTED_EDGE ( 'NONE', *, *, #330, .T. ) ;
#227 = DIRECTION ( 'NONE',  ( -1.000000000000000000, 0.000000000000000000, 0.000000000000000000 ) ) ;
#228 = EDGE_LOOP ( 'NONE', ( #322, #60, #135, #117 ) ) ;
#229 = DIRECTION ( 'NONE',  ( -1.000000000000000000, -0.000000000000000000, -0.000000000000000000 ) ) ;
#230 = EDGE_CURVE ( 'NONE', #97, #441, #457, .T. ) ;
#231 = VECTOR ( 'NONE', #480, 1000.000000000000000 ) ;
#232 = EDGE_LOOP ( 'NONE', ( #559, #6 ) ) ;
#233 = UNCERTAINTY_MEASURE_WITH_UNIT (LENGTH_MEASURE( 1.000000000000000082E-05 ), #200, 'distance_accuracy_value', 'NONE');
#234 = CIRCLE ( 'NONE', #419, 8.000000000000000000 ) ;
#235 = DIRECTION ( 'NONE',  ( -1.000000000000000000, 0.000000000000000000, 0.000000000000000000 ) ) ;
#236 = PRODUCT_RELATED_PRODUCT_CATEGORY ( 'part', '', ( #362 ) ) ;
#237 = ORIENTED_EDGE ( 'NONE', *, *, #341, .T. ) ;
#238 = CARTESIAN_POINT ( 'NONE',  ( 1.000000000000000000, -2.081668171172168513E-14, -37.50000000000000000 ) ) ;
#239 = ORIENTED_EDGE ( 'NONE', *, *, #217, .F. ) ;
#240 = EDGE_CURVE ( 'NONE', #493, #313, #7, .T. ) ;
#241 = DIRECTION ( 'NONE',  ( 0.000000000000000000, 0.000000000000000000, -1.000000000000000000 ) ) ;
#242 = ORIENTED_EDGE ( 'NONE', *, *, #140, .F. ) ;
#243 = AXIS2_PLACEMENT_3D ( 'NONE', #33, #74, #114 ) ;
#244 = CARTESIAN_POINT ( 'NONE',  ( -6.000000000000001776, -2.081668171172168513E-14, -37.50000000000000000 ) ) ;
#245 = DIRECTION ( 'NONE',  ( 0.000000000000000000, 1.000000000000000000, -2.775557561562891351E-16 ) ) ;
#246 = EDGE_CURVE ( 'NONE', #543, #141, #299, .T. ) ;
#247 = ADVANCED_FACE ( 'NONE', ( #96, #450 ), #215, .F. ) ;
#248 =( NAMED_UNIT ( * ) PLANE_ANGLE_UNIT ( ) SI_UNIT ( $, .RADIAN. ) );
#249 = DIRECTION ( 'NONE',  ( 1.000000000000000000, -0.000000000000000000, -0.000000000000000000 ) ) ;
#250 = FACE_OUTER_BOUND ( 'NONE', #110, .T. ) ;
#251 = CARTESIAN_POINT ( 'NONE',  ( -1.000000000000001332, 16.49999999999997868, -37.50000000000002132 ) ) ;
#252 = ADVANCED_FACE ( 'NONE', ( #400 ), #10, .F. ) ;
#253 = AXIS2_PLACEMENT_3D ( 'NONE', #181, #364, #538 ) ;
#254 = DIRECTION ( 'NONE',  ( 1.000000000000000000, 0.000000000000000000, 0.000000000000000000 ) ) ;
#255 = PLANE ( 'NONE',  #465 ) ;
#256 = PRODUCT_DEFINITION_FORMATION_WITH_SPECIFIED_SOURCE ( 'Symmetric', '', #362, .NOT_KNOWN. ) ;
#257 = CARTESIAN_POINT ( 'NONE',  ( -6.000000000000001776, -2.081668171172168513E-14, -54.00000000000000000 ) ) ;
#258 = DIRECTION ( 'NONE',  ( 0.000000000000000000, 0.000000000000000000, -1.000000000000000000 ) ) ;
#259 = AXIS2_PLACEMENT_3D ( 'NONE', #244, #292, #380 ) ;
#260 = AXIS2_PLACEMENT_3D ( 'NONE', #298, #249, #468 ) ;
#261 = CARTESIAN_POINT ( 'NONE',  ( 0.000000000000000000, -2.081668171172168513E-14, -37.50000000000000000 ) ) ;
#262 = APPLICATION_PROTOCOL_DEFINITION ( 'draft international standard', 'automotive_design', 1998, #91 ) ;
#263 = CARTESIAN_POINT ( 'NONE',  ( -1.000000000000001332, 3.469446951953614189E-15, 37.50000000000000000 ) ) ;
#264 = ORIENTED_EDGE ( 'NONE', *, *, #537, .F. ) ;
#265 = CARTESIAN_POINT ( 'NONE',  ( -1.000000000000001332, 3.469446951953614189E-15, 37.50000000000000000 ) ) ;
#266 = ORIENTED_EDGE ( 'NONE', *, *, #132, .F. ) ;
#267 = DIRECTION ( 'NONE',  ( -1.000000000000000000, 0.000000000000000000, 0.000000000000000000 ) ) ;
#268 = CYLINDRICAL_SURFACE ( 'NONE', #204, 11.50000000000000355 ) ;
#269 = VECTOR ( 'NONE', #296, 1000.000000000000000 ) ;
#270 = EDGE_CURVE ( 'NONE', #101, #141, #304, .T. ) ;
#271 = ORIENTED_EDGE ( 'NONE', *, *, #53, .T. ) ;
#272 = DIRECTION ( 'NONE',  ( 1.000000000000000000, 0.000000000000000000, 0.000000000000000000 ) ) ;
#273 = AXIS2_PLACEMENT_3D ( 'NONE', #142, #416, #545 ) ;
#274 = FACE_OUTER_BOUND ( 'NONE', #188, .T. ) ;
#275 = ORIENTED_EDGE ( 'NONE', *, *, #510, .T. ) ;
#276 = DIRECTION ( 'NONE',  ( 1.000000000000000000, 0.000000000000000000, 0.000000000000000000 ) ) ;
#277 = ORIENTED_EDGE ( 'NONE', *, *, #2, .T. ) ;
#278 = VECTOR ( 'NONE', #334, 1000.000000000000000 ) ;
#279 = EDGE_CURVE ( 'NONE', #214, #147, #336, .T. ) ;
#280 = CYLINDRICAL_SURFACE ( 'NONE', #406, 11.50000000000000355 ) ;
#281 = VERTEX_POINT ( 'NONE', #310 ) ;
#282 = CARTESIAN_POINT ( 'NONE',  ( -1.000000000000001332, -2.081668171172168513E-14, -37.50000000000000000 ) ) ;
#283 = ORIENTED_EDGE ( 'NONE', *, *, #563, .F. ) ;
#284 = DIRECTION ( 'NONE',  ( 1.000000000000000000, -0.000000000000000000, -0.000000000000000000 ) ) ;
#285 = ORIENTED_EDGE ( 'NONE', *, *, #414, .T. ) ;
#286 = DIRECTION ( 'NONE',  ( 0.000000000000000000, 0.000000000000000000, -1.000000000000000000 ) ) ;
#287 = VERTEX_POINT ( 'NONE', #488 ) ;
#288 = VECTOR ( 'NONE', #122, 1000.000000000000000 ) ;
#289 = DIRECTION ( 'NONE',  ( 0.000000000000000000, 0.000000000000000000, -1.000000000000000000 ) ) ;
#290 = ORIENTED_EDGE ( 'NONE', *, *, #444, .T. ) ;
#291 = EDGE_CURVE ( 'NONE', #319, #398, #447, .T. ) ;
#292 = DIRECTION ( 'NONE',  ( -1.000000000000000000, 0.000000000000000000, 0.000000000000000000 ) ) ;
#293 = LINE ( 'NONE', #72, #269 ) ;
#294 = UNCERTAINTY_MEASURE_WITH_UNIT (LENGTH_MEASURE( 1.000000000000000082E-05 ), #220, 'distance_accuracy_value', 'NONE');
#295 = DIRECTION ( 'NONE',  ( 0.000000000000000000, 0.000000000000000000, -1.000000000000000000 ) ) ;
#296 = DIRECTION ( 'NONE',  ( 1.000000000000000000, -0.000000000000000000, -0.000000000000000000 ) ) ;
#297 = ORIENTED_EDGE ( 'NONE', *, *, #39, .F. ) ;
#298 = CARTESIAN_POINT ( 'NONE',  ( -1.000000000000001332, 3.469446951953614189E-15, 37.50000000000000000 ) ) ;
#299 = CIRCLE ( 'NONE', #327, 16.50000000000000000 ) ;
#300 = CARTESIAN_POINT ( 'NONE',  ( 1.000000000000000000, -2.081668171172168513E-14, -37.50000000000000000 ) ) ;
#301 = EDGE_CURVE ( 'NONE', #147, #214, #52, .T. ) ;
#302 = DIRECTION ( 'NONE',  ( 1.000000000000000000, -0.000000000000000000, -0.000000000000000000 ) ) ;
#303 = ADVANCED_FACE ( 'NONE', ( #57 ), #280, .F. ) ;
#304 = LINE ( 'NONE', #84, #565 ) ;
#305 = VERTEX_POINT ( 'NONE', #190 ) ;
#306 = DIRECTION ( 'NONE',  ( 1.000000000000000000, 0.000000000000000000, 0.000000000000000000 ) ) ;
#307 = CARTESIAN_POINT ( 'NONE',  ( 0.000000000000000000, -1.983696427240380079E-14, -45.50000000000000000 ) ) ;
#308 = VERTEX_POINT ( 'NONE', #65 ) ;
#309 = CIRCLE ( 'NONE', #486, 16.50000000000000000 ) ;
#310 = CARTESIAN_POINT ( 'NONE',  ( 1.000000000000000000, 4.449164391271496952E-15, 29.50000000000000000 ) ) ;
#311 = VERTEX_POINT ( 'NONE', #508 ) ;
#312 = DIRECTION ( 'NONE',  ( 0.000000000000000000, 0.000000000000000000, -1.000000000000000000 ) ) ;
#313 = VERTEX_POINT ( 'NONE', #502 ) ;
#314 = DIRECTION ( 'NONE',  ( 0.000000000000000000, 0.000000000000000000, -1.000000000000000000 ) ) ;
#315 = EDGE_LOOP ( 'NONE', ( #283, #264 ) ) ;
#316 = AXIS2_PLACEMENT_3D ( 'NONE', #1, #5, #527 ) ;
#317 = AXIS2_PLACEMENT_3D ( 'NONE', #514, #561, #343 ) ;
#318 = CARTESIAN_POINT ( 'NONE',  ( -6.000000000000001776, -2.081668171172168513E-14, -49.00000000000000000 ) ) ;
#319 = VERTEX_POINT ( 'NONE', #192 ) ;
#320 = EDGE_CURVE ( 'NONE', #398, #319, #194, .T. ) ;
#321 = CARTESIAN_POINT ( 'NONE',  ( 0.000000000000000000, -2.081668171172168513E-14, -37.50000000000000000 ) ) ;
#322 = ORIENTED_EDGE ( 'NONE', *, *, #176, .F. ) ;
#323 = DIRECTION ( 'NONE',  ( 0.000000000000000000, 0.000000000000000000, -1.000000000000000000 ) ) ;
#324 = ORIENTED_EDGE ( 'NONE', *, *, #548, .T. ) ;
#325 = CLOSED_SHELL ( 'NONE', ( #354, #207, #252, #14, #212, #120, #497, #81, #34, #105, #184, #303, #471, #99, #434, #136, #531, #247 ) ) ;
#326 = DIRECTION ( 'NONE',  ( 0.000000000000000000, 0.000000000000000000, 1.000000000000000000 ) ) ;
#327 = AXIS2_PLACEMENT_3D ( 'NONE', #443, #394, #492 ) ;
#328 = VERTEX_POINT ( 'NONE', #106 ) ;
#329 = CARTESIAN_POINT ( 'NONE',  ( -1.000000000000001332, -2.081668171172168513E-14, -37.50000000000000000 ) ) ;
#330 = EDGE_CURVE ( 'NONE', #45, #287, #368, .T. ) ;
#331 = ORIENTED_EDGE ( 'NONE', *, *, #537, .T. ) ;
#332 = CARTESIAN_POINT ( 'NONE',  ( -1.000000000000001332, 3.469446951953614189E-15, 25.99999999999999645 ) ) ;
#333 = EDGE_LOOP ( 'NONE', ( #175, #56, #528, #546, #242, #19 ) ) ;
#334 = DIRECTION ( 'NONE',  ( 0.000000000000000000, -3.238150488490039745E-16, -1.000000000000000000 ) ) ;
#335 = PLANE ( 'NONE',  #442 ) ;
#336 = CIRCLE ( 'NONE', #494, 8.000000000000000000 ) ;
#337 = CARTESIAN_POINT ( 'NONE',  ( -1.000000000000001332, -2.081668171172168513E-14, -37.50000000000000000 ) ) ;
#338 = CYLINDRICAL_SURFACE ( 'NONE', #260, 11.50000000000000355 ) ;
#339 = PLANE ( 'NONE',  #183 ) ;
#340 = AXIS2_PLACEMENT_3D ( 'NONE', #31, #163, #556 ) ;
#341 = EDGE_CURVE ( 'NONE', #541, #506, #346, .T. ) ;
#342 = VECTOR ( 'NONE', #385, 1000.000000000000000 ) ;
#343 = DIRECTION ( 'NONE',  ( 0.000000000000000000, 0.000000000000000000, -1.000000000000000000 ) ) ;
#344 = EDGE_CURVE ( 'NONE', #375, #115, #309, .T. ) ;
#345 = CARTESIAN_POINT ( 'NONE',  ( 0.000000000000000000, 3.469446951953614189E-15, 45.50000000000000000 ) ) ;
#346 = CIRCLE ( 'NONE', #98, 16.50000000000000000 ) ;
#347 = DIRECTION ( 'NONE',  ( 1.000000000000000000, 0.000000000000000000, 0.000000000000000000 ) ) ;
#348 = DIRECTION ( 'NONE',  ( 0.000000000000000000, 0.000000000000000000, 1.000000000000000000 ) ) ;
#349 = EDGE_CURVE ( 'NONE', #328, #367, #417, .T. ) ;
#350 = DIRECTION ( 'NONE',  ( -1.000000000000000000, -0.000000000000000000, -0.000000000000000000 ) ) ;
#351 = ORIENTED_EDGE ( 'NONE', *, *, #349, .T. ) ;
#352 = DIRECTION ( 'NONE',  ( 0.000000000000000000, 0.000000000000000000, -1.000000000000000000 ) ) ;
#353 = EDGE_LOOP ( 'NONE', ( #193, #237 ) ) ;
#354 = ADVANCED_FACE ( 'NONE', ( #149 ), #100, .F. ) ;
#355 = VECTOR ( 'NONE', #350, 1000.000000000000000 ) ;
#356 = CYLINDRICAL_SURFACE ( 'NONE', #316, 8.000000000000000000 ) ;
#357 = ORIENTED_EDGE ( 'NONE', *, *, #104, .T. ) ;
#358 = EDGE_CURVE ( 'NONE', #506, #441, #26, .T. ) ;
#359 = FACE_OUTER_BOUND ( 'NONE', #552, .T. ) ;
#360 = MECHANICAL_DESIGN_GEOMETRIC_PRESENTATION_REPRESENTATION (  '', ( #401 ), #424 ) ;
#361 = ORIENTED_EDGE ( 'NONE', *, *, #320, .T. ) ;
#362 = PRODUCT ( 'Elevator ARm', 'Elevator ARm', '', ( #165 ) ) ;
#363 = VECTOR ( 'NONE', #4, 1000.000000000000000 ) ;
#364 = DIRECTION ( 'NONE',  ( 1.000000000000000000, -0.000000000000000000, -0.000000000000000000 ) ) ;
#365 = EDGE_CURVE ( 'NONE', #377, #311, #225, .T. ) ;
#366 = AXIS2_PLACEMENT_3D ( 'NONE', #203, #124, #386 ) ;
#367 = VERTEX_POINT ( 'NONE', #318 ) ;
#368 = LINE ( 'NONE', #18, #24 ) ;
#369 = EDGE_LOOP ( 'NONE', ( #154, #361 ) ) ;
#370 = LINE ( 'NONE', #68, #390 ) ;
#371 = ORIENTED_EDGE ( 'NONE', *, *, #62, .T. ) ;
#372 = CARTESIAN_POINT ( 'NONE',  ( -6.000000000000001776, -2.081668171172168513E-14, -37.50000000000000000 ) ) ;
#373 = ORIENTED_EDGE ( 'NONE', *, *, #358, .F. ) ;
#374 = DIRECTION ( 'NONE',  ( -1.000000000000000000, 0.000000000000000000, 0.000000000000000000 ) ) ;
#375 = VERTEX_POINT ( 'NONE', #109 ) ;
#376 = DIRECTION ( 'NONE',  ( 0.000000000000000000, 2.775557561562891351E-16, 1.000000000000000000 ) ) ;
#377 = VERTEX_POINT ( 'NONE', #13 ) ;
#378 = DIRECTION ( 'NONE',  ( 0.000000000000000000, 3.238150488490039745E-16, 1.000000000000000000 ) ) ;
#379 = CARTESIAN_POINT ( 'NONE',  ( 1.000000000000000000, -2.081668171172168513E-14, -29.50000000000000000 ) ) ;
#380 = DIRECTION ( 'NONE',  ( 0.000000000000000000, 0.000000000000000000, 1.000000000000000000 ) ) ;
#381 = FACE_BOUND ( 'NONE', #501, .T. ) ;
#382 = EDGE_CURVE ( 'NONE', #64, #308, #198, .T. ) ;
#383 = CARTESIAN_POINT ( 'NONE',  ( -1.000000000000001332, 3.469446951953614189E-15, 37.50000000000000000 ) ) ;
#384 = CARTESIAN_POINT ( 'NONE',  ( -1.000000000000001332, 4.877790770973069970E-15, 49.00000000000000000 ) ) ;
#385 = DIRECTION ( 'NONE',  ( -1.000000000000000000, -0.000000000000000000, -0.000000000000000000 ) ) ;
#386 = DIRECTION ( 'NONE',  ( 0.000000000000000000, 0.000000000000000000, 1.000000000000000000 ) ) ;
#387 = AXIS2_PLACEMENT_3D ( 'NONE', #185, #540, #144 ) ;
#388 = CARTESIAN_POINT ( 'NONE',  ( -1.224646799147353256E-15, -2.081668171172168513E-14, -37.50000000000000000 ) ) ;
#389 = ORIENTED_EDGE ( 'NONE', *, *, #392, .F. ) ;
#390 = VECTOR ( 'NONE', #403, 1000.000000000000000 ) ;
#391 = CARTESIAN_POINT ( 'NONE',  ( 1.000000000000000000, 3.469446951953614189E-15, 45.50000000000000000 ) ) ;
#392 = EDGE_CURVE ( 'NONE', #375, #101, #455, .T. ) ;
#393 = ORIENTED_EDGE ( 'NONE', *, *, #544, .F. ) ;
#394 = DIRECTION ( 'NONE',  ( 1.000000000000000000, 0.000000000000000000, 0.000000000000000000 ) ) ;
#395 = ORIENTED_EDGE ( 'NONE', *, *, #446, .F. ) ;
#396 = CIRCLE ( 'NONE', #507, 8.000000000000000000 ) ;
#397 = CARTESIAN_POINT ( 'NONE',  ( 1.000000000000000000, 3.469446951953614189E-15, 37.50000000000000000 ) ) ;
#398 = VERTEX_POINT ( 'NONE', #102 ) ;
#399 = AXIS2_PLACEMENT_3D ( 'NONE', #43, #348, #306 ) ;
#400 = FACE_OUTER_BOUND ( 'NONE', #21, .T. ) ;
#401 = STYLED_ITEM ( 'NONE', ( #28 ), #499 ) ;
#402 = ORIENTED_EDGE ( 'NONE', *, *, #39, .T. ) ;
#403 = DIRECTION ( 'NONE',  ( 1.000000000000000000, -0.000000000000000000, -0.000000000000000000 ) ) ;
#404 = ORIENTED_EDGE ( 'NONE', *, *, #405, .F. ) ;
#405 = EDGE_CURVE ( 'NONE', #328, #398, #59, .T. ) ;
#406 = AXIS2_PLACEMENT_3D ( 'NONE', #329, #452, #63 ) ;
#407 = DIRECTION ( 'NONE',  ( 0.000000000000000000, 0.000000000000000000, 1.000000000000000000 ) ) ;
#408 = ORIENTED_EDGE ( 'NONE', *, *, #132, .T. ) ;
#409 = CARTESIAN_POINT ( 'NONE',  ( 0.000000000000000000, 3.469446951953614189E-15, 37.50000000000000000 ) ) ;
#410 = AXIS2_PLACEMENT_3D ( 'NONE', #409, #460, #286 ) ;
#411 = ORIENTED_EDGE ( 'NONE', *, *, #487, .F. ) ;
#412 = DIRECTION ( 'NONE',  ( -1.000000000000000000, 0.000000000000000000, 0.000000000000000000 ) ) ;
#413 = EDGE_LOOP ( 'NONE', ( #275, #94 ) ) ;
#414 = EDGE_CURVE ( 'NONE', #69, #543, #370, .T. ) ;
#415 = AXIS2_PLACEMENT_3D ( 'NONE', #157, #347, #525 ) ;
#416 = DIRECTION ( 'NONE',  ( -1.000000000000000000, 0.000000000000000000, 0.000000000000000000 ) ) ;
#417 = CIRCLE ( 'NONE', #164, 11.50000000000000355 ) ;
#418 = ORIENTED_EDGE ( 'NONE', *, *, #344, .F. ) ;
#419 = AXIS2_PLACEMENT_3D ( 'NONE', #472, #254, #516 ) ;
#420 = EDGE_CURVE ( 'NONE', #313, #493, #449, .T. ) ;
#421 = FILL_AREA_STYLE_COLOUR ( '', #462 ) ;
#422 = VECTOR ( 'NONE', #376, 1000.000000000000000 ) ;
#423 = CARTESIAN_POINT ( 'NONE',  ( -1.000000000000001332, -1.879601449312855203E-14, -20.99999999999999645 ) ) ;
#424 =( GEOMETRIC_REPRESENTATION_CONTEXT ( 3 ) GLOBAL_UNCERTAINTY_ASSIGNED_CONTEXT ( ( #233 ) ) GLOBAL_UNIT_ASSIGNED_CONTEXT ( ( #200, #248, #519 ) ) REPRESENTATION_CONTEXT ( 'NONE', 'WORKASPACE' ) );
#425 = CARTESIAN_POINT ( 'NONE',  ( 1.000000000000000000, 16.49999999999997868, -37.50000000000001421 ) ) ;
#426 = DIRECTION ( 'NONE',  ( 1.000000000000000000, -0.000000000000000000, -0.000000000000000000 ) ) ;
#427 = SURFACE_STYLE_FILL_AREA ( #123 ) ;
#428 = CYLINDRICAL_SURFACE ( 'NONE', #503, 16.50000000000000000 ) ;
#429 = CIRCLE ( 'NONE', #158, 16.50000000000000000 ) ;
#430 = DIRECTION ( 'NONE',  ( 0.000000000000000000, 0.000000000000000000, 1.000000000000000000 ) ) ;
#431 = LINE ( 'NONE', #38, #342 ) ;
#432 = FACE_OUTER_BOUND ( 'NONE', #333, .T. ) ;
#433 = CARTESIAN_POINT ( 'NONE',  ( -1.000000000000001332, 16.50000000000000355, 37.50000000000000711 ) ) ;
#434 = ADVANCED_FACE ( 'NONE', ( #500, #146, #542 ), #116, .T. ) ;
#435 = DIRECTION ( 'NONE',  ( 1.000000000000000000, 0.000000000000000000, 0.000000000000000000 ) ) ;
#436 = DIRECTION ( 'NONE',  ( 0.000000000000000000, 0.000000000000000000, 1.000000000000000000 ) ) ;
#437 = LINE ( 'NONE', #49, #513 ) ;
#438 = ORIENTED_EDGE ( 'NONE', *, *, #301, .F. ) ;
#439 = DIRECTION ( 'NONE',  ( 1.000000000000000000, -0.000000000000000000, -0.000000000000000000 ) ) ;
#440 = PRODUCT_DEFINITION ( 'General', '', #256, #12 ) ;
#441 = VERTEX_POINT ( 'NONE', #40 ) ;
#442 = AXIS2_PLACEMENT_3D ( 'NONE', #251, #558, #161 ) ;
#443 = CARTESIAN_POINT ( 'NONE',  ( 1.000000000000000000, 3.469446951953614189E-15, 37.50000000000000000 ) ) ;
#444 = EDGE_CURVE ( 'NONE', #287, #543, #521, .T. ) ;
#445 = ORIENTED_EDGE ( 'NONE', *, *, #246, .F. ) ;
#446 = EDGE_CURVE ( 'NONE', #313, #311, #118, .T. ) ;
#447 = CIRCLE ( 'NONE', #476, 11.50000000000000355 ) ;
#448 = CARTESIAN_POINT ( 'NONE',  ( -1.000000000000001332, -2.081668171172168513E-14, -37.50000000000000000 ) ) ;
#449 = CIRCLE ( 'NONE', #387, 11.50000000000000355 ) ;
#450 = FACE_BOUND ( 'NONE', #232, .T. ) ;
#451 = ORIENTED_EDGE ( 'NONE', *, *, #382, .T. ) ;
#452 = DIRECTION ( 'NONE',  ( 1.000000000000000000, -0.000000000000000000, -0.000000000000000000 ) ) ;
#453 = PRESENTATION_LAYER_ASSIGNMENT (  '', '', ( #401 ) ) ;
#454 = ORIENTED_EDGE ( 'NONE', *, *, #176, .T. ) ;
#455 = LINE ( 'NONE', #20, #422 ) ;
#456 = ORIENTED_EDGE ( 'NONE', *, *, #444, .F. ) ;
#457 = CIRCLE ( 'NONE', #108, 16.50000000000000000 ) ;
#458 = DIRECTION ( 'NONE',  ( 0.000000000000000000, 0.000000000000000000, 1.000000000000000000 ) ) ;
#459 = VERTEX_POINT ( 'NONE', #121 ) ;
#460 = DIRECTION ( 'NONE',  ( 1.000000000000000000, 0.000000000000000000, 0.000000000000000000 ) ) ;
#461 = ORIENTED_EDGE ( 'NONE', *, *, #382, .F. ) ;
#462 = COLOUR_RGB ( '',0.7921568627450980005, 0.8196078431372548767, 0.9333333333333333481 ) ;
#463 = DIRECTION ( 'NONE',  ( 1.000000000000000000, -0.000000000000000000, -0.000000000000000000 ) ) ;
#464 = ORIENTED_EDGE ( 'NONE', *, *, #140, .T. ) ;
#465 = AXIS2_PLACEMENT_3D ( 'NONE', #160, #119, #520 ) ;
#466 = EDGE_CURVE ( 'NONE', #281, #305, #234, .T. ) ;
#467 = FACE_OUTER_BOUND ( 'NONE', #413, .T. ) ;
#468 = DIRECTION ( 'NONE',  ( 0.000000000000000000, 0.000000000000000000, -1.000000000000000000 ) ) ;
#469 = SURFACE_SIDE_STYLE ('',( #427 ) ) ;
#470 = CARTESIAN_POINT ( 'NONE',  ( -1.000000000000001332, -16.50000000000001776, -37.50000000000000000 ) ) ;
#471 = ADVANCED_FACE ( 'NONE', ( #210, #467 ), #511, .F. ) ;
#472 = CARTESIAN_POINT ( 'NONE',  ( 1.000000000000000000, 3.469446951953614189E-15, 37.50000000000000000 ) ) ;
#473 = LINE ( 'NONE', #201, #95 ) ;
#474 = AXIS2_PLACEMENT_3D ( 'NONE', #300, #567, #524 ) ;
#475 = DIRECTION ( 'NONE',  ( 1.000000000000000000, 0.000000000000000000, 0.000000000000000000 ) ) ;
#476 = AXIS2_PLACEMENT_3D ( 'NONE', #388, #22, #407 ) ;
#477 = CARTESIAN_POINT ( 'NONE',  ( -1.000000000000001332, 16.49999999999997868, -37.50000000000002132 ) ) ;
#478 = VECTOR ( 'NONE', #463, 1000.000000000000000 ) ;
#479 = VECTOR ( 'NONE', #505, 1000.000000000000000 ) ;
#480 = DIRECTION ( 'NONE',  ( -1.000000000000000000, -0.000000000000000000, -0.000000000000000000 ) ) ;
#481 = CIRCLE ( 'NONE', #171, 16.50000000000000000 ) ;
#482 = EDGE_CURVE ( 'NONE', #367, #328, #180, .T. ) ;
#483 = APPLICATION_PROTOCOL_DEFINITION ( 'draft international standard', 'automotive_design', 1998, #199 ) ;
#484 = DIRECTION ( 'NONE',  ( 0.000000000000000000, 0.000000000000000000, -1.000000000000000000 ) ) ;
#485 = ORIENTED_EDGE ( 'NONE', *, *, #548, .F. ) ;
#486 = AXIS2_PLACEMENT_3D ( 'NONE', #282, #235, #458 ) ;
#487 = EDGE_CURVE ( 'NONE', #141, #97, #30, .T. ) ;
#488 = CARTESIAN_POINT ( 'NONE',  ( 1.000000000000000000, 16.49999999999997868, -37.50000000000001421 ) ) ;
#489 = ORIENTED_EDGE ( 'NONE', *, *, #62, .F. ) ;
#490 = CARTESIAN_POINT ( 'NONE',  ( 1.000000000000000000, -2.081668171172168513E-14, -37.50000000000000000 ) ) ;
#491 = ORIENTED_EDGE ( 'NONE', *, *, #301, .T. ) ;
#492 = DIRECTION ( 'NONE',  ( 0.000000000000000000, 0.000000000000000000, -1.000000000000000000 ) ) ;
#493 = VERTEX_POINT ( 'NONE', #384 ) ;
#494 = AXIS2_PLACEMENT_3D ( 'NONE', #261, #435, #42 ) ;
#495 = CARTESIAN_POINT ( 'NONE',  ( -1.000000000000001332, -1.940833789270222777E-14, -25.99999999999999645 ) ) ;
#496 = CIRCLE ( 'NONE', #474, 8.000000000000000000 ) ;
#497 = ADVANCED_FACE ( 'NONE', ( #432 ), #159, .T. ) ;
#498 = EDGE_LOOP ( 'NONE', ( #418, #23, #277, #357, #393 ) ) ;
#499 = MANIFOLD_SOLID_BREP ( 'Boss-Extrude4', #325 ) ;
#500 = FACE_BOUND ( 'NONE', #569, .T. ) ;
#501 = EDGE_LOOP ( 'NONE', ( #518, #11 ) ) ;
#502 = CARTESIAN_POINT ( 'NONE',  ( -1.000000000000001332, 3.469446951953614189E-15, 25.99999999999999645 ) ) ;
#503 = AXIS2_PLACEMENT_3D ( 'NONE', #383, #426, #29 ) ;
#504 = EDGE_LOOP ( 'NONE', ( #9, #445, #172, #509 ) ) ;
#505 = DIRECTION ( 'NONE',  ( 1.000000000000000000, -0.000000000000000000, -0.000000000000000000 ) ) ;
#506 = VERTEX_POINT ( 'NONE', #257 ) ;
#507 = AXIS2_PLACEMENT_3D ( 'NONE', #125, #272, #173 ) ;
#508 = CARTESIAN_POINT ( 'NONE',  ( -1.224646799147353256E-15, 3.469446951953614189E-15, 25.99999999999999645 ) ) ;
#509 = ORIENTED_EDGE ( 'NONE', *, *, #2, .F. ) ;
#510 = EDGE_CURVE ( 'NONE', #311, #377, #551, .T. ) ;
#511 = PLANE ( 'NONE',  #243 ) ;
#512 = ORIENTED_EDGE ( 'NONE', *, *, #217, .T. ) ;
#513 = VECTOR ( 'NONE', #8, 1000.000000000000000 ) ;
#514 = CARTESIAN_POINT ( 'NONE',  ( -6.000000000000001776, -2.081668171172168513E-14, -37.50000000000000000 ) ) ;
#515 = FACE_OUTER_BOUND ( 'NONE', #498, .T. ) ;
#516 = DIRECTION ( 'NONE',  ( 0.000000000000000000, 0.000000000000000000, -1.000000000000000000 ) ) ;
#517 = LINE ( 'NONE', #211, #288 ) ;
#518 = ORIENTED_EDGE ( 'NONE', *, *, #420, .F. ) ;
#519 =( NAMED_UNIT ( * ) SI_UNIT ( $, .STERADIAN. ) SOLID_ANGLE_UNIT ( ) );
#520 = DIRECTION ( 'NONE',  ( 0.000000000000000000, 0.000000000000000000, 1.000000000000000000 ) ) ;
#521 = LINE ( 'NONE', #425, #222 ) ;
#522 = DIRECTION ( 'NONE',  ( -0.000000000000000000, -3.238150488490038759E-16, -1.000000000000000000 ) ) ;
#523 = VECTOR ( 'NONE', #208, 1000.000000000000000 ) ;
#524 = DIRECTION ( 'NONE',  ( 0.000000000000000000, 0.000000000000000000, -1.000000000000000000 ) ) ;
#525 = DIRECTION ( 'NONE',  ( 0.000000000000000000, 0.000000000000000000, -1.000000000000000000 ) ) ;
#526 =( NAMED_UNIT ( * ) PLANE_ANGLE_UNIT ( ) SI_UNIT ( $, .RADIAN. ) );
#527 = DIRECTION ( 'NONE',  ( 0.000000000000000000, 0.000000000000000000, 1.000000000000000000 ) ) ;
#528 = ORIENTED_EDGE ( 'NONE', *, *, #358, .T. ) ;
#529 = DIRECTION ( 'NONE',  ( -1.000000000000000000, -0.000000000000000000, -0.000000000000000000 ) ) ;
#530 = ORIENTED_EDGE ( 'NONE', *, *, #365, .F. ) ;
#531 = ADVANCED_FACE ( 'NONE', ( #250 ), #553, .F. ) ;
#532 = FACE_OUTER_BOUND ( 'NONE', #219, .T. ) ;
#533 = EDGE_LOOP ( 'NONE', ( #182, #512, #290, #150, #197 ) ) ;
#534 = EDGE_CURVE ( 'NONE', #506, #541, #25, .T. ) ;
#535 = LINE ( 'NONE', #170, #355 ) ;
#536 = EDGE_LOOP ( 'NONE', ( #464, #411, #27, #389 ) ) ;
#537 = EDGE_CURVE ( 'NONE', #459, #15, #496, .T. ) ;
#538 = DIRECTION ( 'NONE',  ( 0.000000000000000000, 0.000000000000000000, -1.000000000000000000 ) ) ;
#539 = EDGE_LOOP ( 'NONE', ( #404, #351, #371, #90 ) ) ;
#540 = DIRECTION ( 'NONE',  ( -1.000000000000000000, 0.000000000000000000, 0.000000000000000000 ) ) ;
#541 = VERTEX_POINT ( 'NONE', #46 ) ;
#542 = FACE_BOUND ( 'NONE', #315, .T. ) ;
#543 = VERTEX_POINT ( 'NONE', #167 ) ;
#544 = EDGE_CURVE ( 'NONE', #115, #45, #481, .T. ) ;
#545 = DIRECTION ( 'NONE',  ( 0.000000000000000000, 0.000000000000000000, 1.000000000000000000 ) ) ;
#546 = ORIENTED_EDGE ( 'NONE', *, *, #230, .F. ) ;
#547 = AXIS2_PLACEMENT_3D ( 'NONE', #82, #36, #155 ) ;
#548 = EDGE_CURVE ( 'NONE', #493, #377, #88, .T. ) ;
#549 = CARTESIAN_POINT ( 'NONE',  ( -1.000000000000001332, -2.081668171172168513E-14, -54.00000000000000000 ) ) ;
#550 = ORIENTED_EDGE ( 'NONE', *, *, #240, .T. ) ;
#551 = CIRCLE ( 'NONE', #195, 11.50000000000000355 ) ;
#552 = EDGE_LOOP ( 'NONE', ( #103, #271, #145, #226, #239, #373 ) ) ;
#553 = CYLINDRICAL_SURFACE ( 'NONE', #547, 8.000000000000000000 ) ;
#554 = FACE_OUTER_BOUND ( 'NONE', #504, .T. ) ;
#555 = DIRECTION ( 'NONE',  ( 1.000000000000000000, 0.000000000000000000, 0.000000000000000000 ) ) ;
#556 = DIRECTION ( 'NONE',  ( 0.000000000000000000, 0.000000000000000000, -1.000000000000000000 ) ) ;
#557 = ADVANCED_BREP_SHAPE_REPRESENTATION ( 'Elevator ARm', ( #499, #399 ), #73 ) ;
#558 = DIRECTION ( 'NONE',  ( 0.000000000000000000, -1.000000000000000000, 3.238150488490038759E-16 ) ) ;
#559 = ORIENTED_EDGE ( 'NONE', *, *, #482, .F. ) ;
#560 = AXIS2_PLACEMENT_3D ( 'NONE', #337, #71, #295 ) ;
#561 = DIRECTION ( 'NONE',  ( -1.000000000000000000, 0.000000000000000000, 0.000000000000000000 ) ) ;
#562 = FACE_OUTER_BOUND ( 'NONE', #536, .T. ) ;
#563 = EDGE_CURVE ( 'NONE', #15, #459, #396, .T. ) ;
#564 = CARTESIAN_POINT ( 'NONE',  ( -1.000000000000001332, 16.49999999999997868, -37.50000000000000711 ) ) ;
#565 = VECTOR ( 'NONE', #89, 1000.000000000000000 ) ;
#566 = ORIENTED_EDGE ( 'NONE', *, *, #420, .T. ) ;
#567 = DIRECTION ( 'NONE',  ( 1.000000000000000000, 0.000000000000000000, 0.000000000000000000 ) ) ;
#568 = FACE_OUTER_BOUND ( 'NONE', #228, .T. ) ;
#569 = EDGE_LOOP ( 'NONE', ( #112, #130 ) ) ;
ENDSEC;
END-ISO-10303-21;
