ISO-10303-21;
HEADER;
FILE_DESCRIPTION (( 'STEP AP214' ),
    '1' );
FILE_NAME ('elevator shaft.STEP',
    '2026-02-05T02:30:36',
    ( '' ),
    ( '' ),
    'SwSTEP 2.0',
    'SolidWorks 2025',
    '' );
FILE_SCHEMA (( 'AUTOMOTIVE_DESIGN' ));
ENDSEC;

DATA;
#1 = DIRECTION ( 'NONE',  ( 0.000000000000000000, 0.000000000000000000, 1.000000000000000000 ) ) ;
#2 = PROPERTY_DEFINITION ('external definition','', #273 ) ;
#3 = DOCUMENT_TYPE ( 'geometry' ) ;
#4 = APPLIED_DOCUMENT_REFERENCE ( #277,'',( #68) ) ;
#5 = APPLICATION_PROTOCOL_DEFINITION ( 'draft international standard', 'automotive_design', 1998, #546 ) ;
#6 = DIRECTION ( 'NONE',  ( 0.6665441610488588298, 0.7454655467368515032, 6.237034612986311802E-17 ) ) ;
#7 = PROPERTY_DEFINITION_REPRESENTATION ( #525, #21 ) ;
#8 = APPLICATION_CONTEXT ( 'automotive_design' ) ;
#9 = PROPERTY_DEFINITION_REPRESENTATION ( #148, #352 ) ;
#10 = APPLIED_EXTERNAL_IDENTIFICATION_ASSIGNMENT ( 'Top_Bracket.STEP' , #379, #436,( #15) ) ;
#11 = PROPERTY_DEFINITION_REPRESENTATION ( #701, #578 ) ;
#12 = APPLICATION_PROTOCOL_DEFINITION ( 'draft international standard', 'automotive_design', 1998, #241 ) ;
#13 = IDENTIFICATION_ROLE ( 'external document id and location', $) ;
#14 = PROPERTY_DEFINITION ('document property','', #618 ) ;
#15 = DOCUMENT_FILE ( 'Top_Bracket.STEP' , '', '', #3, '' ,$ ) ;
#16 = IDENTIFICATION_ROLE ( 'external document id and location', $) ;
#17 = DOCUMENT_TYPE ( 'geometry' ) ;
#18 = ITEM_DEFINED_TRANSFORMATION ( 'NONE', 'NONE', #134,  #157 ) ;
#19 = PROPERTY_DEFINITION ('external definition','', #353 ) ;
#20 = ROLE_ASSOCIATION ( #419, #670 ) ;
#21 = SHAPE_REPRESENTATION ( 'Part2^elevator shaft', ( #582 ), #201 ) ;
#22 = PRODUCT ( 'Pivot washer', 'Pivot washer', '', ( #285 ) ) ;
#23 = APPLIED_DOCUMENT_REFERENCE ( #136,'',( #425) ) ;
#24 = DOCUMENT_TYPE ( 'geometry' ) ;
#25 = PROPERTY_DEFINITION ('external definition','', #637 ) ;
#26 = IDENTIFICATION_ROLE ( 'external document id and location', $) ;
#27 = PROPERTY_DEFINITION_REPRESENTATION ( #253, #155 ) ;
#28 = PRODUCT_DEFINITION_SHAPE ( 'NONE', 'NONE',  #745 ) ;
#29 =( NAMED_UNIT ( * ) PLANE_ANGLE_UNIT ( ) SI_UNIT ( $, .RADIAN. ) );
#30 = APPLICATION_CONTEXT ( 'automotive_design' ) ;
#31 = CARTESIAN_POINT ( 'NONE',  ( 0.000000000000000000, 0.000000000000000000, 0.000000000000000000 ) ) ;
#32 = AXIS2_PLACEMENT_3D ( 'NONE', #524, #511, #324 ) ;
#33 = ROLE_ASSOCIATION ( #302, #577 ) ;
#34 = AXIS2_PLACEMENT_3D ( 'NONE', #382, #329, #397 ) ;
#35 = CARTESIAN_POINT ( 'NONE',  ( 24.21455616946244760, 143.4367565703396963, -12.00000000000000888 ) ) ;
#36 = DIRECTION ( 'NONE',  ( 0.000000000000000000, 0.000000000000000000, 1.000000000000000000 ) ) ;
#37 = PRODUCT_DEFINITION_SHAPE ( 'NONE', 'NONE',  #369 ) ;
#38 = ROLE_ASSOCIATION ( #686, #572 ) ;
#39 = DIRECTION ( 'NONE',  ( -0.9334999583505716458, 0.3585775059307000912, -6.742060983451335847E-16 ) ) ;
#40 =( NAMED_UNIT ( * ) SI_UNIT ( $, .STERADIAN. ) SOLID_ANGLE_UNIT ( ) );
#41 = IDENTIFICATION_ROLE ( 'external document id and location', $) ;
#42 = ROLE_ASSOCIATION ( #458, #389 ) ;
#43 = EXTERNAL_SOURCE (IDENTIFIER('') ) ;
#44 = DIRECTION ( 'NONE',  ( 0.8680990230307522593, -0.4963910617779631052, -2.371372272201336473E-16 ) ) ;
#45 = SHAPE_REPRESENTATION ( 'gear axle', ( #489 ), #720 ) ;
#46 = PROPERTY_DEFINITION_REPRESENTATION ( #120, #498 ) ;
#47 = DIRECTION ( 'NONE',  ( -0.003685962058451676751, 0.8855636706103670042, 0.4645033896311167587 ) ) ;
#48 = AXIS2_PLACEMENT_3D ( 'NONE', #102, #517, #162 ) ;
#49 = PRODUCT_DEFINITION_CONTEXT ( 'detailed design', #258, 'design' ) ;
#50 = PROPERTY_DEFINITION_REPRESENTATION ( #494, #578 ) ;
#51 = DIRECTION ( 'NONE',  ( 0.9979592206545740973, 0.06385447447528805331, 3.727959045759901832E-17 ) ) ;
#52 = CONTEXT_DEPENDENT_SHAPE_REPRESENTATION ( #75, #338 ) ;
#53 = APPLICATION_PROTOCOL_DEFINITION ( 'draft international standard', 'automotive_design', 1998, #8 ) ;
#54 = PRODUCT_DEFINITION_SHAPE ( 'NONE', 'NONE',  #765 ) ;
#55 = PRODUCT_DEFINITION ( 'General', '', #220, #326 ) ;
#56 = CARTESIAN_POINT ( 'NONE',  ( 0.000000000000000000, 0.000000000000000000, 0.000000000000000000 ) ) ;
#57 = APPLICATION_CONTEXT ( 'automotive_design' ) ;
#58 = PROPERTY_DEFINITION_REPRESENTATION ( #250, #498 ) ;
#59 = PRODUCT_DEFINITION_SHAPE ( 'NONE', 'NONE',  #756 ) ;
#60 = SHAPE_DEFINITION_REPRESENTATION ( #246, #468 ) ;
#61 = AXIS2_PLACEMENT_3D ( 'NONE', #35, #411, #259 ) ;
#62 = APPLIED_EXTERNAL_IDENTIFICATION_ASSIGNMENT ( 'bracket axles.STEP' , #231, #741,( #349) ) ;
#63 = APPLICATION_PROTOCOL_DEFINITION ( 'draft international standard', 'automotive_design', 1998, #725 ) ;
#64 = PROPERTY_DEFINITION ('external definition','', #580 ) ;
#65 = DOCUMENT_FILE ( 'Washer.STEP' , '', '', #439, '' ,$ ) ;
#66 = CONTEXT_DEPENDENT_SHAPE_REPRESENTATION ( #199, #438 ) ;
#67 = EXTERNAL_SOURCE (IDENTIFIER('') ) ;
#68 = PRODUCT_DEFINITION ( 'General', '', #383, #567 ) ;
#69 = PRODUCT_CONTEXT ( 'NONE', #241, 'mechanical' ) ;
#70 = AXIS2_PLACEMENT_3D ( 'NONE', #362, #724, #191 ) ;
#71 = DIRECTION ( 'NONE',  ( 1.000000000000000000, 0.000000000000000000, 0.000000000000000000 ) ) ;
#72 = OBJECT_ROLE ('mandatory',$ ) ;
#73 = SHAPE_REPRESENTATION ( 'Washer', ( #685 ), #144 ) ;
#74 = APPLIED_DOCUMENT_REFERENCE ( #15,'',( #401) ) ;
#75 =( REPRESENTATION_RELATIONSHIP ('NONE','NONE', #468, #21 ) REPRESENTATION_RELATIONSHIP_WITH_TRANSFORMATION ( #405 )SHAPE_REPRESENTATION_RELATIONSHIP( ) );
#76 = PRODUCT_DEFINITION_SHAPE ( 'NONE', 'NONE',  #751 ) ;
#77 = DOCUMENT_FILE ( 'Main bracket.STEP' , '', '', #679, '' ,$ ) ;
#78 = PRODUCT_DEFINITION ( 'General', '', #501, #660 ) ;
#79 = UNCERTAINTY_MEASURE_WITH_UNIT (LENGTH_MEASURE( 1.000000000000000082E-05 ), #706, 'distance_accuracy_value', 'NONE');
#80 = CONTEXT_DEPENDENT_SHAPE_REPRESENTATION ( #527, #167 ) ;
#81 = DOCUMENT_FILE ( 'Pivot 2.STEP' , '', '', #393, '' ,$ ) ;
#82 = DIRECTION ( 'NONE',  ( 1.000000000000000000, 0.000000000000000000, 0.000000000000000000 ) ) ;
#83 = PROPERTY_DEFINITION ('external definition','', #349 ) ;
#84 =( GEOMETRIC_REPRESENTATION_CONTEXT ( 3 ) GLOBAL_UNCERTAINTY_ASSIGNED_CONTEXT ( ( #669 ) ) GLOBAL_UNIT_ASSIGNED_CONTEXT ( ( #504, #380, #631 ) ) REPRESENTATION_CONTEXT ( 'NONE', 'WORKASPACE' ) );
#85 = APPLIED_EXTERNAL_IDENTIFICATION_ASSIGNMENT ( 'Pivot washer.STEP' , #588, #520,( #247) ) ;
#86 = PRODUCT ( 'Part2^elevator shaft', 'Part2^elevator shaft', '', ( #536 ) ) ;
#87 = APPLIED_EXTERNAL_IDENTIFICATION_ASSIGNMENT ( 'Pivot washer.STEP' , #619, #67,( #136) ) ;
#88 = ROLE_ASSOCIATION ( #163, #723 ) ;
#89 = DIRECTION ( 'NONE',  ( -0.04088014179133896836, 0.9991640576037151833, 2.478012953544473617E-13 ) ) ;
#90 = PRODUCT_DEFINITION_SHAPE ( 'NONE', 'NONE',  #78 ) ;
#91 = APPLICATION_CONTEXT ( 'automotive_design' ) ;
#92 = PROPERTY_DEFINITION_REPRESENTATION ( #97, #278 ) ;
#93 =( NAMED_UNIT ( * ) SI_UNIT ( $, .STERADIAN. ) SOLID_ANGLE_UNIT ( ) );
#94 = DOCUMENT_TYPE ( 'geometry' ) ;
#95 = CARTESIAN_POINT ( 'NONE',  ( 0.000000000000000000, 0.000000000000000000, 0.000000000000000000 ) ) ;
#96 = CONTEXT_DEPENDENT_SHAPE_REPRESENTATION ( #452, #170 ) ;
#97 = PROPERTY_DEFINITION ('external definition','', #77 ) ;
#98 = EXTERNAL_SOURCE (IDENTIFIER('') ) ;
#99 = CARTESIAN_POINT ( 'NONE',  ( 0.000000000000000000, 0.000000000000000000, 0.000000000000000000 ) ) ;
#100 = AXIS2_PLACEMENT_3D ( 'NONE', #268, #206, #314 ) ;
#101 = AXIS2_PLACEMENT_3D ( 'NONE', #454, #647, #585 ) ;
#102 = CARTESIAN_POINT ( 'NONE',  ( -50.38798175030213145, 60.09891995434472278, -6.999999999999984901 ) ) ;
#103 =( NAMED_UNIT ( * ) PLANE_ANGLE_UNIT ( ) SI_UNIT ( $, .RADIAN. ) );
#104 = CONTEXT_DEPENDENT_SHAPE_REPRESENTATION ( #422, #471 ) ;
#105 = DIRECTION ( 'NONE',  ( -0.9355234975158360777, 0.3532644697613070428, -6.758624604852398328E-16 ) ) ;
#106 = ITEM_DEFINED_TRANSFORMATION ( 'NONE', 'NONE', #528,  #157 ) ;
#107 = DIRECTION ( 'NONE',  ( -0.9999913378340654635, -0.004162241804133962227, -4.569971250958704194E-16 ) ) ;
#108 = DIRECTION ( 'NONE',  ( 0.000000000000000000, 0.000000000000000000, 1.000000000000000000 ) ) ;
#109 = ROLE_ASSOCIATION ( #283, #322 ) ;
#110 = DIRECTION ( 'NONE',  ( 6.352942262752722864E-17, -2.486355053305171371E-17, -1.000000000000000000 ) ) ;
#111 = DOCUMENT_TYPE ( 'geometry' ) ;
#112 =( NAMED_UNIT ( * ) PLANE_ANGLE_UNIT ( ) SI_UNIT ( $, .RADIAN. ) );
#113 =( REPRESENTATION_RELATIONSHIP ('NONE','NONE', #468, #498 ) REPRESENTATION_RELATIONSHIP_WITH_TRANSFORMATION ( #548 )SHAPE_REPRESENTATION_RELATIONSHIP( ) );
#114 = ITEM_DEFINED_TRANSFORMATION ( 'NONE', 'NONE', #61,  #685 ) ;
#115 = APPLICATION_PROTOCOL_DEFINITION ( 'draft international standard', 'automotive_design', 1998, #337 ) ;
#116 = DOCUMENT_FILE ( 'Washer.STEP' , '', '', #24, '' ,$ ) ;
#117 = APPLICATION_PROTOCOL_DEFINITION ( 'draft international standard', 'automotive_design', 1998, #208 ) ;
#118 = PROPERTY_DEFINITION ('document property','', #277 ) ;
#119 = PROPERTY_DEFINITION_REPRESENTATION ( #398, #73 ) ;
#120 = PROPERTY_DEFINITION ('external definition','', #626 ) ;
#121 = PRODUCT_CONTEXT ( 'NONE', #615, 'mechanical' ) ;
#122 = EXTERNAL_SOURCE (IDENTIFIER('') ) ;
#123 = PRODUCT_DEFINITION_FORMATION_WITH_SPECIFIED_SOURCE ( 'Symmetric', '', #254, .NOT_KNOWN. ) ;
#124 = APPLICATION_CONTEXT ( 'automotive_design' ) ;
#125 = SHAPE_REPRESENTATION ( 'Pivot 2', ( #448 ), #541 ) ;
#126 = ITEM_DEFINED_TRANSFORMATION ( 'NONE', 'NONE', #394,  #100 ) ;
#127 = OBJECT_ROLE ('mandatory',$ ) ;
#128 = APPLICATION_CONTEXT ( 'automotive_design' ) ;
#129 = PRODUCT_RELATED_PRODUCT_CATEGORY ( 'part', '', ( #496 ) ) ;
#130 = CONTEXT_DEPENDENT_SHAPE_REPRESENTATION ( #192, #551 ) ;
#131 = APPLICATION_PROTOCOL_DEFINITION ( 'draft international standard', 'automotive_design', 1998, #717 ) ;
#132 = PROPERTY_DEFINITION_REPRESENTATION ( #305, #498 ) ;
#133 = PROPERTY_DEFINITION ('external definition','', #562 ) ;
#134 = AXIS2_PLACEMENT_3D ( 'NONE', #153, #44, #515 ) ;
#135 = UNCERTAINTY_MEASURE_WITH_UNIT (LENGTH_MEASURE( 1.000000000000000082E-05 ), #648, 'distance_accuracy_value', 'NONE');
#136 = DOCUMENT_FILE ( 'Pivot washer.STEP' , '', '', #94, '' ,$ ) ;
#137 = DIRECTION ( 'NONE',  ( -0.6782694999328406915, 0.7348132316860210844, 1.263201973518196907E-16 ) ) ;
#138 = APPLICATION_CONTEXT ( 'automotive_design' ) ;
#139 = ROLE_ASSOCIATION ( #704, #486 ) ;
#140 = PRODUCT_DEFINITION_SHAPE ( 'NONE', 'NONE',  #68 ) ;
#141 = ITEM_DEFINED_TRANSFORMATION ( 'NONE', 'NONE', #569,  #308 ) ;
#142 = DIRECTION ( 'NONE',  ( -6.269213754569412579E-16, -7.505877975478218692E-16, 1.000000000000000000 ) ) ;
#143 = PROPERTY_DEFINITION ('document property','', #335 ) ;
#144 =( GEOMETRIC_REPRESENTATION_CONTEXT ( 3 ) GLOBAL_UNCERTAINTY_ASSIGNED_CONTEXT ( ( #473 ) ) GLOBAL_UNIT_ASSIGNED_CONTEXT ( ( #499, #627, #249 ) ) REPRESENTATION_CONTEXT ( 'NONE', 'WORKASPACE' ) );
#145 = CARTESIAN_POINT ( 'NONE',  ( 0.000000000000000000, 0.000000000000000000, 0.000000000000000000 ) ) ;
#146 = APPLIED_EXTERNAL_IDENTIFICATION_ASSIGNMENT ( 'Washer.STEP' , #555, #122,( #116) ) ;
#147 = ROLE_ASSOCIATION ( #127, #432 ) ;
#148 = PROPERTY_DEFINITION ('document property','', #652 ) ;
#149 = PRODUCT_DEFINITION_SHAPE ( 'NONE', 'NONE',  #390 ) ;
#150 = ROLE_ASSOCIATION ( #417, #663 ) ;
#151 = PROPERTY_DEFINITION_REPRESENTATION ( #707, #73 ) ;
#152 = PROPERTY_DEFINITION ('external definition','', #652 ) ;
#153 = CARTESIAN_POINT ( 'NONE',  ( 75.08476866441756670, 88.32576419388942668, 17.50000000000000711 ) ) ;
#154 = IDENTIFICATION_ROLE ( 'external document id and location', $) ;
#155 = SHAPE_REPRESENTATION ( 'Arms2', ( #100 ), #84 ) ;
#156 = DIRECTION ( 'NONE',  ( 0.000000000000000000, 0.000000000000000000, 1.000000000000000000 ) ) ;
#157 = AXIS2_PLACEMENT_3D ( 'NONE', #56, #229, #407 ) ;
#158 = AXIS2_PLACEMENT_3D ( 'NONE', #641, #692, #51 ) ;
#159 = PROPERTY_DEFINITION_REPRESENTATION ( #719, #125 ) ;
#160 = CARTESIAN_POINT ( 'NONE',  ( 24.21455616946243694, 143.4367565703396963, 10.49999999999997335 ) ) ;
#161 = PRODUCT_RELATED_PRODUCT_CATEGORY ( 'part', '', ( #381 ) ) ;
#162 = DIRECTION ( 'NONE',  ( 0.6770128466747203921, -0.7359711987825282575, 1.783991479845996754E-16 ) ) ;
#163 = OBJECT_ROLE ('mandatory',$ ) ;
#164 = AXIS2_PLACEMENT_3D ( 'NONE', #367, #621, #89 ) ;
#165 = DOCUMENT_TYPE ( 'geometry' ) ;
#166 =( GEOMETRIC_REPRESENTATION_CONTEXT ( 3 ) GLOBAL_UNCERTAINTY_ASSIGNED_CONTEXT ( ( #606 ) ) GLOBAL_UNIT_ASSIGNED_CONTEXT ( ( #698, #568, #279 ) ) REPRESENTATION_CONTEXT ( 'NONE', 'WORKASPACE' ) );
#167 = PRODUCT_DEFINITION_SHAPE ( 'NONE', 'NONE',  #766 ) ;
#168 = PROPERTY_DEFINITION_REPRESENTATION ( #25, #21 ) ;
#169 = APPLICATION_PROTOCOL_DEFINITION ( 'draft international standard', 'automotive_design', 1998, #91 ) ;
#170 = PRODUCT_DEFINITION_SHAPE ( 'NONE', 'NONE',  #754 ) ;
#171 = EXTERNAL_SOURCE (IDENTIFIER('') ) ;
#172 = DIRECTION ( 'NONE',  ( 1.000000000000000000, 0.000000000000000000, 0.000000000000000000 ) ) ;
#173 = DOCUMENT_FILE ( 'Washer.STEP' , '', '', #189, '' ,$ ) ;
#174 = SHAPE_DEFINITION_REPRESENTATION ( #671, #45 ) ;
#175 = IDENTIFICATION_ROLE ( 'external document id and location', $) ;
#176 = PROPERTY_DEFINITION ('external definition','', #456 ) ;
#177 = PROPERTY_DEFINITION_REPRESENTATION ( #152, #352 ) ;
#178 = APPLIED_EXTERNAL_IDENTIFICATION_ASSIGNMENT ( 'Pivot 2.STEP' , #16, #98,( #562) ) ;
#179 = PROPERTY_DEFINITION_REPRESENTATION ( #673, #21 ) ;
#180 = APPLICATION_PROTOCOL_DEFINITION ( 'draft international standard', 'automotive_design', 1998, #667 ) ;
#181 = APPLICATION_PROTOCOL_DEFINITION ( 'draft international standard', 'automotive_design', 1998, #219 ) ;
#182 =( REPRESENTATION_RELATIONSHIP ('NONE','NONE', #468, #278 ) REPRESENTATION_RELATIONSHIP_WITH_TRANSFORMATION ( #624 )SHAPE_REPRESENTATION_RELATIONSHIP( ) );
#183 = ROLE_ASSOCIATION ( #649, #23 ) ;
#184 = PRODUCT_DEFINITION ( 'General', '', #554, #521 ) ;
#185 = ROLE_ASSOCIATION ( #446, #424 ) ;
#186 = PROPERTY_DEFINITION ('external definition','', #618 ) ;
#187 =( NAMED_UNIT ( * ) PLANE_ANGLE_UNIT ( ) SI_UNIT ( $, .RADIAN. ) );
#188 = PRODUCT_DEFINITION_FORMATION_WITH_SPECIFIED_SOURCE ( 'Symmetric', '', #557, .NOT_KNOWN. ) ;
#189 = DOCUMENT_TYPE ( 'geometry' ) ;
#190 = PROPERTY_DEFINITION_REPRESENTATION ( #678, #125 ) ;
#191 = DIRECTION ( 'NONE',  ( -1.634025755316567771E-19, -1.242245899011505453E-19, 1.000000000000000000 ) ) ;
#192 =( REPRESENTATION_RELATIONSHIP ('NONE','NONE', #468, #498 ) REPRESENTATION_RELATIONSHIP_WITH_TRANSFORMATION ( #396 )SHAPE_REPRESENTATION_RELATIONSHIP( ) );
#193 = PRODUCT_DEFINITION_SHAPE ( 'NONE', 'NONE',  #759 ) ;
#194 = PRODUCT ( 'elevator shaft', 'elevator shaft', '', ( #672 ) ) ;
#195 = DOCUMENT_TYPE ( 'geometry' ) ;
#196 = DIRECTION ( 'NONE',  ( 1.000000000000000000, 0.000000000000000000, 0.000000000000000000 ) ) ;
#197 = PRODUCT_DEFINITION_SHAPE ( 'NONE', 'NONE',  #401 ) ;
#198 = CONTEXT_DEPENDENT_SHAPE_REPRESENTATION ( #675, #664 ) ;
#199 =( REPRESENTATION_RELATIONSHIP ('NONE','NONE', #468, #155 ) REPRESENTATION_RELATIONSHIP_WITH_TRANSFORMATION ( #126 )SHAPE_REPRESENTATION_RELATIONSHIP( ) );
#200 = PRODUCT_RELATED_PRODUCT_CATEGORY ( 'part', '', ( #248 ) ) ;
#201 =( GEOMETRIC_REPRESENTATION_CONTEXT ( 3 ) GLOBAL_UNCERTAINTY_ASSIGNED_CONTEXT ( ( #714 ) ) GLOBAL_UNIT_ASSIGNED_CONTEXT ( ( #712, #29, #203 ) ) REPRESENTATION_CONTEXT ( 'NONE', 'WORKASPACE' ) );
#202 = AXIS2_PLACEMENT_3D ( 'NONE', #519, #274, #39 ) ;
#203 =( NAMED_UNIT ( * ) SI_UNIT ( $, .STERADIAN. ) SOLID_ANGLE_UNIT ( ) );
#204 = OBJECT_ROLE ('mandatory',$ ) ;
#205 = PRODUCT_DEFINITION_SHAPE ( 'NONE', 'NONE',  #746 ) ;
#206 = DIRECTION ( 'NONE',  ( 0.000000000000000000, 0.000000000000000000, 1.000000000000000000 ) ) ;
#207 = CARTESIAN_POINT ( 'NONE',  ( 75.08476866441756670, 88.32576419388945510, 2.122083644575839447E-15 ) ) ;
#208 = APPLICATION_CONTEXT ( 'automotive_design' ) ;
#209 = APPLIED_DOCUMENT_REFERENCE ( #456,'',( #342) ) ;
#210 = DIRECTION ( 'NONE',  ( -1.811309889423305663E-18, 4.745549406763638063E-16, -1.000000000000000000 ) ) ;
#211 =( NAMED_UNIT ( * ) SI_UNIT ( $, .STERADIAN. ) SOLID_ANGLE_UNIT ( ) );
#212 = AXIS2_PLACEMENT_3D ( 'NONE', #99, #156, #513 ) ;
#213 = ITEM_DEFINED_TRANSFORMATION ( 'NONE', 'NONE', #666,  #212 ) ;
#214 = DIRECTION ( 'NONE',  ( -0.001933375426484561840, 0.4644993660256785950, -0.8855713415762747065 ) ) ;
#215 = CONTEXT_DEPENDENT_SHAPE_REPRESENTATION ( #691, #614 ) ;
#216 = DIRECTION ( 'NONE',  ( 0.7348132316860206403, 0.6782694999328412466, 6.253765084605313907E-16 ) ) ;
#217 = EXTERNAL_SOURCE (IDENTIFIER('') ) ;
#218 = DIRECTION ( 'NONE',  ( 0.6665441610488587187, 0.7454655467368519473, -2.003003561837629052E-16 ) ) ;
#219 = APPLICATION_CONTEXT ( 'automotive_design' ) ;
#220 = PRODUCT_DEFINITION_FORMATION_WITH_SPECIFIED_SOURCE ( 'Symmetric', '', #730, .NOT_KNOWN. ) ;
#221 = PRODUCT_CONTEXT ( 'NONE', #235, 'mechanical' ) ;
#222 = APPLICATION_PROTOCOL_DEFINITION ( 'draft international standard', 'automotive_design', 1998, #325 ) ;
#223 = PROPERTY_DEFINITION ('document property','', #65 ) ;
#224 =( LENGTH_UNIT ( ) NAMED_UNIT ( * ) SI_UNIT ( .MILLI., .METRE. ) );
#225 = OBJECT_ROLE ('mandatory',$ ) ;
#226 = ROLE_ASSOCIATION ( #204, #4 ) ;
#227 = APPLICATION_PROTOCOL_DEFINITION ( 'draft international standard', 'automotive_design', 1998, #645 ) ;
#228 = PRODUCT_DEFINITION_SHAPE ( 'NONE', 'NONE',  #753 ) ;
#229 = DIRECTION ( 'NONE',  ( 0.000000000000000000, 0.000000000000000000, 1.000000000000000000 ) ) ;
#230 = ITEM_DEFINED_TRANSFORMATION ( 'NONE', 'NONE', #357,  #685 ) ;
#231 = IDENTIFICATION_ROLE ( 'external document id and location', $) ;
#232 = APPLIED_DOCUMENT_REFERENCE ( #116,'',( #390) ) ;
#233 = SHAPE_DEFINITION_REPRESENTATION ( #140, #21 ) ;
#234 = APPLIED_EXTERNAL_IDENTIFICATION_ASSIGNMENT ( 'bracket axles.STEP' , #628, #217,( #626) ) ;
#235 = APPLICATION_CONTEXT ( 'automotive_design' ) ;
#236 = APPLICATION_PROTOCOL_DEFINITION ( 'draft international standard', 'automotive_design', 1998, #365 ) ;
#237 = EXTERNAL_SOURCE (IDENTIFIER('') ) ;
#238 = PROPERTY_DEFINITION ('external definition','', #247 ) ;
#239 = UNCERTAINTY_MEASURE_WITH_UNIT (LENGTH_MEASURE( 1.000000000000000082E-05 ), #384, 'distance_accuracy_value', 'NONE');
#240 = ROLE_ASSOCIATION ( #481, #74 ) ;
#241 = APPLICATION_CONTEXT ( 'automotive_design' ) ;
#242 = PROPERTY_DEFINITION_REPRESENTATION ( #545, #547 ) ;
#243 = PRODUCT_DEFINITION_SHAPE ( 'NONE', 'NONE',  #749 ) ;
#244 =( GEOMETRIC_REPRESENTATION_CONTEXT ( 3 ) GLOBAL_UNCERTAINTY_ASSIGNED_CONTEXT ( ( #288 ) ) GLOBAL_UNIT_ASSIGNED_CONTEXT ( ( #293, #400, #594 ) ) REPRESENTATION_CONTEXT ( 'NONE', 'WORKASPACE' ) );
#245 = AXIS2_PLACEMENT_3D ( 'NONE', #263, #466, #573 ) ;
#246 = PRODUCT_DEFINITION_SHAPE ( 'NONE', 'NONE',  #415 ) ;
#247 = DOCUMENT_FILE ( 'Pivot washer.STEP' , '', '', #616, '' ,$ ) ;
#248 = PRODUCT ( 'Main bracket', 'Main bracket', '', ( #656 ) ) ;
#249 =( NAMED_UNIT ( * ) SI_UNIT ( $, .STERADIAN. ) SOLID_ANGLE_UNIT ( ) );
#250 = PROPERTY_DEFINITION ('external definition','', #335 ) ;
#251 = PROPERTY_DEFINITION_REPRESENTATION ( #319, #155 ) ;
#252 =( REPRESENTATION_RELATIONSHIP ('NONE','NONE', #468, #21 ) REPRESENTATION_RELATIONSHIP_WITH_TRANSFORMATION ( #510 )SHAPE_REPRESENTATION_RELATIONSHIP( ) );
#253 = PROPERTY_DEFINITION ('document property','', #478 ) ;
#254 = PRODUCT ( 'Washer', 'Washer', '', ( #351 ) ) ;
#255 = PROPERTY_DEFINITION_REPRESENTATION ( #739, #278 ) ;
#256 = AXIS2_PLACEMENT_3D ( 'NONE', #683, #450, #639 ) ;
#257 = APPLIED_EXTERNAL_IDENTIFICATION_ASSIGNMENT ( 'Pivot 2.STEP' , #316, #171,( #81) ) ;
#258 = APPLICATION_CONTEXT ( 'automotive_design' ) ;
#259 = DIRECTION ( 'NONE',  ( 0.9979592206545740973, 0.06385447447528805331, 3.727959045759901832E-17 ) ) ;
#260 = PRODUCT_DEFINITION_SHAPE ( 'NONE', 'NONE',  #342 ) ;
#261 =( NAMED_UNIT ( * ) PLANE_ANGLE_UNIT ( ) SI_UNIT ( $, .RADIAN. ) );
#262 = ITEM_DEFINED_TRANSFORMATION ( 'NONE', 'NONE', #345,  #582 ) ;
#263 = CARTESIAN_POINT ( 'NONE',  ( 50.04238433220149318, 60.41288209695072453, 8.000000000000003553 ) ) ;
#264 = PROPERTY_DEFINITION_REPRESENTATION ( #2, #155 ) ;
#265 = UNCERTAINTY_MEASURE_WITH_UNIT (LENGTH_MEASURE( 1.000000000000000082E-05 ), #224, 'distance_accuracy_value', 'NONE');
#266 =( REPRESENTATION_RELATIONSHIP ('NONE','NONE', #468, #578 ) REPRESENTATION_RELATIONSHIP_WITH_TRANSFORMATION ( #106 )SHAPE_REPRESENTATION_RELATIONSHIP( ) );
#267 = DIRECTION ( 'NONE',  ( 0.9999913378340657966, 0.004162241804134100137, 1.639182128830084720E-19 ) ) ;
#268 = CARTESIAN_POINT ( 'NONE',  ( 0.000000000000000000, 0.000000000000000000, 0.000000000000000000 ) ) ;
#269 = APPLIED_EXTERNAL_IDENTIFICATION_ASSIGNMENT ( 'Arms.STEP' , #523, #688,( #652) ) ;
#270 = EXTERNAL_SOURCE (IDENTIFIER('') ) ;
#271 = DIRECTION ( 'NONE',  ( -0.004162241804133962227, 0.9999913378340654635, 1.235433928144729317E-19 ) ) ;
#272 = EXTERNAL_SOURCE (IDENTIFIER('') ) ;
#273 = DOCUMENT_FILE ( 'Arms2.STEP' , '', '', #391, '' ,$ ) ;
#274 = DIRECTION ( 'NONE',  ( 7.670428659671918002E-16, 1.165855812490605841E-16, -0.9999999999999997780 ) ) ;
#275 = DIRECTION ( 'NONE',  ( 0.000000000000000000, 0.000000000000000000, 1.000000000000000000 ) ) ;
#276 = PRODUCT_DEFINITION_SHAPE ( 'NONE', 'NONE',  #764 ) ;
#277 = DOCUMENT_FILE ( 'Part2^elevator shaft.STEP' , '', '', #165, '' ,$ ) ;
#278 = SHAPE_REPRESENTATION ( 'Main bracket', ( #256 ), #355 ) ;
#279 =( NAMED_UNIT ( * ) SI_UNIT ( $, .STERADIAN. ) SOLID_ANGLE_UNIT ( ) );
#280 = CARTESIAN_POINT ( 'NONE',  ( 0.000000000000000000, 0.000000000000000000, 0.000000000000000000 ) ) ;
#281 = PROPERTY_DEFINITION ('document property','', #626 ) ;
#282 = PROPERTY_DEFINITION_REPRESENTATION ( #433, #21 ) ;
#283 = OBJECT_ROLE ('mandatory',$ ) ;
#284 = AXIS2_PLACEMENT_3D ( 'NONE', #416, #412, #474 ) ;
#285 = PRODUCT_CONTEXT ( 'NONE', #30, 'mechanical' ) ;
#286 = IDENTIFICATION_ROLE ( 'external document id and location', $) ;
#287 = PROPERTY_DEFINITION ('document property','', #173 ) ;
#288 = UNCERTAINTY_MEASURE_WITH_UNIT (LENGTH_MEASURE( 1.000000000000000082E-05 ), #293, 'distance_accuracy_value', 'NONE');
#289 = PRODUCT_RELATED_PRODUCT_CATEGORY ( 'part', '', ( #557 ) ) ;
#290 = ITEM_DEFINED_TRANSFORMATION ( 'NONE', 'NONE', #32,  #582 ) ;
#291 = SHAPE_DEFINITION_REPRESENTATION ( #37, #155 ) ;
#292 = PROPERTY_DEFINITION ('document property','', #273 ) ;
#293 =( LENGTH_UNIT ( ) NAMED_UNIT ( * ) SI_UNIT ( .MILLI., .METRE. ) );
#294 = APPLIED_DOCUMENT_REFERENCE ( #65,'',( #390) ) ;
#295 = SHAPE_DEFINITION_REPRESENTATION ( #260, #352 ) ;
#296 = DOCUMENT_TYPE ( 'geometry' ) ;
#297 = UNCERTAINTY_MEASURE_WITH_UNIT (LENGTH_MEASURE( 1.000000000000000082E-05 ), #462, 'distance_accuracy_value', 'NONE');
#298 = CONTEXT_DEPENDENT_SHAPE_REPRESENTATION ( #697, #372 ) ;
#299 = APPLICATION_PROTOCOL_DEFINITION ( 'draft international standard', 'automotive_design', 1998, #235 ) ;
#300 = PRODUCT_DEFINITION_CONTEXT ( 'detailed design', #546, 'design' ) ;
#301 = DOCUMENT_TYPE ( 'geometry' ) ;
#302 = OBJECT_ROLE ('mandatory',$ ) ;
#303 =( REPRESENTATION_RELATIONSHIP ('NONE','NONE', #468, #547 ) REPRESENTATION_RELATIONSHIP_WITH_TRANSFORMATION ( #141 )SHAPE_REPRESENTATION_RELATIONSHIP( ) );
#304 = CONTEXT_DEPENDENT_SHAPE_REPRESENTATION ( #532, #28 ) ;
#305 = PROPERTY_DEFINITION ('external definition','', #553 ) ;
#306 = ROLE_ASSOCIATION ( #72, #668 ) ;
#307 = PROPERTY_DEFINITION ('document property','', #349 ) ;
#308 = AXIS2_PLACEMENT_3D ( 'NONE', #145, #108, #172 ) ;
#309 = AXIS2_PLACEMENT_3D ( 'NONE', #700, #682, #634 ) ;
#310 = PROPERTY_DEFINITION_REPRESENTATION ( #469, #73 ) ;
#311 = PROPERTY_DEFINITION_REPRESENTATION ( #186, #45 ) ;
#312 = PRODUCT_DEFINITION_SHAPE ( 'NONE', 'NONE',  #696 ) ;
#313 = CARTESIAN_POINT ( 'NONE',  ( -0.5980533449652701838, 198.2719360547132794, -3.553946157469682100E-15 ) ) ;
#314 = DIRECTION ( 'NONE',  ( 1.000000000000000000, 0.000000000000000000, 0.000000000000000000 ) ) ;
#315 = PROPERTY_DEFINITION_REPRESENTATION ( #653, #578 ) ;
#316 = IDENTIFICATION_ROLE ( 'external document id and location', $) ;
#317 = PROPERTY_DEFINITION ('external definition','', #116 ) ;
#318 = CONTEXT_DEPENDENT_SHAPE_REPRESENTATION ( #561, #76 ) ;
#319 = PROPERTY_DEFINITION ('external definition','', #478 ) ;
#320 = PROPERTY_DEFINITION_REPRESENTATION ( #535, #21 ) ;
#321 = PRODUCT_DEFINITION_FORMATION_WITH_SPECIFIED_SOURCE ( 'Symmetric', '', #629, .NOT_KNOWN. ) ;
#322 = APPLIED_DOCUMENT_REFERENCE ( #640,'',( #68) ) ;
#323 = IDENTIFICATION_ROLE ( 'external document id and location', $) ;
#324 = DIRECTION ( 'NONE',  ( -0.6677969155255113476, -0.7443435225852462755, 4.061103270711226979E-19 ) ) ;
#325 = APPLICATION_CONTEXT ( 'automotive_design' ) ;
#326 = PRODUCT_DEFINITION_CONTEXT ( 'detailed design', #492, 'design' ) ;
#327 = PROPERTY_DEFINITION_REPRESENTATION ( #343, #352 ) ;
#328 = CARTESIAN_POINT ( 'NONE',  ( -50.78055746129049908, 115.6527979113054414, 4.999999999999992895 ) ) ;
#329 = DIRECTION ( 'NONE',  ( 0.06385447447528805331, -0.9979592206545740973, -1.626715835546600434E-16 ) ) ;
#330 = DIRECTION ( 'NONE',  ( 1.000000000000000000, 0.000000000000000000, 0.000000000000000000 ) ) ;
#331 =( GEOMETRIC_REPRESENTATION_CONTEXT ( 3 ) GLOBAL_UNCERTAINTY_ASSIGNED_CONTEXT ( ( #79 ) ) GLOBAL_UNIT_ASSIGNED_CONTEXT ( ( #706, #187, #93 ) ) REPRESENTATION_CONTEXT ( 'NONE', 'WORKASPACE' ) );
#332 = APPLIED_EXTERNAL_IDENTIFICATION_ASSIGNMENT ( 'Arms2.STEP' , #348, #270,( #273) ) ;
#333 = PROPERTY_DEFINITION_REPRESENTATION ( #597, #21 ) ;
#334 = CARTESIAN_POINT ( 'NONE',  ( -50.38798175030220960, 60.09891995434464462, 8.000000000000005329 ) ) ;
#335 = DOCUMENT_FILE ( 'bracket axles.STEP' , '', '', #601, '' ,$ ) ;
#336 = PRODUCT_CONTEXT ( 'NONE', #219, 'mechanical' ) ;
#337 = APPLICATION_CONTEXT ( 'automotive_design' ) ;
#338 = PRODUCT_DEFINITION_SHAPE ( 'NONE', 'NONE',  #763 ) ;
#339 = ROLE_ASSOCIATION ( #693, #465 ) ;
#340 = APPLIED_DOCUMENT_REFERENCE ( #652,'',( #342) ) ;
#341 = OBJECT_ROLE ('mandatory',$ ) ;
#342 = PRODUCT_DEFINITION ( 'General', '', #321, #300 ) ;
#343 = PROPERTY_DEFINITION ('document property','', #456 ) ;
#344 = PROPERTY_DEFINITION_REPRESENTATION ( #287, #73 ) ;
#345 = AXIS2_PLACEMENT_3D ( 'NONE', #442, #216, #447 ) ;
#346 = SHAPE_DEFINITION_REPRESENTATION ( #90, #498 ) ;
#347 = ROLE_ASSOCIATION ( #591, #232 ) ;
#348 = IDENTIFICATION_ROLE ( 'external document id and location', $) ;
#349 = DOCUMENT_FILE ( 'bracket axles.STEP' , '', '', #605, '' ,$ ) ;
#350 = EXTERNAL_SOURCE (IDENTIFIER('') ) ;
#351 = PRODUCT_CONTEXT ( 'NONE', #667, 'mechanical' ) ;
#352 = SHAPE_REPRESENTATION ( 'Arms', ( #212 ), #410 ) ;
#353 = DOCUMENT_FILE ( 'Pivot washer.STEP' , '', '', #472, '' ,$ ) ;
#354 = PRODUCT_DEFINITION_SHAPE ( 'NONE', 'NONE',  #748 ) ;
#355 =( GEOMETRIC_REPRESENTATION_CONTEXT ( 3 ) GLOBAL_UNCERTAINTY_ASSIGNED_CONTEXT ( ( #265 ) ) GLOBAL_UNIT_ASSIGNED_CONTEXT ( ( #224, #710, #455 ) ) REPRESENTATION_CONTEXT ( 'NONE', 'WORKASPACE' ) );
#356 = ITEM_DEFINED_TRANSFORMATION ( 'NONE', 'NONE', #435,  #489 ) ;
#357 = AXIS2_PLACEMENT_3D ( 'NONE', #579, #581, #509 ) ;
#358 = APPLIED_EXTERNAL_IDENTIFICATION_ASSIGNMENT ( 'Part2^elevator shaft.STEP' , #376, #388,( #640) ) ;
#359 = APPLIED_EXTERNAL_IDENTIFICATION_ASSIGNMENT ( 'Washer.STEP' , #175, #237,( #173) ) ;
#360 = CONTEXT_DEPENDENT_SHAPE_REPRESENTATION ( #303, #354 ) ;
#361 = IDENTIFICATION_ROLE ( 'external document id and location', $) ;
#362 = CARTESIAN_POINT ( 'NONE',  ( -75.77596350060871089, 87.69783990868558021, 8.569895323699880645E-17 ) ) ;
#363 = DOCUMENT_TYPE ( 'geometry' ) ;
#364 = PROPERTY_DEFINITION ('document property','', #553 ) ;
#365 = APPLICATION_CONTEXT ( 'automotive_design' ) ;
#366 = PROPERTY_DEFINITION_REPRESENTATION ( #14, #45 ) ;
#367 = CARTESIAN_POINT ( 'NONE',  ( 24.99999999999338840, 32.50000000000463274, -10.50000000000143352 ) ) ;
#368 = OBJECT_ROLE ('mandatory',$ ) ;
#369 = PRODUCT_DEFINITION ( 'General', '', #395, #732 ) ;
#370 = ITEM_DEFINED_TRANSFORMATION ( 'NONE', 'NONE', #101,  #157 ) ;
#371 = CONTEXT_DEPENDENT_SHAPE_REPRESENTATION ( #508, #243 ) ;
#372 = PRODUCT_DEFINITION_SHAPE ( 'NONE', 'NONE',  #762 ) ;
#373 = DIRECTION ( 'NONE',  ( 1.000000000000000000, 0.000000000000000000, 0.000000000000000000 ) ) ;
#374 = APPLIED_EXTERNAL_IDENTIFICATION_ASSIGNMENT ( 'Arms.STEP' , #361, #607,( #456) ) ;
#375 = APPLIED_EXTERNAL_IDENTIFICATION_ASSIGNMENT ( 'Part2^elevator shaft.STEP' , #13, #540,( #277) ) ;
#376 = IDENTIFICATION_ROLE ( 'external document id and location', $) ;
#377 = ITEM_DEFINED_TRANSFORMATION ( 'NONE', 'NONE', #490,  #448 ) ;
#378 = PRODUCT ( 'bracket axles', 'bracket axles', '', ( #221 ) ) ;
#379 = IDENTIFICATION_ROLE ( 'external document id and location', $) ;
#380 =( NAMED_UNIT ( * ) PLANE_ANGLE_UNIT ( ) SI_UNIT ( $, .RADIAN. ) );
#381 = PRODUCT ( 'Arms2', 'Arms2', '', ( #336 ) ) ;
#382 = CARTESIAN_POINT ( 'NONE',  ( -25.78515142192738807, 143.6077559139429241, -11.99999999999998401 ) ) ;
#383 = PRODUCT_DEFINITION_FORMATION_WITH_SPECIFIED_SOURCE ( 'Symmetric', '', #86, .NOT_KNOWN. ) ;
#384 =( LENGTH_UNIT ( ) NAMED_UNIT ( * ) SI_UNIT ( .MILLI., .METRE. ) );
#385 = APPLIED_EXTERNAL_IDENTIFICATION_ASSIGNMENT ( 'Part2^elevator shaft.STEP' , #655, #505,( #413) ) ;
#386 = CONTEXT_DEPENDENT_SHAPE_REPRESENTATION ( #443, #228 ) ;
#387 = DIRECTION ( 'NONE',  ( 7.665554206615482335E-16, 1.168194121521997075E-16, -0.9999999999999998890 ) ) ;
#388 = EXTERNAL_SOURCE (IDENTIFIER('') ) ;
#389 = APPLIED_DOCUMENT_REFERENCE ( #441,'',( #390) ) ;
#390 = PRODUCT_DEFINITION ( 'General', '', #123, #636 ) ;
#391 = DOCUMENT_TYPE ( 'geometry' ) ;
#392 = PROPERTY_DEFINITION_REPRESENTATION ( #292, #155 ) ;
#393 = DOCUMENT_TYPE ( 'geometry' ) ;
#394 = AXIS2_PLACEMENT_3D ( 'NONE', #475, #137, #142 ) ;
#395 = PRODUCT_DEFINITION_FORMATION_WITH_SPECIFIED_SOURCE ( 'Symmetric', '', #381, .NOT_KNOWN. ) ;
#396 = ITEM_DEFINED_TRANSFORMATION ( 'NONE', 'NONE', #598,  #699 ) ;
#397 = DIRECTION ( 'NONE',  ( 0.9979592206545740973, 0.06385447447528805331, 3.727959045759901832E-17 ) ) ;
#398 = PROPERTY_DEFINITION ('external definition','', #173 ) ;
#399 = EXTERNAL_SOURCE (IDENTIFIER('') ) ;
#400 =( NAMED_UNIT ( * ) PLANE_ANGLE_UNIT ( ) SI_UNIT ( $, .RADIAN. ) );
#401 = PRODUCT_DEFINITION ( 'General', '', #188, #586 ) ;
#402 = OBJECT_ROLE ('mandatory',$ ) ;
#403 = PRODUCT_DEFINITION_SHAPE ( 'NONE', 'NONE',  #767 ) ;
#404 = EXTERNAL_SOURCE (IDENTIFIER('') ) ;
#405 = ITEM_DEFINED_TRANSFORMATION ( 'NONE', 'NONE', #463,  #582 ) ;
#406 = SHAPE_DEFINITION_REPRESENTATION ( #197, #547 ) ;
#407 = DIRECTION ( 'NONE',  ( 1.000000000000000000, 0.000000000000000000, 0.000000000000000000 ) ) ;
#408 = PRODUCT_DEFINITION_SHAPE ( 'NONE', 'NONE',  #757 ) ;
#409 = PROPERTY_DEFINITION_REPRESENTATION ( #726, #73 ) ;
#410 =( GEOMETRIC_REPRESENTATION_CONTEXT ( 3 ) GLOBAL_UNCERTAINTY_ASSIGNED_CONTEXT ( ( #239 ) ) GLOBAL_UNIT_ASSIGNED_CONTEXT ( ( #384, #103, #40 ) ) REPRESENTATION_CONTEXT ( 'NONE', 'WORKASPACE' ) );
#411 = DIRECTION ( 'NONE',  ( 0.06385447447528805331, -0.9979592206545740973, -1.626715835546600434E-16 ) ) ;
#412 = DIRECTION ( 'NONE',  ( 0.000000000000000000, 0.000000000000000000, 1.000000000000000000 ) ) ;
#413 = DOCUMENT_FILE ( 'Part2^elevator shaft.STEP' , '', '', #543, '' ,$ ) ;
#414 = APPLICATION_PROTOCOL_DEFINITION ( 'draft international standard', 'automotive_design', 1998, #138 ) ;
#415 = PRODUCT_DEFINITION ( 'General', '', #644, #480 ) ;
#416 = CARTESIAN_POINT ( 'NONE',  ( 0.000000000000000000, 0.000000000000000000, 0.000000000000000000 ) ) ;
#417 = OBJECT_ROLE ('mandatory',$ ) ;
#418 = EXTERNAL_SOURCE (IDENTIFIER('') ) ;
#419 = OBJECT_ROLE ('mandatory',$ ) ;
#420 = PROPERTY_DEFINITION ('document property','', #15 ) ;
#421 = APPLIED_EXTERNAL_IDENTIFICATION_ASSIGNMENT ( 'Arms2.STEP' , #286, #404,( #478) ) ;
#422 =( REPRESENTATION_RELATIONSHIP ('NONE','NONE', #468, #73 ) REPRESENTATION_RELATIONSHIP_WITH_TRANSFORMATION ( #633 )SHAPE_REPRESENTATION_RELATIONSHIP( ) );
#423 = IDENTIFICATION_ROLE ( 'external document id and location', $) ;
#424 = APPLIED_DOCUMENT_REFERENCE ( #478,'',( #369) ) ;
#425 = PRODUCT_DEFINITION ( 'General', '', #721, #49 ) ;
#426 = CARTESIAN_POINT ( 'NONE',  ( 0.000000000000000000, 0.000000000000000000, 0.000000000000000000 ) ) ;
#427 = PRODUCT_DEFINITION_SHAPE ( 'NONE', 'NONE',  #760 ) ;
#428 = PROPERTY_DEFINITION_REPRESENTATION ( #238, #578 ) ;
#429 = APPLICATION_PROTOCOL_DEFINITION ( 'draft international standard', 'automotive_design', 1998, #124 ) ;
#430 = PRODUCT_DEFINITION_SHAPE ( 'NONE', 'NONE',  #425 ) ;
#431 = APPLIED_DOCUMENT_REFERENCE ( #353,'',( #425) ) ;
#432 = APPLIED_DOCUMENT_REFERENCE ( #247,'',( #425) ) ;
#433 = PROPERTY_DEFINITION ('document property','', #413 ) ;
#434 = CARTESIAN_POINT ( 'NONE',  ( -25.95395227938130134, 87.90521296285641029, 6.449863305873199254E-15 ) ) ;
#435 = AXIS2_PLACEMENT_3D ( 'NONE', #434, #214, #47 ) ;
#436 = EXTERNAL_SOURCE (IDENTIFIER('') ) ;
#437 =( NAMED_UNIT ( * ) SI_UNIT ( $, .STERADIAN. ) SOLID_ANGLE_UNIT ( ) );
#438 = PRODUCT_DEFINITION_SHAPE ( 'NONE', 'NONE',  #744 ) ;
#439 = DOCUMENT_TYPE ( 'geometry' ) ;
#440 = PRODUCT_RELATED_PRODUCT_CATEGORY ( 'part', '', ( #378 ) ) ;
#441 = DOCUMENT_FILE ( 'Washer.STEP' , '', '', #111, '' ,$ ) ;
#442 = CARTESIAN_POINT ( 'NONE',  ( 49.64966241693600324, 115.8812603821152578, 4.999999999999987566 ) ) ;
#443 =( REPRESENTATION_RELATIONSHIP ('NONE','NONE', #468, #498 ) REPRESENTATION_RELATIONSHIP_WITH_TRANSFORMATION ( #694 )SHAPE_REPRESENTATION_RELATIONSHIP( ) );
#444 = OBJECT_ROLE ('mandatory',$ ) ;
#445 = APPLIED_DOCUMENT_REFERENCE ( #626,'',( #78) ) ;
#446 = OBJECT_ROLE ('mandatory',$ ) ;
#447 = DIRECTION ( 'NONE',  ( -0.6782694999328412466, 0.7348132316860206403, -3.701953762871100135E-16 ) ) ;
#448 = AXIS2_PLACEMENT_3D ( 'NONE', #689, #36, #196 ) ;
#449 = PRODUCT_RELATED_PRODUCT_CATEGORY ( 'part', '', ( #730 ) ) ;
#450 = DIRECTION ( 'NONE',  ( 0.000000000000000000, 0.000000000000000000, 1.000000000000000000 ) ) ;
#451 = APPLIED_EXTERNAL_IDENTIFICATION_ASSIGNMENT ( 'Part2^elevator shaft.STEP' , #41, #630,( #637) ) ;
#452 =( REPRESENTATION_RELATIONSHIP ('NONE','NONE', #468, #155 ) REPRESENTATION_RELATIONSHIP_WITH_TRANSFORMATION ( #506 )SHAPE_REPRESENTATION_RELATIONSHIP( ) );
#453 = CONTEXT_DEPENDENT_SHAPE_REPRESENTATION ( #531, #59 ) ;
#454 = CARTESIAN_POINT ( 'NONE',  ( -75.77596350060871089, 87.69783990868558021, -17.50000000000000000 ) ) ;
#455 =( NAMED_UNIT ( * ) SI_UNIT ( $, .STERADIAN. ) SOLID_ANGLE_UNIT ( ) );
#456 = DOCUMENT_FILE ( 'Arms.STEP' , '', '', #642, '' ,$ ) ;
#457 = DIRECTION ( 'NONE',  ( 0.6770128466747212803, -0.7359711987825275914, 6.130909235246364173E-17 ) ) ;
#458 = OBJECT_ROLE ('mandatory',$ ) ;
#459 = DIRECTION ( 'NONE',  ( 0.000000000000000000, 0.000000000000000000, 1.000000000000000000 ) ) ;
#460 = PROPERTY_DEFINITION_REPRESENTATION ( #317, #73 ) ;
#461 = DOCUMENT_TYPE ( 'geometry' ) ;
#462 =( LENGTH_UNIT ( ) NAMED_UNIT ( * ) SI_UNIT ( .MILLI., .METRE. ) );
#463 = AXIS2_PLACEMENT_3D ( 'NONE', #328, #635, #218 ) ;
#464 = IDENTIFICATION_ROLE ( 'external document id and location', $) ;
#465 = APPLIED_DOCUMENT_REFERENCE ( #349,'',( #78) ) ;
#466 = DIRECTION ( 'NONE',  ( -0.6677969155255117917, -0.7443435225852459425, -3.090644432647836286E-19 ) ) ;
#467 = PRODUCT_CONTEXT ( 'NONE', #57, 'mechanical' ) ;
#468 = SHAPE_REPRESENTATION ( 'elevator shaft', ( #284, #734, #394, #70, #500, #164, #569, #435, #583, #490, #666, #202, #245, #158, #345, #528, #48, #32, #61, #598, #309, #463, #34, #357, #134, #101 ), #166 ) ;
#469 = PROPERTY_DEFINITION ('external definition','', #65 ) ;
#470 = PROPERTY_DEFINITION_REPRESENTATION ( #560, #21 ) ;
#471 = PRODUCT_DEFINITION_SHAPE ( 'NONE', 'NONE',  #755 ) ;
#472 = DOCUMENT_TYPE ( 'geometry' ) ;
#473 = UNCERTAINTY_MEASURE_WITH_UNIT (LENGTH_MEASURE( 1.000000000000000082E-05 ), #499, 'distance_accuracy_value', 'NONE');
#474 = DIRECTION ( 'NONE',  ( 1.000000000000000000, 0.000000000000000000, 0.000000000000000000 ) ) ;
#475 = CARTESIAN_POINT ( 'NONE',  ( 49.64966241693603166, 115.8812603821153004, -8.000000000000007105 ) ) ;
#476 = ROLE_ASSOCIATION ( #341, #294 ) ;
#477 = APPLIED_EXTERNAL_IDENTIFICATION_ASSIGNMENT ( 'Main bracket.STEP' , #657, #272,( #77) ) ;
#478 = DOCUMENT_FILE ( 'Arms2.STEP' , '', '', #728, '' ,$ ) ;
#479 = PROPERTY_DEFINITION_REPRESENTATION ( #133, #125 ) ;
#480 = PRODUCT_DEFINITION_CONTEXT ( 'detailed design', #717, 'design' ) ;
#481 = OBJECT_ROLE ('mandatory',$ ) ;
#482 = APPLICATION_PROTOCOL_DEFINITION ( 'draft international standard', 'automotive_design', 1998, #492 ) ;
#483 = PROPERTY_DEFINITION ('document property','', #247 ) ;
#484 = ROLE_ASSOCIATION ( #512, #431 ) ;
#485 =( REPRESENTATION_RELATIONSHIP ('NONE','NONE', #468, #73 ) REPRESENTATION_RELATIONSHIP_WITH_TRANSFORMATION ( #230 )SHAPE_REPRESENTATION_RELATIONSHIP( ) );
#486 = APPLIED_DOCUMENT_REFERENCE ( #618,'',( #184) ) ;
#487 = DOCUMENT_TYPE ( 'geometry' ) ;
#488 = PRODUCT_DEFINITION_SHAPE ( 'NONE', 'NONE',  #747 ) ;
#489 = AXIS2_PLACEMENT_3D ( 'NONE', #31, #275, #330 ) ;
#490 = AXIS2_PLACEMENT_3D ( 'NONE', #207, #267, #210 ) ;
#491 = DIRECTION ( 'NONE',  ( -2.488488415975883874E-17, -6.141594617646380171E-17, 1.000000000000000000 ) ) ;
#492 = APPLICATION_CONTEXT ( 'automotive_design' ) ;
#493 = DIRECTION ( 'NONE',  ( 0.000000000000000000, 0.000000000000000000, 1.000000000000000000 ) ) ;
#494 = PROPERTY_DEFINITION ('document property','', #580 ) ;
#495 = DIRECTION ( 'NONE',  ( 0.000000000000000000, 0.000000000000000000, 1.000000000000000000 ) ) ;
#496 = PRODUCT ( 'gear axle', 'gear axle', '', ( #121 ) ) ;
#497 = OBJECT_ROLE ('mandatory',$ ) ;
#498 = SHAPE_REPRESENTATION ( 'bracket axles', ( #699 ), #244 ) ;
#499 =( LENGTH_UNIT ( ) NAMED_UNIT ( * ) SI_UNIT ( .MILLI., .METRE. ) );
#500 = AXIS2_PLACEMENT_3D ( 'NONE', #426, #495, #373 ) ;
#501 = PRODUCT_DEFINITION_FORMATION_WITH_SPECIFIED_SOURCE ( 'Symmetric', '', #378, .NOT_KNOWN. ) ;
#502 = PRODUCT_RELATED_PRODUCT_CATEGORY ( 'part', '', ( #86 ) ) ;
#503 = EXTERNAL_SOURCE (IDENTIFIER('') ) ;
#504 =( LENGTH_UNIT ( ) NAMED_UNIT ( * ) SI_UNIT ( .MILLI., .METRE. ) );
#505 = EXTERNAL_SOURCE (IDENTIFIER('') ) ;
#506 = ITEM_DEFINED_TRANSFORMATION ( 'NONE', 'NONE', #245,  #100 ) ;
#507 = PROPERTY_DEFINITION ('document property','', #81 ) ;
#508 =( REPRESENTATION_RELATIONSHIP ('NONE','NONE', #468, #45 ) REPRESENTATION_RELATIONSHIP_WITH_TRANSFORMATION ( #356 )SHAPE_REPRESENTATION_RELATIONSHIP( ) );
#509 = DIRECTION ( 'NONE',  ( 0.9979592206545740973, 0.06385447447528805331, 3.727959045759901832E-17 ) ) ;
#510 = ITEM_DEFINED_TRANSFORMATION ( 'NONE', 'NONE', #48,  #582 ) ;
#511 = DIRECTION ( 'NONE',  ( -0.7443435225852462755, 0.6677969155255113476, -1.383501709357643561E-17 ) ) ;
#512 = OBJECT_ROLE ('mandatory',$ ) ;
#513 = DIRECTION ( 'NONE',  ( 1.000000000000000000, 0.000000000000000000, 0.000000000000000000 ) ) ;
#514 = PROPERTY_DEFINITION_REPRESENTATION ( #176, #352 ) ;
#515 = DIRECTION ( 'NONE',  ( 0.4963910617779631052, 0.8680990230307522593, -6.245004513516481874E-16 ) ) ;
#516 =( REPRESENTATION_RELATIONSHIP ('NONE','NONE', #468, #21 ) REPRESENTATION_RELATIONSHIP_WITH_TRANSFORMATION ( #290 )SHAPE_REPRESENTATION_RELATIONSHIP( ) );
#517 = DIRECTION ( 'NONE',  ( -0.7359711987825282575, -0.6770128466747203921, 1.583099493775467014E-16 ) ) ;
#518 = PROPERTY_DEFINITION_REPRESENTATION ( #658, #73 ) ;
#519 = CARTESIAN_POINT ( 'NONE',  ( -25.78515142192740228, 143.6077559139429241, 10.49999999999998757 ) ) ;
#520 = EXTERNAL_SOURCE (IDENTIFIER('') ) ;
#521 = PRODUCT_DEFINITION_CONTEXT ( 'detailed design', #208, 'design' ) ;
#522 =( NAMED_UNIT ( * ) PLANE_ANGLE_UNIT ( ) SI_UNIT ( $, .RADIAN. ) );
#523 = IDENTIFICATION_ROLE ( 'external document id and location', $) ;
#524 = CARTESIAN_POINT ( 'NONE',  ( 50.04238433220139370, 60.41288209695083111, -7.000000000000010658 ) ) ;
#525 = PROPERTY_DEFINITION ('external definition','', #277 ) ;
#526 = PROPERTY_DEFINITION_REPRESENTATION ( #118, #21 ) ;
#527 =( REPRESENTATION_RELATIONSHIP ('NONE','NONE', #468, #578 ) REPRESENTATION_RELATIONSHIP_WITH_TRANSFORMATION ( #18 )SHAPE_REPRESENTATION_RELATIONSHIP( ) );
#528 = AXIS2_PLACEMENT_3D ( 'NONE', #638, #687, #695 ) ;
#529 = CONTEXT_DEPENDENT_SHAPE_REPRESENTATION ( #574, #427 ) ;
#530 = APPLICATION_PROTOCOL_DEFINITION ( 'draft international standard', 'automotive_design', 1998, #615 ) ;
#531 =( REPRESENTATION_RELATIONSHIP ('NONE','NONE', #468, #21 ) REPRESENTATION_RELATIONSHIP_WITH_TRANSFORMATION ( #262 )SHAPE_REPRESENTATION_RELATIONSHIP( ) );
#532 =( REPRESENTATION_RELATIONSHIP ('NONE','NONE', #468, #125 ) REPRESENTATION_RELATIONSHIP_WITH_TRANSFORMATION ( #718 )SHAPE_REPRESENTATION_RELATIONSHIP( ) );
#533 =( NAMED_UNIT ( * ) SI_UNIT ( $, .STERADIAN. ) SOLID_ANGLE_UNIT ( ) );
#534 = ROLE_ASSOCIATION ( #444, #539 ) ;
#535 = PROPERTY_DEFINITION ('document property','', #640 ) ;
#536 = PRODUCT_CONTEXT ( 'NONE', #91, 'mechanical' ) ;
#537 = ROLE_ASSOCIATION ( #225, #654 ) ;
#538 = CONTEXT_DEPENDENT_SHAPE_REPRESENTATION ( #563, #565 ) ;
#539 = APPLIED_DOCUMENT_REFERENCE ( #413,'',( #68) ) ;
#540 = EXTERNAL_SOURCE (IDENTIFIER('') ) ;
#541 =( GEOMETRIC_REPRESENTATION_CONTEXT ( 3 ) GLOBAL_UNCERTAINTY_ASSIGNED_CONTEXT ( ( #599 ) ) GLOBAL_UNIT_ASSIGNED_CONTEXT ( ( #733, #261, #211 ) ) REPRESENTATION_CONTEXT ( 'NONE', 'WORKASPACE' ) );
#542 = SHAPE_DEFINITION_REPRESENTATION ( #312, #278 ) ;
#543 = DOCUMENT_TYPE ( 'geometry' ) ;
#544 = PROPERTY_DEFINITION_REPRESENTATION ( #507, #125 ) ;
#545 = PROPERTY_DEFINITION ('external definition','', #15 ) ;
#546 = APPLICATION_CONTEXT ( 'automotive_design' ) ;
#547 = SHAPE_REPRESENTATION ( 'Top_Bracket', ( #308 ), #552 ) ;
#548 = ITEM_DEFINED_TRANSFORMATION ( 'NONE', 'NONE', #164,  #699 ) ;
#549 = CARTESIAN_POINT ( 'NONE',  ( -50.78055746129043513, 115.6527979113054840, -7.999999999999986677 ) ) ;
#550 =( REPRESENTATION_RELATIONSHIP ('NONE','NONE', #468, #578 ) REPRESENTATION_RELATIONSHIP_WITH_TRANSFORMATION ( #370 )SHAPE_REPRESENTATION_RELATIONSHIP( ) );
#551 = PRODUCT_DEFINITION_SHAPE ( 'NONE', 'NONE',  #761 ) ;
#552 =( GEOMETRIC_REPRESENTATION_CONTEXT ( 3 ) GLOBAL_UNCERTAINTY_ASSIGNED_CONTEXT ( ( #297 ) ) GLOBAL_UNIT_ASSIGNED_CONTEXT ( ( #462, #112, #533 ) ) REPRESENTATION_CONTEXT ( 'NONE', 'WORKASPACE' ) );
#553 = DOCUMENT_FILE ( 'bracket axles.STEP' , '', '', #17, '' ,$ ) ;
#554 = PRODUCT_DEFINITION_FORMATION_WITH_SPECIFIED_SOURCE ( 'Symmetric', '', #496, .NOT_KNOWN. ) ;
#555 = IDENTIFICATION_ROLE ( 'external document id and location', $) ;
#556 = PROPERTY_DEFINITION_REPRESENTATION ( #223, #73 ) ;
#557 = PRODUCT ( 'Top_Bracket', 'Top_Bracket', '', ( #69 ) ) ;
#558 = CONTEXT_DEPENDENT_SHAPE_REPRESENTATION ( #113, #488 ) ;
#559 = DIRECTION ( 'NONE',  ( 7.105821245667126391E-16, 1.381784894982769797E-16, -1.000000000000000000 ) ) ;
#560 = PROPERTY_DEFINITION ('external definition','', #413 ) ;
#561 =( REPRESENTATION_RELATIONSHIP ('NONE','NONE', #468, #125 ) REPRESENTATION_RELATIONSHIP_WITH_TRANSFORMATION ( #377 )SHAPE_REPRESENTATION_RELATIONSHIP( ) );
#562 = DOCUMENT_FILE ( 'Pivot 2.STEP' , '', '', #195, '' ,$ ) ;
#563 =( REPRESENTATION_RELATIONSHIP ('NONE','NONE', #468, #352 ) REPRESENTATION_RELATIONSHIP_WITH_TRANSFORMATION ( #703 )SHAPE_REPRESENTATION_RELATIONSHIP( ) );
#564 = PRODUCT_RELATED_PRODUCT_CATEGORY ( 'part', '', ( #629 ) ) ;
#565 = PRODUCT_DEFINITION_SHAPE ( 'NONE', 'NONE',  #743 ) ;
#566 = PROPERTY_DEFINITION_REPRESENTATION ( #64, #578 ) ;
#567 = PRODUCT_DEFINITION_CONTEXT ( 'detailed design', #325, 'design' ) ;
#568 =( NAMED_UNIT ( * ) PLANE_ANGLE_UNIT ( ) SI_UNIT ( $, .RADIAN. ) );
#569 = AXIS2_PLACEMENT_3D ( 'NONE', #313, #559, #731 ) ;
#570 = EXTERNAL_SOURCE (IDENTIFIER('') ) ;
#571 = ROLE_ASSOCIATION ( #402, #209 ) ;
#572 = APPLIED_DOCUMENT_REFERENCE ( #580,'',( #425) ) ;
#573 = DIRECTION ( 'NONE',  ( 1.111496954603268856E-17, -9.556713694544408015E-18, -1.000000000000000000 ) ) ;
#574 =( REPRESENTATION_RELATIONSHIP ('NONE','NONE', #468, #73 ) REPRESENTATION_RELATIONSHIP_WITH_TRANSFORMATION ( #114 )SHAPE_REPRESENTATION_RELATIONSHIP( ) );
#575 = PRODUCT_RELATED_PRODUCT_CATEGORY ( 'part', '', ( #194 ) ) ;
#576 = IDENTIFICATION_ROLE ( 'external document id and location', $) ;
#577 = APPLIED_DOCUMENT_REFERENCE ( #637,'',( #68) ) ;
#578 = SHAPE_REPRESENTATION ( 'Pivot washer', ( #157 ), #331 ) ;
#579 = CARTESIAN_POINT ( 'NONE',  ( -25.00000000000002487, 32.50000000000000000, 9.000000000000007105 ) ) ;
#580 = DOCUMENT_FILE ( 'Pivot washer.STEP' , '', '', #363, '' ,$ ) ;
#581 = DIRECTION ( 'NONE',  ( 0.06385447447528805331, -0.9979592206545740973, -1.626715835546600434E-16 ) ) ;
#582 = AXIS2_PLACEMENT_3D ( 'NONE', #625, #493, #727 ) ;
#583 = AXIS2_PLACEMENT_3D ( 'NONE', #643, #271, #107 ) ;
#584 = PROPERTY_DEFINITION_REPRESENTATION ( #281, #498 ) ;
#585 = DIRECTION ( 'NONE',  ( 0.4963910617779629941, 0.8680990230307521482, -5.229432107267497691E-17 ) ) ;
#586 = PRODUCT_DEFINITION_CONTEXT ( 'detailed design', #128, 'design' ) ;
#587 = ROLE_ASSOCIATION ( #497, #595 ) ;
#588 = IDENTIFICATION_ROLE ( 'external document id and location', $) ;
#589 = APPLICATION_PROTOCOL_DEFINITION ( 'draft international standard', 'automotive_design', 1998, #57 ) ;
#590 = PRODUCT_RELATED_PRODUCT_CATEGORY ( 'part', '', ( #22 ) ) ;
#591 = OBJECT_ROLE ('mandatory',$ ) ;
#592 = PROPERTY_DEFINITION ('document property','', #353 ) ;
#593 = OBJECT_ROLE ('mandatory',$ ) ;
#594 =( NAMED_UNIT ( * ) SI_UNIT ( $, .STERADIAN. ) SOLID_ANGLE_UNIT ( ) );
#595 = APPLIED_DOCUMENT_REFERENCE ( #335,'',( #78) ) ;
#596 = APPLICATION_PROTOCOL_DEFINITION ( 'draft international standard', 'automotive_design', 1998, #128 ) ;
#597 = PROPERTY_DEFINITION ('external definition','', #640 ) ;
#598 = AXIS2_PLACEMENT_3D ( 'NONE', #160, #387, #105 ) ;
#599 = UNCERTAINTY_MEASURE_WITH_UNIT (LENGTH_MEASURE( 1.000000000000000082E-05 ), #733, 'distance_accuracy_value', 'NONE');
#600 =( REPRESENTATION_RELATIONSHIP ('NONE','NONE', #468, #73 ) REPRESENTATION_RELATIONSHIP_WITH_TRANSFORMATION ( #702 )SHAPE_REPRESENTATION_RELATIONSHIP( ) );
#601 = DOCUMENT_TYPE ( 'geometry' ) ;
#602 = PRODUCT_CONTEXT ( 'NONE', #365, 'mechanical' ) ;
#603 = PRODUCT_RELATED_PRODUCT_CATEGORY ( 'part', '', ( #254 ) ) ;
#604 = CONTEXT_DEPENDENT_SHAPE_REPRESENTATION ( #485, #54 ) ;
#605 = DOCUMENT_TYPE ( 'geometry' ) ;
#606 = UNCERTAINTY_MEASURE_WITH_UNIT (LENGTH_MEASURE( 1.000000000000000082E-05 ), #698, 'distance_accuracy_value', 'NONE');
#607 = EXTERNAL_SOURCE (IDENTIFIER('') ) ;
#608 = PROPERTY_DEFINITION_REPRESENTATION ( #307, #498 ) ;
#609 = APPLICATION_PROTOCOL_DEFINITION ( 'draft international standard', 'automotive_design', 1998, #258 ) ;
#610 = PROPERTY_DEFINITION_REPRESENTATION ( #592, #578 ) ;
#611 = PRODUCT_DEFINITION_FORMATION_WITH_SPECIFIED_SOURCE ( 'Symmetric', '', #248, .NOT_KNOWN. ) ;
#612 = PROPERTY_DEFINITION_REPRESENTATION ( #483, #578 ) ;
#613 = PROPERTY_DEFINITION_REPRESENTATION ( #364, #498 ) ;
#614 = PRODUCT_DEFINITION_SHAPE ( 'NONE', 'NONE',  #752 ) ;
#615 = APPLICATION_CONTEXT ( 'automotive_design' ) ;
#616 = DOCUMENT_TYPE ( 'geometry' ) ;
#617 = PRODUCT_DEFINITION_SHAPE ( 'NONE', 'NONE',  #758 ) ;
#618 = DOCUMENT_FILE ( 'gear axle.STEP' , '', '', #632, '' ,$ ) ;
#619 = IDENTIFICATION_ROLE ( 'external document id and location', $) ;
#620 = APPLIED_EXTERNAL_IDENTIFICATION_ASSIGNMENT ( 'Washer.STEP' , #154, #399,( #65) ) ;
#621 = DIRECTION ( 'NONE',  ( 3.599428311247606423E-13, -2.332886533377801851E-13, 1.000000000000000000 ) ) ;
#622 = CONTEXT_DEPENDENT_SHAPE_REPRESENTATION ( #550, #403 ) ;
#623 = PRODUCT_DEFINITION_SHAPE ( 'NONE', 'NONE',  #55 ) ;
#624 = ITEM_DEFINED_TRANSFORMATION ( 'NONE', 'NONE', #500,  #256 ) ;
#625 = CARTESIAN_POINT ( 'NONE',  ( 0.000000000000000000, 0.000000000000000000, 0.000000000000000000 ) ) ;
#626 = DOCUMENT_FILE ( 'bracket axles.STEP' , '', '', #487, '' ,$ ) ;
#627 =( NAMED_UNIT ( * ) PLANE_ANGLE_UNIT ( ) SI_UNIT ( $, .RADIAN. ) );
#628 = IDENTIFICATION_ROLE ( 'external document id and location', $) ;
#629 = PRODUCT ( 'Arms', 'Arms', '', ( #467 ) ) ;
#630 = EXTERNAL_SOURCE (IDENTIFIER('') ) ;
#631 =( NAMED_UNIT ( * ) SI_UNIT ( $, .STERADIAN. ) SOLID_ANGLE_UNIT ( ) );
#632 = DOCUMENT_TYPE ( 'geometry' ) ;
#633 = ITEM_DEFINED_TRANSFORMATION ( 'NONE', 'NONE', #158,  #685 ) ;
#634 = DIRECTION ( 'NONE',  ( 0.7989748413697498330, 0.6013644509431724794, 6.061012503734122394E-16 ) ) ;
#635 = DIRECTION ( 'NONE',  ( 0.7454655467368518362, -0.6665441610488586077, 3.292700640871095881E-17 ) ) ;
#636 = PRODUCT_DEFINITION_CONTEXT ( 'detailed design', #138, 'design' ) ;
#637 = DOCUMENT_FILE ( 'Part2^elevator shaft.STEP' , '', '', #296, '' ,$ ) ;
#638 = CARTESIAN_POINT ( 'NONE',  ( 75.08476866441758091, 88.32576419388946931, -17.49999999999999645 ) ) ;
#639 = DIRECTION ( 'NONE',  ( 1.000000000000000000, 0.000000000000000000, 0.000000000000000000 ) ) ;
#640 = DOCUMENT_FILE ( 'Part2^elevator shaft.STEP' , '', '', #461, '' ,$ ) ;
#641 = CARTESIAN_POINT ( 'NONE',  ( 25.00000000000000000, 32.50000000000000000, 9.000000000000083489 ) ) ;
#642 = DOCUMENT_TYPE ( 'geometry' ) ;
#643 = CARTESIAN_POINT ( 'NONE',  ( -75.77596350060869668, 87.69783990868559442, 17.49999999999999289 ) ) ;
#644 = PRODUCT_DEFINITION_FORMATION_WITH_SPECIFIED_SOURCE ( 'Symmetric', '', #194, .NOT_KNOWN. ) ;
#645 = APPLICATION_CONTEXT ( 'automotive_design' ) ;
#646 = PROPERTY_DEFINITION_REPRESENTATION ( #83, #498 ) ;
#647 = DIRECTION ( 'NONE',  ( 0.8680990230307521482, -0.4963910617779629941, -9.082350786112443625E-17 ) ) ;
#648 =( LENGTH_UNIT ( ) NAMED_UNIT ( * ) SI_UNIT ( .MILLI., .METRE. ) );
#649 = OBJECT_ROLE ('mandatory',$ ) ;
#650 = EXTERNAL_SOURCE (IDENTIFIER('') ) ;
#651 = ITEM_DEFINED_TRANSFORMATION ( 'NONE', 'NONE', #309,  #699 ) ;
#652 = DOCUMENT_FILE ( 'Arms.STEP' , '', '', #301, '' ,$ ) ;
#653 = PROPERTY_DEFINITION ('document property','', #136 ) ;
#654 = APPLIED_DOCUMENT_REFERENCE ( #173,'',( #390) ) ;
#655 = IDENTIFICATION_ROLE ( 'external document id and location', $) ;
#656 = PRODUCT_CONTEXT ( 'NONE', #8, 'mechanical' ) ;
#657 = IDENTIFICATION_ROLE ( 'external document id and location', $) ;
#658 = PROPERTY_DEFINITION ('document property','', #441 ) ;
#659 = APPLIED_EXTERNAL_IDENTIFICATION_ASSIGNMENT ( 'bracket axles.STEP' , #576, #350,( #553) ) ;
#660 = PRODUCT_DEFINITION_CONTEXT ( 'detailed design', #645, 'design' ) ;
#661 = PROPERTY_DEFINITION_REPRESENTATION ( #143, #498 ) ;
#662 = SHAPE_DEFINITION_REPRESENTATION ( #623, #125 ) ;
#663 = APPLIED_DOCUMENT_REFERENCE ( #562,'',( #55) ) ;
#664 = PRODUCT_DEFINITION_SHAPE ( 'NONE', 'NONE',  #750 ) ;
#665 = PROPERTY_DEFINITION_REPRESENTATION ( #19, #578 ) ;
#666 = AXIS2_PLACEMENT_3D ( 'NONE', #334, #457, #110 ) ;
#667 = APPLICATION_CONTEXT ( 'automotive_design' ) ;
#668 = APPLIED_DOCUMENT_REFERENCE ( #77,'',( #696) ) ;
#669 = UNCERTAINTY_MEASURE_WITH_UNIT (LENGTH_MEASURE( 1.000000000000000082E-05 ), #504, 'distance_accuracy_value', 'NONE');
#670 = APPLIED_DOCUMENT_REFERENCE ( #553,'',( #78) ) ;
#671 = PRODUCT_DEFINITION_SHAPE ( 'NONE', 'NONE',  #184 ) ;
#672 = PRODUCT_CONTEXT ( 'NONE', #124, 'mechanical' ) ;
#673 = PROPERTY_DEFINITION ('document property','', #637 ) ;
#674 = ITEM_DEFINED_TRANSFORMATION ( 'NONE', 'NONE', #583,  #157 ) ;
#675 =( REPRESENTATION_RELATIONSHIP ('NONE','NONE', #468, #578 ) REPRESENTATION_RELATIONSHIP_WITH_TRANSFORMATION ( #674 )SHAPE_REPRESENTATION_RELATIONSHIP( ) );
#676 = APPLIED_EXTERNAL_IDENTIFICATION_ASSIGNMENT ( 'Pivot washer.STEP' , #323, #418,( #580) ) ;
#677 = OBJECT_ROLE ('mandatory',$ ) ;
#678 = PROPERTY_DEFINITION ('external definition','', #81 ) ;
#679 = DOCUMENT_TYPE ( 'geometry' ) ;
#680 = CONTEXT_DEPENDENT_SHAPE_REPRESENTATION ( #252, #617 ) ;
#681 = CONTEXT_DEPENDENT_SHAPE_REPRESENTATION ( #266, #408 ) ;
#682 = DIRECTION ( 'NONE',  ( -7.890525971451612913E-16, 4.046119324956767870E-17, 1.000000000000000000 ) ) ;
#683 = CARTESIAN_POINT ( 'NONE',  ( 0.000000000000000000, 0.000000000000000000, 0.000000000000000000 ) ) ;
#684 = ROLE_ASSOCIATION ( #677, #690 ) ;
#685 = AXIS2_PLACEMENT_3D ( 'NONE', #280, #1, #82 ) ;
#686 = OBJECT_ROLE ('mandatory',$ ) ;
#687 = DIRECTION ( 'NONE',  ( 0.8680990230307523703, -0.4963910617779631052, -5.086942512115313088E-16 ) ) ;
#688 = EXTERNAL_SOURCE (IDENTIFIER('') ) ;
#689 = CARTESIAN_POINT ( 'NONE',  ( 0.000000000000000000, 0.000000000000000000, 0.000000000000000000 ) ) ;
#690 = APPLIED_DOCUMENT_REFERENCE ( #273,'',( #369) ) ;
#691 =( REPRESENTATION_RELATIONSHIP ('NONE','NONE', #468, #352 ) REPRESENTATION_RELATIONSHIP_WITH_TRANSFORMATION ( #213 )SHAPE_REPRESENTATION_RELATIONSHIP( ) );
#692 = DIRECTION ( 'NONE',  ( 0.06385447447528805331, -0.9979592206545740973, -1.626715835546600434E-16 ) ) ;
#693 = OBJECT_ROLE ('mandatory',$ ) ;
#694 = ITEM_DEFINED_TRANSFORMATION ( 'NONE', 'NONE', #202,  #699 ) ;
#695 = DIRECTION ( 'NONE',  ( 0.4963910617779631052, 0.8680990230307523703, 2.542780414343683502E-16 ) ) ;
#696 = PRODUCT_DEFINITION ( 'General', '', #611, #705 ) ;
#697 =( REPRESENTATION_RELATIONSHIP ('NONE','NONE', #468, #498 ) REPRESENTATION_RELATIONSHIP_WITH_TRANSFORMATION ( #651 )SHAPE_REPRESENTATION_RELATIONSHIP( ) );
#698 =( LENGTH_UNIT ( ) NAMED_UNIT ( * ) SI_UNIT ( .MILLI., .METRE. ) );
#699 = AXIS2_PLACEMENT_3D ( 'NONE', #95, #459, #71 ) ;
#700 = CARTESIAN_POINT ( 'NONE',  ( -25.00000000000000000, 32.50000000000000000, -10.49999999999995026 ) ) ;
#701 = PROPERTY_DEFINITION ('external definition','', #136 ) ;
#702 = ITEM_DEFINED_TRANSFORMATION ( 'NONE', 'NONE', #34,  #685 ) ;
#703 = ITEM_DEFINED_TRANSFORMATION ( 'NONE', 'NONE', #734,  #212 ) ;
#704 = OBJECT_ROLE ('mandatory',$ ) ;
#705 = PRODUCT_DEFINITION_CONTEXT ( 'detailed design', #337, 'design' ) ;
#706 =( LENGTH_UNIT ( ) NAMED_UNIT ( * ) SI_UNIT ( .MILLI., .METRE. ) );
#707 = PROPERTY_DEFINITION ('external definition','', #441 ) ;
#708 = CONTEXT_DEPENDENT_SHAPE_REPRESENTATION ( #600, #276 ) ;
#709 = APPLICATION_PROTOCOL_DEFINITION ( 'draft international standard', 'automotive_design', 1998, #30 ) ;
#710 =( NAMED_UNIT ( * ) PLANE_ANGLE_UNIT ( ) SI_UNIT ( $, .RADIAN. ) );
#711 = ROLE_ASSOCIATION ( #593, #340 ) ;
#712 =( LENGTH_UNIT ( ) NAMED_UNIT ( * ) SI_UNIT ( .MILLI., .METRE. ) );
#713 = APPLIED_EXTERNAL_IDENTIFICATION_ASSIGNMENT ( 'gear axle.STEP' , #464, #43,( #618) ) ;
#714 = UNCERTAINTY_MEASURE_WITH_UNIT (LENGTH_MEASURE( 1.000000000000000082E-05 ), #712, 'distance_accuracy_value', 'NONE');
#715 = CONTEXT_DEPENDENT_SHAPE_REPRESENTATION ( #516, #193 ) ;
#716 = SHAPE_DEFINITION_REPRESENTATION ( #149, #73 ) ;
#717 = APPLICATION_CONTEXT ( 'automotive_design' ) ;
#718 = ITEM_DEFINED_TRANSFORMATION ( 'NONE', 'NONE', #70,  #448 ) ;
#719 = PROPERTY_DEFINITION ('document property','', #562 ) ;
#720 =( GEOMETRIC_REPRESENTATION_CONTEXT ( 3 ) GLOBAL_UNCERTAINTY_ASSIGNED_CONTEXT ( ( #135 ) ) GLOBAL_UNIT_ASSIGNED_CONTEXT ( ( #648, #522, #437 ) ) REPRESENTATION_CONTEXT ( 'NONE', 'WORKASPACE' ) );
#721 = PRODUCT_DEFINITION_FORMATION_WITH_SPECIFIED_SOURCE ( 'Symmetric', '', #22, .NOT_KNOWN. ) ;
#722 = APPLIED_EXTERNAL_IDENTIFICATION_ASSIGNMENT ( 'bracket axles.STEP' , #735, #650,( #335) ) ;
#723 = APPLIED_DOCUMENT_REFERENCE ( #81,'',( #55) ) ;
#724 = DIRECTION ( 'NONE',  ( -0.9999913378340654635, -0.004162241804134084525, -1.639182128917916996E-19 ) ) ;
#725 = APPLICATION_CONTEXT ( 'automotive_design' ) ;
#726 = PROPERTY_DEFINITION ('document property','', #116 ) ;
#727 = DIRECTION ( 'NONE',  ( 1.000000000000000000, 0.000000000000000000, 0.000000000000000000 ) ) ;
#728 = DOCUMENT_TYPE ( 'geometry' ) ;
#729 = PROPERTY_DEFINITION_REPRESENTATION ( #420, #547 ) ;
#730 = PRODUCT ( 'Pivot 2', 'Pivot 2', '', ( #602 ) ) ;
#731 = DIRECTION ( 'NONE',  ( 0.9999941518277967178, -0.003419986872173944904, 7.101054003399822431E-16 ) ) ;
#732 = PRODUCT_DEFINITION_CONTEXT ( 'detailed design', #725, 'design' ) ;
#733 =( LENGTH_UNIT ( ) NAMED_UNIT ( * ) SI_UNIT ( .MILLI., .METRE. ) );
#734 = AXIS2_PLACEMENT_3D ( 'NONE', #549, #6, #491 ) ;
#735 = IDENTIFICATION_ROLE ( 'external document id and location', $) ;
#736 = CONTEXT_DEPENDENT_SHAPE_REPRESENTATION ( #182, #205 ) ;
#737 = APPLIED_EXTERNAL_IDENTIFICATION_ASSIGNMENT ( 'Washer.STEP' , #26, #503,( #441) ) ;
#738 = APPLIED_EXTERNAL_IDENTIFICATION_ASSIGNMENT ( 'Pivot washer.STEP' , #423, #570,( #353) ) ;
#739 = PROPERTY_DEFINITION ('document property','', #77 ) ;
#740 = ROLE_ASSOCIATION ( #368, #445 ) ;
#741 = EXTERNAL_SOURCE (IDENTIFIER('') ) ;
#742 = SHAPE_DEFINITION_REPRESENTATION ( #430, #578 ) ;
#743 = NEXT_ASSEMBLY_USAGE_OCCURRENCE ( 'NAUO15', ' ', ' ', #415, #342, $ ) ;
#744 = NEXT_ASSEMBLY_USAGE_OCCURRENCE ( 'NAUO16', ' ', ' ', #415, #369, $ ) ;
#745 = NEXT_ASSEMBLY_USAGE_OCCURRENCE ( 'NAUO17', ' ', ' ', #415, #55, $ ) ;
#746 = NEXT_ASSEMBLY_USAGE_OCCURRENCE ( 'NAUO18', ' ', ' ', #415, #696, $ ) ;
#747 = NEXT_ASSEMBLY_USAGE_OCCURRENCE ( 'NAUO19', ' ', ' ', #415, #78, $ ) ;
#748 = NEXT_ASSEMBLY_USAGE_OCCURRENCE ( 'NAUO20', ' ', ' ', #415, #401, $ ) ;
#749 = NEXT_ASSEMBLY_USAGE_OCCURRENCE ( 'NAUO21', ' ', ' ', #415, #184, $ ) ;
#750 = NEXT_ASSEMBLY_USAGE_OCCURRENCE ( 'NAUO22', ' ', ' ', #415, #425, $ ) ;
#751 = NEXT_ASSEMBLY_USAGE_OCCURRENCE ( 'NAUO23', ' ', ' ', #415, #55, $ ) ;
#752 = NEXT_ASSEMBLY_USAGE_OCCURRENCE ( 'NAUO24', ' ', ' ', #415, #342, $ ) ;
#753 = NEXT_ASSEMBLY_USAGE_OCCURRENCE ( 'NAUO25', ' ', ' ', #415, #78, $ ) ;
#754 = NEXT_ASSEMBLY_USAGE_OCCURRENCE ( 'NAUO26', ' ', ' ', #415, #369, $ ) ;
#755 = NEXT_ASSEMBLY_USAGE_OCCURRENCE ( 'NAUO27', ' ', ' ', #415, #390, $ ) ;
#756 = NEXT_ASSEMBLY_USAGE_OCCURRENCE ( 'NAUO28', ' ', ' ', #415, #68, $ ) ;
#757 = NEXT_ASSEMBLY_USAGE_OCCURRENCE ( 'NAUO29', ' ', ' ', #415, #425, $ ) ;
#758 = NEXT_ASSEMBLY_USAGE_OCCURRENCE ( 'NAUO30', ' ', ' ', #415, #68, $ ) ;
#759 = NEXT_ASSEMBLY_USAGE_OCCURRENCE ( 'NAUO31', ' ', ' ', #415, #68, $ ) ;
#760 = NEXT_ASSEMBLY_USAGE_OCCURRENCE ( 'NAUO32', ' ', ' ', #415, #390, $ ) ;
#761 = NEXT_ASSEMBLY_USAGE_OCCURRENCE ( 'NAUO33', ' ', ' ', #415, #78, $ ) ;
#762 = NEXT_ASSEMBLY_USAGE_OCCURRENCE ( 'NAUO34', ' ', ' ', #415, #78, $ ) ;
#763 = NEXT_ASSEMBLY_USAGE_OCCURRENCE ( 'NAUO35', ' ', ' ', #415, #68, $ ) ;
#764 = NEXT_ASSEMBLY_USAGE_OCCURRENCE ( 'NAUO36', ' ', ' ', #415, #390, $ ) ;
#765 = NEXT_ASSEMBLY_USAGE_OCCURRENCE ( 'NAUO37', ' ', ' ', #415, #390, $ ) ;
#766 = NEXT_ASSEMBLY_USAGE_OCCURRENCE ( 'NAUO38', ' ', ' ', #415, #425, $ ) ;
#767 = NEXT_ASSEMBLY_USAGE_OCCURRENCE ( 'NAUO39', ' ', ' ', #415, #425, $ ) ;
ENDSEC;
END-ISO-10303-21;
