ISO-10303-21;
HEADER;
FILE_DESCRIPTION (( 'STEP AP214' ),
    '1' );
FILE_NAME ('gear axle.STEP',
    '2026-02-05T02:30:36',
    ( '' ),
    ( '' ),
    'SwSTEP 2.0',
    'SolidWorks 2025',
    '' );
FILE_SCHEMA (( 'AUTOMOTIVE_DESIGN' ));
ENDSEC;

DATA;
#1 = LINE ( 'NONE', #66, #37 ) ;
#2 = APPLICATION_CONTEXT ( 'automotive_design' ) ;
#3 = DIRECTION ( 'NONE',  ( 0.000000000000000000, 0.000000000000000000, 1.000000000000000000 ) ) ;
#4 = AXIS2_PLACEMENT_3D ( 'NONE', #67, #45, #107 ) ;
#5 = CARTESIAN_POINT ( 'NONE',  ( 6.123233995736766282E-16, 103.0000000000000284, 5.000000000000000000 ) ) ;
#6 = DIRECTION ( 'NONE',  ( -0.000000000000000000, -1.000000000000000000, -0.000000000000000000 ) ) ;
#7 = DIRECTION ( 'NONE',  ( 0.000000000000000000, 1.000000000000000000, 0.000000000000000000 ) ) ;
#8 = DIRECTION ( 'NONE',  ( 0.000000000000000000, 1.000000000000000000, 0.000000000000000000 ) ) ;
#9 = ORIENTED_EDGE ( 'NONE', *, *, #177, .F. ) ;
#10 = COLOUR_RGB ( '',0.7921568627450980005, 0.8196078431372548767, 0.9333333333333333481 ) ;
#11 = SHAPE_DEFINITION_REPRESENTATION ( #119, #68 ) ;
#12 = ORIENTED_EDGE ( 'NONE', *, *, #150, .F. ) ;
#13 = AXIS2_PLACEMENT_3D ( 'NONE', #193, #30, #198 ) ;
#14 = CARTESIAN_POINT ( 'NONE',  ( 0.000000000000000000, 103.0000000000000284, 0.000000000000000000 ) ) ;
#15 = APPLICATION_PROTOCOL_DEFINITION ( 'draft international standard', 'automotive_design', 1998, #2 ) ;
#16 = CARTESIAN_POINT ( 'NONE',  ( 0.000000000000000000, 100.0000000000000142, 0.000000000000000000 ) ) ;
#17 = EDGE_CURVE ( 'NONE', #204, #51, #22, .T. ) ;
#18 = LINE ( 'NONE', #31, #40 ) ;
#19 = AXIS2_PLACEMENT_3D ( 'NONE', #26, #7, #27 ) ;
#20 = DIRECTION ( 'NONE',  ( 0.000000000000000000, 1.000000000000000000, 0.000000000000000000 ) ) ;
#21 = CARTESIAN_POINT ( 'NONE',  ( 0.000000000000000000, -100.0000000000000142, -2.250000000000000000 ) ) ;
#22 = CIRCLE ( 'NONE', #134, 2.250000000000000000 ) ;
#23 = DIRECTION ( 'NONE',  ( 0.000000000000000000, 0.000000000000000000, -1.000000000000000000 ) ) ;
#24 = ADVANCED_FACE ( 'NONE', ( #63 ), #100, .T. ) ;
#25 =( GEOMETRIC_REPRESENTATION_CONTEXT ( 3 ) GLOBAL_UNCERTAINTY_ASSIGNED_CONTEXT ( ( #76 ) ) GLOBAL_UNIT_ASSIGNED_CONTEXT ( ( #163, #145, #129 ) ) REPRESENTATION_CONTEXT ( 'NONE', 'WORKASPACE' ) );
#26 = CARTESIAN_POINT ( 'NONE',  ( 0.000000000000000000, 103.0000000000000284, 0.000000000000000000 ) ) ;
#27 = DIRECTION ( 'NONE',  ( 0.000000000000000000, -0.000000000000000000, 1.000000000000000000 ) ) ;
#28 = CARTESIAN_POINT ( 'NONE',  ( 0.000000000000000000, -100.0000000000000142, 0.000000000000000000 ) ) ;
#29 = ORIENTED_EDGE ( 'NONE', *, *, #191, .F. ) ;
#30 = DIRECTION ( 'NONE',  ( 0.000000000000000000, 0.000000000000000000, 1.000000000000000000 ) ) ;
#31 = CARTESIAN_POINT ( 'NONE',  ( 6.123233995736766282E-16, 103.0000000000000284, 5.000000000000000000 ) ) ;
#32 =( NAMED_UNIT ( * ) PLANE_ANGLE_UNIT ( ) SI_UNIT ( $, .RADIAN. ) );
#33 = SURFACE_STYLE_FILL_AREA ( #169 ) ;
#34 = EDGE_CURVE ( 'NONE', #93, #202, #203, .T. ) ;
#35 = EDGE_LOOP ( 'NONE', ( #29, #36, #110, #74 ) ) ;
#36 = ORIENTED_EDGE ( 'NONE', *, *, #17, .F. ) ;
#37 = VECTOR ( 'NONE', #125, 1000.000000000000000 ) ;
#38 = DIRECTION ( 'NONE',  ( -0.000000000000000000, -1.000000000000000000, -0.000000000000000000 ) ) ;
#39 = ADVANCED_FACE ( 'NONE', ( #158, #114 ), #155, .F. ) ;
#40 = VECTOR ( 'NONE', #184, 1000.000000000000000 ) ;
#41 = PRODUCT_RELATED_PRODUCT_CATEGORY ( 'part', '', ( #146 ) ) ;
#42 = LINE ( 'NONE', #106, #54 ) ;
#43 = PRODUCT_DEFINITION_FORMATION_WITH_SPECIFIED_SOURCE ( 'Symmetric', '', #146, .NOT_KNOWN. ) ;
#44 = ORIENTED_EDGE ( 'NONE', *, *, #58, .F. ) ;
#45 = DIRECTION ( 'NONE',  ( 0.000000000000000000, 1.000000000000000000, 0.000000000000000000 ) ) ;
#46 = CARTESIAN_POINT ( 'NONE',  ( 0.000000000000000000, 100.0000000000000142, 0.000000000000000000 ) ) ;
#47 = FILL_AREA_STYLE_COLOUR ( '', #10 ) ;
#48 = CIRCLE ( 'NONE', #4, 2.250000000000000000 ) ;
#49 = ORIENTED_EDGE ( 'NONE', *, *, #205, .F. ) ;
#50 = ORIENTED_EDGE ( 'NONE', *, *, #167, .F. ) ;
#51 = VERTEX_POINT ( 'NONE', #156 ) ;
#52 = EDGE_CURVE ( 'NONE', #202, #199, #18, .T. ) ;
#53 = DIRECTION ( 'NONE',  ( -0.000000000000000000, -1.000000000000000000, -0.000000000000000000 ) ) ;
#54 = VECTOR ( 'NONE', #90, 1000.000000000000000 ) ;
#55 = CARTESIAN_POINT ( 'NONE',  ( 0.000000000000000000, -100.0000000000000142, 0.000000000000000000 ) ) ;
#56 = EDGE_LOOP ( 'NONE', ( #196, #181, #80, #109 ) ) ;
#57 = APPLICATION_CONTEXT ( 'automotive_design' ) ;
#58 = EDGE_CURVE ( 'NONE', #51, #204, #153, .T. ) ;
#59 = ADVANCED_FACE ( 'NONE', ( #94 ), #138, .T. ) ;
#60 = ORIENTED_EDGE ( 'NONE', *, *, #96, .F. ) ;
#61 = CARTESIAN_POINT ( 'NONE',  ( 0.000000000000000000, 100.0000000000000142, 0.000000000000000000 ) ) ;
#62 = CYLINDRICAL_SURFACE ( 'NONE', #123, 2.250000000000000000 ) ;
#63 = FACE_OUTER_BOUND ( 'NONE', #35, .T. ) ;
#64 = AXIS2_PLACEMENT_3D ( 'NONE', #190, #53, #117 ) ;
#65 = DIRECTION ( 'NONE',  ( 0.000000000000000000, 1.000000000000000000, 0.000000000000000000 ) ) ;
#66 = CARTESIAN_POINT ( 'NONE',  ( 0.000000000000000000, 100.0000000000000142, -2.250000000000000000 ) ) ;
#67 = CARTESIAN_POINT ( 'NONE',  ( 0.000000000000000000, -100.0000000000000142, 0.000000000000000000 ) ) ;
#68 = ADVANCED_BREP_SHAPE_REPRESENTATION ( 'gear axle', ( #104, #13 ), #157 ) ;
#69 = CARTESIAN_POINT ( 'NONE',  ( 2.755455298081544285E-16, -100.0000000000000142, 2.250000000000000000 ) ) ;
#70 = PLANE ( 'NONE',  #89 ) ;
#71 = DIRECTION ( 'NONE',  ( 0.000000000000000000, 1.000000000000000000, 0.000000000000000000 ) ) ;
#72 =( LENGTH_UNIT ( ) NAMED_UNIT ( * ) SI_UNIT ( .MILLI., .METRE. ) );
#73 = CIRCLE ( 'NONE', #164, 5.000000000000000000 ) ;
#74 = ORIENTED_EDGE ( 'NONE', *, *, #142, .T. ) ;
#75 =( NAMED_UNIT ( * ) SI_UNIT ( $, .STERADIAN. ) SOLID_ANGLE_UNIT ( ) );
#76 = UNCERTAINTY_MEASURE_WITH_UNIT (LENGTH_MEASURE( 1.000000000000000082E-05 ), #163, 'distance_accuracy_value', 'NONE');
#77 = EDGE_LOOP ( 'NONE', ( #172, #50 ) ) ;
#78 = CIRCLE ( 'NONE', #189, 5.000000000000000000 ) ;
#79 = VERTEX_POINT ( 'NONE', #21 ) ;
#80 = ORIENTED_EDGE ( 'NONE', *, *, #177, .T. ) ;
#81 = DIRECTION ( 'NONE',  ( -0.000000000000000000, -1.000000000000000000, -0.000000000000000000 ) ) ;
#82 = CIRCLE ( 'NONE', #115, 5.000000000000000000 ) ;
#83 = DIRECTION ( 'NONE',  ( 0.000000000000000000, 0.000000000000000000, 1.000000000000000000 ) ) ;
#84 = PRODUCT_DEFINITION_CONTEXT ( 'detailed design', #2, 'design' ) ;
#85 = EDGE_LOOP ( 'NONE', ( #122, #151 ) ) ;
#86 = AXIS2_PLACEMENT_3D ( 'NONE', #16, #171, #200 ) ;
#87 = DIRECTION ( 'NONE',  ( -0.000000000000000000, -1.000000000000000000, -0.000000000000000000 ) ) ;
#88 = FACE_OUTER_BOUND ( 'NONE', #132, .T. ) ;
#89 = AXIS2_PLACEMENT_3D ( 'NONE', #55, #179, #102 ) ;
#90 = DIRECTION ( 'NONE',  ( -0.000000000000000000, -1.000000000000000000, -0.000000000000000000 ) ) ;
#91 = AXIS2_PLACEMENT_3D ( 'NONE', #112, #38, #121 ) ;
#92 = ORIENTED_EDGE ( 'NONE', *, *, #150, .T. ) ;
#93 = VERTEX_POINT ( 'NONE', #154 ) ;
#94 = FACE_OUTER_BOUND ( 'NONE', #185, .T. ) ;
#95 = PRESENTATION_LAYER_ASSIGNMENT (  '', '', ( #137 ) ) ;
#96 = EDGE_CURVE ( 'NONE', #204, #79, #1, .T. ) ;
#97 = ORIENTED_EDGE ( 'NONE', *, *, #167, .T. ) ;
#98 = DIRECTION ( 'NONE',  ( 0.000000000000000000, 0.000000000000000000, 1.000000000000000000 ) ) ;
#99 = EDGE_CURVE ( 'NONE', #152, #199, #82, .T. ) ;
#100 = CYLINDRICAL_SURFACE ( 'NONE', #91, 2.250000000000000000 ) ;
#101 = CARTESIAN_POINT ( 'NONE',  ( 0.000000000000000000, 100.0000000000000142, 0.000000000000000000 ) ) ;
#102 = DIRECTION ( 'NONE',  ( 0.000000000000000000, -0.000000000000000000, 1.000000000000000000 ) ) ;
#103 = FACE_OUTER_BOUND ( 'NONE', #85, .T. ) ;
#104 = MANIFOLD_SOLID_BREP ( 'Boss-Extrude2', #120 ) ;
#105 = PRODUCT_DEFINITION ( 'General', '', #43, #84 ) ;
#106 = CARTESIAN_POINT ( 'NONE',  ( 0.000000000000000000, 103.0000000000000284, -5.000000000000000000 ) ) ;
#107 = DIRECTION ( 'NONE',  ( 0.000000000000000000, 0.000000000000000000, 1.000000000000000000 ) ) ;
#108 = CARTESIAN_POINT ( 'NONE',  ( 0.000000000000000000, 100.0000000000000142, 0.000000000000000000 ) ) ;
#109 = ORIENTED_EDGE ( 'NONE', *, *, #99, .T. ) ;
#110 = ORIENTED_EDGE ( 'NONE', *, *, #96, .T. ) ;
#111 = CARTESIAN_POINT ( 'NONE',  ( 0.000000000000000000, 103.0000000000000284, 0.000000000000000000 ) ) ;
#112 = CARTESIAN_POINT ( 'NONE',  ( 0.000000000000000000, 100.0000000000000142, 0.000000000000000000 ) ) ;
#113 = EDGE_LOOP ( 'NONE', ( #174, #12 ) ) ;
#114 = FACE_OUTER_BOUND ( 'NONE', #77, .T. ) ;
#115 = AXIS2_PLACEMENT_3D ( 'NONE', #101, #135, #201 ) ;
#116 = AXIS2_PLACEMENT_3D ( 'NONE', #111, #81, #139 ) ;
#117 = DIRECTION ( 'NONE',  ( 0.000000000000000000, 0.000000000000000000, -1.000000000000000000 ) ) ;
#118 = DIRECTION ( 'NONE',  ( 0.000000000000000000, 0.000000000000000000, 1.000000000000000000 ) ) ;
#119 = PRODUCT_DEFINITION_SHAPE ( 'NONE', 'NONE',  #105 ) ;
#120 = CLOSED_SHELL ( 'NONE', ( #59, #127, #24, #182, #161, #133, #39 ) ) ;
#121 = DIRECTION ( 'NONE',  ( 0.000000000000000000, 0.000000000000000000, -1.000000000000000000 ) ) ;
#122 = ORIENTED_EDGE ( 'NONE', *, *, #34, .T. ) ;
#123 = AXIS2_PLACEMENT_3D ( 'NONE', #108, #6, #23 ) ;
#124 = SURFACE_SIDE_STYLE ('',( #33 ) ) ;
#125 = DIRECTION ( 'NONE',  ( -0.000000000000000000, -1.000000000000000000, -0.000000000000000000 ) ) ;
#126 = FACE_OUTER_BOUND ( 'NONE', #56, .T. ) ;
#127 = ADVANCED_FACE ( 'NONE', ( #88 ), #62, .T. ) ;
#128 = CARTESIAN_POINT ( 'NONE',  ( 0.000000000000000000, 103.0000000000000284, 0.000000000000000000 ) ) ;
#129 =( NAMED_UNIT ( * ) SI_UNIT ( $, .STERADIAN. ) SOLID_ANGLE_UNIT ( ) );
#130 = FACE_OUTER_BOUND ( 'NONE', #113, .T. ) ;
#131 = EDGE_LOOP ( 'NONE', ( #148, #188 ) ) ;
#132 = EDGE_LOOP ( 'NONE', ( #44, #168, #92, #60 ) ) ;
#133 = ADVANCED_FACE ( 'NONE', ( #103 ), #180, .T. ) ;
#134 = AXIS2_PLACEMENT_3D ( 'NONE', #61, #65, #98 ) ;
#135 = DIRECTION ( 'NONE',  ( 0.000000000000000000, 1.000000000000000000, 0.000000000000000000 ) ) ;
#136 = SURFACE_STYLE_USAGE ( .BOTH. , #124 ) ;
#137 = STYLED_ITEM ( 'NONE', ( #187 ), #104 ) ;
#138 = CYLINDRICAL_SURFACE ( 'NONE', #116, 5.000000000000000000 ) ;
#139 = DIRECTION ( 'NONE',  ( 0.000000000000000000, 0.000000000000000000, -1.000000000000000000 ) ) ;
#140 = DIRECTION ( 'NONE',  ( 0.000000000000000000, 1.000000000000000000, 0.000000000000000000 ) ) ;
#141 = MECHANICAL_DESIGN_GEOMETRIC_PRESENTATION_REPRESENTATION (  '', ( #137 ), #25 ) ;
#142 = EDGE_CURVE ( 'NONE', #79, #197, #173, .T. ) ;
#143 = CARTESIAN_POINT ( 'NONE',  ( 6.123233995736766282E-16, 100.0000000000000142, 5.000000000000000000 ) ) ;
#144 = AXIS2_PLACEMENT_3D ( 'NONE', #46, #20, #83 ) ;
#145 =( NAMED_UNIT ( * ) PLANE_ANGLE_UNIT ( ) SI_UNIT ( $, .RADIAN. ) );
#146 = PRODUCT ( 'gear axle', 'gear axle', '', ( #166 ) ) ;
#147 = CARTESIAN_POINT ( 'NONE',  ( 0.000000000000000000, 100.0000000000000142, -2.250000000000000000 ) ) ;
#148 = ORIENTED_EDGE ( 'NONE', *, *, #17, .T. ) ;
#149 = AXIS2_PLACEMENT_3D ( 'NONE', #28, #140, #3 ) ;
#150 = EDGE_CURVE ( 'NONE', #197, #79, #48, .T. ) ;
#151 = ORIENTED_EDGE ( 'NONE', *, *, #205, .T. ) ;
#152 = VERTEX_POINT ( 'NONE', #165 ) ;
#153 = CIRCLE ( 'NONE', #144, 2.250000000000000000 ) ;
#154 = CARTESIAN_POINT ( 'NONE',  ( 0.000000000000000000, 103.0000000000000284, -5.000000000000000000 ) ) ;
#155 = PLANE ( 'NONE',  #86 ) ;
#156 = CARTESIAN_POINT ( 'NONE',  ( 2.755455298081544285E-16, 100.0000000000000142, 2.250000000000000000 ) ) ;
#157 =( GEOMETRIC_REPRESENTATION_CONTEXT ( 3 ) GLOBAL_UNCERTAINTY_ASSIGNED_CONTEXT ( ( #159 ) ) GLOBAL_UNIT_ASSIGNED_CONTEXT ( ( #72, #32, #75 ) ) REPRESENTATION_CONTEXT ( 'NONE', 'WORKASPACE' ) );
#158 = FACE_BOUND ( 'NONE', #131, .T. ) ;
#159 = UNCERTAINTY_MEASURE_WITH_UNIT (LENGTH_MEASURE( 1.000000000000000082E-05 ), #72, 'distance_accuracy_value', 'NONE');
#160 = DIRECTION ( 'NONE',  ( 0.000000000000000000, 0.000000000000000000, 1.000000000000000000 ) ) ;
#161 = ADVANCED_FACE ( 'NONE', ( #126 ), #194, .T. ) ;
#162 = LINE ( 'NONE', #195, #192 ) ;
#163 =( LENGTH_UNIT ( ) NAMED_UNIT ( * ) SI_UNIT ( .MILLI., .METRE. ) );
#164 = AXIS2_PLACEMENT_3D ( 'NONE', #175, #71, #176 ) ;
#165 = CARTESIAN_POINT ( 'NONE',  ( 0.000000000000000000, 100.0000000000000142, -5.000000000000000000 ) ) ;
#166 = PRODUCT_CONTEXT ( 'NONE', #57, 'mechanical' ) ;
#167 = EDGE_CURVE ( 'NONE', #199, #152, #73, .T. ) ;
#168 = ORIENTED_EDGE ( 'NONE', *, *, #191, .T. ) ;
#169 = FILL_AREA_STYLE ('',( #47 ) ) ;
#170 = APPLICATION_PROTOCOL_DEFINITION ( 'draft international standard', 'automotive_design', 1998, #57 ) ;
#171 = DIRECTION ( 'NONE',  ( 0.000000000000000000, 1.000000000000000000, 0.000000000000000000 ) ) ;
#172 = ORIENTED_EDGE ( 'NONE', *, *, #99, .F. ) ;
#173 = CIRCLE ( 'NONE', #149, 2.250000000000000000 ) ;
#174 = ORIENTED_EDGE ( 'NONE', *, *, #142, .F. ) ;
#175 = CARTESIAN_POINT ( 'NONE',  ( 0.000000000000000000, 100.0000000000000142, 0.000000000000000000 ) ) ;
#176 = DIRECTION ( 'NONE',  ( 0.000000000000000000, 0.000000000000000000, 1.000000000000000000 ) ) ;
#177 = EDGE_CURVE ( 'NONE', #93, #152, #42, .T. ) ;
#178 = AXIS2_PLACEMENT_3D ( 'NONE', #14, #186, #160 ) ;
#179 = DIRECTION ( 'NONE',  ( 0.000000000000000000, 1.000000000000000000, 0.000000000000000000 ) ) ;
#180 = PLANE ( 'NONE',  #19 ) ;
#181 = ORIENTED_EDGE ( 'NONE', *, *, #34, .F. ) ;
#182 = ADVANCED_FACE ( 'NONE', ( #130 ), #70, .F. ) ;
#183 = ORIENTED_EDGE ( 'NONE', *, *, #52, .T. ) ;
#184 = DIRECTION ( 'NONE',  ( -0.000000000000000000, -1.000000000000000000, -0.000000000000000000 ) ) ;
#185 = EDGE_LOOP ( 'NONE', ( #49, #183, #97, #9 ) ) ;
#186 = DIRECTION ( 'NONE',  ( 0.000000000000000000, 1.000000000000000000, 0.000000000000000000 ) ) ;
#187 = PRESENTATION_STYLE_ASSIGNMENT (( #136 ) ) ;
#188 = ORIENTED_EDGE ( 'NONE', *, *, #58, .T. ) ;
#189 = AXIS2_PLACEMENT_3D ( 'NONE', #128, #8, #118 ) ;
#190 = CARTESIAN_POINT ( 'NONE',  ( 0.000000000000000000, 103.0000000000000284, 0.000000000000000000 ) ) ;
#191 = EDGE_CURVE ( 'NONE', #51, #197, #162, .T. ) ;
#192 = VECTOR ( 'NONE', #87, 1000.000000000000000 ) ;
#193 = CARTESIAN_POINT ( 'NONE',  ( 0.000000000000000000, 0.000000000000000000, 0.000000000000000000 ) ) ;
#194 = CYLINDRICAL_SURFACE ( 'NONE', #64, 5.000000000000000000 ) ;
#195 = CARTESIAN_POINT ( 'NONE',  ( 2.755455298081544285E-16, 100.0000000000000142, 2.250000000000000000 ) ) ;
#196 = ORIENTED_EDGE ( 'NONE', *, *, #52, .F. ) ;
#197 = VERTEX_POINT ( 'NONE', #69 ) ;
#198 = DIRECTION ( 'NONE',  ( 1.000000000000000000, 0.000000000000000000, 0.000000000000000000 ) ) ;
#199 = VERTEX_POINT ( 'NONE', #143 ) ;
#200 = DIRECTION ( 'NONE',  ( 0.000000000000000000, -0.000000000000000000, 1.000000000000000000 ) ) ;
#201 = DIRECTION ( 'NONE',  ( 0.000000000000000000, 0.000000000000000000, 1.000000000000000000 ) ) ;
#202 = VERTEX_POINT ( 'NONE', #5 ) ;
#203 = CIRCLE ( 'NONE', #178, 5.000000000000000000 ) ;
#204 = VERTEX_POINT ( 'NONE', #147 ) ;
#205 = EDGE_CURVE ( 'NONE', #202, #93, #78, .T. ) ;
ENDSEC;
END-ISO-10303-21;
