ISO-10303-21;
HEADER;
FILE_DESCRIPTION (( 'STEP AP214' ),
    '1' );
FILE_NAME ('Main bracket.STEP',
    '2026-02-05T02:30:36',
    ( '' ),
    ( '' ),
    'SwSTEP 2.0',
    'SolidWorks 2025',
    '' );
FILE_SCHEMA (( 'AUTOMOTIVE_DESIGN' ));
ENDSEC;

DATA;
#1 = CARTESIAN_POINT ( 'NONE',  ( 0.000000000000000000, 0.000000000000000000, 0.000000000000000000 ) ) ;
#2 = EXTERNAL_SOURCE (IDENTIFIER('') ) ;
#3 =( GEOMETRIC_REPRESENTATION_CONTEXT ( 3 ) GLOBAL_UNCERTAINTY_ASSIGNED_CONTEXT ( ( #169 ) ) GLOBAL_UNIT_ASSIGNED_CONTEXT ( ( #204, #153, #5 ) ) REPRESENTATION_CONTEXT ( 'NONE', 'WORKASPACE' ) );
#4 = ROLE_ASSOCIATION ( #83, #158 ) ;
#5 =( NAMED_UNIT ( * ) SI_UNIT ( $, .STERADIAN. ) SOLID_ANGLE_UNIT ( ) );
#6 = APPLIED_DOCUMENT_REFERENCE ( #93,'',( #163) ) ;
#7 = PRODUCT ( 'Elevator base mount', 'Elevator base mount', '', ( #102 ) ) ;
#8 = PROPERTY_DEFINITION_REPRESENTATION ( #159, #77 ) ;
#9 = APPLICATION_PROTOCOL_DEFINITION ( 'draft international standard', 'automotive_design', 1998, #39 ) ;
#10 = APPLICATION_CONTEXT ( 'automotive_design' ) ;
#11 = AXIS2_PLACEMENT_3D ( 'NONE', #191, #160, #143 ) ;
#12 = DIRECTION ( 'NONE',  ( 1.543177455884319868E-17, 0.03335929639337924246, -0.9994434237835269075 ) ) ;
#13 = OBJECT_ROLE ('mandatory',$ ) ;
#14 =( LENGTH_UNIT ( ) NAMED_UNIT ( * ) SI_UNIT ( .MILLI., .METRE. ) );
#15 = DIRECTION ( 'NONE',  ( 0.000000000000000000, 0.000000000000000000, 1.000000000000000000 ) ) ;
#16 =( GEOMETRIC_REPRESENTATION_CONTEXT ( 3 ) GLOBAL_UNCERTAINTY_ASSIGNED_CONTEXT ( ( #68 ) ) GLOBAL_UNIT_ASSIGNED_CONTEXT ( ( #67, #184, #94 ) ) REPRESENTATION_CONTEXT ( 'NONE', 'WORKASPACE' ) );
#17 = APPLICATION_PROTOCOL_DEFINITION ( 'draft international standard', 'automotive_design', 1998, #193 ) ;
#18 = APPLIED_DOCUMENT_REFERENCE ( #105,'',( #103) ) ;
#19 = PRODUCT_DEFINITION ( 'General', '', #117, #88 ) ;
#20 = PRODUCT_CONTEXT ( 'NONE', #10, 'mechanical' ) ;
#21 = CARTESIAN_POINT ( 'NONE',  ( 0.000000000000000000, 0.000000000000000000, 0.000000000000000000 ) ) ;
#22 = PROPERTY_DEFINITION ('document property','', #131 ) ;
#23 = SHAPE_REPRESENTATION ( '5972K222_Ball Bearing_5972K222', ( #128 ), #16 ) ;
#24 = PRODUCT_DEFINITION_SHAPE ( 'NONE', 'NONE',  #163 ) ;
#25 = PRODUCT_DEFINITION_SHAPE ( 'NONE', 'NONE',  #214 ) ;
#26 = DIRECTION ( 'NONE',  ( 1.000000000000000000, 0.000000000000000000, 0.000000000000000000 ) ) ;
#27 = SHAPE_DEFINITION_REPRESENTATION ( #24, #150 ) ;
#28 = APPLICATION_CONTEXT ( 'automotive_design' ) ;
#29 = APPLICATION_PROTOCOL_DEFINITION ( 'draft international standard', 'automotive_design', 1998, #125 ) ;
#30 = CONTEXT_DEPENDENT_SHAPE_REPRESENTATION ( #122, #138 ) ;
#31 = ROLE_ASSOCIATION ( #57, #18 ) ;
#32 = EXTERNAL_SOURCE (IDENTIFIER('') ) ;
#33 =( REPRESENTATION_RELATIONSHIP ('NONE','NONE', #137, #150 ) REPRESENTATION_RELATIONSHIP_WITH_TRANSFORMATION ( #92 )SHAPE_REPRESENTATION_RELATIONSHIP( ) );
#34 = CARTESIAN_POINT ( 'NONE',  ( 0.000000000000000000, 0.000000000000000000, 0.000000000000000000 ) ) ;
#35 = PRODUCT_DEFINITION_CONTEXT ( 'detailed design', #125, 'design' ) ;
#36 = EXTERNAL_SOURCE (IDENTIFIER('') ) ;
#37 = PROPERTY_DEFINITION ('document property','', #132 ) ;
#38 = CONTEXT_DEPENDENT_SHAPE_REPRESENTATION ( #33, #113 ) ;
#39 = APPLICATION_CONTEXT ( 'automotive_design' ) ;
#40 = PROPERTY_DEFINITION ('external definition','', #131 ) ;
#41 = APPLICATION_CONTEXT ( 'automotive_design' ) ;
#42 =( NAMED_UNIT ( * ) SI_UNIT ( $, .STERADIAN. ) SOLID_ANGLE_UNIT ( ) );
#43 = PROPERTY_DEFINITION_REPRESENTATION ( #40, #23 ) ;
#44 = IDENTIFICATION_ROLE ( 'external document id and location', $) ;
#45 = APPLIED_DOCUMENT_REFERENCE ( #132,'',( #172) ) ;
#46 = APPLICATION_PROTOCOL_DEFINITION ( 'draft international standard', 'automotive_design', 1998, #114 ) ;
#47 = IDENTIFICATION_ROLE ( 'external document id and location', $) ;
#48 = APPLICATION_PROTOCOL_DEFINITION ( 'draft international standard', 'automotive_design', 1998, #41 ) ;
#49 = SHAPE_DEFINITION_REPRESENTATION ( #126, #202 ) ;
#50 = AXIS2_PLACEMENT_3D ( 'NONE', #127, #156, #12 ) ;
#51 = IDENTIFICATION_ROLE ( 'external document id and location', $) ;
#52 = DIRECTION ( 'NONE',  ( 1.000000000000000000, 0.000000000000000000, 0.000000000000000000 ) ) ;
#53 = APPLIED_EXTERNAL_IDENTIFICATION_ASSIGNMENT ( 'Elevator-Driver V2.STEP' , #96, #2,( #93) ) ;
#54 = PROPERTY_DEFINITION ('document property','', #105 ) ;
#55 = DIRECTION ( 'NONE',  ( 1.000000000000000000, 0.000000000000000000, 0.000000000000000000 ) ) ;
#56 = PRODUCT_DEFINITION_SHAPE ( 'NONE', 'NONE',  #19 ) ;
#57 = OBJECT_ROLE ('mandatory',$ ) ;
#58 = APPLICATION_PROTOCOL_DEFINITION ( 'draft international standard', 'automotive_design', 1998, #28 ) ;
#59 = PROPERTY_DEFINITION_REPRESENTATION ( #37, #202 ) ;
#60 = PROPERTY_DEFINITION_REPRESENTATION ( #22, #23 ) ;
#61 =( NAMED_UNIT ( * ) PLANE_ANGLE_UNIT ( ) SI_UNIT ( $, .RADIAN. ) );
#62 = PRODUCT_DEFINITION_FORMATION_WITH_SPECIFIED_SOURCE ( 'Symmetric', '', #186, .NOT_KNOWN. ) ;
#63 = APPLIED_DOCUMENT_REFERENCE ( #131,'',( #103) ) ;
#64 = APPLICATION_PROTOCOL_DEFINITION ( 'draft international standard', 'automotive_design', 1998, #129 ) ;
#65 = AXIS2_PLACEMENT_3D ( 'NONE', #151, #72, #174 ) ;
#66 = DOCUMENT_TYPE ( 'geometry' ) ;
#67 =( LENGTH_UNIT ( ) NAMED_UNIT ( * ) SI_UNIT ( .MILLI., .METRE. ) );
#68 = UNCERTAINTY_MEASURE_WITH_UNIT (LENGTH_MEASURE( 1.000000000000000082E-05 ), #67, 'distance_accuracy_value', 'NONE');
#69 = PROPERTY_DEFINITION ('external definition','', #105 ) ;
#70 = DIRECTION ( 'NONE',  ( 0.000000000000000000, 0.000000000000000000, 1.000000000000000000 ) ) ;
#71 = PRODUCT_DEFINITION_SHAPE ( 'NONE', 'NONE',  #78 ) ;
#72 = DIRECTION ( 'NONE',  ( 0.000000000000000000, 0.000000000000000000, 1.000000000000000000 ) ) ;
#73 = PROPERTY_DEFINITION ('external definition','', #93 ) ;
#74 = PRODUCT_DEFINITION_SHAPE ( 'NONE', 'NONE',  #212 ) ;
#75 = APPLICATION_PROTOCOL_DEFINITION ( 'draft international standard', 'automotive_design', 1998, #119 ) ;
#76 = DIRECTION ( 'NONE',  ( 1.000000000000000000, 0.000000000000000000, 0.000000000000000000 ) ) ;
#77 = SHAPE_REPRESENTATION ( 'Elevator base mount', ( #65 ), #149 ) ;
#78 = PRODUCT_DEFINITION ( 'General', '', #203, #201 ) ;
#79 = DIRECTION ( 'NONE',  ( 0.000000000000000000, 0.8945224511294315173, 0.4470230244913500628 ) ) ;
#80 = UNCERTAINTY_MEASURE_WITH_UNIT (LENGTH_MEASURE( 1.000000000000000082E-05 ), #14, 'distance_accuracy_value', 'NONE');
#81 = CARTESIAN_POINT ( 'NONE',  ( 0.000000000000000000, 0.000000000000000000, 0.000000000000000000 ) ) ;
#82 = AXIS2_PLACEMENT_3D ( 'NONE', #170, #154, #52 ) ;
#83 = OBJECT_ROLE ('mandatory',$ ) ;
#84 = ITEM_DEFINED_TRANSFORMATION ( 'NONE', 'NONE', #11,  #128 ) ;
#85 = PROPERTY_DEFINITION_REPRESENTATION ( #54, #23 ) ;
#86 = APPLIED_EXTERNAL_IDENTIFICATION_ASSIGNMENT ( 'Elevator base mount.STEP' , #111, #36,( #198) ) ;
#87 =( LENGTH_UNIT ( ) NAMED_UNIT ( * ) SI_UNIT ( .MILLI., .METRE. ) );
#88 = PRODUCT_DEFINITION_CONTEXT ( 'detailed design', #28, 'design' ) ;
#89 = APPLICATION_PROTOCOL_DEFINITION ( 'draft international standard', 'automotive_design', 1998, #10 ) ;
#90 = UNCERTAINTY_MEASURE_WITH_UNIT (LENGTH_MEASURE( 1.000000000000000082E-05 ), #87, 'distance_accuracy_value', 'NONE');
#91 = AXIS2_PLACEMENT_3D ( 'NONE', #1, #15, #121 ) ;
#92 = ITEM_DEFINED_TRANSFORMATION ( 'NONE', 'NONE', #194,  #197 ) ;
#93 = DOCUMENT_FILE ( 'Elevator-Driver V2.STEP' , '', '', #139, '' ,$ ) ;
#94 =( NAMED_UNIT ( * ) SI_UNIT ( $, .STERADIAN. ) SOLID_ANGLE_UNIT ( ) );
#95 = PRODUCT ( 'Main bracket', 'Main bracket', '', ( #176 ) ) ;
#96 = IDENTIFICATION_ROLE ( 'external document id and location', $) ;
#97 = DIRECTION ( 'NONE',  ( 0.000000000000000000, 0.000000000000000000, 1.000000000000000000 ) ) ;
#98 = PROPERTY_DEFINITION ('external definition','', #198 ) ;
#99 = APPLIED_EXTERNAL_IDENTIFICATION_ASSIGNMENT ( '5972K222_Ball Bearing_5972K222.STEP' , #47, #104,( #105) ) ;
#100 = CARTESIAN_POINT ( 'NONE',  ( 27.49999999999997158, -30.49999999999998934, 4.336808689942017736E-16 ) ) ;
#101 = OBJECT_ROLE ('mandatory',$ ) ;
#102 = PRODUCT_CONTEXT ( 'NONE', #119, 'mechanical' ) ;
#103 = PRODUCT_DEFINITION ( 'General', '', #182, #136 ) ;
#104 = EXTERNAL_SOURCE (IDENTIFIER('') ) ;
#105 = DOCUMENT_FILE ( '5972K222_Ball Bearing_5972K222.STEP' , '', '', #130, '' ,$ ) ;
#106 =( NAMED_UNIT ( * ) SI_UNIT ( $, .STERADIAN. ) SOLID_ANGLE_UNIT ( ) );
#107 = ITEM_DEFINED_TRANSFORMATION ( 'NONE', 'NONE', #50,  #128 ) ;
#108 = DIRECTION ( 'NONE',  ( 0.000000000000000000, 0.000000000000000000, 1.000000000000000000 ) ) ;
#109 = PRODUCT_DEFINITION_SHAPE ( 'NONE', 'NONE',  #103 ) ;
#110 = ROLE_ASSOCIATION ( #13, #6 ) ;
#111 = IDENTIFICATION_ROLE ( 'external document id and location', $) ;
#112 =( LENGTH_UNIT ( ) NAMED_UNIT ( * ) SI_UNIT ( .MILLI., .METRE. ) );
#113 = PRODUCT_DEFINITION_SHAPE ( 'NONE', 'NONE',  #215 ) ;
#114 = APPLICATION_CONTEXT ( 'automotive_design' ) ;
#115 = SHAPE_DEFINITION_REPRESENTATION ( #56, #137 ) ;
#116 = CONTEXT_DEPENDENT_SHAPE_REPRESENTATION ( #210, #140 ) ;
#117 = PRODUCT_DEFINITION_FORMATION_WITH_SPECIFIED_SOURCE ( 'Symmetric', '', #95, .NOT_KNOWN. ) ;
#118 = SHAPE_DEFINITION_REPRESENTATION ( #109, #23 ) ;
#119 = APPLICATION_CONTEXT ( 'automotive_design' ) ;
#120 = EXTERNAL_SOURCE (IDENTIFIER('') ) ;
#121 = DIRECTION ( 'NONE',  ( 1.000000000000000000, 0.000000000000000000, 0.000000000000000000 ) ) ;
#122 =( REPRESENTATION_RELATIONSHIP ('NONE','NONE', #137, #23 ) REPRESENTATION_RELATIONSHIP_WITH_TRANSFORMATION ( #84 )SHAPE_REPRESENTATION_RELATIONSHIP( ) );
#123 = AXIS2_PLACEMENT_3D ( 'NONE', #81, #97, #55 ) ;
#124 = DIRECTION ( 'NONE',  ( 1.000000000000000000, 0.000000000000000000, 0.000000000000000000 ) ) ;
#125 = APPLICATION_CONTEXT ( 'automotive_design' ) ;
#126 = PRODUCT_DEFINITION_SHAPE ( 'NONE', 'NONE',  #172 ) ;
#127 = CARTESIAN_POINT ( 'NONE',  ( 39.00000000000002842, -30.50000000000000000, 9.215718466127002654E-16 ) ) ;
#128 = AXIS2_PLACEMENT_3D ( 'NONE', #21, #70, #124 ) ;
#129 = APPLICATION_CONTEXT ( 'automotive_design' ) ;
#130 = DOCUMENT_TYPE ( 'geometry' ) ;
#131 = DOCUMENT_FILE ( '5972K222_Ball Bearing_5972K222.STEP' , '', '', #157, '' ,$ ) ;
#132 = DOCUMENT_FILE ( 'Body arm.STEP' , '', '', #181, '' ,$ ) ;
#133 = ITEM_DEFINED_TRANSFORMATION ( 'NONE', 'NONE', #161,  #65 ) ;
#134 = PRODUCT_DEFINITION_CONTEXT ( 'detailed design', #152, 'design' ) ;
#135 = PRODUCT_RELATED_PRODUCT_CATEGORY ( 'part', '', ( #186 ) ) ;
#136 = PRODUCT_DEFINITION_CONTEXT ( 'detailed design', #114, 'design' ) ;
#137 = SHAPE_REPRESENTATION ( 'Main bracket', ( #91, #123, #50, #11, #161, #194 ), #179 ) ;
#138 = PRODUCT_DEFINITION_SHAPE ( 'NONE', 'NONE',  #213 ) ;
#139 = DOCUMENT_TYPE ( 'geometry' ) ;
#140 = PRODUCT_DEFINITION_SHAPE ( 'NONE', 'NONE',  #211 ) ;
#141 = PROPERTY_DEFINITION_REPRESENTATION ( #98, #77 ) ;
#142 = APPLIED_EXTERNAL_IDENTIFICATION_ASSIGNMENT ( 'Body arm.STEP' , #44, #120,( #132) ) ;
#143 = DIRECTION ( 'NONE',  ( -1.788123628432687151E-16, -0.3865436595216873439, -0.9222711094269308019 ) ) ;
#144 =( REPRESENTATION_RELATIONSHIP ('NONE','NONE', #137, #23 ) REPRESENTATION_RELATIONSHIP_WITH_TRANSFORMATION ( #107 )SHAPE_REPRESENTATION_RELATIONSHIP( ) );
#145 =( GEOMETRIC_REPRESENTATION_CONTEXT ( 3 ) GLOBAL_UNCERTAINTY_ASSIGNED_CONTEXT ( ( #167 ) ) GLOBAL_UNIT_ASSIGNED_CONTEXT ( ( #112, #192, #207 ) ) REPRESENTATION_CONTEXT ( 'NONE', 'WORKASPACE' ) );
#146 = ROLE_ASSOCIATION ( #101, #45 ) ;
#147 = PRODUCT_RELATED_PRODUCT_CATEGORY ( 'part', '', ( #175 ) ) ;
#148 = PRODUCT_RELATED_PRODUCT_CATEGORY ( 'part', '', ( #7 ) ) ;
#149 =( GEOMETRIC_REPRESENTATION_CONTEXT ( 3 ) GLOBAL_UNCERTAINTY_ASSIGNED_CONTEXT ( ( #80 ) ) GLOBAL_UNIT_ASSIGNED_CONTEXT ( ( #14, #188, #42 ) ) REPRESENTATION_CONTEXT ( 'NONE', 'WORKASPACE' ) );
#150 = SHAPE_REPRESENTATION ( 'Elevator-Driver V2', ( #197 ), #145 ) ;
#151 = CARTESIAN_POINT ( 'NONE',  ( 0.000000000000000000, 0.000000000000000000, 0.000000000000000000 ) ) ;
#152 = APPLICATION_CONTEXT ( 'automotive_design' ) ;
#153 =( NAMED_UNIT ( * ) PLANE_ANGLE_UNIT ( ) SI_UNIT ( $, .RADIAN. ) );
#154 = DIRECTION ( 'NONE',  ( 0.000000000000000000, 0.000000000000000000, 1.000000000000000000 ) ) ;
#155 = PRODUCT ( '5972K222_Ball Bearing_5972K222', '5972K222_Ball Bearing_5972K222', '', ( #164 ) ) ;
#156 = DIRECTION ( 'NONE',  ( 0.9999999999999998890, -4.625929269271470137E-16, -3.266377185680752007E-31 ) ) ;
#157 = DOCUMENT_TYPE ( 'geometry' ) ;
#158 = APPLIED_DOCUMENT_REFERENCE ( #198,'',( #78) ) ;
#159 = PROPERTY_DEFINITION ('document property','', #198 ) ;
#160 = DIRECTION ( 'NONE',  ( 0.9999999999999998890, -4.625929269271458304E-16, -1.380506584136770659E-30 ) ) ;
#161 = AXIS2_PLACEMENT_3D ( 'NONE', #209, #177, #26 ) ;
#162 = DIRECTION ( 'NONE',  ( 0.000000000000000000, -0.4470230244913500628, 0.8945224511294315173 ) ) ;
#163 = PRODUCT_DEFINITION ( 'General', '', #62, #134 ) ;
#164 = PRODUCT_CONTEXT ( 'NONE', #193, 'mechanical' ) ;
#165 = PROPERTY_DEFINITION_REPRESENTATION ( #69, #23 ) ;
#166 = SHAPE_DEFINITION_REPRESENTATION ( #71, #77 ) ;
#167 = UNCERTAINTY_MEASURE_WITH_UNIT (LENGTH_MEASURE( 1.000000000000000082E-05 ), #112, 'distance_accuracy_value', 'NONE');
#168 = CONTEXT_DEPENDENT_SHAPE_REPRESENTATION ( #144, #74 ) ;
#169 = UNCERTAINTY_MEASURE_WITH_UNIT (LENGTH_MEASURE( 1.000000000000000082E-05 ), #204, 'distance_accuracy_value', 'NONE');
#170 = CARTESIAN_POINT ( 'NONE',  ( 0.000000000000000000, 0.000000000000000000, 0.000000000000000000 ) ) ;
#171 = APPLIED_EXTERNAL_IDENTIFICATION_ASSIGNMENT ( '5972K222_Ball Bearing_5972K222.STEP' , #51, #32,( #131) ) ;
#172 = PRODUCT_DEFINITION ( 'General', '', #208, #35 ) ;
#173 = PROPERTY_DEFINITION_REPRESENTATION ( #189, #150 ) ;
#174 = DIRECTION ( 'NONE',  ( 1.000000000000000000, 0.000000000000000000, 0.000000000000000000 ) ) ;
#175 = PRODUCT ( 'Body arm', 'Body arm', '', ( #200 ) ) ;
#176 = PRODUCT_CONTEXT ( 'NONE', #39, 'mechanical' ) ;
#177 = DIRECTION ( 'NONE',  ( 0.000000000000000000, 0.000000000000000000, 1.000000000000000000 ) ) ;
#178 = APPLICATION_PROTOCOL_DEFINITION ( 'draft international standard', 'automotive_design', 1998, #152 ) ;
#179 =( GEOMETRIC_REPRESENTATION_CONTEXT ( 3 ) GLOBAL_UNCERTAINTY_ASSIGNED_CONTEXT ( ( #90 ) ) GLOBAL_UNIT_ASSIGNED_CONTEXT ( ( #87, #61, #106 ) ) REPRESENTATION_CONTEXT ( 'NONE', 'WORKASPACE' ) );
#180 = CONTEXT_DEPENDENT_SHAPE_REPRESENTATION ( #185, #25 ) ;
#181 = DOCUMENT_TYPE ( 'geometry' ) ;
#182 = PRODUCT_DEFINITION_FORMATION_WITH_SPECIFIED_SOURCE ( 'Symmetric', '', #155, .NOT_KNOWN. ) ;
#183 = PROPERTY_DEFINITION_REPRESENTATION ( #206, #202 ) ;
#184 =( NAMED_UNIT ( * ) PLANE_ANGLE_UNIT ( ) SI_UNIT ( $, .RADIAN. ) );
#185 =( REPRESENTATION_RELATIONSHIP ('NONE','NONE', #137, #77 ) REPRESENTATION_RELATIONSHIP_WITH_TRANSFORMATION ( #133 )SHAPE_REPRESENTATION_RELATIONSHIP( ) );
#186 = PRODUCT ( 'Elevator-Driver V2', 'Elevator-Driver V2', '', ( #20 ) ) ;
#187 = PRODUCT_RELATED_PRODUCT_CATEGORY ( 'part', '', ( #155 ) ) ;
#188 =( NAMED_UNIT ( * ) PLANE_ANGLE_UNIT ( ) SI_UNIT ( $, .RADIAN. ) );
#189 = PROPERTY_DEFINITION ('document property','', #93 ) ;
#190 = PROPERTY_DEFINITION_REPRESENTATION ( #73, #150 ) ;
#191 = CARTESIAN_POINT ( 'NONE',  ( -38.99999999999999289, -30.49999999999999289, 1.138412281109779656E-15 ) ) ;
#192 =( NAMED_UNIT ( * ) PLANE_ANGLE_UNIT ( ) SI_UNIT ( $, .RADIAN. ) );
#193 = APPLICATION_CONTEXT ( 'automotive_design' ) ;
#194 = AXIS2_PLACEMENT_3D ( 'NONE', #100, #162, #79 ) ;
#195 = ROLE_ASSOCIATION ( #205, #63 ) ;
#196 = ITEM_DEFINED_TRANSFORMATION ( 'NONE', 'NONE', #123,  #82 ) ;
#197 = AXIS2_PLACEMENT_3D ( 'NONE', #34, #108, #76 ) ;
#198 = DOCUMENT_FILE ( 'Elevator base mount.STEP' , '', '', #66, '' ,$ ) ;
#199 = PRODUCT_RELATED_PRODUCT_CATEGORY ( 'part', '', ( #95 ) ) ;
#200 = PRODUCT_CONTEXT ( 'NONE', #41, 'mechanical' ) ;
#201 = PRODUCT_DEFINITION_CONTEXT ( 'detailed design', #129, 'design' ) ;
#202 = SHAPE_REPRESENTATION ( 'Body arm', ( #82 ), #3 ) ;
#203 = PRODUCT_DEFINITION_FORMATION_WITH_SPECIFIED_SOURCE ( 'Symmetric', '', #7, .NOT_KNOWN. ) ;
#204 =( LENGTH_UNIT ( ) NAMED_UNIT ( * ) SI_UNIT ( .MILLI., .METRE. ) );
#205 = OBJECT_ROLE ('mandatory',$ ) ;
#206 = PROPERTY_DEFINITION ('external definition','', #132 ) ;
#207 =( NAMED_UNIT ( * ) SI_UNIT ( $, .STERADIAN. ) SOLID_ANGLE_UNIT ( ) );
#208 = PRODUCT_DEFINITION_FORMATION_WITH_SPECIFIED_SOURCE ( 'Symmetric', '', #175, .NOT_KNOWN. ) ;
#209 = CARTESIAN_POINT ( 'NONE',  ( 0.000000000000000000, -24.49999999999985434, 39.89544826719048842 ) ) ;
#210 =( REPRESENTATION_RELATIONSHIP ('NONE','NONE', #137, #202 ) REPRESENTATION_RELATIONSHIP_WITH_TRANSFORMATION ( #196 )SHAPE_REPRESENTATION_RELATIONSHIP( ) );
#211 = NEXT_ASSEMBLY_USAGE_OCCURRENCE ( 'NAUO6', ' ', ' ', #19, #172, $ ) ;
#212 = NEXT_ASSEMBLY_USAGE_OCCURRENCE ( 'NAUO7', ' ', ' ', #19, #103, $ ) ;
#213 = NEXT_ASSEMBLY_USAGE_OCCURRENCE ( 'NAUO8', ' ', ' ', #19, #103, $ ) ;
#214 = NEXT_ASSEMBLY_USAGE_OCCURRENCE ( 'NAUO9', ' ', ' ', #19, #78, $ ) ;
#215 = NEXT_ASSEMBLY_USAGE_OCCURRENCE ( 'NAUO10', ' ', ' ', #19, #163, $ ) ;
ENDSEC;
END-ISO-10303-21;
