ISO-10303-21;
HEADER;
FILE_DESCRIPTION (( 'STEP AP214' ),
    '1' );
FILE_NAME ('Part2^elevator shaft.STEP',
    '2026-02-05T02:30:36',
    ( '' ),
    ( '' ),
    'SwSTEP 2.0',
    'SolidWorks 2025',
    '' );
FILE_SCHEMA (( 'AUTOMOTIVE_DESIGN' ));
ENDSEC;

DATA;
#1 = ORIENTED_EDGE ( 'NONE', *, *, #248, .F. ) ;
#2 = MANIFOLD_SOLID_BREP ( 'Boss-Extrude1', #220 ) ;
#3 = DIRECTION ( 'NONE',  ( 0.000000000000000000, 1.000000000000000000, 0.000000000000000000 ) ) ;
#4 = EDGE_LOOP ( 'NONE', ( #228, #253, #1, #181 ) ) ;
#5 = DIRECTION ( 'NONE',  ( 0.000000000000000000, 1.000000000000000000, 0.000000000000000000 ) ) ;
#6 = VECTOR ( 'NONE', #318, 1000.000000000000000 ) ;
#7 = FACE_OUTER_BOUND ( 'NONE', #4, .T. ) ;
#8 = EDGE_CURVE ( 'NONE', #74, #277, #139, .T. ) ;
#9 = APPLICATION_PROTOCOL_DEFINITION ( 'draft international standard', 'automotive_design', 1998, #233 ) ;
#10 = CARTESIAN_POINT ( 'NONE',  ( -37.50000000000000000, 2.000000000000000000, 0.000000000000000000 ) ) ;
#11 = EDGE_CURVE ( 'NONE', #79, #303, #13, .T. ) ;
#12 = VERTEX_POINT ( 'NONE', #85 ) ;
#13 = LINE ( 'NONE', #113, #55 ) ;
#14 = VECTOR ( 'NONE', #307, 1000.000000000000000 ) ;
#15 = CARTESIAN_POINT ( 'NONE',  ( 37.50000000000000000, 2.000000000000000000, 7.500000000000000000 ) ) ;
#16 = DIRECTION ( 'NONE',  ( 1.000000000000000000, 0.000000000000000000, -1.850371707708594316E-16 ) ) ;
#17 = LINE ( 'NONE', #227, #14 ) ;
#18 = EDGE_CURVE ( 'NONE', #79, #320, #292, .T. ) ;
#19 = CIRCLE ( 'NONE', #150, 4.100000000000000533 ) ;
#20 = CARTESIAN_POINT ( 'NONE',  ( 37.50000000000000000, 2.000000000000000000, -7.500000000000013323 ) ) ;
#21 = EDGE_LOOP ( 'NONE', ( #234, #101 ) ) ;
#22 = CARTESIAN_POINT ( 'NONE',  ( -37.50000000000000000, 2.000000000000000000, 7.500000000000000000 ) ) ;
#23 = ORIENTED_EDGE ( 'NONE', *, *, #187, .F. ) ;
#24 = CARTESIAN_POINT ( 'NONE',  ( 37.50000000000000000, 0.000000000000000000, 3.999999999999998224 ) ) ;
#25 = EDGE_CURVE ( 'NONE', #283, #48, #108, .T. ) ;
#26 = ORIENTED_EDGE ( 'NONE', *, *, #156, .F. ) ;
#27 = APPLICATION_CONTEXT ( 'automotive_design' ) ;
#28 = DIRECTION ( 'NONE',  ( 0.000000000000000000, 0.000000000000000000, -1.000000000000000000 ) ) ;
#29 = ORIENTED_EDGE ( 'NONE', *, *, #40, .T. ) ;
#30 = DIRECTION ( 'NONE',  ( 0.000000000000000000, 0.000000000000000000, 1.000000000000000000 ) ) ;
#31 = EDGE_LOOP ( 'NONE', ( #53, #183, #51, #155 ) ) ;
#32 = DIRECTION ( 'NONE',  ( 0.000000000000000000, 0.000000000000000000, -1.000000000000000000 ) ) ;
#33 = PRODUCT_DEFINITION ( 'General', '', #92, #110 ) ;
#34 = CARTESIAN_POINT ( 'NONE',  ( -37.50000000000000000, 2.000000000000000000, -4.100000000000000533 ) ) ;
#35 = CYLINDRICAL_SURFACE ( 'NONE', #279, 4.100000000000000533 ) ;
#36 = VECTOR ( 'NONE', #286, 1000.000000000000000 ) ;
#37 = PRODUCT_DEFINITION_SHAPE ( 'NONE', 'NONE',  #33 ) ;
#38 = CARTESIAN_POINT ( 'NONE',  ( 37.50000000000000000, 0.000000000000000000, -3.999999999999998224 ) ) ;
#39 = DIRECTION ( 'NONE',  ( 0.000000000000000000, 1.000000000000000000, 0.000000000000000000 ) ) ;
#40 = EDGE_CURVE ( 'NONE', #208, #12, #293, .T. ) ;
#41 = EDGE_LOOP ( 'NONE', ( #153, #141, #243, #285 ) ) ;
#42 = AXIS2_PLACEMENT_3D ( 'NONE', #333, #328, #331 ) ;
#43 = CARTESIAN_POINT ( 'NONE',  ( -37.50000000000000000, 2.000000000000000000, 4.100000000000000533 ) ) ;
#44 = LINE ( 'NONE', #250, #241 ) ;
#45 = CARTESIAN_POINT ( 'NONE',  ( -37.50000000000000000, 0.000000000000000000, 4.100000000000000533 ) ) ;
#46 = EDGE_LOOP ( 'NONE', ( #288, #321 ) ) ;
#47 = DIRECTION ( 'NONE',  ( -0.000000000000000000, -1.000000000000000000, -0.000000000000000000 ) ) ;
#48 = VERTEX_POINT ( 'NONE', #38 ) ;
#49 = EDGE_CURVE ( 'NONE', #74, #283, #168, .T. ) ;
#50 = CYLINDRICAL_SURFACE ( 'NONE', #202, 4.100000000000000533 ) ;
#51 = ORIENTED_EDGE ( 'NONE', *, *, #11, .F. ) ;
#52 = CARTESIAN_POINT ( 'NONE',  ( -37.50000000000000000, 2.000000000000000000, 4.100000000000000533 ) ) ;
#53 = ORIENTED_EDGE ( 'NONE', *, *, #84, .T. ) ;
#54 = DIRECTION ( 'NONE',  ( 1.850371707708594316E-16, -0.000000000000000000, 1.000000000000000000 ) ) ;
#55 = VECTOR ( 'NONE', #218, 1000.000000000000000 ) ;
#56 = ORIENTED_EDGE ( 'NONE', *, *, #171, .T. ) ;
#57 =( NAMED_UNIT ( * ) SI_UNIT ( $, .STERADIAN. ) SOLID_ANGLE_UNIT ( ) );
#58 = ADVANCED_FACE ( 'NONE', ( #216 ), #35, .F. ) ;
#59 = CARTESIAN_POINT ( 'NONE',  ( 37.50000000000000000, 0.000000000000000000, 0.000000000000000000 ) ) ;
#60 = EDGE_CURVE ( 'NONE', #211, #208, #163, .T. ) ;
#61 = DIRECTION ( 'NONE',  ( -0.000000000000000000, -1.000000000000000000, -0.000000000000000000 ) ) ;
#62 = DIRECTION ( 'NONE',  ( 0.000000000000000000, 1.000000000000000000, 0.000000000000000000 ) ) ;
#63 = CARTESIAN_POINT ( 'NONE',  ( -37.50000000000000000, 0.000000000000000000, 7.500000000000000000 ) ) ;
#64 = AXIS2_PLACEMENT_3D ( 'NONE', #59, #263, #289 ) ;
#65 = EDGE_CURVE ( 'NONE', #262, #12, #282, .T. ) ;
#66 =( NAMED_UNIT ( * ) SI_UNIT ( $, .STERADIAN. ) SOLID_ANGLE_UNIT ( ) );
#67 = DIRECTION ( 'NONE',  ( -1.000000000000000000, -0.000000000000000000, 1.850371707708594316E-16 ) ) ;
#68 = MECHANICAL_DESIGN_GEOMETRIC_PRESENTATION_REPRESENTATION (  '', ( #201 ), #300 ) ;
#69 = CARTESIAN_POINT ( 'NONE',  ( 37.50000000000000000, 2.000000000000000000, 0.000000000000000000 ) ) ;
#70 = EDGE_CURVE ( 'NONE', #273, #262, #44, .T. ) ;
#71 = CARTESIAN_POINT ( 'NONE',  ( 37.50000000000000000, 2.000000000000000000, 3.999999999999998224 ) ) ;
#72 = EDGE_LOOP ( 'NONE', ( #138, #213, #104, #166 ) ) ;
#73 = DIRECTION ( 'NONE',  ( 0.000000000000000000, 0.000000000000000000, -1.000000000000000000 ) ) ;
#74 = VERTEX_POINT ( 'NONE', #71 ) ;
#75 = DIRECTION ( 'NONE',  ( 0.000000000000000000, 0.000000000000000000, 1.000000000000000000 ) ) ;
#76 = AXIS2_PLACEMENT_3D ( 'NONE', #184, #5, #30 ) ;
#77 = EDGE_LOOP ( 'NONE', ( #127, #311, #23, #178 ) ) ;
#78 = CARTESIAN_POINT ( 'NONE',  ( -37.50000000000000000, 2.000000000000000000, 0.000000000000000000 ) ) ;
#79 = VERTEX_POINT ( 'NONE', #20 ) ;
#80 = CARTESIAN_POINT ( 'NONE',  ( -37.50000000000000000, 0.000000000000000000, -7.500000000000000000 ) ) ;
#81 = ORIENTED_EDGE ( 'NONE', *, *, #60, .T. ) ;
#82 = CARTESIAN_POINT ( 'NONE',  ( -37.50000000000000000, 2.000000000000000000, -4.100000000000000533 ) ) ;
#83 = CARTESIAN_POINT ( 'NONE',  ( -37.50000000000000000, 2.000000000000000000, -7.500000000000000000 ) ) ;
#84 = EDGE_CURVE ( 'NONE', #320, #211, #249, .T. ) ;
#85 = CARTESIAN_POINT ( 'NONE',  ( 37.50000000000000000, 0.000000000000000000, 7.500000000000000000 ) ) ;
#86 = AXIS2_PLACEMENT_3D ( 'NONE', #275, #123, #278 ) ;
#87 = PRESENTATION_STYLE_ASSIGNMENT (( #219 ) ) ;
#88 = PRODUCT ( 'Part2^elevator shaft', 'Part2^elevator shaft', '', ( #193 ) ) ;
#89 = FILL_AREA_STYLE_COLOUR ( '', #308 ) ;
#90 = ADVANCED_FACE ( 'NONE', ( #174 ), #147, .T. ) ;
#91 = VECTOR ( 'NONE', #268, 1000.000000000000000 ) ;
#92 = PRODUCT_DEFINITION_FORMATION_WITH_SPECIFIED_SOURCE ( 'Symmetric', '', #88, .NOT_KNOWN. ) ;
#93 = ORIENTED_EDGE ( 'NONE', *, *, #25, .F. ) ;
#94 = CYLINDRICAL_SURFACE ( 'NONE', #135, 3.999999999999998224 ) ;
#95 = CARTESIAN_POINT ( 'NONE',  ( -37.50000000000000000, 2.000000000000000000, 0.000000000000000000 ) ) ;
#96 = FACE_BOUND ( 'NONE', #21, .T. ) ;
#97 = ORIENTED_EDGE ( 'NONE', *, *, #65, .F. ) ;
#98 = FACE_BOUND ( 'NONE', #296, .T. ) ;
#99 = EDGE_LOOP ( 'NONE', ( #26, #309, #136, #130 ) ) ;
#100 = PLANE ( 'NONE',  #259 ) ;
#101 = ORIENTED_EDGE ( 'NONE', *, *, #25, .T. ) ;
#102 = AXIS2_PLACEMENT_3D ( 'NONE', #95, #152, #119 ) ;
#103 = LINE ( 'NONE', #34, #36 ) ;
#104 = ORIENTED_EDGE ( 'NONE', *, *, #338, .F. ) ;
#105 = CARTESIAN_POINT ( 'NONE',  ( 37.50000000000000000, 0.000000000000000000, -7.500000000000013323 ) ) ;
#106 = EDGE_LOOP ( 'NONE', ( #260, #149, #314, #176 ) ) ;
#107 = DIRECTION ( 'NONE',  ( 0.000000000000000000, 0.000000000000000000, 1.000000000000000000 ) ) ;
#108 = CIRCLE ( 'NONE', #120, 3.999999999999998224 ) ;
#109 = CARTESIAN_POINT ( 'NONE',  ( -37.50000000000000000, 0.000000000000000000, -4.100000000000000533 ) ) ;
#110 = PRODUCT_DEFINITION_CONTEXT ( 'detailed design', #233, 'design' ) ;
#111 = SHAPE_DEFINITION_REPRESENTATION ( #37, #124 ) ;
#112 = CIRCLE ( 'NONE', #327, 4.100000000000000533 ) ;
#113 = CARTESIAN_POINT ( 'NONE',  ( -37.50000000000000000, 2.000000000000000000, -7.500000000000000000 ) ) ;
#114 = CARTESIAN_POINT ( 'NONE',  ( 37.50000000000000000, 2.000000000000000000, 0.000000000000000000 ) ) ;
#115 = VECTOR ( 'NONE', #61, 1000.000000000000000 ) ;
#116 = DIRECTION ( 'NONE',  ( -0.000000000000000000, -1.000000000000000000, -0.000000000000000000 ) ) ;
#117 = PLANE ( 'NONE',  #207 ) ;
#118 = UNCERTAINTY_MEASURE_WITH_UNIT (LENGTH_MEASURE( 1.000000000000000082E-05 ), #212, 'distance_accuracy_value', 'NONE');
#119 = DIRECTION ( 'NONE',  ( 0.000000000000000000, -0.000000000000000000, 1.000000000000000000 ) ) ;
#120 = AXIS2_PLACEMENT_3D ( 'NONE', #164, #62, #194 ) ;
#121 = CARTESIAN_POINT ( 'NONE',  ( -37.50000000000000000, 0.000000000000000000, -7.500000000000000000 ) ) ;
#122 = EDGE_LOOP ( 'NONE', ( #204, #255, #230, #93 ) ) ;
#123 = DIRECTION ( 'NONE',  ( 0.000000000000000000, 1.000000000000000000, 0.000000000000000000 ) ) ;
#124 = ADVANCED_BREP_SHAPE_REPRESENTATION ( 'Part2^elevator shaft', ( #2, #252 ), #329 ) ;
#125 = VERTEX_POINT ( 'NONE', #45 ) ;
#126 = CYLINDRICAL_SURFACE ( 'NONE', #323, 7.500000000000000000 ) ;
#127 = ORIENTED_EDGE ( 'NONE', *, *, #167, .T. ) ;
#128 = AXIS2_PLACEMENT_3D ( 'NONE', #246, #205, #175 ) ;
#129 = CARTESIAN_POINT ( 'NONE',  ( -37.50000000000000000, 2.000000000000000000, 0.000000000000000000 ) ) ;
#130 = ORIENTED_EDGE ( 'NONE', *, *, #312, .F. ) ;
#131 = EDGE_CURVE ( 'NONE', #277, #48, #17, .T. ) ;
#132 = CARTESIAN_POINT ( 'NONE',  ( -37.50000000000000000, 0.000000000000000000, 0.000000000000000000 ) ) ;
#133 = DIRECTION ( 'NONE',  ( -0.000000000000000000, -1.000000000000000000, -0.000000000000000000 ) ) ;
#134 = CARTESIAN_POINT ( 'NONE',  ( 37.50000000000000000, 2.000000000000000000, 0.000000000000000000 ) ) ;
#135 = AXIS2_PLACEMENT_3D ( 'NONE', #69, #199, #146 ) ;
#136 = ORIENTED_EDGE ( 'NONE', *, *, #291, .T. ) ;
#137 = DIRECTION ( 'NONE',  ( 1.000000000000000000, 0.000000000000000000, 0.000000000000000000 ) ) ;
#138 = ORIENTED_EDGE ( 'NONE', *, *, #332, .T. ) ;
#139 = CIRCLE ( 'NONE', #237, 3.999999999999998224 ) ;
#140 = ADVANCED_FACE ( 'NONE', ( #173 ), #117, .F. ) ;
#141 = ORIENTED_EDGE ( 'NONE', *, *, #84, .F. ) ;
#142 = DIRECTION ( 'NONE',  ( 0.000000000000000000, 0.000000000000000000, 1.000000000000000000 ) ) ;
#143 = LINE ( 'NONE', #43, #145 ) ;
#144 = PRODUCT_RELATED_PRODUCT_CATEGORY ( 'part', '', ( #88 ) ) ;
#145 = VECTOR ( 'NONE', #116, 1000.000000000000000 ) ;
#146 = DIRECTION ( 'NONE',  ( 0.000000000000000000, 0.000000000000000000, -1.000000000000000000 ) ) ;
#147 = CYLINDRICAL_SURFACE ( 'NONE', #266, 7.500000000000000000 ) ;
#148 = DIRECTION ( 'NONE',  ( 0.000000000000000000, 0.000000000000000000, -1.000000000000000000 ) ) ;
#149 = ORIENTED_EDGE ( 'NONE', *, *, #70, .T. ) ;
#150 = AXIS2_PLACEMENT_3D ( 'NONE', #261, #182, #319 ) ;
#151 = ADVANCED_FACE ( 'NONE', ( #304, #254, #222 ), #247, .T. ) ;
#152 = DIRECTION ( 'NONE',  ( 0.000000000000000000, 1.000000000000000000, 0.000000000000000000 ) ) ;
#153 = ORIENTED_EDGE ( 'NONE', *, *, #60, .F. ) ;
#154 = CARTESIAN_POINT ( 'NONE',  ( 37.50000000000000000, 2.000000000000000000, 7.500000000000000000 ) ) ;
#155 = ORIENTED_EDGE ( 'NONE', *, *, #18, .T. ) ;
#156 = EDGE_CURVE ( 'NONE', #330, #125, #143, .T. ) ;
#157 = EDGE_LOOP ( 'NONE', ( #81, #334, #281, #306 ) ) ;
#158 = VECTOR ( 'NONE', #197, 1000.000000000000000 ) ;
#159 = DIRECTION ( 'NONE',  ( 0.000000000000000000, 1.000000000000000000, 0.000000000000000000 ) ) ;
#160 = ORIENTED_EDGE ( 'NONE', *, *, #305, .F. ) ;
#161 = CARTESIAN_POINT ( 'NONE',  ( -37.50000000000000000, 2.000000000000000000, 0.000000000000000000 ) ) ;
#162 = DIRECTION ( 'NONE',  ( 0.000000000000000000, 0.000000000000000000, 1.000000000000000000 ) ) ;
#163 = CIRCLE ( 'NONE', #245, 7.500000000000000000 ) ;
#164 = CARTESIAN_POINT ( 'NONE',  ( 37.50000000000000000, 0.000000000000000000, 0.000000000000000000 ) ) ;
#165 = APPLICATION_PROTOCOL_DEFINITION ( 'draft international standard', 'automotive_design', 1998, #27 ) ;
#166 = ORIENTED_EDGE ( 'NONE', *, *, #291, .F. ) ;
#167 = EDGE_CURVE ( 'NONE', #12, #320, #287, .T. ) ;
#168 = LINE ( 'NONE', #172, #91 ) ;
#169 = AXIS2_PLACEMENT_3D ( 'NONE', #134, #159, #214 ) ;
#170 = SURFACE_STYLE_FILL_AREA ( #317 ) ;
#171 = EDGE_CURVE ( 'NONE', #273, #208, #223, .T. ) ;
#172 = CARTESIAN_POINT ( 'NONE',  ( 37.50000000000000000, 2.000000000000000000, 3.999999999999998224 ) ) ;
#173 = FACE_OUTER_BOUND ( 'NONE', #192, .T. ) ;
#174 = FACE_OUTER_BOUND ( 'NONE', #77, .T. ) ;
#175 = DIRECTION ( 'NONE',  ( 0.000000000000000000, 0.000000000000000000, 1.000000000000000000 ) ) ;
#176 = ORIENTED_EDGE ( 'NONE', *, *, #11, .T. ) ;
#177 = DIRECTION ( 'NONE',  ( -1.850371707708594316E-16, 0.000000000000000000, -1.000000000000000000 ) ) ;
#178 = ORIENTED_EDGE ( 'NONE', *, *, #65, .T. ) ;
#179 = CIRCLE ( 'NONE', #128, 7.500000000000000000 ) ;
#180 = DIRECTION ( 'NONE',  ( -1.000000000000000000, 0.000000000000000000, 1.850371707708594316E-16 ) ) ;
#181 = ORIENTED_EDGE ( 'NONE', *, *, #131, .F. ) ;
#182 = DIRECTION ( 'NONE',  ( 0.000000000000000000, 1.000000000000000000, 0.000000000000000000 ) ) ;
#183 = ORIENTED_EDGE ( 'NONE', *, *, #294, .F. ) ;
#184 = CARTESIAN_POINT ( 'NONE',  ( -37.50000000000000000, 2.000000000000000000, 0.000000000000000000 ) ) ;
#185 = ORIENTED_EDGE ( 'NONE', *, *, #312, .T. ) ;
#186 = FACE_OUTER_BOUND ( 'NONE', #31, .T. ) ;
#187 = EDGE_CURVE ( 'NONE', #262, #79, #295, .T. ) ;
#188 = DIRECTION ( 'NONE',  ( 0.000000000000000000, 1.000000000000000000, 0.000000000000000000 ) ) ;
#189 = VECTOR ( 'NONE', #225, 1000.000000000000000 ) ;
#190 = DIRECTION ( 'NONE',  ( 0.000000000000000000, 0.000000000000000000, 1.000000000000000000 ) ) ;
#191 = ADVANCED_FACE ( 'NONE', ( #326, #98, #96 ), #100, .F. ) ;
#192 = EDGE_LOOP ( 'NONE', ( #29, #97, #269, #56 ) ) ;
#193 = PRODUCT_CONTEXT ( 'NONE', #27, 'mechanical' ) ;
#194 = DIRECTION ( 'NONE',  ( 0.000000000000000000, 0.000000000000000000, 1.000000000000000000 ) ) ;
#195 = CIRCLE ( 'NONE', #64, 3.999999999999998224 ) ;
#196 = AXIS2_PLACEMENT_3D ( 'NONE', #132, #3, #107 ) ;
#197 = DIRECTION ( 'NONE',  ( 1.000000000000000000, 0.000000000000000000, -1.850371707708594316E-16 ) ) ;
#198 = EDGE_CURVE ( 'NONE', #303, #273, #179, .T. ) ;
#199 = DIRECTION ( 'NONE',  ( -0.000000000000000000, -1.000000000000000000, -0.000000000000000000 ) ) ;
#200 = DIRECTION ( 'NONE',  ( 0.000000000000000000, 1.000000000000000000, 0.000000000000000000 ) ) ;
#201 = STYLED_ITEM ( 'NONE', ( #87 ), #2 ) ;
#202 = AXIS2_PLACEMENT_3D ( 'NONE', #78, #238, #284 ) ;
#203 = DIRECTION ( 'NONE',  ( 0.000000000000000000, 1.000000000000000000, 0.000000000000000000 ) ) ;
#204 = ORIENTED_EDGE ( 'NONE', *, *, #49, .F. ) ;
#205 = DIRECTION ( 'NONE',  ( 0.000000000000000000, 1.000000000000000000, 0.000000000000000000 ) ) ;
#206 = CARTESIAN_POINT ( 'NONE',  ( -37.50000000000000000, 0.000000000000000000, 0.000000000000000000 ) ) ;
#207 = AXIS2_PLACEMENT_3D ( 'NONE', #22, #177, #180 ) ;
#208 = VERTEX_POINT ( 'NONE', #221 ) ;
#209 = ADVANCED_FACE ( 'NONE', ( #325 ), #94, .F. ) ;
#210 = CARTESIAN_POINT ( 'NONE',  ( -37.50000000000000000, 2.000000000000000000, -7.500000000000000000 ) ) ;
#211 = VERTEX_POINT ( 'NONE', #80 ) ;
#212 =( LENGTH_UNIT ( ) NAMED_UNIT ( * ) SI_UNIT ( .MILLI., .METRE. ) );
#213 = ORIENTED_EDGE ( 'NONE', *, *, #156, .T. ) ;
#214 = DIRECTION ( 'NONE',  ( 0.000000000000000000, 0.000000000000000000, 1.000000000000000000 ) ) ;
#215 = AXIS2_PLACEMENT_3D ( 'NONE', #83, #54, #229 ) ;
#216 = FACE_OUTER_BOUND ( 'NONE', #99, .T. ) ;
#217 = CARTESIAN_POINT ( 'NONE',  ( 37.50000000000000000, 2.000000000000000000, -7.500000000000013323 ) ) ;
#218 = DIRECTION ( 'NONE',  ( -1.000000000000000000, -0.000000000000000000, 1.850371707708594316E-16 ) ) ;
#219 = SURFACE_STYLE_USAGE ( .BOTH. , #297 ) ;
#220 = CLOSED_SHELL ( 'NONE', ( #272, #324, #151, #191, #298, #140, #90, #239, #58, #209 ) ) ;
#221 = CARTESIAN_POINT ( 'NONE',  ( -37.50000000000000000, 0.000000000000000000, 7.500000000000000000 ) ) ;
#222 = FACE_BOUND ( 'NONE', #242, .T. ) ;
#223 = LINE ( 'NONE', #301, #189 ) ;
#224 = AXIS2_PLACEMENT_3D ( 'NONE', #339, #232, #32 ) ;
#225 = DIRECTION ( 'NONE',  ( -0.000000000000000000, -1.000000000000000000, -0.000000000000000000 ) ) ;
#226 = VERTEX_POINT ( 'NONE', #82 ) ;
#227 = CARTESIAN_POINT ( 'NONE',  ( 37.50000000000000000, 2.000000000000000000, -3.999999999999998224 ) ) ;
#228 = ORIENTED_EDGE ( 'NONE', *, *, #305, .T. ) ;
#229 = DIRECTION ( 'NONE',  ( 1.000000000000000000, 0.000000000000000000, -1.850371707708594316E-16 ) ) ;
#230 = ORIENTED_EDGE ( 'NONE', *, *, #131, .T. ) ;
#231 = CIRCLE ( 'NONE', #76, 4.100000000000000533 ) ;
#232 = DIRECTION ( 'NONE',  ( -0.000000000000000000, -1.000000000000000000, -0.000000000000000000 ) ) ;
#233 = APPLICATION_CONTEXT ( 'automotive_design' ) ;
#234 = ORIENTED_EDGE ( 'NONE', *, *, #248, .T. ) ;
#235 = CARTESIAN_POINT ( 'NONE',  ( 0.000000000000000000, 0.000000000000000000, 0.000000000000000000 ) ) ;
#236 = FACE_OUTER_BOUND ( 'NONE', #157, .T. ) ;
#237 = AXIS2_PLACEMENT_3D ( 'NONE', #114, #39, #142 ) ;
#238 = DIRECTION ( 'NONE',  ( -0.000000000000000000, -1.000000000000000000, -0.000000000000000000 ) ) ;
#239 = ADVANCED_FACE ( 'NONE', ( #186 ), #290, .F. ) ;
#240 =( LENGTH_UNIT ( ) NAMED_UNIT ( * ) SI_UNIT ( .MILLI., .METRE. ) );
#241 = VECTOR ( 'NONE', #16, 1000.000000000000000 ) ;
#242 = EDGE_LOOP ( 'NONE', ( #160, #337 ) ) ;
#243 = ORIENTED_EDGE ( 'NONE', *, *, #167, .F. ) ;
#244 = VERTEX_POINT ( 'NONE', #109 ) ;
#245 = AXIS2_PLACEMENT_3D ( 'NONE', #274, #200, #75 ) ;
#246 = CARTESIAN_POINT ( 'NONE',  ( -37.50000000000000000, 2.000000000000000000, 0.000000000000000000 ) ) ;
#247 = PLANE ( 'NONE',  #102 ) ;
#248 = EDGE_CURVE ( 'NONE', #48, #283, #195, .T. ) ;
#249 = LINE ( 'NONE', #121, #270 ) ;
#250 = CARTESIAN_POINT ( 'NONE',  ( -37.50000000000000000, 2.000000000000000000, 7.500000000000000000 ) ) ;
#251 = PRESENTATION_LAYER_ASSIGNMENT (  '', '', ( #201 ) ) ;
#252 = AXIS2_PLACEMENT_3D ( 'NONE', #235, #190, #137 ) ;
#253 = ORIENTED_EDGE ( 'NONE', *, *, #49, .T. ) ;
#254 = FACE_OUTER_BOUND ( 'NONE', #106, .T. ) ;
#255 = ORIENTED_EDGE ( 'NONE', *, *, #8, .T. ) ;
#256 = CYLINDRICAL_SURFACE ( 'NONE', #224, 3.999999999999998224 ) ;
#257 = ORIENTED_EDGE ( 'NONE', *, *, #338, .T. ) ;
#258 = CARTESIAN_POINT ( 'NONE',  ( -37.50000000000000000, 2.000000000000000000, -7.500000000000000000 ) ) ;
#259 = AXIS2_PLACEMENT_3D ( 'NONE', #206, #203, #302 ) ;
#260 = ORIENTED_EDGE ( 'NONE', *, *, #198, .T. ) ;
#261 = CARTESIAN_POINT ( 'NONE',  ( -37.50000000000000000, 0.000000000000000000, 0.000000000000000000 ) ) ;
#262 = VERTEX_POINT ( 'NONE', #154 ) ;
#263 = DIRECTION ( 'NONE',  ( 0.000000000000000000, 1.000000000000000000, 0.000000000000000000 ) ) ;
#264 = UNCERTAINTY_MEASURE_WITH_UNIT (LENGTH_MEASURE( 1.000000000000000082E-05 ), #240, 'distance_accuracy_value', 'NONE');
#265 = CARTESIAN_POINT ( 'NONE',  ( 37.50000000000000000, 2.000000000000000000, -3.999999999999998224 ) ) ;
#266 = AXIS2_PLACEMENT_3D ( 'NONE', #276, #47, #73 ) ;
#267 = EDGE_CURVE ( 'NONE', #330, #226, #112, .T. ) ;
#268 = DIRECTION ( 'NONE',  ( -0.000000000000000000, -1.000000000000000000, -0.000000000000000000 ) ) ;
#269 = ORIENTED_EDGE ( 'NONE', *, *, #70, .F. ) ;
#270 = VECTOR ( 'NONE', #67, 1000.000000000000000 ) ;
#271 = DIRECTION ( 'NONE',  ( -0.000000000000000000, -1.000000000000000000, -0.000000000000000000 ) ) ;
#272 = ADVANCED_FACE ( 'NONE', ( #7 ), #256, .F. ) ;
#273 = VERTEX_POINT ( 'NONE', #335 ) ;
#274 = CARTESIAN_POINT ( 'NONE',  ( -37.50000000000000000, 0.000000000000000000, 0.000000000000000000 ) ) ;
#275 = CARTESIAN_POINT ( 'NONE',  ( 37.50000000000000000, 0.000000000000000000, 0.000000000000000000 ) ) ;
#276 = CARTESIAN_POINT ( 'NONE',  ( 37.50000000000000000, 2.000000000000000000, 0.000000000000000000 ) ) ;
#277 = VERTEX_POINT ( 'NONE', #265 ) ;
#278 = DIRECTION ( 'NONE',  ( 0.000000000000000000, 0.000000000000000000, 1.000000000000000000 ) ) ;
#279 = AXIS2_PLACEMENT_3D ( 'NONE', #10, #271, #148 ) ;
#280 = CIRCLE ( 'NONE', #196, 4.100000000000000533 ) ;
#281 = ORIENTED_EDGE ( 'NONE', *, *, #198, .F. ) ;
#282 = LINE ( 'NONE', #15, #336 ) ;
#283 = VERTEX_POINT ( 'NONE', #24 ) ;
#284 = DIRECTION ( 'NONE',  ( 0.000000000000000000, 0.000000000000000000, -1.000000000000000000 ) ) ;
#285 = ORIENTED_EDGE ( 'NONE', *, *, #40, .F. ) ;
#286 = DIRECTION ( 'NONE',  ( -0.000000000000000000, -1.000000000000000000, -0.000000000000000000 ) ) ;
#287 = CIRCLE ( 'NONE', #86, 7.500000000000000000 ) ;
#288 = ORIENTED_EDGE ( 'NONE', *, *, #332, .F. ) ;
#289 = DIRECTION ( 'NONE',  ( 0.000000000000000000, 0.000000000000000000, 1.000000000000000000 ) ) ;
#290 = PLANE ( 'NONE',  #215 ) ;
#291 = EDGE_CURVE ( 'NONE', #226, #244, #103, .T. ) ;
#292 = LINE ( 'NONE', #217, #115 ) ;
#293 = LINE ( 'NONE', #63, #158 ) ;
#294 = EDGE_CURVE ( 'NONE', #303, #211, #313, .T. ) ;
#295 = CIRCLE ( 'NONE', #42, 7.500000000000000000 ) ;
#296 = EDGE_LOOP ( 'NONE', ( #257, #185 ) ) ;
#297 = SURFACE_SIDE_STYLE ('',( #170 ) ) ;
#298 = ADVANCED_FACE ( 'NONE', ( #236 ), #126, .T. ) ;
#299 = DIRECTION ( 'NONE',  ( -0.000000000000000000, -1.000000000000000000, -0.000000000000000000 ) ) ;
#300 =( GEOMETRIC_REPRESENTATION_CONTEXT ( 3 ) GLOBAL_UNCERTAINTY_ASSIGNED_CONTEXT ( ( #264 ) ) GLOBAL_UNIT_ASSIGNED_CONTEXT ( ( #240, #322, #66 ) ) REPRESENTATION_CONTEXT ( 'NONE', 'WORKASPACE' ) );
#301 = CARTESIAN_POINT ( 'NONE',  ( -37.50000000000000000, 2.000000000000000000, 7.500000000000000000 ) ) ;
#302 = DIRECTION ( 'NONE',  ( 0.000000000000000000, -0.000000000000000000, 1.000000000000000000 ) ) ;
#303 = VERTEX_POINT ( 'NONE', #210 ) ;
#304 = FACE_BOUND ( 'NONE', #46, .T. ) ;
#305 = EDGE_CURVE ( 'NONE', #277, #74, #316, .T. ) ;
#306 = ORIENTED_EDGE ( 'NONE', *, *, #294, .T. ) ;
#307 = DIRECTION ( 'NONE',  ( -0.000000000000000000, -1.000000000000000000, -0.000000000000000000 ) ) ;
#308 = COLOUR_RGB ( '',0.7921568627450980005, 0.8196078431372548767, 0.9333333333333333481 ) ;
#309 = ORIENTED_EDGE ( 'NONE', *, *, #267, .T. ) ;
#310 = FACE_OUTER_BOUND ( 'NONE', #72, .T. ) ;
#311 = ORIENTED_EDGE ( 'NONE', *, *, #18, .F. ) ;
#312 = EDGE_CURVE ( 'NONE', #125, #244, #19, .T. ) ;
#313 = LINE ( 'NONE', #258, #6 ) ;
#314 = ORIENTED_EDGE ( 'NONE', *, *, #187, .T. ) ;
#315 =( NAMED_UNIT ( * ) PLANE_ANGLE_UNIT ( ) SI_UNIT ( $, .RADIAN. ) );
#316 = CIRCLE ( 'NONE', #169, 3.999999999999998224 ) ;
#317 = FILL_AREA_STYLE ('',( #89 ) ) ;
#318 = DIRECTION ( 'NONE',  ( -0.000000000000000000, -1.000000000000000000, -0.000000000000000000 ) ) ;
#319 = DIRECTION ( 'NONE',  ( 0.000000000000000000, 0.000000000000000000, 1.000000000000000000 ) ) ;
#320 = VERTEX_POINT ( 'NONE', #105 ) ;
#321 = ORIENTED_EDGE ( 'NONE', *, *, #267, .F. ) ;
#322 =( NAMED_UNIT ( * ) PLANE_ANGLE_UNIT ( ) SI_UNIT ( $, .RADIAN. ) );
#323 = AXIS2_PLACEMENT_3D ( 'NONE', #129, #133, #28 ) ;
#324 = ADVANCED_FACE ( 'NONE', ( #310 ), #50, .F. ) ;
#325 = FACE_OUTER_BOUND ( 'NONE', #122, .T. ) ;
#326 = FACE_OUTER_BOUND ( 'NONE', #41, .T. ) ;
#327 = AXIS2_PLACEMENT_3D ( 'NONE', #161, #188, #162 ) ;
#328 = DIRECTION ( 'NONE',  ( 0.000000000000000000, 1.000000000000000000, 0.000000000000000000 ) ) ;
#329 =( GEOMETRIC_REPRESENTATION_CONTEXT ( 3 ) GLOBAL_UNCERTAINTY_ASSIGNED_CONTEXT ( ( #118 ) ) GLOBAL_UNIT_ASSIGNED_CONTEXT ( ( #212, #315, #57 ) ) REPRESENTATION_CONTEXT ( 'NONE', 'WORKASPACE' ) );
#330 = VERTEX_POINT ( 'NONE', #52 ) ;
#331 = DIRECTION ( 'NONE',  ( 0.000000000000000000, 0.000000000000000000, 1.000000000000000000 ) ) ;
#332 = EDGE_CURVE ( 'NONE', #226, #330, #231, .T. ) ;
#333 = CARTESIAN_POINT ( 'NONE',  ( 37.50000000000000000, 2.000000000000000000, 0.000000000000000000 ) ) ;
#334 = ORIENTED_EDGE ( 'NONE', *, *, #171, .F. ) ;
#335 = CARTESIAN_POINT ( 'NONE',  ( -37.50000000000000000, 2.000000000000000000, 7.500000000000000000 ) ) ;
#336 = VECTOR ( 'NONE', #299, 1000.000000000000000 ) ;
#337 = ORIENTED_EDGE ( 'NONE', *, *, #8, .F. ) ;
#338 = EDGE_CURVE ( 'NONE', #244, #125, #280, .T. ) ;
#339 = CARTESIAN_POINT ( 'NONE',  ( 37.50000000000000000, 2.000000000000000000, 0.000000000000000000 ) ) ;
ENDSEC;
END-ISO-10303-21;
