ISO-10303-21;
HEADER;
FILE_DESCRIPTION (( 'STEP AP214' ),
    '1' );
FILE_NAME ('Pivot washer.STEP',
    '2026-02-05T02:30:36',
    ( '' ),
    ( '' ),
    'SwSTEP 2.0',
    'SolidWorks 2025',
    '' );
FILE_SCHEMA (( 'AUTOMOTIVE_DESIGN' ));
ENDSEC;

DATA;
#1 = DIRECTION ( 'NONE',  ( 0.8660254037844385966, 0.000000000000000000, -0.4999999999999999445 ) ) ;
#2 = CARTESIAN_POINT ( 'NONE',  ( 3.350000000000000089, -0.4393398282201702032, -1.068097998000827387 ) ) ;
#3 = ORIENTED_EDGE ( 'NONE', *, *, #814, .T. ) ;
#4 = ORIENTED_EDGE ( 'NONE', *, *, #187, .T. ) ;
#5 = FACE_BOUND ( 'NONE', #322, .T. ) ;
#6 = CARTESIAN_POINT ( 'NONE',  ( 3.894962447392346165E-15, 0.7500000000000007772, 3.868246803570493775 ) ) ;
#7 = ORIENTED_EDGE ( 'NONE', *, *, #132, .F. ) ;
#8 = VECTOR ( 'NONE', #769, 1000.000000000000000 ) ;
#9 = AXIS2_PLACEMENT_3D ( 'NONE', #512, #83, #888 ) ;
#10 = CARTESIAN_POINT ( 'NONE',  ( 4.330127018922198090, -1.500000000000000000, 2.499999999999992006 ) ) ;
#11 = VERTEX_POINT ( 'NONE', #102 ) ;
#12 = EDGE_CURVE ( 'NONE', #586, #112, #703, .T. ) ;
#13 = CARTESIAN_POINT ( 'NONE',  ( 4.330127018922198090, -1.500000000000000000, 1.749999999999991562 ) ) ;
#14 = ORIENTED_EDGE ( 'NONE', *, *, #157, .F. ) ;
#15 = CARTESIAN_POINT ( 'NONE',  ( 3.350000000000001865, 1.500000000000000000, 1.934123401785248664 ) ) ;
#16 = DIRECTION ( 'NONE',  ( 0.000000000000000000, 0.000000000000000000, -1.000000000000000000 ) ) ;
#17 = ORIENTED_EDGE ( 'NONE', *, *, #296, .F. ) ;
#18 = FACE_OUTER_BOUND ( 'NONE', #597, .T. ) ;
#19 = VECTOR ( 'NONE', #622, 1000.000000000000000 ) ;
#20 = ADVANCED_FACE ( 'NONE', ( #49 ), #267, .F. ) ;
#21 = VERTEX_POINT ( 'NONE', #183 ) ;
#22 = LINE ( 'NONE', #229, #610 ) ;
#23 = CYLINDRICAL_SURFACE ( 'NONE', #584, 0.7500000000000002220 ) ;
#24 = ORIENTED_EDGE ( 'NONE', *, *, #217, .T. ) ;
#25 = ORIENTED_EDGE ( 'NONE', *, *, #429, .T. ) ;
#26 = CARTESIAN_POINT ( 'NONE',  ( 4.330127018922198090, 1.500000000000000000, 1.749999999999991562 ) ) ;
#27 = CARTESIAN_POINT ( 'NONE',  ( -4.330127018922188320, 1.500000000000000000, 2.500000000000009770 ) ) ;
#28 = VERTEX_POINT ( 'NONE', #249 ) ;
#29 = CARTESIAN_POINT ( 'NONE',  ( -9.010862724710186455, 2.920827881007291126E-13, -4.336398615951781110 ) ) ;
#30 = VECTOR ( 'NONE', #233, 1000.000000000000114 ) ;
#31 = VECTOR ( 'NONE', #1, 1000.000000000000114 ) ;
#32 = CARTESIAN_POINT ( 'NONE',  ( -0.3917095165556986336, 0.6688493419394123674, 9.993286724752969974 ) ) ;
#33 = CARTESIAN_POINT ( 'NONE',  ( 1.311810494877748865E-15, -1.500000000000000000, -3.868246803570493775 ) ) ;
#34 = PRODUCT_DEFINITION_FORMATION_WITH_SPECIFIED_SOURCE ( 'Symmetric', '', #794, .NOT_KNOWN. ) ;
#35 = ORIENTED_EDGE ( 'NONE', *, *, #695, .T. ) ;
#36 = EDGE_CURVE ( 'NONE', #687, #65, #367, .T. ) ;
#37 = CARTESIAN_POINT ( 'NONE',  ( 4.330127018922198090, -1.500000000000000000, 3.249999999999992006 ) ) ;
#38 = CARTESIAN_POINT ( 'NONE',  ( -2.600000000000033396, -0.4393398282201615990, -2.367136103677449199 ) ) ;
#39 = LINE ( 'NONE', #458, #657 ) ;
#40 = VERTEX_POINT ( 'NONE', #774 ) ;
#41 = CARTESIAN_POINT ( 'NONE',  ( -0.7500000000000001110, 0.000000000000000000, 3.435234101678271479 ) ) ;
#42 = CARTESIAN_POINT ( 'NONE',  ( -9.010862724710186455, 2.920827881007291126E-13, -4.336398615951781110 ) ) ;
#43 = CARTESIAN_POINT ( 'NONE',  ( -0.6551061542863739762, 0.3781636939290587418, 9.978590192399106940 ) ) ;
#44 = DIRECTION ( 'NONE',  ( 0.000000000000000000, 0.000000000000000000, 1.000000000000000000 ) ) ;
#45 = ORIENTED_EDGE ( 'NONE', *, *, #596, .T. ) ;
#46 = CARTESIAN_POINT ( 'NONE',  ( 0.7305573949517176757, 0.1961006969978554004, 9.973349899151344289 ) ) ;
#47 = PLANE ( 'NONE',  #776 ) ;
#48 = EDGE_CURVE ( 'NONE', #177, #854, #56, .T. ) ;
#49 = FACE_OUTER_BOUND ( 'NONE', #234, .T. ) ;
#50 = VECTOR ( 'NONE', #841, 1000.000000000000000 ) ;
#51 = CARTESIAN_POINT ( 'NONE',  ( -3.349999999999999645, -1.500000000000000000, -1.934123401785247998 ) ) ;
#52 = EDGE_LOOP ( 'NONE', ( #413, #511, #308, #902 ) ) ;
#53 = VECTOR ( 'NONE', #535, 1000.000000000000000 ) ;
#54 = LINE ( 'NONE', #921, #472 ) ;
#55 = CARTESIAN_POINT ( 'NONE',  ( 0.000000000000000000, -1.500000000000000000, -10.00000000000000000 ) ) ;
#56 = LINE ( 'NONE', #614, #929 ) ;
#57 = EDGE_CURVE ( 'NONE', #207, #647, #460, .T. ) ;
#58 = VERTEX_POINT ( 'NONE', #764 ) ;
#59 = DIRECTION ( 'NONE',  ( 0.8660254037844385966, 0.000000000000000000, 0.4999999999999998890 ) ) ;
#60 = CARTESIAN_POINT ( 'NONE',  ( 8.610446150101248364, -0.7499204426072523244, -5.086257858583693725 ) ) ;
#61 = CARTESIAN_POINT ( 'NONE',  ( 9.002413705749660267, 0.1964323013723432987, -4.354075392984547044 ) ) ;
#62 = ORIENTED_EDGE ( 'NONE', *, *, #611, .T. ) ;
#63 = EDGE_CURVE ( 'NONE', #382, #28, #825, .T. ) ;
#64 = DIRECTION ( 'NONE',  ( 0.8660254037844432595, 0.000000000000000000, 0.4999999999999918954 ) ) ;
#65 = VERTEX_POINT ( 'NONE', #537 ) ;
#66 = VECTOR ( 'NONE', #836, 1000.000000000000227 ) ;
#67 = VECTOR ( 'NONE', #660, 1000.000000000000114 ) ;
#68 = EDGE_CURVE ( 'NONE', #556, #699, #405, .T. ) ;
#69 = CARTESIAN_POINT ( 'NONE',  ( -4.330127018922188320, 1.500000000000000000, 3.250000000000009326 ) ) ;
#70 = CARTESIAN_POINT ( 'NONE',  ( 0.7500000000000002220, 0.4393398282201770311, 3.435234101678276808 ) ) ;
#71 = ORIENTED_EDGE ( 'NONE', *, *, #681, .F. ) ;
#72 = CARTESIAN_POINT ( 'NONE',  ( 8.843231522162222191, -0.6554425078757356582, -4.669638940588789033 ) ) ;
#73 = CARTESIAN_POINT ( 'NONE',  ( 8.260862724705042126, 2.920827876871388064E-13, -5.635436721637358204 ) ) ;
#74 = VERTEX_POINT ( 'NONE', #900 ) ;
#75 = DIRECTION ( 'NONE',  ( -0.000000000000000000, -1.000000000000000000, -0.000000000000000000 ) ) ;
#76 = CARTESIAN_POINT ( 'NONE',  ( 8.465642495016945546, 0.6554312343386329287, -5.323641006710564838 ) ) ;
#77 = ADVANCED_FACE ( 'NONE', ( #173 ), #463, .T. ) ;
#78 = ORIENTED_EDGE ( 'NONE', *, *, #767, .F. ) ;
#79 = AXIS2_PLACEMENT_3D ( 'NONE', #665, #812, #16 ) ;
#80 = DIRECTION ( 'NONE',  ( 0.000000000000000000, 0.000000000000000000, 1.000000000000000000 ) ) ;
#81 = CARTESIAN_POINT ( 'NONE',  ( -9.338425041229877414E-15, 1.500000000000000000, -5.000000000000000000 ) ) ;
#82 = ORIENTED_EDGE ( 'NONE', *, *, #391, .F. ) ;
#83 = DIRECTION ( 'NONE',  ( 0.000000000000000000, 1.000000000000000000, 0.000000000000000000 ) ) ;
#84 = B_SPLINE_CURVE_WITH_KNOTS ( 'NONE', 3,
 ( #595, #521, #525, #809, #160, #530, #89, #456, #376, #748, #385, #536, #107, #541, #909, #42 ),
 .UNSPECIFIED., .F., .F.,
 ( 4, 2, 2, 2, 2, 2, 2, 4 ),
 ( 0.000000000000000000, 0.0002932081179019134271, 0.0005864162358038268541, 0.001172832471607653275, 0.001466040589509567515, 0.001759248707411481538, 0.002052456825313395562, 0.002345664943215310019 ),
 .UNSPECIFIED. ) ;
#85 = LINE ( 'NONE', #738, #706 ) ;
#86 = ORIENTED_EDGE ( 'NONE', *, *, #137, .T. ) ;
#87 = EDGE_CURVE ( 'NONE', #745, #222, #816, .T. ) ;
#88 = DIRECTION ( 'NONE',  ( -0.8660254037844363761, 0.000000000000000000, 0.5000000000000039968 ) ) ;
#89 = CARTESIAN_POINT ( 'NONE',  ( -8.562241241687789994, 0.7499296635460287463, -5.169752592267698788 ) ) ;
#90 = ORIENTED_EDGE ( 'NONE', *, *, #449, .T. ) ;
#91 = CYLINDRICAL_SURFACE ( 'NONE', #746, 0.7499999999999997780 ) ;
#92 = EDGE_CURVE ( 'NONE', #647, #574, #818, .T. ) ;
#93 = VECTOR ( 'NONE', #119, 1000.000000000000000 ) ;
#94 = VECTOR ( 'NONE', #121, 1000.000000000000000 ) ;
#95 = EDGE_LOOP ( 'NONE', ( #493, #387 ) ) ;
#96 = ORIENTED_EDGE ( 'NONE', *, *, #92, .F. ) ;
#97 = CARTESIAN_POINT ( 'NONE',  ( 0.6553114290887493976, 0.3778048723711036061, 9.978576514169068545 ) ) ;
#98 = FACE_BOUND ( 'NONE', #140, .T. ) ;
#99 = EDGE_LOOP ( 'NONE', ( #833, #179, #775, #244 ) ) ;
#100 = CYLINDRICAL_SURFACE ( 'NONE', #585, 0.7500000000000001110 ) ;
#101 = DIRECTION ( 'NONE',  ( -0.8660254037844385966, 0.000000000000000000, 0.4999999999999998890 ) ) ;
#102 = CARTESIAN_POINT ( 'NONE',  ( -4.330127018922188320, -1.500000000000000000, 1.750000000000009548 ) ) ;
#103 = EDGE_CURVE ( 'NONE', #58, #735, #241, .T. ) ;
#104 = CARTESIAN_POINT ( 'NONE',  ( 0.09906772335664069951, -0.7500000000000001110, 10.00000000000000000 ) ) ;
#105 = ORIENTED_EDGE ( 'NONE', *, *, #345, .F. ) ;
#106 = CARTESIAN_POINT ( 'NONE',  ( -9.010862724710186455, 2.920827881007291126E-13, -4.336398615951781110 ) ) ;
#107 = CARTESIAN_POINT ( 'NONE',  ( -8.969337423926818431, 0.3778857684145604523, -4.421810691964487283 ) ) ;
#108 = AXIS2_PLACEMENT_3D ( 'NONE', #430, #219, #352 ) ;
#109 = CIRCLE ( 'NONE', #9, 10.00000000000000000 ) ;
#110 = CARTESIAN_POINT ( 'NONE',  ( 4.330127018922198090, 1.500000000000000000, 2.499999999999992006 ) ) ;
#111 = CARTESIAN_POINT ( 'NONE',  ( -3.349999999999999645, 1.500000000000000000, -1.934123401785247998 ) ) ;
#112 = VERTEX_POINT ( 'NONE', #190 ) ;
#113 = CARTESIAN_POINT ( 'NONE',  ( -3.349999999999999645, -1.500000000000000000, -1.934123401785247998 ) ) ;
#114 = CARTESIAN_POINT ( 'NONE',  ( 3.350000000000000089, 0.4393398282201701477, -1.068097998000827387 ) ) ;
#115 = DIRECTION ( 'NONE',  ( -0.8660254037844385966, 0.000000000000000000, -0.4999999999999999445 ) ) ;
#116 = ORIENTED_EDGE ( 'NONE', *, *, #887, .F. ) ;
#117 = FACE_BOUND ( 'NONE', #95, .T. ) ;
#118 = EDGE_CURVE ( 'NONE', #196, #727, #786, .T. ) ;
#119 = DIRECTION ( 'NONE',  ( -0.000000000000000000, -1.000000000000000000, -0.000000000000000000 ) ) ;
#120 = CARTESIAN_POINT ( 'NONE',  ( 4.330127018922198090, -1.500000000000000000, 2.499999999999992006 ) ) ;
#121 = DIRECTION ( 'NONE',  ( -0.000000000000000000, -1.000000000000000000, -0.000000000000000000 ) ) ;
#122 = ORIENTED_EDGE ( 'NONE', *, *, #137, .F. ) ;
#123 = PLANE ( 'NONE',  #793 ) ;
#124 = CARTESIAN_POINT ( 'NONE',  ( 2.599999999999982769, 0.4393398282201879113, -2.367136103677475401 ) ) ;
#125 = DIRECTION ( 'NONE',  ( -1.121130297565043339E-16, 0.000000000000000000, -1.000000000000000000 ) ) ;
#126 = AXIS2_PLACEMENT_3D ( 'NONE', #758, #916, #395 ) ;
#127 = EDGE_LOOP ( 'NONE', ( #532, #168, #45, #715, #355, #905, #281 ) ) ;
#128 = AXIS2_PLACEMENT_3D ( 'NONE', #755, #257, #561 ) ;
#129 = DIRECTION ( 'NONE',  ( 0.000000000000000000, 1.000000000000000000, 0.000000000000000000 ) ) ;
#130 = CARTESIAN_POINT ( 'NONE',  ( -3.349999999999999645, -0.7500000000000002220, -1.934123401785247998 ) ) ;
#131 = CARTESIAN_POINT ( 'NONE',  ( 8.611454183778972649, 0.7500350957007327901, -5.084529090998023193 ) ) ;
#132 = EDGE_CURVE ( 'NONE', #693, #676, #643, .T. ) ;
#133 = ORIENTED_EDGE ( 'NONE', *, *, #741, .T. ) ;
#134 = CARTESIAN_POINT ( 'NONE',  ( -3.349999999999999645, -0.7500000000000002220, -1.934123401785247998 ) ) ;
#135 = CARTESIAN_POINT ( 'NONE',  ( -11.45631003162412398, 0.000000000000000000, -7.480329084462290723 ) ) ;
#136 = ORIENTED_EDGE ( 'NONE', *, *, #239, .T. ) ;
#137 = EDGE_CURVE ( 'NONE', #382, #214, #170, .T. ) ;
#138 = DIRECTION ( 'NONE',  ( 0.000000000000000000, -0.000000000000000000, 1.000000000000000000 ) ) ;
#139 = CARTESIAN_POINT ( 'NONE',  ( 8.260862724705042126, 2.920827876871388064E-13, -5.635436721637358204 ) ) ;
#140 = EDGE_LOOP ( 'NONE', ( #86, #641 ) ) ;
#141 = VECTOR ( 'NONE', #510, 1000.000000000000000 ) ;
#142 = VECTOR ( 'NONE', #275, 1000.000000000000000 ) ;
#143 = LINE ( 'NONE', #648, #491 ) ;
#144 = DIRECTION ( 'NONE',  ( 0.5000000000000044409, 0.000000000000000000, 0.8660254037844360431 ) ) ;
#145 = ORIENTED_EDGE ( 'NONE', *, *, #345, .T. ) ;
#146 = DIRECTION ( 'NONE',  ( -0.000000000000000000, -1.000000000000000000, -0.000000000000000000 ) ) ;
#147 = ADVANCED_FACE ( 'NONE', ( #583, #199 ), #873, .T. ) ;
#148 = LINE ( 'NONE', #135, #152 ) ;
#149 = EDGE_LOOP ( 'NONE', ( #820, #3, #711, #452, #78, #476, #743 ) ) ;
#150 =( NAMED_UNIT ( * ) SI_UNIT ( $, .STERADIAN. ) SOLID_ANGLE_UNIT ( ) );
#151 = ORIENTED_EDGE ( 'NONE', *, *, #762, .T. ) ;
#152 = VECTOR ( 'NONE', #64, 1000.000000000000227 ) ;
#153 = CIRCLE ( 'NONE', #552, 10.00000000000000000 ) ;
#154 = DIRECTION ( 'NONE',  ( 0.000000000000000000, 0.000000000000000000, -1.000000000000000000 ) ) ;
#155 = DIRECTION ( 'NONE',  ( 0.000000000000000000, 0.000000000000000000, 1.000000000000000000 ) ) ;
#156 = ORIENTED_EDGE ( 'NONE', *, *, #57, .T. ) ;
#157 = EDGE_CURVE ( 'NONE', #894, #687, #206, .T. ) ;
#158 = ORIENTED_EDGE ( 'NONE', *, *, #274, .T. ) ;
#159 = FACE_OUTER_BOUND ( 'NONE', #52, .T. ) ;
#160 = CARTESIAN_POINT ( 'NONE',  ( -8.345181626709536005, 0.4612690155229415834, -5.510239901484441205 ) ) ;
#161 = ORIENTED_EDGE ( 'NONE', *, *, #814, .F. ) ;
#162 = EDGE_CURVE ( 'NONE', #860, #545, #438, .T. ) ;
#163 = DIRECTION ( 'NONE',  ( 0.000000000000000000, 0.000000000000000000, -1.000000000000000000 ) ) ;
#164 = VERTEX_POINT ( 'NONE', #280 ) ;
#165 = DIRECTION ( 'NONE',  ( 0.000000000000000000, 1.000000000000000000, 0.000000000000000000 ) ) ;
#166 = VECTOR ( 'NONE', #862, 1000.000000000000000 ) ;
#167 = CYLINDRICAL_SURFACE ( 'NONE', #79, 10.00000000000000000 ) ;
#168 = ORIENTED_EDGE ( 'NONE', *, *, #497, .T. ) ;
#169 = CARTESIAN_POINT ( 'NONE',  ( 0.000000000000000000, 1.500000000000000000, -10.00000000000000000 ) ) ;
#170 = B_SPLINE_CURVE_WITH_KNOTS ( 'NONE', 3,
 ( #781, #421, #61, #283, #639, #566, #349, #131, #726, #76, #932, #927, #729, #853, #434, #73 ),
 .UNSPECIFIED., .F., .F.,
 ( 4, 2, 2, 2, 2, 2, 2, 4 ),
 ( 0.000000000000000000, 0.0002932081179019132644, 0.0005864162358038265289, 0.001172832471607653058, 0.001466040589509567515, 0.001759248707411481755, 0.002052456825313395995, 0.002345664943215310452 ),
 .UNSPECIFIED. ) ;
#171 = CARTESIAN_POINT ( 'NONE',  ( 3.350000000000001421, 0.7500000000000001110, -1.934123401785247331 ) ) ;
#172 = ADVANCED_FACE ( 'NONE', ( #417 ), #714, .F. ) ;
#173 = FACE_OUTER_BOUND ( 'NONE', #398, .T. ) ;
#174 = CYLINDRICAL_SURFACE ( 'NONE', #128, 0.7500000000000008882 ) ;
#175 = EDGE_LOOP ( 'NONE', ( #802, #605 ) ) ;
#176 = CARTESIAN_POINT ( 'NONE',  ( -3.349999999999999645, 1.500000000000000000, -1.934123401785247998 ) ) ;
#177 = VERTEX_POINT ( 'NONE', #365 ) ;
#178 = DIRECTION ( 'NONE',  ( 0.000000000000000000, 0.000000000000000000, -1.000000000000000000 ) ) ;
#179 = ORIENTED_EDGE ( 'NONE', *, *, #162, .T. ) ;
#180 = CARTESIAN_POINT ( 'NONE',  ( -8.561068579950967816, -0.7306530189019017074, -5.168788674283667284 ) ) ;
#181 = CARTESIAN_POINT ( 'NONE',  ( 3.350000000000001421, 0.7500000000000001110, -1.934123401785247331 ) ) ;
#182 = CIRCLE ( 'NONE', #243, 0.7499999999999997780 ) ;
#183 = CARTESIAN_POINT ( 'NONE',  ( 1.224646799131400714E-15, -0.7500000000000001110, 10.00000000000000000 ) ) ;
#184 = ADVANCED_BREP_SHAPE_REPRESENTATION ( 'Pivot washer', ( #678, #821 ), #734 ) ;
#185 = DIRECTION ( 'NONE',  ( -0.000000000000000000, -1.000000000000000000, -0.000000000000000000 ) ) ;
#186 = ORIENTED_EDGE ( 'NONE', *, *, #187, .F. ) ;
#187 = EDGE_CURVE ( 'NONE', #636, #647, #148, .T. ) ;
#188 = CARTESIAN_POINT ( 'NONE',  ( -8.260862724707990878, 0.000000000000000000, -5.635436721633036328 ) ) ;
#189 = DIRECTION ( 'NONE',  ( 0.000000000000000000, 0.000000000000000000, 1.000000000000000000 ) ) ;
#190 = CARTESIAN_POINT ( 'NONE',  ( -3.349999999999999645, 1.500000000000000000, -1.934123401785247998 ) ) ;
#191 = CARTESIAN_POINT ( 'NONE',  ( 0.6687976821474875821, -0.3917792698923634465, 9.978571681686927874 ) ) ;
#192 = EDGE_LOOP ( 'NONE', ( #359, #485, #302, #562 ) ) ;
#193 = CARTESIAN_POINT ( 'NONE',  ( 4.330127018922198090, 1.500000000000000000, 2.499999999999992006 ) ) ;
#194 = CARTESIAN_POINT ( 'NONE',  ( -3.349999999999998757, 1.500000000000000000, 1.934123401785246443 ) ) ;
#195 = DIRECTION ( 'NONE',  ( 0.000000000000000000, 1.000000000000000000, 0.000000000000000000 ) ) ;
#196 = VERTEX_POINT ( 'NONE', #646 ) ;
#197 = CARTESIAN_POINT ( 'NONE',  ( 0.4393398282201808613, -0.7499999999999977796, 3.614593835481850093 ) ) ;
#198 = CARTESIAN_POINT ( 'NONE',  ( 8.709461038192831239, -0.7500790760218873920, -4.914782836707932034 ) ) ;
#199 = FACE_BOUND ( 'NONE', #868, .T. ) ;
#200 = CIRCLE ( 'NONE', #126, 0.7499999999999997780 ) ;
#201 = ORIENTED_EDGE ( 'NONE', *, *, #437, .F. ) ;
#202 = PRESENTATION_LAYER_ASSIGNMENT (  '', '', ( #708 ) ) ;
#203 =( BOUNDED_CURVE ( )  B_SPLINE_CURVE ( 3, ( #317, #393, #689, #903 ),
 .UNSPECIFIED., .F., .F. ) 
 B_SPLINE_CURVE_WITH_KNOTS ( ( 4, 4 ),
 ( 4.712388980384663917, 6.283185307179586232 ),
 .UNSPECIFIED. ) 
 CURVE ( )  GEOMETRIC_REPRESENTATION_ITEM ( )  RATIONAL_B_SPLINE_CURVE ( ( 1.000000000000000000, 0.8047378541243590533, 0.8047378541243590533, 1.000000000000000000 ) ) 
 REPRESENTATION_ITEM ( '' )  );
#204 = FACE_BOUND ( 'NONE', #772, .T. ) ;
#205 = EDGE_CURVE ( 'NONE', #677, #196, #575, .T. ) ;
#206 = LINE ( 'NONE', #495, #141 ) ;
#207 = VERTEX_POINT ( 'NONE', #500 ) ;
#208 = CARTESIAN_POINT ( 'NONE',  ( 8.420425483801151856, -0.5991474098535516379, -5.394554813449944142 ) ) ;
#209 = DIRECTION ( 'NONE',  ( 0.000000000000000000, 1.000000000000000000, 0.000000000000000000 ) ) ;
#210 = VERTEX_POINT ( 'NONE', #788 ) ;
#211 = LINE ( 'NONE', #351, #506 ) ;
#212 = FACE_OUTER_BOUND ( 'NONE', #298, .T. ) ;
#213 = PRODUCT_CONTEXT ( 'NONE', #674, 'mechanical' ) ;
#214 = VERTEX_POINT ( 'NONE', #139 ) ;
#215 = CIRCLE ( 'NONE', #870, 0.7499999999999997780 ) ;
#216 = AXIS2_PLACEMENT_3D ( 'NONE', #306, #379, #80 ) ;
#217 = EDGE_CURVE ( 'NONE', #28, #210, #432, .T. ) ;
#218 = FACE_BOUND ( 'NONE', #549, .T. ) ;
#219 = DIRECTION ( 'NONE',  ( -0.000000000000000000, -1.000000000000000000, -0.000000000000000000 ) ) ;
#220 = ORIENTED_EDGE ( 'NONE', *, *, #391, .T. ) ;
#221 = CARTESIAN_POINT ( 'NONE',  ( -3.349999999999998757, 9.184850993605153368E-17, -1.068097998000770987 ) ) ;
#222 = VERTEX_POINT ( 'NONE', #866 ) ;
#223 = SURFACE_STYLE_FILL_AREA ( #591 ) ;
#224 = CARTESIAN_POINT ( 'NONE',  ( 0.000000000000000000, -1.500000000000000000, 0.000000000000000000 ) ) ;
#225 = ADVANCED_FACE ( 'NONE', ( #212 ), #362, .F. ) ;
#226 = ORIENTED_EDGE ( 'NONE', *, *, #642, .F. ) ;
#227 = CIRCLE ( 'NONE', #893, 10.00000000000000000 ) ;
#228 = AXIS2_PLACEMENT_3D ( 'NONE', #479, #185, #178 ) ;
#229 = CARTESIAN_POINT ( 'NONE',  ( 11.45631003162406358, 9.184850993605150903E-17, -7.480329084462476352 ) ) ;
#230 = VERTEX_POINT ( 'NONE', #652 ) ;
#231 = ORIENTED_EDGE ( 'NONE', *, *, #239, .F. ) ;
#232 = CARTESIAN_POINT ( 'NONE',  ( -8.260862724707990878, 0.000000000000000000, -5.635436721633036328 ) ) ;
#233 = DIRECTION ( 'NONE',  ( 0.8660254037844387076, 0.000000000000000000, 0.4999999999999998890 ) ) ;
#234 = EDGE_LOOP ( 'NONE', ( #593, #340, #626, #515, #806, #879 ) ) ;
#235 = EDGE_LOOP ( 'NONE', ( #201, #666 ) ) ;
#236 = CARTESIAN_POINT ( 'NONE',  ( -0.1962566973720623886, -0.7305142536221073124, 9.998486949522584766 ) ) ;
#237 = CARTESIAN_POINT ( 'NONE',  ( 0.000000000000000000, 0.000000000000000000, 10.00099999999999945 ) ) ;
#238 = ORIENTED_EDGE ( 'NONE', *, *, #361, .F. ) ;
#239 = EDGE_CURVE ( 'NONE', #58, #693, #588, .T. ) ;
#240 = DIRECTION ( 'NONE',  ( -0.000000000000000000, -1.000000000000000000, -0.000000000000000000 ) ) ;
#241 = CIRCLE ( 'NONE', #517, 0.7500000000000002220 ) ;
#242 = DIRECTION ( 'NONE',  ( 0.000000000000000000, 1.000000000000000000, 0.000000000000000000 ) ) ;
#243 = AXIS2_PLACEMENT_3D ( 'NONE', #565, #852, #503 ) ;
#244 = ORIENTED_EDGE ( 'NONE', *, *, #290, .F. ) ;
#245 = LINE ( 'NONE', #33, #629 ) ;
#246 = EDGE_LOOP ( 'NONE', ( #17, #272, #453, #269, #705, #383, #919 ) ) ;
#247 = CARTESIAN_POINT ( 'NONE',  ( -8.843617110126892555, -0.6549417048217048842, -4.668904842359487439 ) ) ;
#248 = LINE ( 'NONE', #829, #304 ) ;
#249 = CARTESIAN_POINT ( 'NONE',  ( 3.350000000000000533, 0.000000000000000000, -1.068097998000826498 ) ) ;
#250 = B_SPLINE_CURVE_WITH_KNOTS ( 'NONE', 3,
 ( #771, #912, #191, #544, #698, #406, #104, #901 ),
 .UNSPECIFIED., .F., .F.,
 ( 4, 2, 2, 4 ),
 ( 0.002345664943215309585, 0.002932242391339935986, 0.003225531115402248752, 0.003518819839464561953 ),
 .UNSPECIFIED. ) ;
#251 = DIRECTION ( 'NONE',  ( 0.000000000000000000, 1.000000000000000000, 0.000000000000000000 ) ) ;
#252 = ORIENTED_EDGE ( 'NONE', *, *, #489, .F. ) ;
#253 = CARTESIAN_POINT ( 'NONE',  ( 3.894962447392346165E-15, 0.7500000000000007772, 3.868246803570493775 ) ) ;
#254 = CARTESIAN_POINT ( 'NONE',  ( -3.349999999999999645, 1.500000000000000000, -1.934123401785247998 ) ) ;
#255 = ADVANCED_FACE ( 'NONE', ( #370 ), #514, .F. ) ;
#256 = CARTESIAN_POINT ( 'NONE',  ( -9.338425041229877414E-15, -1.500000000000000000, -5.000000000000000000 ) ) ;
#257 = DIRECTION ( 'NONE',  ( -0.8660254037844363761, 0.000000000000000000, 0.5000000000000039968 ) ) ;
#258 = ORIENTED_EDGE ( 'NONE', *, *, #103, .T. ) ;
#259 = CARTESIAN_POINT ( 'NONE',  ( 0.7499999999999219513, 0.09789234548090605670, 9.971835337589574522 ) ) ;
#260 = LINE ( 'NONE', #824, #819 ) ;
#261 = VECTOR ( 'NONE', #546, 1000.000000000000000 ) ;
#262 = DIRECTION ( 'NONE',  ( 0.000000000000000000, 0.000000000000000000, 1.000000000000000000 ) ) ;
#263 = EDGE_CURVE ( 'NONE', #40, #74, #592, .T. ) ;
#264 = CARTESIAN_POINT ( 'NONE',  ( -4.330127018922188320, 1.500000000000000000, 3.250000000000009770 ) ) ;
#265 = ORIENTED_EDGE ( 'NONE', *, *, #611, .F. ) ;
#266 = CARTESIAN_POINT ( 'NONE',  ( -8.882034252455873968, -0.5991474098535524151, -4.595024972920661810 ) ) ;
#267 = CYLINDRICAL_SURFACE ( 'NONE', #686, 0.7500000000000001110 ) ;
#268 = DIRECTION ( 'NONE',  ( -2.242260595130087665E-16, 0.000000000000000000, -1.000000000000000000 ) ) ;
#269 = ORIENTED_EDGE ( 'NONE', *, *, #663, .T. ) ;
#270 = LINE ( 'NONE', #779, #31 ) ;
#271 = DIRECTION ( 'NONE',  ( 0.000000000000000000, 1.000000000000000000, 0.000000000000000000 ) ) ;
#272 = ORIENTED_EDGE ( 'NONE', *, *, #801, .F. ) ;
#273 = CARTESIAN_POINT ( 'NONE',  ( -0.7500000000000002220, 0.4393398282201805838, 3.435234101678272367 ) ) ;
#274 = EDGE_CURVE ( 'NONE', #928, #539, #227, .T. ) ;
#275 = DIRECTION ( 'NONE',  ( -0.000000000000000000, -1.000000000000000000, -0.000000000000000000 ) ) ;
#276 = DIRECTION ( 'NONE',  ( 0.8660254037844432595, 0.000000000000000000, 0.4999999999999918954 ) ) ;
#277 = AXIS2_PLACEMENT_3D ( 'NONE', #528, #146, #728 ) ;
#278 = EDGE_LOOP ( 'NONE', ( #531, #444 ) ) ;
#279 = CARTESIAN_POINT ( 'NONE',  ( -4.330127018922188320, 1.500000000000000000, 1.750000000000009548 ) ) ;
#280 = CARTESIAN_POINT ( 'NONE',  ( -4.330127018922188320, -1.500000000000000000, 3.250000000000009770 ) ) ;
#281 = ORIENTED_EDGE ( 'NONE', *, *, #702, .F. ) ;
#282 = CARTESIAN_POINT ( 'NONE',  ( 0.000000000000000000, -1.500000000000000000, 0.000000000000000000 ) ) ;
#283 = CARTESIAN_POINT ( 'NONE',  ( 8.969284389949223169, 0.3780847229303588852, -4.421918428632089615 ) ) ;
#284 = EDGE_CURVE ( 'NONE', #676, #693, #318, .T. ) ;
#285 = ORIENTED_EDGE ( 'NONE', *, *, #217, .F. ) ;
#286 = CARTESIAN_POINT ( 'NONE',  ( -3.349999999999998312, -0.4393398282201960714, -1.068097998000770987 ) ) ;
#287 = DIRECTION ( 'NONE',  ( 0.000000000000000000, 0.000000000000000000, 1.000000000000000000 ) ) ;
#288 = APPLICATION_PROTOCOL_DEFINITION ( 'draft international standard', 'automotive_design', 1998, #640 ) ;
#289 = ORIENTED_EDGE ( 'NONE', *, *, #103, .F. ) ;
#290 = EDGE_CURVE ( 'NONE', #164, #11, #490, .T. ) ;
#291 = AXIS2_PLACEMENT_3D ( 'NONE', #684, #461, #101 ) ;
#292 = VECTOR ( 'NONE', #692, 1000.000000000000000 ) ;
#293 = PRODUCT_RELATED_PRODUCT_CATEGORY ( 'part', '', ( #794 ) ) ;
#294 = DIRECTION ( 'NONE',  ( 0.000000000000000000, 0.000000000000000000, 1.000000000000000000 ) ) ;
#295 = ORIENTED_EDGE ( 'NONE', *, *, #542, .F. ) ;
#296 = EDGE_CURVE ( 'NONE', #371, #222, #85, .T. ) ;
#297 = FILL_AREA_STYLE_COLOUR ( '', #427 ) ;
#298 = EDGE_LOOP ( 'NONE', ( #608, #122, #501, #924, #526 ) ) ;
#299 =( LENGTH_UNIT ( ) NAMED_UNIT ( * ) SI_UNIT ( .MILLI., .METRE. ) );
#300 = ADVANCED_FACE ( 'NONE', ( #98, #889 ), #167, .T. ) ;
#301 = DIRECTION ( 'NONE',  ( -0.000000000000000000, -1.000000000000000000, -0.000000000000000000 ) ) ;
#302 = ORIENTED_EDGE ( 'NONE', *, *, #157, .T. ) ;
#303 = EDGE_LOOP ( 'NONE', ( #527, #785, #750, #680, #161, #366 ) ) ;
#304 = VECTOR ( 'NONE', #466, 1000.000000000000000 ) ;
#305 =( GEOMETRIC_REPRESENTATION_CONTEXT ( 3 ) GLOBAL_UNCERTAINTY_ASSIGNED_CONTEXT ( ( #579 ) ) GLOBAL_UNIT_ASSIGNED_CONTEXT ( ( #299, #800, #150 ) ) REPRESENTATION_CONTEXT ( 'NONE', 'WORKASPACE' ) );
#306 = CARTESIAN_POINT ( 'NONE',  ( 0.000000000000000000, 1.500000000000000000, 0.000000000000000000 ) ) ;
#307 = DIRECTION ( 'NONE',  ( 0.000000000000000000, 0.000000000000000000, -1.000000000000000000 ) ) ;
#308 = ORIENTED_EDGE ( 'NONE', *, *, #418, .F. ) ;
#309 = LINE ( 'NONE', #520, #778 ) ;
#310 = CARTESIAN_POINT ( 'NONE',  ( 4.330127018922198090, 1.500000000000000000, 2.499999999999992006 ) ) ;
#311 = ORIENTED_EDGE ( 'NONE', *, *, #753, .F. ) ;
#312 = ADVANCED_FACE ( 'NONE', ( #18 ), #23, .F. ) ;
#313 = LINE ( 'NONE', #891, #645 ) ;
#314 = FACE_OUTER_BOUND ( 'NONE', #99, .T. ) ;
#315 = ORIENTED_EDGE ( 'NONE', *, *, #296, .T. ) ;
#316 = DIRECTION ( 'NONE',  ( -0.000000000000000000, -1.000000000000000000, -0.000000000000000000 ) ) ;
#317 = CARTESIAN_POINT ( 'NONE',  ( 3.350000000000001421, -0.7500000000000002220, -1.934123401785247331 ) ) ;
#318 = CIRCLE ( 'NONE', #911, 0.7500000000000002220 ) ;
#319 = PLANE ( 'NONE',  #291 ) ;
#320 = CARTESIAN_POINT ( 'NONE',  ( -2.910660171779836158, 0.7499999999999785727, -2.187776369873883908 ) ) ;
#321 = CARTESIAN_POINT ( 'NONE',  ( 3.894962447392346165E-15, 1.500000000000000000, 3.868246803570493775 ) ) ;
#322 = EDGE_LOOP ( 'NONE', ( #328, #864 ) ) ;
#323 = CARTESIAN_POINT ( 'NONE',  ( 3.350000000000001865, -1.500000000000000000, 1.934123401785248664 ) ) ;
#324 = ADVANCED_FACE ( 'NONE', ( #451 ), #603, .F. ) ;
#325 = CARTESIAN_POINT ( 'NONE',  ( 3.350000000000001421, 0.7500000000000001110, -1.934123401785247331 ) ) ;
#326 = CARTESIAN_POINT ( 'NONE',  ( -2.910660171779836158, -0.7499999999999784617, -2.187776369873883908 ) ) ;
#327 = FACE_OUTER_BOUND ( 'NONE', #448, .T. ) ;
#328 = ORIENTED_EDGE ( 'NONE', *, *, #418, .T. ) ;
#329 = CARTESIAN_POINT ( 'NONE',  ( -9.246576531293826053E-15, 1.500000000000000000, -4.250000000000000000 ) ) ;
#330 = CARTESIAN_POINT ( 'NONE',  ( 2.910660171779813954, 0.7500000000000115463, -2.187776369873894566 ) ) ;
#331 = CARTESIAN_POINT ( 'NONE',  ( -3.349999999999999645, -0.7500000000000002220, -1.934123401785247998 ) ) ;
#332 = UNCERTAINTY_MEASURE_WITH_UNIT (LENGTH_MEASURE( 1.000000000000000082E-05 ), #631, 'distance_accuracy_value', 'NONE');
#333 = ORIENTED_EDGE ( 'NONE', *, *, #563, .T. ) ;
#334 = CARTESIAN_POINT ( 'NONE',  ( -9.338425041229877414E-15, -1.500000000000000000, -5.750000000000000000 ) ) ;
#335 = DIRECTION ( 'NONE',  ( 0.4999999999999998890, 0.000000000000000000, -0.8660254037844387076 ) ) ;
#336 = AXIS2_PLACEMENT_3D ( 'NONE', #120, #271, #287 ) ;
#337 = MECHANICAL_DESIGN_GEOMETRIC_PRESENTATION_REPRESENTATION (  '', ( #708 ), #305 ) ;
#338 = DIRECTION ( 'NONE',  ( 0.000000000000000000, 0.000000000000000000, -1.000000000000000000 ) ) ;
#339 = DIRECTION ( 'NONE',  ( 0.4999999999999911182, 0.000000000000000000, -0.8660254037844439257 ) ) ;
#340 = ORIENTED_EDGE ( 'NONE', *, *, #205, .T. ) ;
#341 = DIRECTION ( 'NONE',  ( 0.000000000000000000, 0.000000000000000000, 1.000000000000000000 ) ) ;
#342 = DIRECTION ( 'NONE',  ( 0.000000000000000000, 1.000000000000000000, 0.000000000000000000 ) ) ;
#343 = CARTESIAN_POINT ( 'NONE',  ( -2.600000000000033396, 0.4393398282201615990, -2.367136103677449199 ) ) ;
#344 = ORIENTED_EDGE ( 'NONE', *, *, #790, .T. ) ;
#345 = EDGE_CURVE ( 'NONE', #636, #871, #84, .T. ) ;
#346 = B_SPLINE_CURVE_WITH_KNOTS ( 'NONE', 3,
 ( #106, #700, #455, #266, #247, #897, #768, #617, #180, #828, #389, #606, #683, #188 ),
 .UNSPECIFIED., .F., .F.,
 ( 4, 2, 2, 2, 2, 2, 4 ),
 ( 0.002345664943215310019, 0.002931945900636059692, 0.003225086379346435179, 0.003518226858056810666, 0.003811367336767186153, 0.004104507815477561640, 0.004690788772898313481 ),
 .UNSPECIFIED. ) ;
#347 = CARTESIAN_POINT ( 'NONE',  ( -0.4393398282201765315, 0.7500000000000025535, 3.614593835481849649 ) ) ;
#348 = CARTESIAN_POINT ( 'NONE',  ( 3.894962447392346165E-15, -0.7499999999999993339, 3.868246803570493775 ) ) ;
#349 = CARTESIAN_POINT ( 'NONE',  ( 8.758257697028202671, 0.7499296635460289684, -4.830242132498552721 ) ) ;
#350 = EDGE_LOOP ( 'NONE', ( #589, #151, #507, #14 ) ) ;
#351 = CARTESIAN_POINT ( 'NONE',  ( 3.894962447392346165E-15, 1.500000000000000000, 3.868246803570493775 ) ) ;
#352 = DIRECTION ( 'NONE',  ( 0.000000000000000000, 0.000000000000000000, -1.000000000000000000 ) ) ;
#353 = CLOSED_SHELL ( 'NONE', ( #920, #931, #20, #623, #600, #255, #300, #147, #736, #557, #837, #312, #412, #780, #77, #904, #468, #357, #523, #324, #225, #172 ) ) ;
#354 = CIRCLE ( 'NONE', #882, 0.7499999999999997780 ) ;
#355 = ORIENTED_EDGE ( 'NONE', *, *, #725, .T. ) ;
#356 = FACE_OUTER_BOUND ( 'NONE', #431, .T. ) ;
#357 = ADVANCED_FACE ( 'NONE', ( #618 ), #319, .T. ) ;
#358 = CARTESIAN_POINT ( 'NONE',  ( 0.7500000000000001110, 9.184850993605150903E-17, 10.00099999999999945 ) ) ;
#359 = ORIENTED_EDGE ( 'NONE', *, *, #762, .F. ) ;
#360 = CARTESIAN_POINT ( 'NONE',  ( 8.307250300382078123, -0.3915874596059238932, -5.568549209718572257 ) ) ;
#361 = EDGE_CURVE ( 'NONE', #735, #676, #892, .T. ) ;
#362 = CYLINDRICAL_SURFACE ( 'NONE', #410, 0.7500000000000008882 ) ;
#363 = ORIENTED_EDGE ( 'NONE', *, *, #805, .F. ) ;
#364 = CARTESIAN_POINT ( 'NONE',  ( -0.09896757406135454904, -0.7500000000000002220, 10.00000000000000000 ) ) ;
#365 = CARTESIAN_POINT ( 'NONE',  ( 3.350000000000001865, 1.500000000000000000, 1.934123401785248664 ) ) ;
#366 = ORIENTED_EDGE ( 'NONE', *, *, #118, .F. ) ;
#367 = CIRCLE ( 'NONE', #791, 0.7499999999999997780 ) ;
#368 = AXIS2_PLACEMENT_3D ( 'NONE', #815, #165, #471 ) ;
#369 = CARTESIAN_POINT ( 'NONE',  ( -9.246576531293826053E-15, 1.500000000000000000, -4.250000000000000000 ) ) ;
#370 = FACE_OUTER_BOUND ( 'NONE', #350, .T. ) ;
#371 = VERTEX_POINT ( 'NONE', #613 ) ;
#372 = CYLINDRICAL_SURFACE ( 'NONE', #277, 0.7500000000000002220 ) ;
#373 = DIRECTION ( 'NONE',  ( -0.000000000000000000, -1.000000000000000000, -0.000000000000000000 ) ) ;
#374 = ORIENTED_EDGE ( 'NONE', *, *, #653, .T. ) ;
#375 = CARTESIAN_POINT ( 'NONE',  ( -0.6685065285847053840, -0.3922382167757424432, 9.978591612359418050 ) ) ;
#376 = CARTESIAN_POINT ( 'NONE',  ( -8.756915208625796865, 0.7305975122767783825, -4.829564416249696457 ) ) ;
#377 = ORIENTED_EDGE ( 'NONE', *, *, #424, .F. ) ;
#378 = CIRCLE ( 'NONE', #216, 10.00000000000000000 ) ;
#379 = DIRECTION ( 'NONE',  ( 0.000000000000000000, 1.000000000000000000, 0.000000000000000000 ) ) ;
#380 = CARTESIAN_POINT ( 'NONE',  ( 4.330127018922198090, 1.500000000000000000, 3.249999999999992006 ) ) ;
#381 = EDGE_CURVE ( 'NONE', #518, #447, #876, .T. ) ;
#382 = VERTEX_POINT ( 'NONE', #899 ) ;
#383 = ORIENTED_EDGE ( 'NONE', *, *, #667, .T. ) ;
#384 = CARTESIAN_POINT ( 'NONE',  ( 0.09785303792818700330, 0.7499999999997970512, 9.999999999999985789 ) ) ;
#385 = CARTESIAN_POINT ( 'NONE',  ( -8.881386648205291223, 0.6004443380899295857, -4.596290941420672738 ) ) ;
#386 = B_SPLINE_CURVE_WITH_KNOTS ( 'NONE', 3,
 ( #628, #384, #459, #908, #612, #551, #97, #46, #259, #840 ),
 .UNSPECIFIED., .F., .F.,
 ( 4, 2, 2, 2, 4 ),
 ( 0.001173101397535146473, 0.001466242283955187251, 0.001759383170375228029, 0.002052524056795269024, 0.002345664943215309585 ),
 .UNSPECIFIED. ) ;
#387 = ORIENTED_EDGE ( 'NONE', *, *, #571, .F. ) ;
#388 = CARTESIAN_POINT ( 'NONE',  ( -0.7500000000000001110, 0.000000000000000000, 3.435234101678271479 ) ) ;
#389 = CARTESIAN_POINT ( 'NONE',  ( -8.420903927123209343, -0.5998384852344261775, -5.393809768792627857 ) ) ;
#390 = ORIENTED_EDGE ( 'NONE', *, *, #263, .F. ) ;
#391 = EDGE_CURVE ( 'NONE', #854, #447, #248, .T. ) ;
#392 = VECTOR ( 'NONE', #115, 1000.000000000000114 ) ;
#393 = CARTESIAN_POINT ( 'NONE',  ( 2.910660171779813954, -0.7500000000000115463, -2.187776369873894566 ) ) ;
#394 = VECTOR ( 'NONE', #845, 1000.000000000000114 ) ;
#395 = DIRECTION ( 'NONE',  ( 0.000000000000000000, 0.000000000000000000, 1.000000000000000000 ) ) ;
#396 = DIRECTION ( 'NONE',  ( -0.8660254037844363761, 0.000000000000000000, 0.5000000000000039968 ) ) ;
#397 = DIRECTION ( 'NONE',  ( -0.8660254037844387076, 0.000000000000000000, 0.4999999999999997780 ) ) ;
#398 = EDGE_LOOP ( 'NONE', ( #25, #156, #486, #874, #849, #407, #799 ) ) ;
#399 = LINE ( 'NONE', #329, #19 ) ;
#400 = CARTESIAN_POINT ( 'NONE',  ( -3.349999999999998757, -1.500000000000000000, 1.934123401785246443 ) ) ;
#401 = CARTESIAN_POINT ( 'NONE',  ( 1.311810494877748865E-15, 1.500000000000000000, -3.868246803570493775 ) ) ;
#402 = ORIENTED_EDGE ( 'NONE', *, *, #381, .T. ) ;
#403 = PLANE ( 'NONE',  #368 ) ;
#404 = DIRECTION ( 'NONE',  ( 0.8660254037844385966, 0.000000000000000000, -0.4999999999999999445 ) ) ;
#405 = LINE ( 'NONE', #543, #392 ) ;
#406 = CARTESIAN_POINT ( 'NONE',  ( 0.1965013220301488062, -0.7304432412413596198, 9.998481720142212481 ) ) ;
#407 = ORIENTED_EDGE ( 'NONE', *, *, #741, .F. ) ;
#408 = CARTESIAN_POINT ( 'NONE',  ( 0.7500000000000001110, 9.184850993605150903E-17, 3.435234101678275920 ) ) ;
#409 = FACE_BOUND ( 'NONE', #278, .T. ) ;
#410 = AXIS2_PLACEMENT_3D ( 'NONE', #504, #656, #144 ) ;
#411 = VECTOR ( 'NONE', #75, 1000.000000000000000 ) ;
#412 = ADVANCED_FACE ( 'NONE', ( #314 ), #559, .F. ) ;
#413 = ORIENTED_EDGE ( 'NONE', *, *, #437, .T. ) ;
#414 = ORIENTED_EDGE ( 'NONE', *, *, #57, .F. ) ;
#415 = CARTESIAN_POINT ( 'NONE',  ( -9.338425041229877414E-15, -1.500000000000000000, -5.000000000000000000 ) ) ;
#416 = CARTESIAN_POINT ( 'NONE',  ( 1.311810494877748865E-15, 1.500000000000000000, -3.868246803570493775 ) ) ;
#417 = FACE_OUTER_BOUND ( 'NONE', #568, .T. ) ;
#418 = EDGE_CURVE ( 'NONE', #11, #164, #215, .T. ) ;
#419 = EDGE_LOOP ( 'NONE', ( #363, #289 ) ) ;
#420 = CARTESIAN_POINT ( 'NONE',  ( 8.560436047351007716, -0.7303044764176717107, -5.169832753266823566 ) ) ;
#421 = CARTESIAN_POINT ( 'NONE',  ( 9.010862724707916271, 0.09914595361333060353, -4.336398615956493785 ) ) ;
#422 =( NAMED_UNIT ( * ) SI_UNIT ( $, .STERADIAN. ) SOLID_ANGLE_UNIT ( ) );
#423 = ORIENTED_EDGE ( 'NONE', *, *, #36, .T. ) ;
#424 = EDGE_CURVE ( 'NONE', #74, #177, #260, .T. ) ;
#425 = CARTESIAN_POINT ( 'NONE',  ( 8.465198756398965685, -0.6549417048217047732, -5.324344657532829039 ) ) ;
#426 =( BOUNDED_CURVE ( )  B_SPLINE_CURVE ( 3, ( #134, #926, #286, #872 ),
 .UNSPECIFIED., .F., .T. ) 
 B_SPLINE_CURVE_WITH_KNOTS ( ( 4, 4 ),
 ( 4.712388980384639936, 6.283185307179586232 ),
 .UNSPECIFIED. ) 
 CURVE ( )  GEOMETRIC_REPRESENTATION_ITEM ( )  RATIONAL_B_SPLINE_CURVE ( ( 1.000000000000000000, 0.8047378541243532801, 0.8047378541243532801, 1.000000000000000000 ) ) 
 REPRESENTATION_ITEM ( '' )  );
#427 = COLOUR_RGB ( '',0.7921568627450980005, 0.8196078431372548767, 0.9333333333333333481 ) ;
#428 = ORIENTED_EDGE ( 'NONE', *, *, #749, .F. ) ;
#429 = EDGE_CURVE ( 'NONE', #112, #207, #690, .T. ) ;
#430 = CARTESIAN_POINT ( 'NONE',  ( 0.000000000000000000, 1.500000000000000000, 0.000000000000000000 ) ) ;
#431 = EDGE_LOOP ( 'NONE', ( #220, #90, #24, #907, #71, #265, #577 ) ) ;
#432 =( BOUNDED_CURVE ( )  B_SPLINE_CURVE ( 3, ( #649, #2, #580, #492 ),
 .UNSPECIFIED., .F., .F. ) 
 B_SPLINE_CURVE_WITH_KNOTS ( ( 4, 4 ),
 ( 0.000000000000000000, 1.570796326794871911 ),
 .UNSPECIFIED. ) 
 CURVE ( )  GEOMETRIC_REPRESENTATION_ITEM ( )  RATIONAL_B_SPLINE_CURVE ( ( 1.000000000000000000, 0.8047378541243708217, 0.8047378541243708217, 1.000000000000000000 ) ) 
 REPRESENTATION_ITEM ( '' )  );
#433 = FACE_OUTER_BOUND ( 'NONE', #890, .T. ) ;
#434 = CARTESIAN_POINT ( 'NONE',  ( 8.260862724707957128, 0.09791479696330071536, -5.635436721633087842 ) ) ;
#435 = EDGE_LOOP ( 'NONE', ( #252, #374, #311, #285, #933 ) ) ;
#436 = DIRECTION ( 'NONE',  ( -0.000000000000000000, -1.000000000000000000, -0.000000000000000000 ) ) ;
#437 = EDGE_CURVE ( 'NONE', #545, #860, #200, .T. ) ;
#438 = CIRCLE ( 'NONE', #733, 0.7499999999999997780 ) ;
#439 = ORIENTED_EDGE ( 'NONE', *, *, #424, .T. ) ;
#440 = AXIS2_PLACEMENT_3D ( 'NONE', #644, #930, #792 ) ;
#441 = CARTESIAN_POINT ( 'NONE',  ( -2.600000000000032951, 0.000000000000000000, -2.367136103677449199 ) ) ;
#442 = DIRECTION ( 'NONE',  ( 0.000000000000000000, 1.000000000000000000, 0.000000000000000000 ) ) ;
#443 = EDGE_LOOP ( 'NONE', ( #226, #315, #35, #789, #662, #158, #428 ) ) ;
#444 = ORIENTED_EDGE ( 'NONE', *, *, #132, .T. ) ;
#445 = DIRECTION ( 'NONE',  ( -0.000000000000000000, -1.000000000000000000, -0.000000000000000000 ) ) ;
#446 = DIRECTION ( 'NONE',  ( -1.000000000000000000, 0.000000000000000000, 0.000000000000000000 ) ) ;
#447 = VERTEX_POINT ( 'NONE', #325 ) ;
#448 = EDGE_LOOP ( 'NONE', ( #782, #807, #766, #96, #186 ) ) ;
#449 = EDGE_CURVE ( 'NONE', #447, #28, #496, .T. ) ;
#450 = CARTESIAN_POINT ( 'NONE',  ( -3.349999999999998312, 0.4393398282201960714, -1.068097998000770987 ) ) ;
#451 = FACE_OUTER_BOUND ( 'NONE', #303, .T. ) ;
#452 = ORIENTED_EDGE ( 'NONE', *, *, #513, .T. ) ;
#453 = ORIENTED_EDGE ( 'NONE', *, *, #749, .T. ) ;
#454 = AXIS2_PLACEMENT_3D ( 'NONE', #81, #436, #661 ) ;
#455 = CARTESIAN_POINT ( 'NONE',  ( -8.976130228031102831, -0.3915874596059247814, -4.410015190867461854 ) ) ;
#456 = CARTESIAN_POINT ( 'NONE',  ( -8.709058450974792365, 0.7500350957007325681, -4.915473541179325778 ) ) ;
#457 = VERTEX_POINT ( 'NONE', #400 ) ;
#458 = CARTESIAN_POINT ( 'NONE',  ( -3.349999999999999645, 1.500000000000000000, -1.934123401785247998 ) ) ;
#459 = CARTESIAN_POINT ( 'NONE',  ( 0.1961478785463734997, 0.7305369757714766932, 9.998488750447547702 ) ) ;
#460 =( BOUNDED_CURVE ( )  B_SPLINE_CURVE ( 3, ( #630, #320, #343, #624 ),
 .UNSPECIFIED., .F., .F. ) 
 B_SPLINE_CURVE_WITH_KNOTS ( ( 4, 4 ),
 ( 4.712388980384739412, 6.283185307179586232 ),
 .UNSPECIFIED. ) 
 CURVE ( )  GEOMETRIC_REPRESENTATION_ITEM ( )  RATIONAL_B_SPLINE_CURVE ( ( 1.000000000000000000, 0.8047378541243768169, 0.8047378541243768169, 1.000000000000000000 ) ) 
 REPRESENTATION_ITEM ( '' )  );
#461 = DIRECTION ( 'NONE',  ( -0.4999999999999999445, 0.000000000000000000, -0.8660254037844387076 ) ) ;
#462 = EDGE_CURVE ( 'NONE', #40, #457, #846, .T. ) ;
#463 = PLANE ( 'NONE',  #855 ) ;
#464 = FACE_OUTER_BOUND ( 'NONE', #192, .T. ) ;
#465 = FACE_BOUND ( 'NONE', #658, .T. ) ;
#466 = DIRECTION ( 'NONE',  ( -0.000000000000000000, -1.000000000000000000, -0.000000000000000000 ) ) ;
#467 = CARTESIAN_POINT ( 'NONE',  ( 1.063344692158020102E-12, 0.7500000000091099350, 10.00000000000068390 ) ) ;
#468 = ADVANCED_FACE ( 'NONE', ( #701 ), #47, .T. ) ;
#469 = CARTESIAN_POINT ( 'NONE',  ( 1.224646799147353256E-15, 1.500000000000000000, 10.00000000000000000 ) ) ;
#470 = ORIENTED_EDGE ( 'NONE', *, *, #68, .F. ) ;
#471 = DIRECTION ( 'NONE',  ( 0.000000000000000000, -0.000000000000000000, 1.000000000000000000 ) ) ;
#472 = VECTOR ( 'NONE', #707, 1000.000000000000000 ) ;
#473 = CARTESIAN_POINT ( 'NONE',  ( 3.350000000000000089, 0.7499999999999891198, -1.426817465607967517 ) ) ;
#474 = DIRECTION ( 'NONE',  ( 0.000000000000000000, 0.000000000000000000, 1.000000000000000000 ) ) ;
#475 = DIRECTION ( 'NONE',  ( 1.000000000000000000, 0.000000000000000000, -2.242260595130087665E-16 ) ) ;
#476 = ORIENTED_EDGE ( 'NONE', *, *, #462, .F. ) ;
#477 = LINE ( 'NONE', #176, #261 ) ;
#478 = CARTESIAN_POINT ( 'NONE',  ( -3.349999999999998757, 1.500000000000000000, 1.934123401785246443 ) ) ;
#479 = CARTESIAN_POINT ( 'NONE',  ( -9.338425041229877414E-15, 1.500000000000000000, -5.000000000000000000 ) ) ;
#480 = ORIENTED_EDGE ( 'NONE', *, *, #513, .F. ) ;
#481 = B_SPLINE_CURVE_WITH_KNOTS ( 'NONE', 3,
 ( #783, #494, #360, #208, #425, #420, #60, #198, #638, #72, #922, #570, #488, #721 ),
 .UNSPECIFIED., .F., .F.,
 ( 4, 2, 2, 2, 2, 2, 4 ),
 ( 0.002345664943215310452, 0.002931945900636064462, 0.003225086379346439516, 0.003518226858056814569, 0.003811367336767189622, 0.004104507815477564242, 0.004690788772898314349 ),
 .UNSPECIFIED. ) ;
#482 = DIRECTION ( 'NONE',  ( 0.000000000000000000, 1.000000000000000000, 0.000000000000000000 ) ) ;
#483 = EDGE_CURVE ( 'NONE', #740, #796, #567, .T. ) ;
#484 = CARTESIAN_POINT ( 'NONE',  ( 4.330127018922198090, 1.500000000000000000, 1.749999999999991562 ) ) ;
#485 = ORIENTED_EDGE ( 'NONE', *, *, #571, .T. ) ;
#486 = ORIENTED_EDGE ( 'NONE', *, *, #92, .T. ) ;
#487 = CARTESIAN_POINT ( 'NONE',  ( 3.894962447392346165E-15, -0.7499999999999993339, 3.868246803570493775 ) ) ;
#488 = CARTESIAN_POINT ( 'NONE',  ( 9.010862724707918048, -0.1982461639355500016, -4.336398615956495561 ) ) ;
#489 = EDGE_CURVE ( 'NONE', #214, #382, #481, .T. ) ;
#490 = CIRCLE ( 'NONE', #881, 0.7499999999999997780 ) ;
#491 = VECTOR ( 'NONE', #857, 1000.000000000000000 ) ;
#492 = CARTESIAN_POINT ( 'NONE',  ( 3.350000000000001421, -0.7500000000000002220, -1.934123401785247331 ) ) ;
#493 = ORIENTED_EDGE ( 'NONE', *, *, #898, .F. ) ;
#494 = CARTESIAN_POINT ( 'NONE',  ( 8.260862724707827454, -0.1957844186564353106, -5.635436721633281465 ) ) ;
#495 = CARTESIAN_POINT ( 'NONE',  ( -9.338425041229877414E-15, 1.500000000000000000, -5.750000000000000000 ) ) ;
#496 =( BOUNDED_CURVE ( )  B_SPLINE_CURVE ( 3, ( #181, #473, #114, #553 ),
 .UNSPECIFIED., .F., .T. ) 
 B_SPLINE_CURVE_WITH_KNOTS ( ( 4, 4 ),
 ( 4.712388980384714543, 6.283185307179586232 ),
 .UNSPECIFIED. ) 
 CURVE ( )  GEOMETRIC_REPRESENTATION_ITEM ( )  RATIONAL_B_SPLINE_CURVE ( ( 1.000000000000000000, 0.8047378541243708217, 0.8047378541243708217, 1.000000000000000000 ) ) 
 REPRESENTATION_ITEM ( '' )  );
#497 = EDGE_CURVE ( 'NONE', #574, #619, #426, .T. ) ;
#498 = ORIENTED_EDGE ( 'NONE', *, *, #12, .F. ) ;
#499 = PLANE ( 'NONE',  #672 ) ;
#500 = CARTESIAN_POINT ( 'NONE',  ( -3.349999999999999645, 0.7500000000000001110, -1.934123401785247998 ) ) ;
#501 = ORIENTED_EDGE ( 'NONE', *, *, #63, .T. ) ;
#502 = EDGE_CURVE ( 'NONE', #860, #164, #717, .T. ) ;
#503 = DIRECTION ( 'NONE',  ( 0.000000000000000000, 0.000000000000000000, 1.000000000000000000 ) ) ;
#504 = CARTESIAN_POINT ( 'NONE',  ( 11.83131003162406714, 0.000000000000000000, -6.830810031624148237 ) ) ;
#505 = AXIS2_PLACEMENT_3D ( 'NONE', #237, #885, #446 ) ;
#506 = VECTOR ( 'NONE', #651, 1000.000000000000000 ) ;
#507 = ORIENTED_EDGE ( 'NONE', *, *, #36, .F. ) ;
#508 = PRODUCT_DEFINITION_SHAPE ( 'NONE', 'NONE',  #671 ) ;
#509 = LINE ( 'NONE', #803, #67 ) ;
#510 = DIRECTION ( 'NONE',  ( -0.000000000000000000, -1.000000000000000000, -0.000000000000000000 ) ) ;
#511 = ORIENTED_EDGE ( 'NONE', *, *, #502, .T. ) ;
#512 = CARTESIAN_POINT ( 'NONE',  ( 0.000000000000000000, -1.500000000000000000, 0.000000000000000000 ) ) ;
#513 = EDGE_CURVE ( 'NONE', #796, #230, #211, .T. ) ;
#514 = CYLINDRICAL_SURFACE ( 'NONE', #454, 0.7499999999999997780 ) ;
#515 = ORIENTED_EDGE ( 'NONE', *, *, #483, .F. ) ;
#516 = SURFACE_SIDE_STYLE ('',( #223 ) ) ;
#517 = AXIS2_PLACEMENT_3D ( 'NONE', #110, #910, #262 ) ;
#518 = VERTEX_POINT ( 'NONE', #713 ) ;
#519 = AXIS2_PLACEMENT_3D ( 'NONE', #415, #682, #625 ) ;
#520 = CARTESIAN_POINT ( 'NONE',  ( -0.7500000000000001110, 0.000000000000000000, 10.00099999999999945 ) ) ;
#521 = CARTESIAN_POINT ( 'NONE',  ( -8.260862724707992655, 0.09914595361333057577, -5.635436721633037216 ) ) ;
#522 = ORIENTED_EDGE ( 'NONE', *, *, #725, .F. ) ;
#523 = ADVANCED_FACE ( 'NONE', ( #356 ), #578, .T. ) ;
#524 = CARTESIAN_POINT ( 'NONE',  ( -0.3779285404041647367, -0.6552387231814303936, 9.993269134241545615 ) ) ;
#525 = CARTESIAN_POINT ( 'NONE',  ( -8.271946753192187529, 0.1964323013723433542, -5.619281268064103330 ) ) ;
#526 = ORIENTED_EDGE ( 'NONE', *, *, #381, .F. ) ;
#527 = ORIENTED_EDGE ( 'NONE', *, *, #205, .F. ) ;
#528 = CARTESIAN_POINT ( 'NONE',  ( 4.330127018922198090, 1.500000000000000000, 2.499999999999992006 ) ) ;
#529 =( BOUNDED_CURVE ( )  B_SPLINE_CURVE ( 3, ( #712, #347, #273, #388 ),
 .UNSPECIFIED., .F., .T. ) 
 B_SPLINE_CURVE_WITH_KNOTS ( ( 4, 4 ),
 ( 4.712388980384684345, 6.283185307179586232 ),
 .UNSPECIFIED. ) 
 CURVE ( )  GEOMETRIC_REPRESENTATION_ITEM ( )  RATIONAL_B_SPLINE_CURVE ( ( 1.000000000000000000, 0.8047378541243637162, 0.8047378541243637162, 1.000000000000000000 ) ) 
 REPRESENTATION_ITEM ( '' )  );
#530 = CARTESIAN_POINT ( 'NONE',  ( -8.458504473154095038, 0.6687487230516168113, -5.336000627469887014 ) ) ;
#531 = ORIENTED_EDGE ( 'NONE', *, *, #284, .T. ) ;
#532 = ORIENTED_EDGE ( 'NONE', *, *, #878, .F. ) ;
#533 = VECTOR ( 'NONE', #301, 1000.000000000000000 ) ;
#534 = AXIS2_PLACEMENT_3D ( 'NONE', #193, #129, #341 ) ;
#535 = DIRECTION ( 'NONE',  ( 2.242260595130087665E-16, 0.000000000000000000, 1.000000000000000000 ) ) ;
#536 = CARTESIAN_POINT ( 'NONE',  ( -8.944983836552010459, 0.4604218724831219967, -4.471261944566466973 ) ) ;
#537 = CARTESIAN_POINT ( 'NONE',  ( -9.246576531293826053E-15, -1.500000000000000000, -4.250000000000000000 ) ) ;
#538 = CARTESIAN_POINT ( 'NONE',  ( 1.224646799147353256E-15, -1.500000000000000000, 10.00000000000000000 ) ) ;
#539 = VERTEX_POINT ( 'NONE', #55 ) ;
#540 = FACE_BOUND ( 'NONE', #419, .T. ) ;
#541 = CARTESIAN_POINT ( 'NONE',  ( -9.002449341821693096, 0.1961448201192804441, -4.354001546595936745 ) ) ;
#542 = EDGE_CURVE ( 'NONE', #210, #556, #143, .T. ) ;
#543 = CARTESIAN_POINT ( 'NONE',  ( 3.350000000000001421, -1.500000000000000000, -1.934123401785247331 ) ) ;
#544 = CARTESIAN_POINT ( 'NONE',  ( 0.4613353659366637993, -0.5993663438389775777, 9.989592857904098011 ) ) ;
#545 = VERTEX_POINT ( 'NONE', #279 ) ;
#546 = DIRECTION ( 'NONE',  ( 2.242260595130087665E-16, 0.000000000000000000, 1.000000000000000000 ) ) ;
#547 = ORIENTED_EDGE ( 'NONE', *, *, #830, .T. ) ;
#548 = CARTESIAN_POINT ( 'NONE',  ( 0.000000000000000000, 0.000000000000000000, 0.000000000000000000 ) ) ;
#549 = EDGE_LOOP ( 'NONE', ( #601, #547, #883, #723, #333, #844 ) ) ;
#550 = VECTOR ( 'NONE', #396, 999.9999999999998863 ) ;
#551 = CARTESIAN_POINT ( 'NONE',  ( 0.6003351876909008844, 0.4603267501920350613, 9.982209832384777215 ) ) ;
#552 = AXIS2_PLACEMENT_3D ( 'NONE', #856, #482, #633 ) ;
#553 = CARTESIAN_POINT ( 'NONE',  ( 3.350000000000000533, 0.000000000000000000, -1.068097998000826498 ) ) ;
#554 = ORIENTED_EDGE ( 'NONE', *, *, #48, .F. ) ;
#555 = LINE ( 'NONE', #469, #94 ) ;
#556 = VERTEX_POINT ( 'NONE', #861 ) ;
#557 = ADVANCED_FACE ( 'NONE', ( #5, #409, #204, #582, #218 ), #499, .F. ) ;
#558 = DIRECTION ( 'NONE',  ( -0.4999999999999999445, 0.000000000000000000, 0.8660254037844387076 ) ) ;
#559 = CYLINDRICAL_SURFACE ( 'NONE', #627, 0.7499999999999997780 ) ;
#560 = CARTESIAN_POINT ( 'NONE',  ( 0.000000000000000000, 0.000000000000000000, 10.00099999999999945 ) ) ;
#561 = DIRECTION ( 'NONE',  ( 0.5000000000000044409, 0.000000000000000000, 0.8660254037844360431 ) ) ;
#562 = ORIENTED_EDGE ( 'NONE', *, *, #823, .F. ) ;
#563 = EDGE_CURVE ( 'NONE', #230, #581, #270, .T. ) ;
#564 = FACE_OUTER_BOUND ( 'NONE', #756, .T. ) ;
#565 = CARTESIAN_POINT ( 'NONE',  ( -9.338425041229877414E-15, 1.500000000000000000, -5.000000000000000000 ) ) ;
#566 = CARTESIAN_POINT ( 'NONE',  ( 8.850364334575695935, 0.6687487230516170333, -4.657279438040768937 ) ) ;
#567 =( BOUNDED_CURVE ( )  B_SPLINE_CURVE ( 3, ( #709, #724, #634, #348 ),
 .UNSPECIFIED., .F., .F. ) 
 B_SPLINE_CURVE_WITH_KNOTS ( ( 4, 4 ),
 ( 0.000000000000000000, 1.570796326794902331 ),
 .UNSPECIFIED. ) 
 CURVE ( )  GEOMETRIC_REPRESENTATION_ITEM ( )  RATIONAL_B_SPLINE_CURVE ( ( 1.000000000000000000, 0.8047378541243636052, 0.8047378541243636052, 1.000000000000000000 ) ) 
 REPRESENTATION_ITEM ( '' )  );
#568 = EDGE_LOOP ( 'NONE', ( #116, #105, #4, #414, #654 ) ) ;
#569 = CARTESIAN_POINT ( 'NONE',  ( 3.350000000000001421, 1.500000000000000000, -1.934123401785247331 ) ) ;
#570 = CARTESIAN_POINT ( 'NONE',  ( 8.975932466828593803, -0.3924294294549247053, -4.410426673007953546 ) ) ;
#571 = EDGE_CURVE ( 'NONE', #650, #894, #182, .T. ) ;
#572 = DIRECTION ( 'NONE',  ( 0.4999999999999911182, 0.000000000000000000, -0.8660254037844439257 ) ) ;
#573 = DIRECTION ( 'NONE',  ( 1.000000000000000000, 0.000000000000000000, 0.000000000000000000 ) ) ;
#574 = VERTEX_POINT ( 'NONE', #130 ) ;
#575 = LINE ( 'NONE', #358, #166 ) ;
#576 = APPLICATION_PROTOCOL_DEFINITION ( 'draft international standard', 'automotive_design', 1998, #674 ) ;
#577 = ORIENTED_EDGE ( 'NONE', *, *, #48, .T. ) ;
#578 = PLANE ( 'NONE',  #440 ) ;
#579 = UNCERTAINTY_MEASURE_WITH_UNIT (LENGTH_MEASURE( 1.000000000000000082E-05 ), #299, 'distance_accuracy_value', 'NONE');
#580 = CARTESIAN_POINT ( 'NONE',  ( 3.350000000000000089, -0.7499999999999891198, -1.426817465607967517 ) ) ;
#581 = VERTEX_POINT ( 'NONE', #865 ) ;
#582 = FACE_OUTER_BOUND ( 'NONE', #670, .T. ) ;
#583 = FACE_OUTER_BOUND ( 'NONE', #246, .T. ) ;
#584 = AXIS2_PLACEMENT_3D ( 'NONE', #310, #599, #307 ) ;
#585 = AXIS2_PLACEMENT_3D ( 'NONE', #620, #896, #339 ) ;
#586 = VERTEX_POINT ( 'NONE', #416 ) ;
#587 = EDGE_CURVE ( 'NONE', #854, #586, #509, .T. ) ;
#588 = LINE ( 'NONE', #380, #533 ) ;
#589 = ORIENTED_EDGE ( 'NONE', *, *, #898, .T. ) ;
#590 =( BOUNDED_CURVE ( )  B_SPLINE_CURVE ( 3, ( #884, #450, #742, #594 ),
 .UNSPECIFIED., .F., .F. ) 
 B_SPLINE_CURVE_WITH_KNOTS ( ( 4, 4 ),
 ( 0.000000000000000000, 1.570796326794946518 ),
 .UNSPECIFIED. ) 
 CURVE ( )  GEOMETRIC_REPRESENTATION_ITEM ( )  RATIONAL_B_SPLINE_CURVE ( ( 1.000000000000000000, 0.8047378541243532801, 0.8047378541243532801, 1.000000000000000000 ) ) 
 REPRESENTATION_ITEM ( '' )  );
#591 = FILL_AREA_STYLE ('',( #297 ) ) ;
#592 = LINE ( 'NONE', #817, #30 ) ;
#593 = ORIENTED_EDGE ( 'NONE', *, *, #851, .F. ) ;
#594 = CARTESIAN_POINT ( 'NONE',  ( -3.349999999999999645, 0.7500000000000001110, -1.934123401785247998 ) ) ;
#595 = CARTESIAN_POINT ( 'NONE',  ( -8.260862724707990878, 0.000000000000000000, -5.635436721633036328 ) ) ;
#596 = EDGE_CURVE ( 'NONE', #619, #207, #590, .T. ) ;
#597 = EDGE_LOOP ( 'NONE', ( #231, #258, #720, #7 ) ) ;
#598 = AXIS2_PLACEMENT_3D ( 'NONE', #111, #475, #268 ) ;
#599 = DIRECTION ( 'NONE',  ( -0.000000000000000000, -1.000000000000000000, -0.000000000000000000 ) ) ;
#600 = ADVANCED_FACE ( 'NONE', ( #433 ), #372, .F. ) ;
#601 = ORIENTED_EDGE ( 'NONE', *, *, #68, .T. ) ;
#602 = CARTESIAN_POINT ( 'NONE',  ( 1.224646799131400714E-15, -0.7500000000000001110, 10.00000000000000000 ) ) ;
#603 = CYLINDRICAL_SURFACE ( 'NONE', #505, 0.7500000000000001110 ) ;
#604 = ORIENTED_EDGE ( 'NONE', *, *, #118, .T. ) ;
#605 = ORIENTED_EDGE ( 'NONE', *, *, #642, .T. ) ;
#606 = CARTESIAN_POINT ( 'NONE',  ( -8.307507773767696335, -0.3924294294549245943, -5.568172202423076200 ) ) ;
#607 = CARTESIAN_POINT ( 'NONE',  ( 2.599999999999982325, 9.184850993605150903E-17, -2.367136103677475845 ) ) ;
#608 = ORIENTED_EDGE ( 'NONE', *, *, #653, .F. ) ;
#609 = LINE ( 'NONE', #826, #761 ) ;
#610 = VECTOR ( 'NONE', #88, 999.9999999999998863 ) ;
#611 = EDGE_CURVE ( 'NONE', #177, #581, #664, .T. ) ;
#612 = CARTESIAN_POINT ( 'NONE',  ( 0.4603116051984534884, 0.6003468003094980521, 9.989646074884673155 ) ) ;
#613 = CARTESIAN_POINT ( 'NONE',  ( 1.224646799147353256E-15, 1.500000000000000000, 10.00000000000000000 ) ) ;
#614 = CARTESIAN_POINT ( 'NONE',  ( 3.350000000000001865, 1.500000000000000000, 1.934123401785248664 ) ) ;
#615 = LINE ( 'NONE', #321, #292 ) ;
#616 = ORIENTED_EDGE ( 'NONE', *, *, #284, .F. ) ;
#617 = CARTESIAN_POINT ( 'NONE',  ( -8.611057309769254431, -0.7500790760218873920, -5.085223093991776189 ) ) ;
#618 = FACE_OUTER_BOUND ( 'NONE', #810, .T. ) ;
#619 = VERTEX_POINT ( 'NONE', #221 ) ;
#620 = CARTESIAN_POINT ( 'NONE',  ( -11.83131003162411687, 0.000000000000000000, -6.830810031623957279 ) ) ;
#621 = VERTEX_POINT ( 'NONE', #731 ) ;
#622 = DIRECTION ( 'NONE',  ( -0.000000000000000000, -1.000000000000000000, -0.000000000000000000 ) ) ;
#623 = ADVANCED_FACE ( 'NONE', ( #159 ), #91, .F. ) ;
#624 = CARTESIAN_POINT ( 'NONE',  ( -2.600000000000032951, 0.000000000000000000, -2.367136103677449199 ) ) ;
#625 = DIRECTION ( 'NONE',  ( 0.000000000000000000, 0.000000000000000000, 1.000000000000000000 ) ) ;
#626 = ORIENTED_EDGE ( 'NONE', *, *, #790, .F. ) ;
#627 = AXIS2_PLACEMENT_3D ( 'NONE', #27, #696, #835 ) ;
#628 = CARTESIAN_POINT ( 'NONE',  ( 1.063344692158020102E-12, 0.7500000000091099350, 10.00000000000068390 ) ) ;
#629 = VECTOR ( 'NONE', #397, 1000.000000000000227 ) ;
#630 = CARTESIAN_POINT ( 'NONE',  ( -3.349999999999999645, 0.7500000000000001110, -1.934123401785247998 ) ) ;
#631 =( LENGTH_UNIT ( ) NAMED_UNIT ( * ) SI_UNIT ( .MILLI., .METRE. ) );
#632 = ORIENTED_EDGE ( 'NONE', *, *, #587, .F. ) ;
#633 = DIRECTION ( 'NONE',  ( 0.000000000000000000, 0.000000000000000000, 1.000000000000000000 ) ) ;
#634 = CARTESIAN_POINT ( 'NONE',  ( -0.4393398282201766425, -0.7500000000000026645, 3.614593835481848760 ) ) ;
#635 = ORIENTED_EDGE ( 'NONE', *, *, #716, .T. ) ;
#636 = VERTEX_POINT ( 'NONE', #232 ) ;
#637 = EDGE_CURVE ( 'NONE', #745, #740, #309, .T. ) ;
#638 = CARTESIAN_POINT ( 'NONE',  ( 8.756836588698455159, -0.7306530189019020405, -4.829708536636434069 ) ) ;
#639 = CARTESIAN_POINT ( 'NONE',  ( 8.944598548986977704, 0.4612690155229420275, -4.472019337183343879 ) ) ;
#640 = APPLICATION_CONTEXT ( 'automotive_design' ) ;
#641 = ORIENTED_EDGE ( 'NONE', *, *, #489, .T. ) ;
#642 = EDGE_CURVE ( 'NONE', #371, #621, #378, .T. ) ;
#643 = CIRCLE ( 'NONE', #336, 0.7500000000000002220 ) ;
#644 = CARTESIAN_POINT ( 'NONE',  ( 3.350000000000001865, 1.500000000000000000, 1.934123401785248664 ) ) ;
#645 = VECTOR ( 'NONE', #240, 1000.000000000000000 ) ;
#646 = CARTESIAN_POINT ( 'NONE',  ( 0.7500000000000001110, 9.184850993605150903E-17, 3.435234101678275920 ) ) ;
#647 = VERTEX_POINT ( 'NONE', #441 ) ;
#648 = CARTESIAN_POINT ( 'NONE',  ( 3.350000000000001421, 1.500000000000000000, -1.934123401785247331 ) ) ;
#649 = CARTESIAN_POINT ( 'NONE',  ( 3.350000000000000533, 0.000000000000000000, -1.068097998000826498 ) ) ;
#650 = VERTEX_POINT ( 'NONE', #369 ) ;
#651 = DIRECTION ( 'NONE',  ( -0.000000000000000000, -1.000000000000000000, -0.000000000000000000 ) ) ;
#652 = CARTESIAN_POINT ( 'NONE',  ( 3.894962447392346165E-15, -1.500000000000000000, 3.868246803570493775 ) ) ;
#653 = EDGE_CURVE ( 'NONE', #214, #518, #22, .T. ) ;
#654 = ORIENTED_EDGE ( 'NONE', *, *, #596, .F. ) ;
#655 = PRESENTATION_STYLE_ASSIGNMENT (( #737 ) ) ;
#656 = DIRECTION ( 'NONE',  ( -0.8660254037844363761, 0.000000000000000000, 0.5000000000000039968 ) ) ;
#657 = VECTOR ( 'NONE', #316, 1000.000000000000000 ) ;
#658 = EDGE_LOOP ( 'NONE', ( #498, #632, #554, #377, #390, #522 ) ) ;
#659 =( BOUNDED_CURVE ( )  B_SPLINE_CURVE ( 3, ( #850, #197, #925, #408 ),
 .UNSPECIFIED., .F., .F. ) 
 B_SPLINE_CURVE_WITH_KNOTS ( ( 4, 4 ),
 ( 4.712388980384695003, 6.283185307179586232 ),
 .UNSPECIFIED. ) 
 CURVE ( )  GEOMETRIC_REPRESENTATION_ITEM ( )  RATIONAL_B_SPLINE_CURVE ( ( 1.000000000000000000, 0.8047378541243662697, 0.8047378541243662697, 1.000000000000000000 ) ) 
 REPRESENTATION_ITEM ( '' )  );
#660 = DIRECTION ( 'NONE',  ( -0.8660254037844385966, 0.000000000000000000, -0.4999999999999999445 ) ) ;
#661 = DIRECTION ( 'NONE',  ( 0.000000000000000000, 0.000000000000000000, -1.000000000000000000 ) ) ;
#662 = ORIENTED_EDGE ( 'NONE', *, *, #863, .T. ) ;
#663 = EDGE_CURVE ( 'NONE', #539, #928, #109, .T. ) ;
#664 = LINE ( 'NONE', #15, #411 ) ;
#665 = CARTESIAN_POINT ( 'NONE',  ( 0.000000000000000000, 1.500000000000000000, 0.000000000000000000 ) ) ;
#666 = ORIENTED_EDGE ( 'NONE', *, *, #162, .F. ) ;
#667 = EDGE_CURVE ( 'NONE', #21, #745, #858, .T. ) ;
#668 = CARTESIAN_POINT ( 'NONE',  ( -4.330127018922188320, -1.500000000000000000, 2.500000000000009770 ) ) ;
#669 = AXIS2_PLACEMENT_3D ( 'NONE', #798, #276, #572 ) ;
#670 = EDGE_LOOP ( 'NONE', ( #886, #760 ) ) ;
#671 = PRODUCT_DEFINITION ( 'General', '', #34, #722 ) ;
#672 = AXIS2_PLACEMENT_3D ( 'NONE', #282, #342, #138 ) ;
#673 = LINE ( 'NONE', #323, #895 ) ;
#674 = APPLICATION_CONTEXT ( 'automotive_design' ) ;
#675 = DIRECTION ( 'NONE',  ( 0.000000000000000000, 1.000000000000000000, 0.000000000000000000 ) ) ;
#676 = VERTEX_POINT ( 'NONE', #13 ) ;
#677 = VERTEX_POINT ( 'NONE', #811 ) ;
#678 = MANIFOLD_SOLID_BREP ( 'CirPattern1', #353 ) ;
#679 = CARTESIAN_POINT ( 'NONE',  ( 1.311810494877748865E-15, -1.500000000000000000, -3.868246803570493775 ) ) ;
#680 = ORIENTED_EDGE ( 'NONE', *, *, #637, .T. ) ;
#681 = EDGE_CURVE ( 'NONE', #581, #556, #673, .T. ) ;
#682 = DIRECTION ( 'NONE',  ( 0.000000000000000000, 1.000000000000000000, 0.000000000000000000 ) ) ;
#683 = CARTESIAN_POINT ( 'NONE',  ( -8.260862724707990878, -0.1982461639355500571, -5.635436721633036328 ) ) ;
#684 = CARTESIAN_POINT ( 'NONE',  ( 3.894962447392346165E-15, 1.500000000000000000, 3.868246803570493775 ) ) ;
#685 = CARTESIAN_POINT ( 'NONE',  ( -0.7304574845364453228, 0.1964782839772442613, 9.973357416863807501 ) ) ;
#686 = AXIS2_PLACEMENT_3D ( 'NONE', #560, #338, #847 ) ;
#687 = VERTEX_POINT ( 'NONE', #334 ) ;
#688 = CIRCLE ( 'NONE', #534, 0.7500000000000002220 ) ;
#689 = CARTESIAN_POINT ( 'NONE',  ( 2.599999999999983213, -0.4393398282201875782, -2.367136103677475401 ) ) ;
#690 = LINE ( 'NONE', #254, #50 ) ;
#691 = CARTESIAN_POINT ( 'NONE',  ( -2.600000000000032951, 0.000000000000000000, -2.367136103677449199 ) ) ;
#692 = DIRECTION ( 'NONE',  ( -0.000000000000000000, -1.000000000000000000, -0.000000000000000000 ) ) ;
#693 = VERTEX_POINT ( 'NONE', #37 ) ;
#694 = DIRECTION ( 'NONE',  ( -0.000000000000000000, -1.000000000000000000, -0.000000000000000000 ) ) ;
#695 = EDGE_CURVE ( 'NONE', #222, #677, #386, .T. ) ;
#696 = DIRECTION ( 'NONE',  ( -0.000000000000000000, -1.000000000000000000, -0.000000000000000000 ) ) ;
#697 = CARTESIAN_POINT ( 'NONE',  ( -0.7500000000000001110, 0.000000000000000000, 9.971835337589565640 ) ) ;
#698 = CARTESIAN_POINT ( 'NONE',  ( 0.3780796115270744773, -0.6551457132442487508, 9.993262994884355876 ) ) ;
#699 = VERTEX_POINT ( 'NONE', #679 ) ;
#700 = CARTESIAN_POINT ( 'NONE',  ( -9.010862724708047722, -0.1957844186564355604, -4.336398615956229996 ) ) ;
#701 = FACE_OUTER_BOUND ( 'NONE', #149, .T. ) ;
#702 = EDGE_CURVE ( 'NONE', #913, #457, #915, .T. ) ;
#703 = LINE ( 'NONE', #710, #66 ) ;
#704 = PLANE ( 'NONE',  #598 ) ;
#705 = ORIENTED_EDGE ( 'NONE', *, *, #863, .F. ) ;
#706 = VECTOR ( 'NONE', #373, 1000.000000000000000 ) ;
#707 = DIRECTION ( 'NONE',  ( -0.000000000000000000, -1.000000000000000000, -0.000000000000000000 ) ) ;
#708 = STYLED_ITEM ( 'NONE', ( #655 ), #678 ) ;
#709 = CARTESIAN_POINT ( 'NONE',  ( -0.7500000000000001110, 0.000000000000000000, 3.435234101678271479 ) ) ;
#710 = CARTESIAN_POINT ( 'NONE',  ( 1.311810494877748865E-15, 1.500000000000000000, -3.868246803570493775 ) ) ;
#711 = ORIENTED_EDGE ( 'NONE', *, *, #483, .T. ) ;
#712 = CARTESIAN_POINT ( 'NONE',  ( 3.894962447392346165E-15, 0.7500000000000007772, 3.868246803570493775 ) ) ;
#713 = CARTESIAN_POINT ( 'NONE',  ( 2.599999999999982325, 9.184850993605150903E-17, -2.367136103677475845 ) ) ;
#714 = CYLINDRICAL_SURFACE ( 'NONE', #669, 0.7500000000000001110 ) ;
#715 = ORIENTED_EDGE ( 'NONE', *, *, #429, .F. ) ;
#716 = EDGE_CURVE ( 'NONE', #871, #636, #346, .T. ) ;
#717 = LINE ( 'NONE', #69, #142 ) ;
#718 = CARTESIAN_POINT ( 'NONE',  ( -4.330127018922188320, 1.500000000000000000, 2.500000000000009770 ) ) ;
#719 = SHAPE_DEFINITION_REPRESENTATION ( #508, #184 ) ;
#720 = ORIENTED_EDGE ( 'NONE', *, *, #361, .T. ) ;
#721 = CARTESIAN_POINT ( 'NONE',  ( 9.010862724707916271, 0.000000000000000000, -4.336398615956494673 ) ) ;
#722 = PRODUCT_DEFINITION_CONTEXT ( 'detailed design', #640, 'design' ) ;
#723 = ORIENTED_EDGE ( 'NONE', *, *, #767, .T. ) ;
#724 = CARTESIAN_POINT ( 'NONE',  ( -0.7500000000000002220, -0.4393398282201809169, 3.435234101678271923 ) ) ;
#725 = EDGE_CURVE ( 'NONE', #112, #40, #477, .T. ) ;
#726 = CARTESIAN_POINT ( 'NONE',  ( 8.560983077998523427, 0.7305975122767783825, -5.168928821331359558 ) ) ;
#727 = VERTEX_POINT ( 'NONE', #253 ) ;
#728 = DIRECTION ( 'NONE',  ( 0.000000000000000000, 0.000000000000000000, -1.000000000000000000 ) ) ;
#729 = CARTESIAN_POINT ( 'NONE',  ( 8.314069101930328998, 0.3778857684145604523, -5.556768718252815376 ) ) ;
#730 = ORIENTED_EDGE ( 'NONE', *, *, #563, .F. ) ;
#731 = CARTESIAN_POINT ( 'NONE',  ( 0.000000000000000000, 1.500000000000000000, -10.00000000000000000 ) ) ;
#732 = DIRECTION ( 'NONE',  ( 0.000000000000000000, 1.000000000000000000, 0.000000000000000000 ) ) ;
#733 = AXIS2_PLACEMENT_3D ( 'NONE', #718, #209, #859 ) ;
#734 =( GEOMETRIC_REPRESENTATION_CONTEXT ( 3 ) GLOBAL_UNCERTAINTY_ASSIGNED_CONTEXT ( ( #332 ) ) GLOBAL_UNIT_ASSIGNED_CONTEXT ( ( #631, #765, #422 ) ) REPRESENTATION_CONTEXT ( 'NONE', 'WORKASPACE' ) );
#735 = VERTEX_POINT ( 'NONE', #26 ) ;
#736 = ADVANCED_FACE ( 'NONE', ( #540, #822, #117, #747, #465 ), #403, .T. ) ;
#737 = SURFACE_STYLE_USAGE ( .BOTH. , #516 ) ;
#738 = CARTESIAN_POINT ( 'NONE',  ( 1.224646799147353256E-15, 1.500000000000000000, 10.00000000000000000 ) ) ;
#739 = ORIENTED_EDGE ( 'NONE', *, *, #823, .T. ) ;
#740 = VERTEX_POINT ( 'NONE', #41 ) ;
#741 = EDGE_CURVE ( 'NONE', #586, #699, #313, .T. ) ;
#742 = CARTESIAN_POINT ( 'NONE',  ( -3.349999999999998312, 0.7500000000000219824, -1.426817465607942648 ) ) ;
#743 = ORIENTED_EDGE ( 'NONE', *, *, #263, .T. ) ;
#744 = CARTESIAN_POINT ( 'NONE',  ( -0.4609984465981358803, -0.5996193639293684319, 9.989608516778156755 ) ) ;
#745 = VERTEX_POINT ( 'NONE', #757 ) ;
#746 = AXIS2_PLACEMENT_3D ( 'NONE', #880, #445, #154 ) ;
#747 = FACE_BOUND ( 'NONE', #235, .T. ) ;
#748 = CARTESIAN_POINT ( 'NONE',  ( -8.843229599948406516, 0.6554312343386325956, -4.669640956686430755 ) ) ;
#749 = EDGE_CURVE ( 'NONE', #621, #539, #763, .T. ) ;
#750 = ORIENTED_EDGE ( 'NONE', *, *, #87, .F. ) ;
#751 = CARTESIAN_POINT ( 'NONE',  ( 3.350000000000001421, 1.500000000000000000, -1.934123401785247331 ) ) ;
#752 = CARTESIAN_POINT ( 'NONE',  ( -4.330127018922188320, -1.500000000000000000, 2.500000000000009770 ) ) ;
#753 = EDGE_CURVE ( 'NONE', #210, #518, #203, .T. ) ;
#754 = DIRECTION ( 'NONE',  ( 0.8660254037844387076, 0.000000000000000000, -0.4999999999999997780 ) ) ;
#755 = CARTESIAN_POINT ( 'NONE',  ( 11.83131003162406714, 0.000000000000000000, -6.830810031624148237 ) ) ;
#756 = EDGE_LOOP ( 'NONE', ( #295, #827, #402, #82, #875, #133, #470 ) ) ;
#757 = CARTESIAN_POINT ( 'NONE',  ( -0.7500000000000001110, 0.000000000000000000, 9.971835337589565640 ) ) ;
#758 = CARTESIAN_POINT ( 'NONE',  ( -4.330127018922188320, 1.500000000000000000, 2.500000000000009770 ) ) ;
#759 = DIRECTION ( 'NONE',  ( 0.8660254037844432595, 0.000000000000000000, 0.4999999999999918954 ) ) ;
#760 = ORIENTED_EDGE ( 'NONE', *, *, #274, .F. ) ;
#761 = VECTOR ( 'NONE', #759, 1000.000000000000227 ) ;
#762 = EDGE_CURVE ( 'NONE', #650, #65, #399, .T. ) ;
#763 = LINE ( 'NONE', #169, #839 ) ;
#764 = CARTESIAN_POINT ( 'NONE',  ( 4.330127018922198090, 1.500000000000000000, 3.249999999999992006 ) ) ;
#765 =( NAMED_UNIT ( * ) PLANE_ANGLE_UNIT ( ) SI_UNIT ( $, .RADIAN. ) );
#766 = ORIENTED_EDGE ( 'NONE', *, *, #497, .F. ) ;
#767 = EDGE_CURVE ( 'NONE', #457, #230, #777, .T. ) ;
#768 = CARTESIAN_POINT ( 'NONE',  ( -8.710051590782365238, -0.7499204426072523244, -4.913736174613708485 ) ) ;
#769 = DIRECTION ( 'NONE',  ( -0.000000000000000000, -1.000000000000000000, -0.000000000000000000 ) ) ;
#770 = DIRECTION ( 'NONE',  ( 0.4999999999999998335, -0.000000000000000000, 0.8660254037844388186 ) ) ;
#771 = CARTESIAN_POINT ( 'NONE',  ( 0.7500000000050781601, 2.920827885143194189E-13, 9.971835337589183723 ) ) ;
#772 = EDGE_LOOP ( 'NONE', ( #423, #739 ) ) ;
#773 = CARTESIAN_POINT ( 'NONE',  ( -3.349999999999998757, -1.500000000000000000, 1.934123401785246443 ) ) ;
#774 = CARTESIAN_POINT ( 'NONE',  ( -3.349999999999998757, 1.500000000000000000, 1.934123401785246443 ) ) ;
#775 = ORIENTED_EDGE ( 'NONE', *, *, #797, .T. ) ;
#776 = AXIS2_PLACEMENT_3D ( 'NONE', #194, #335, #787 ) ;
#777 = LINE ( 'NONE', #773, #394 ) ;
#778 = VECTOR ( 'NONE', #163, 1000.000000000000000 ) ;
#779 = CARTESIAN_POINT ( 'NONE',  ( 3.894962447392346165E-15, -1.500000000000000000, 3.868246803570493775 ) ) ;
#780 = ADVANCED_FACE ( 'NONE', ( #564 ), #123, .T. ) ;
#781 = CARTESIAN_POINT ( 'NONE',  ( 9.010862724707916271, 0.000000000000000000, -4.336398615956494673 ) ) ;
#782 = ORIENTED_EDGE ( 'NONE', *, *, #716, .F. ) ;
#783 = CARTESIAN_POINT ( 'NONE',  ( 8.260862724705042126, 2.920827876871388064E-13, -5.635436721637358204 ) ) ;
#784 = CARTESIAN_POINT ( 'NONE',  ( 0.7500000000000001110, 9.184850993605150903E-17, 3.435234101678275920 ) ) ;
#785 = ORIENTED_EDGE ( 'NONE', *, *, #695, .F. ) ;
#786 =( BOUNDED_CURVE ( )  B_SPLINE_CURVE ( 3, ( #784, #70, #795, #6 ),
 .UNSPECIFIED., .F., .F. ) 
 B_SPLINE_CURVE_WITH_KNOTS ( ( 4, 4 ),
 ( 0.000000000000000000, 1.570796326794891451 ),
 .UNSPECIFIED. ) 
 CURVE ( )  GEOMETRIC_REPRESENTATION_ITEM ( )  RATIONAL_B_SPLINE_CURVE ( ( 1.000000000000000000, 0.8047378541243661587, 0.8047378541243661587, 1.000000000000000000 ) ) 
 REPRESENTATION_ITEM ( '' )  );
#787 = DIRECTION ( 'NONE',  ( -0.8660254037844387076, 0.000000000000000000, -0.4999999999999998890 ) ) ;
#788 = CARTESIAN_POINT ( 'NONE',  ( 3.350000000000001421, -0.7500000000000002220, -1.934123401785247331 ) ) ;
#789 = ORIENTED_EDGE ( 'NONE', *, *, #851, .T. ) ;
#790 = EDGE_CURVE ( 'NONE', #796, #196, #659, .T. ) ;
#791 = AXIS2_PLACEMENT_3D ( 'NONE', #256, #195, #474 ) ;
#792 = DIRECTION ( 'NONE',  ( 1.121130297565043339E-16, 0.000000000000000000, 1.000000000000000000 ) ) ;
#793 = AXIS2_PLACEMENT_3D ( 'NONE', #569, #558, #59 ) ;
#794 = PRODUCT ( 'Pivot washer', 'Pivot washer', '', ( #213 ) ) ;
#795 = CARTESIAN_POINT ( 'NONE',  ( 0.4393398282201810834, 0.7499999999999977796, 3.614593835481850093 ) ) ;
#796 = VERTEX_POINT ( 'NONE', #487 ) ;
#797 = EDGE_CURVE ( 'NONE', #545, #11, #54, .T. ) ;
#798 = CARTESIAN_POINT ( 'NONE',  ( -11.83131003162411687, 0.000000000000000000, -6.830810031623957279 ) ) ;
#799 = ORIENTED_EDGE ( 'NONE', *, *, #12, .T. ) ;
#800 =( NAMED_UNIT ( * ) PLANE_ANGLE_UNIT ( ) SI_UNIT ( $, .RADIAN. ) );
#801 = EDGE_CURVE ( 'NONE', #621, #371, #153, .T. ) ;
#802 = ORIENTED_EDGE ( 'NONE', *, *, #801, .T. ) ;
#803 = CARTESIAN_POINT ( 'NONE',  ( 3.350000000000001421, 1.500000000000000000, -1.934123401785247331 ) ) ;
#804 = DIRECTION ( 'NONE',  ( 0.000000000000000000, 0.000000000000000000, 1.000000000000000000 ) ) ;
#805 = EDGE_CURVE ( 'NONE', #735, #58, #688, .T. ) ;
#806 = ORIENTED_EDGE ( 'NONE', *, *, #637, .F. ) ;
#807 = ORIENTED_EDGE ( 'NONE', *, *, #887, .T. ) ;
#808 = CARTESIAN_POINT ( 'NONE',  ( -0.7500000000000001110, -0.1981459080020387953, 9.971835337589565640 ) ) ;
#809 = CARTESIAN_POINT ( 'NONE',  ( -8.314135887632591704, 0.3780847229303587742, -5.556668921147154272 ) ) ;
#810 = EDGE_LOOP ( 'NONE', ( #480, #344, #604, #813, #439, #62, #730 ) ) ;
#811 = CARTESIAN_POINT ( 'NONE',  ( 0.7500000000050781601, 2.920827885143194189E-13, 9.971835337589183723 ) ) ;
#812 = DIRECTION ( 'NONE',  ( -0.000000000000000000, -1.000000000000000000, -0.000000000000000000 ) ) ;
#813 = ORIENTED_EDGE ( 'NONE', *, *, #869, .F. ) ;
#814 = EDGE_CURVE ( 'NONE', #727, #740, #529, .T. ) ;
#815 = CARTESIAN_POINT ( 'NONE',  ( 0.000000000000000000, 1.500000000000000000, 0.000000000000000000 ) ) ;
#816 = B_SPLINE_CURVE_WITH_KNOTS ( 'NONE', 3,
 ( #697, #917, #685, #43, #842, #32, #831, #467 ),
 .UNSPECIFIED., .F., .F.,
 ( 4, 2, 2, 4 ),
 ( 0.000000000000000000, 0.0002932753493837865098, 0.0005865506987675730196, 0.001173101397535146473 ),
 .UNSPECIFIED. ) ;
#817 = CARTESIAN_POINT ( 'NONE',  ( -3.349999999999998757, 1.500000000000000000, 1.934123401785246443 ) ) ;
#818 =( BOUNDED_CURVE ( )  B_SPLINE_CURVE ( 3, ( #691, #38, #326, #331 ),
 .UNSPECIFIED., .F., .F. ) 
 B_SPLINE_CURVE_WITH_KNOTS ( ( 4, 4 ),
 ( 0.000000000000000000, 1.570796326794846820 ),
 .UNSPECIFIED. ) 
 CURVE ( )  GEOMETRIC_REPRESENTATION_ITEM ( )  RATIONAL_B_SPLINE_CURVE ( ( 1.000000000000000000, 0.8047378541243768169, 0.8047378541243768169, 1.000000000000000000 ) ) 
 REPRESENTATION_ITEM ( '' )  );
#819 = VECTOR ( 'NONE', #404, 1000.000000000000114 ) ;
#820 = ORIENTED_EDGE ( 'NONE', *, *, #869, .T. ) ;
#821 = AXIS2_PLACEMENT_3D ( 'NONE', #548, #867, #573 ) ;
#822 = FACE_OUTER_BOUND ( 'NONE', #175, .T. ) ;
#823 = EDGE_CURVE ( 'NONE', #65, #687, #914, .T. ) ;
#824 = CARTESIAN_POINT ( 'NONE',  ( 3.894962447392346165E-15, 1.500000000000000000, 3.868246803570493775 ) ) ;
#825 = LINE ( 'NONE', #923, #550 ) ;
#826 = CARTESIAN_POINT ( 'NONE',  ( -12.20631003162411155, 9.184850993605153368E-17, -6.181290978785624723 ) ) ;
#827 = ORIENTED_EDGE ( 'NONE', *, *, #753, .T. ) ;
#828 = CARTESIAN_POINT ( 'NONE',  ( -8.465641710132080888, -0.6554425078757352141, -5.323643679445380528 ) ) ;
#829 = CARTESIAN_POINT ( 'NONE',  ( 3.350000000000001421, 1.500000000000000000, -1.934123401785247331 ) ) ;
#830 = EDGE_CURVE ( 'NONE', #699, #913, #245, .T. ) ;
#831 = CARTESIAN_POINT ( 'NONE',  ( -0.1957958457207356340, 0.7500000000004070078, 10.00000000000003375 ) ) ;
#832 = CARTESIAN_POINT ( 'NONE',  ( -9.338425041229877414E-15, 1.500000000000000000, -5.000000000000000000 ) ) ;
#833 = ORIENTED_EDGE ( 'NONE', *, *, #502, .F. ) ;
#834 = DIRECTION ( 'NONE',  ( -1.121130297565043339E-16, 0.000000000000000000, -1.000000000000000000 ) ) ;
#835 = DIRECTION ( 'NONE',  ( 0.000000000000000000, 0.000000000000000000, -1.000000000000000000 ) ) ;
#836 = DIRECTION ( 'NONE',  ( -0.8660254037844387076, 0.000000000000000000, 0.4999999999999997780 ) ) ;
#837 = ADVANCED_FACE ( 'NONE', ( #464 ), #848, .F. ) ;
#838 = ORIENTED_EDGE ( 'NONE', *, *, #805, .T. ) ;
#839 = VECTOR ( 'NONE', #694, 1000.000000000000000 ) ;
#840 = CARTESIAN_POINT ( 'NONE',  ( 0.7500000000050781601, 2.920827885143194189E-13, 9.971835337589183723 ) ) ;
#841 = DIRECTION ( 'NONE',  ( -0.000000000000000000, -1.000000000000000000, -0.000000000000000000 ) ) ;
#842 = CARTESIAN_POINT ( 'NONE',  ( -0.5993493065458743718, 0.4613614154177322901, 9.982263490104038794 ) ) ;
#843 = CARTESIAN_POINT ( 'NONE',  ( -9.338425041229877414E-15, 1.500000000000000000, -5.750000000000000000 ) ) ;
#844 = ORIENTED_EDGE ( 'NONE', *, *, #681, .T. ) ;
#845 = DIRECTION ( 'NONE',  ( 0.8660254037844387076, 0.000000000000000000, 0.4999999999999998890 ) ) ;
#846 = LINE ( 'NONE', #478, #8 ) ;
#847 = DIRECTION ( 'NONE',  ( -1.000000000000000000, 0.000000000000000000, 0.000000000000000000 ) ) ;
#848 = CYLINDRICAL_SURFACE ( 'NONE', #228, 0.7499999999999997780 ) ;
#849 = ORIENTED_EDGE ( 'NONE', *, *, #830, .F. ) ;
#850 = CARTESIAN_POINT ( 'NONE',  ( 3.894962447392346165E-15, -0.7499999999999993339, 3.868246803570493775 ) ) ;
#851 = EDGE_CURVE ( 'NONE', #677, #21, #250, .T. ) ;
#852 = DIRECTION ( 'NONE',  ( 0.000000000000000000, 1.000000000000000000, 0.000000000000000000 ) ) ;
#853 = CARTESIAN_POINT ( 'NONE',  ( 8.271900618379685710, 0.1961448201192803054, -5.619349053002079764 ) ) ;
#854 = VERTEX_POINT ( 'NONE', #751 ) ;
#855 = AXIS2_PLACEMENT_3D ( 'NONE', #401, #770, #754 ) ;
#856 = CARTESIAN_POINT ( 'NONE',  ( 0.000000000000000000, 1.500000000000000000, 0.000000000000000000 ) ) ;
#857 = DIRECTION ( 'NONE',  ( -0.000000000000000000, -1.000000000000000000, -0.000000000000000000 ) ) ;
#858 = B_SPLINE_CURVE_WITH_KNOTS ( 'NONE', 3,
 ( #602, #364, #236, #524, #744, #375, #808, #877 ),
 .UNSPECIFIED., .F., .F.,
 ( 4, 2, 2, 4 ),
 ( 0.003518819839464561953, 0.003811812072822999293, 0.004104804306181437067, 0.004690788772898311747 ),
 .UNSPECIFIED. ) ;
#859 = DIRECTION ( 'NONE',  ( 0.000000000000000000, 0.000000000000000000, 1.000000000000000000 ) ) ;
#860 = VERTEX_POINT ( 'NONE', #264 ) ;
#861 = CARTESIAN_POINT ( 'NONE',  ( 3.350000000000001421, -1.500000000000000000, -1.934123401785247331 ) ) ;
#862 = DIRECTION ( 'NONE',  ( 0.000000000000000000, 0.000000000000000000, -1.000000000000000000 ) ) ;
#863 = EDGE_CURVE ( 'NONE', #21, #928, #555, .T. ) ;
#864 = ORIENTED_EDGE ( 'NONE', *, *, #290, .T. ) ;
#865 = CARTESIAN_POINT ( 'NONE',  ( 3.350000000000001865, -1.500000000000000000, 1.934123401785248664 ) ) ;
#866 = CARTESIAN_POINT ( 'NONE',  ( 1.063344692158020102E-12, 0.7500000000091099350, 10.00000000000068390 ) ) ;
#867 = DIRECTION ( 'NONE',  ( 0.000000000000000000, 0.000000000000000000, 1.000000000000000000 ) ) ;
#868 = EDGE_LOOP ( 'NONE', ( #145, #635 ) ) ;
#869 = EDGE_CURVE ( 'NONE', #74, #727, #615, .T. ) ;
#870 = AXIS2_PLACEMENT_3D ( 'NONE', #752, #242, #189 ) ;
#871 = VERTEX_POINT ( 'NONE', #29 ) ;
#872 = CARTESIAN_POINT ( 'NONE',  ( -3.349999999999998757, 9.184850993605153368E-17, -1.068097998000770987 ) ) ;
#873 = CYLINDRICAL_SURFACE ( 'NONE', #108, 10.00000000000000000 ) ;
#874 = ORIENTED_EDGE ( 'NONE', *, *, #878, .T. ) ;
#875 = ORIENTED_EDGE ( 'NONE', *, *, #587, .T. ) ;
#876 =( BOUNDED_CURVE ( )  B_SPLINE_CURVE ( 3, ( #607, #124, #330, #171 ),
 .UNSPECIFIED., .F., .F. ) 
 B_SPLINE_CURVE_WITH_KNOTS ( ( 4, 4 ),
 ( 0.000000000000000000, 1.570796326794922537 ),
 .UNSPECIFIED. ) 
 CURVE ( )  GEOMETRIC_REPRESENTATION_ITEM ( )  RATIONAL_B_SPLINE_CURVE ( ( 1.000000000000000000, 0.8047378541243588312, 0.8047378541243588312, 1.000000000000000000 ) ) 
 REPRESENTATION_ITEM ( '' )  );
#877 = CARTESIAN_POINT ( 'NONE',  ( -0.7500000000000001110, 0.000000000000000000, 9.971835337589565640 ) ) ;
#878 = EDGE_CURVE ( 'NONE', #574, #913, #39, .T. ) ;
#879 = ORIENTED_EDGE ( 'NONE', *, *, #667, .F. ) ;
#880 = CARTESIAN_POINT ( 'NONE',  ( -4.330127018922188320, 1.500000000000000000, 2.500000000000009770 ) ) ;
#881 = AXIS2_PLACEMENT_3D ( 'NONE', #668, #732, #155 ) ;
#882 = AXIS2_PLACEMENT_3D ( 'NONE', #832, #251, #44 ) ;
#883 = ORIENTED_EDGE ( 'NONE', *, *, #702, .T. ) ;
#884 = CARTESIAN_POINT ( 'NONE',  ( -3.349999999999998757, 9.184850993605153368E-17, -1.068097998000770987 ) ) ;
#885 = DIRECTION ( 'NONE',  ( 0.000000000000000000, 0.000000000000000000, -1.000000000000000000 ) ) ;
#886 = ORIENTED_EDGE ( 'NONE', *, *, #663, .F. ) ;
#887 = EDGE_CURVE ( 'NONE', #871, #619, #609, .T. ) ;
#888 = DIRECTION ( 'NONE',  ( 0.000000000000000000, 0.000000000000000000, 1.000000000000000000 ) ) ;
#889 = FACE_OUTER_BOUND ( 'NONE', #443, .T. ) ;
#890 = EDGE_LOOP ( 'NONE', ( #838, #136, #616, #238 ) ) ;
#891 = CARTESIAN_POINT ( 'NONE',  ( 1.311810494877748865E-15, 1.500000000000000000, -3.868246803570493775 ) ) ;
#892 = LINE ( 'NONE', #484, #93 ) ;
#893 = AXIS2_PLACEMENT_3D ( 'NONE', #224, #442, #804 ) ;
#894 = VERTEX_POINT ( 'NONE', #843 ) ;
#895 = VECTOR ( 'NONE', #834, 1000.000000000000000 ) ;
#896 = DIRECTION ( 'NONE',  ( 0.8660254037844432595, 0.000000000000000000, 0.4999999999999918954 ) ) ;
#897 = CARTESIAN_POINT ( 'NONE',  ( -8.757424521321443223, -0.7303044764176721548, -4.828638707844570277 ) ) ;
#898 = EDGE_CURVE ( 'NONE', #894, #650, #354, .T. ) ;
#899 = CARTESIAN_POINT ( 'NONE',  ( 9.010862724707916271, 0.000000000000000000, -4.336398615956494673 ) ) ;
#900 = CARTESIAN_POINT ( 'NONE',  ( 3.894962447392346165E-15, 1.500000000000000000, 3.868246803570493775 ) ) ;
#901 = CARTESIAN_POINT ( 'NONE',  ( 1.224646799131400714E-15, -0.7500000000000001110, 10.00000000000000000 ) ) ;
#902 = ORIENTED_EDGE ( 'NONE', *, *, #797, .F. ) ;
#903 = CARTESIAN_POINT ( 'NONE',  ( 2.599999999999982325, 9.184850993605150903E-17, -2.367136103677475845 ) ) ;
#904 = ADVANCED_FACE ( 'NONE', ( #918 ), #704, .T. ) ;
#905 = ORIENTED_EDGE ( 'NONE', *, *, #462, .T. ) ;
#906 = FACE_OUTER_BOUND ( 'NONE', #435, .T. ) ;
#907 = ORIENTED_EDGE ( 'NONE', *, *, #542, .T. ) ;
#908 = CARTESIAN_POINT ( 'NONE',  ( 0.3777462165648369230, 0.6553365998466200715, 9.993275693132627424 ) ) ;
#909 = CARTESIAN_POINT ( 'NONE',  ( -9.010862724707946469, 0.09791479696330059046, -4.336398615956441382 ) ) ;
#910 = DIRECTION ( 'NONE',  ( 0.000000000000000000, 1.000000000000000000, 0.000000000000000000 ) ) ;
#911 = AXIS2_PLACEMENT_3D ( 'NONE', #10, #675, #294 ) ;
#912 = CARTESIAN_POINT ( 'NONE',  ( 0.7500000000001573186, -0.1958834296499886718, 9.971835337589554982 ) ) ;
#913 = VERTEX_POINT ( 'NONE', #51 ) ;
#914 = CIRCLE ( 'NONE', #519, 0.7499999999999997780 ) ;
#915 = LINE ( 'NONE', #113, #53 ) ;
#916 = DIRECTION ( 'NONE',  ( 0.000000000000000000, 1.000000000000000000, 0.000000000000000000 ) ) ;
#917 = CARTESIAN_POINT ( 'NONE',  ( -0.7500000000000003331, 0.09916868739516042364, 9.971835337589563864 ) ) ;
#918 = FACE_OUTER_BOUND ( 'NONE', #127, .T. ) ;
#919 = ORIENTED_EDGE ( 'NONE', *, *, #87, .T. ) ;
#920 = ADVANCED_FACE ( 'NONE', ( #327 ), #100, .F. ) ;
#921 = CARTESIAN_POINT ( 'NONE',  ( -4.330127018922188320, 1.500000000000000000, 1.750000000000009770 ) ) ;
#922 = CARTESIAN_POINT ( 'NONE',  ( 8.881628246516712011, -0.5998384852344261775, -4.595811839320489867 ) ) ;
#923 = CARTESIAN_POINT ( 'NONE',  ( 12.20631003162407069, 0.000000000000000000, -6.181290978785820123 ) ) ;
#924 = ORIENTED_EDGE ( 'NONE', *, *, #449, .F. ) ;
#925 = CARTESIAN_POINT ( 'NONE',  ( 0.7500000000000002220, -0.4393398282201768645, 3.435234101678276364 ) ) ;
#926 = CARTESIAN_POINT ( 'NONE',  ( -3.349999999999998312, -0.7500000000000219824, -1.426817465607942648 ) ) ;
#927 = CARTESIAN_POINT ( 'NONE',  ( 8.344718349245201949, 0.4604218724831217746, -5.510952266611959693 ) ) ;
#928 = VERTEX_POINT ( 'NONE', #538 ) ;
#929 = VECTOR ( 'NONE', #125, 1000.000000000000000 ) ;
#930 = DIRECTION ( 'NONE',  ( -1.000000000000000000, 0.000000000000000000, 1.121130297565043339E-16 ) ) ;
#931 = ADVANCED_FACE ( 'NONE', ( #906 ), #174, .F. ) ;
#932 = CARTESIAN_POINT ( 'NONE',  ( 8.421198042557268337, 0.6004443380899294747, -5.393360987467335832 ) ) ;
#933 = ORIENTED_EDGE ( 'NONE', *, *, #63, .F. ) ;
ENDSEC;
END-ISO-10303-21;
