ISO-10303-21;
HEADER;
FILE_DESCRIPTION (( 'STEP AP214' ),
    '1' );
FILE_NAME ('Washer.STEP',
    '2026-02-05T02:30:36',
    ( '' ),
    ( '' ),
    'SwSTEP 2.0',
    'SolidWorks 2025',
    '' );
FILE_SCHEMA (( 'AUTOMOTIVE_DESIGN' ));
ENDSEC;

DATA;
#1 = DIRECTION ( 'NONE',  ( -0.000000000000000000, -1.000000000000000000, -0.000000000000000000 ) ) ;
#2 = DIRECTION ( 'NONE',  ( 0.000000000000000000, 0.000000000000000000, -1.000000000000000000 ) ) ;
#3 = ADVANCED_FACE ( 'NONE', ( #122, #183 ), #199, .T. ) ;
#4 = PRESENTATION_STYLE_ASSIGNMENT (( #49 ) ) ;
#5 = ADVANCED_FACE ( 'NONE', ( #53 ), #24, .T. ) ;
#6 = CYLINDRICAL_SURFACE ( 'NONE', #11, 4.000000000000000000 ) ;
#7 = CARTESIAN_POINT ( 'NONE',  ( 1.530808498934191521E-15, 3.000000000000000000, 12.50000000000000000 ) ) ;
#8 =( NAMED_UNIT ( * ) PLANE_ANGLE_UNIT ( ) SI_UNIT ( $, .RADIAN. ) );
#9 = ORIENTED_EDGE ( 'NONE', *, *, #92, .T. ) ;
#10 = ORIENTED_EDGE ( 'NONE', *, *, #170, .F. ) ;
#11 = AXIS2_PLACEMENT_3D ( 'NONE', #61, #90, #171 ) ;
#12 = LINE ( 'NONE', #151, #88 ) ;
#13 = EDGE_LOOP ( 'NONE', ( #26, #10 ) ) ;
#14 = EDGE_CURVE ( 'NONE', #42, #116, #99, .T. ) ;
#15 = CARTESIAN_POINT ( 'NONE',  ( 0.000000000000000000, 3.000000000000000000, 0.000000000000000000 ) ) ;
#16 = PRESENTATION_LAYER_ASSIGNMENT (  '', '', ( #182 ) ) ;
#17 = DIRECTION ( 'NONE',  ( -0.000000000000000000, -1.000000000000000000, -0.000000000000000000 ) ) ;
#18 = EDGE_LOOP ( 'NONE', ( #71, #56 ) ) ;
#19 = CARTESIAN_POINT ( 'NONE',  ( 0.000000000000000000, 0.000000000000000000, 0.000000000000000000 ) ) ;
#20 = PRODUCT_DEFINITION_CONTEXT ( 'detailed design', #97, 'design' ) ;
#21 = CARTESIAN_POINT ( 'NONE',  ( 4.898587196589412829E-16, 0.000000000000000000, 4.000000000000000000 ) ) ;
#22 = VERTEX_POINT ( 'NONE', #102 ) ;
#23 = DIRECTION ( 'NONE',  ( 1.000000000000000000, 0.000000000000000000, 0.000000000000000000 ) ) ;
#24 = CYLINDRICAL_SURFACE ( 'NONE', #135, 12.50000000000000000 ) ;
#25 = ADVANCED_BREP_SHAPE_REPRESENTATION ( 'Washer', ( #156, #127 ), #58 ) ;
#26 = ORIENTED_EDGE ( 'NONE', *, *, #185, .F. ) ;
#27 = DIRECTION ( 'NONE',  ( 0.000000000000000000, 0.000000000000000000, 1.000000000000000000 ) ) ;
#28 = DIRECTION ( 'NONE',  ( 0.000000000000000000, 1.000000000000000000, 0.000000000000000000 ) ) ;
#29 = AXIS2_PLACEMENT_3D ( 'NONE', #138, #34, #134 ) ;
#30 = DIRECTION ( 'NONE',  ( 0.000000000000000000, 1.000000000000000000, 0.000000000000000000 ) ) ;
#31 = EDGE_CURVE ( 'NONE', #177, #42, #83, .T. ) ;
#32 = AXIS2_PLACEMENT_3D ( 'NONE', #35, #159, #45 ) ;
#33 = DIRECTION ( 'NONE',  ( 0.000000000000000000, 1.000000000000000000, 0.000000000000000000 ) ) ;
#34 = DIRECTION ( 'NONE',  ( -0.000000000000000000, -1.000000000000000000, -0.000000000000000000 ) ) ;
#35 = CARTESIAN_POINT ( 'NONE',  ( 0.000000000000000000, 0.000000000000000000, 0.000000000000000000 ) ) ;
#36 = ORIENTED_EDGE ( 'NONE', *, *, #185, .T. ) ;
#37 = EDGE_CURVE ( 'NONE', #52, #54, #98, .T. ) ;
#38 = DIRECTION ( 'NONE',  ( -0.000000000000000000, -1.000000000000000000, -0.000000000000000000 ) ) ;
#39 = ORIENTED_EDGE ( 'NONE', *, *, #117, .F. ) ;
#40 = CIRCLE ( 'NONE', #173, 4.000000000000000000 ) ;
#41 = EDGE_LOOP ( 'NONE', ( #39, #63, #67, #141 ) ) ;
#42 = VERTEX_POINT ( 'NONE', #85 ) ;
#43 = DIRECTION ( 'NONE',  ( 0.000000000000000000, 0.000000000000000000, 1.000000000000000000 ) ) ;
#44 = CYLINDRICAL_SURFACE ( 'NONE', #198, 12.50000000000000000 ) ;
#45 = DIRECTION ( 'NONE',  ( 0.000000000000000000, 0.000000000000000000, 1.000000000000000000 ) ) ;
#46 = FACE_OUTER_BOUND ( 'NONE', #41, .T. ) ;
#47 = AXIS2_PLACEMENT_3D ( 'NONE', #126, #96, #108 ) ;
#48 = ORIENTED_EDGE ( 'NONE', *, *, #152, .T. ) ;
#49 = SURFACE_STYLE_USAGE ( .BOTH. , #189 ) ;
#50 = ORIENTED_EDGE ( 'NONE', *, *, #140, .F. ) ;
#51 = ORIENTED_EDGE ( 'NONE', *, *, #37, .F. ) ;
#52 = VERTEX_POINT ( 'NONE', #103 ) ;
#53 = FACE_OUTER_BOUND ( 'NONE', #143, .T. ) ;
#54 = VERTEX_POINT ( 'NONE', #147 ) ;
#55 = CARTESIAN_POINT ( 'NONE',  ( 0.000000000000000000, 3.000000000000000000, 0.000000000000000000 ) ) ;
#56 = ORIENTED_EDGE ( 'NONE', *, *, #136, .T. ) ;
#57 = FACE_OUTER_BOUND ( 'NONE', #13, .T. ) ;
#58 =( GEOMETRIC_REPRESENTATION_CONTEXT ( 3 ) GLOBAL_UNCERTAINTY_ASSIGNED_CONTEXT ( ( #150 ) ) GLOBAL_UNIT_ASSIGNED_CONTEXT ( ( #79, #8, #176 ) ) REPRESENTATION_CONTEXT ( 'NONE', 'WORKASPACE' ) );
#59 = CARTESIAN_POINT ( 'NONE',  ( 4.898587196589412829E-16, 3.000000000000000000, 4.000000000000000000 ) ) ;
#60 = CIRCLE ( 'NONE', #194, 4.000000000000000000 ) ;
#61 = CARTESIAN_POINT ( 'NONE',  ( 0.000000000000000000, 3.000000000000000000, 0.000000000000000000 ) ) ;
#62 = DIRECTION ( 'NONE',  ( 0.000000000000000000, 0.000000000000000000, 1.000000000000000000 ) ) ;
#63 = ORIENTED_EDGE ( 'NONE', *, *, #31, .T. ) ;
#64 = AXIS2_PLACEMENT_3D ( 'NONE', #55, #195, #149 ) ;
#65 = CIRCLE ( 'NONE', #142, 4.000000000000000000 ) ;
#66 = APPLICATION_CONTEXT ( 'automotive_design' ) ;
#67 = ORIENTED_EDGE ( 'NONE', *, *, #14, .T. ) ;
#68 = UNCERTAINTY_MEASURE_WITH_UNIT (LENGTH_MEASURE( 1.000000000000000082E-05 ), #112, 'distance_accuracy_value', 'NONE');
#69 = VECTOR ( 'NONE', #38, 1000.000000000000000 ) ;
#70 = PLANE ( 'NONE',  #168 ) ;
#71 = ORIENTED_EDGE ( 'NONE', *, *, #140, .T. ) ;
#72 = DIRECTION ( 'NONE',  ( 0.000000000000000000, 1.000000000000000000, 0.000000000000000000 ) ) ;
#73 = CIRCLE ( 'NONE', #32, 12.50000000000000000 ) ;
#74 = CARTESIAN_POINT ( 'NONE',  ( 0.000000000000000000, 3.000000000000000000, 0.000000000000000000 ) ) ;
#75 = PRODUCT_RELATED_PRODUCT_CATEGORY ( 'part', '', ( #172 ) ) ;
#76 = ORIENTED_EDGE ( 'NONE', *, *, #14, .F. ) ;
#77 = AXIS2_PLACEMENT_3D ( 'NONE', #78, #155, #62 ) ;
#78 = CARTESIAN_POINT ( 'NONE',  ( 0.000000000000000000, 0.000000000000000000, 0.000000000000000000 ) ) ;
#79 =( LENGTH_UNIT ( ) NAMED_UNIT ( * ) SI_UNIT ( .MILLI., .METRE. ) );
#80 = ORIENTED_EDGE ( 'NONE', *, *, #37, .T. ) ;
#81 = ORIENTED_EDGE ( 'NONE', *, *, #92, .F. ) ;
#82 = CARTESIAN_POINT ( 'NONE',  ( 0.000000000000000000, 3.000000000000000000, 0.000000000000000000 ) ) ;
#83 = CIRCLE ( 'NONE', #148, 4.000000000000000000 ) ;
#84 = ORIENTED_EDGE ( 'NONE', *, *, #31, .F. ) ;
#85 = CARTESIAN_POINT ( 'NONE',  ( 0.000000000000000000, 3.000000000000000000, -4.000000000000000000 ) ) ;
#86 = EDGE_CURVE ( 'NONE', #42, #177, #60, .T. ) ;
#87 = DIRECTION ( 'NONE',  ( 0.000000000000000000, -0.000000000000000000, 1.000000000000000000 ) ) ;
#88 = VECTOR ( 'NONE', #1, 1000.000000000000000 ) ;
#89 = DIRECTION ( 'NONE',  ( -0.000000000000000000, -1.000000000000000000, -0.000000000000000000 ) ) ;
#90 = DIRECTION ( 'NONE',  ( -0.000000000000000000, -1.000000000000000000, -0.000000000000000000 ) ) ;
#91 = FILL_AREA_STYLE_COLOUR ( '', #120 ) ;
#92 = EDGE_CURVE ( 'NONE', #139, #22, #12, .T. ) ;
#93 = CYLINDRICAL_SURFACE ( 'NONE', #29, 4.000000000000000000 ) ;
#94 = AXIS2_PLACEMENT_3D ( 'NONE', #157, #188, #174 ) ;
#95 = CARTESIAN_POINT ( 'NONE',  ( 0.000000000000000000, 0.000000000000000000, 0.000000000000000000 ) ) ;
#96 = DIRECTION ( 'NONE',  ( 0.000000000000000000, 1.000000000000000000, 0.000000000000000000 ) ) ;
#97 = APPLICATION_CONTEXT ( 'automotive_design' ) ;
#98 = LINE ( 'NONE', #167, #124 ) ;
#99 = LINE ( 'NONE', #121, #69 ) ;
#100 = CIRCLE ( 'NONE', #94, 12.50000000000000000 ) ;
#101 = DIRECTION ( 'NONE',  ( 0.000000000000000000, 0.000000000000000000, 1.000000000000000000 ) ) ;
#102 = CARTESIAN_POINT ( 'NONE',  ( 1.530808498934191521E-15, 0.000000000000000000, 12.50000000000000000 ) ) ;
#103 = CARTESIAN_POINT ( 'NONE',  ( 0.000000000000000000, 3.000000000000000000, -12.50000000000000000 ) ) ;
#104 = LINE ( 'NONE', #169, #105 ) ;
#105 = VECTOR ( 'NONE', #89, 1000.000000000000000 ) ;
#106 = ADVANCED_FACE ( 'NONE', ( #57, #184 ), #70, .F. ) ;
#107 = CIRCLE ( 'NONE', #47, 12.50000000000000000 ) ;
#108 = DIRECTION ( 'NONE',  ( 0.000000000000000000, 0.000000000000000000, 1.000000000000000000 ) ) ;
#109 =( NAMED_UNIT ( * ) PLANE_ANGLE_UNIT ( ) SI_UNIT ( $, .RADIAN. ) );
#110 =( NAMED_UNIT ( * ) SI_UNIT ( $, .STERADIAN. ) SOLID_ANGLE_UNIT ( ) );
#111 = PRODUCT_DEFINITION_SHAPE ( 'NONE', 'NONE',  #190 ) ;
#112 =( LENGTH_UNIT ( ) NAMED_UNIT ( * ) SI_UNIT ( .MILLI., .METRE. ) );
#113 = DIRECTION ( 'NONE',  ( -0.000000000000000000, -1.000000000000000000, -0.000000000000000000 ) ) ;
#114 = EDGE_CURVE ( 'NONE', #116, #180, #40, .T. ) ;
#115 = MECHANICAL_DESIGN_GEOMETRIC_PRESENTATION_REPRESENTATION (  '', ( #182 ), #178 ) ;
#116 = VERTEX_POINT ( 'NONE', #132 ) ;
#117 = EDGE_CURVE ( 'NONE', #177, #180, #104, .T. ) ;
#118 = DIRECTION ( 'NONE',  ( 0.000000000000000000, 0.000000000000000000, -1.000000000000000000 ) ) ;
#119 = FACE_OUTER_BOUND ( 'NONE', #181, .T. ) ;
#120 = COLOUR_RGB ( '',0.7921568627450980005, 0.8196078431372548767, 0.9333333333333333481 ) ;
#121 = CARTESIAN_POINT ( 'NONE',  ( 0.000000000000000000, 3.000000000000000000, -4.000000000000000000 ) ) ;
#122 = FACE_OUTER_BOUND ( 'NONE', #18, .T. ) ;
#123 = FACE_OUTER_BOUND ( 'NONE', #179, .T. ) ;
#124 = VECTOR ( 'NONE', #145, 1000.000000000000000 ) ;
#125 = FILL_AREA_STYLE ('',( #91 ) ) ;
#126 = CARTESIAN_POINT ( 'NONE',  ( 0.000000000000000000, 3.000000000000000000, 0.000000000000000000 ) ) ;
#127 = AXIS2_PLACEMENT_3D ( 'NONE', #95, #101, #23 ) ;
#128 = CARTESIAN_POINT ( 'NONE',  ( 0.000000000000000000, 0.000000000000000000, 0.000000000000000000 ) ) ;
#129 = APPLICATION_PROTOCOL_DEFINITION ( 'draft international standard', 'automotive_design', 1998, #66 ) ;
#130 = ADVANCED_FACE ( 'NONE', ( #119 ), #44, .T. ) ;
#131 = ORIENTED_EDGE ( 'NONE', *, *, #136, .F. ) ;
#132 = CARTESIAN_POINT ( 'NONE',  ( 0.000000000000000000, 0.000000000000000000, -4.000000000000000000 ) ) ;
#133 = ORIENTED_EDGE ( 'NONE', *, *, #114, .F. ) ;
#134 = DIRECTION ( 'NONE',  ( 0.000000000000000000, 0.000000000000000000, -1.000000000000000000 ) ) ;
#135 = AXIS2_PLACEMENT_3D ( 'NONE', #82, #17, #118 ) ;
#136 = EDGE_CURVE ( 'NONE', #139, #52, #100, .T. ) ;
#137 = CIRCLE ( 'NONE', #77, 12.50000000000000000 ) ;
#138 = CARTESIAN_POINT ( 'NONE',  ( 0.000000000000000000, 3.000000000000000000, 0.000000000000000000 ) ) ;
#139 = VERTEX_POINT ( 'NONE', #7 ) ;
#140 = EDGE_CURVE ( 'NONE', #52, #139, #107, .T. ) ;
#141 = ORIENTED_EDGE ( 'NONE', *, *, #152, .F. ) ;
#142 = AXIS2_PLACEMENT_3D ( 'NONE', #19, #33, #161 ) ;
#143 = EDGE_LOOP ( 'NONE', ( #81, #50, #80, #36 ) ) ;
#144 = SHAPE_DEFINITION_REPRESENTATION ( #111, #25 ) ;
#145 = DIRECTION ( 'NONE',  ( -0.000000000000000000, -1.000000000000000000, -0.000000000000000000 ) ) ;
#146 = ORIENTED_EDGE ( 'NONE', *, *, #117, .T. ) ;
#147 = CARTESIAN_POINT ( 'NONE',  ( 0.000000000000000000, 0.000000000000000000, -12.50000000000000000 ) ) ;
#148 = AXIS2_PLACEMENT_3D ( 'NONE', #74, #166, #27 ) ;
#149 = DIRECTION ( 'NONE',  ( 0.000000000000000000, -0.000000000000000000, 1.000000000000000000 ) ) ;
#150 = UNCERTAINTY_MEASURE_WITH_UNIT (LENGTH_MEASURE( 1.000000000000000082E-05 ), #79, 'distance_accuracy_value', 'NONE');
#151 = CARTESIAN_POINT ( 'NONE',  ( 1.530808498934191521E-15, 3.000000000000000000, 12.50000000000000000 ) ) ;
#152 = EDGE_CURVE ( 'NONE', #180, #116, #65, .T. ) ;
#153 = PRODUCT_DEFINITION_FORMATION_WITH_SPECIFIED_SOURCE ( 'Symmetric', '', #172, .NOT_KNOWN. ) ;
#154 = ADVANCED_FACE ( 'NONE', ( #46 ), #6, .F. ) ;
#155 = DIRECTION ( 'NONE',  ( 0.000000000000000000, 1.000000000000000000, 0.000000000000000000 ) ) ;
#156 = MANIFOLD_SOLID_BREP ( 'Boss-Extrude1', #158 ) ;
#157 = CARTESIAN_POINT ( 'NONE',  ( 0.000000000000000000, 3.000000000000000000, 0.000000000000000000 ) ) ;
#158 = CLOSED_SHELL ( 'NONE', ( #164, #130, #3, #106, #5, #154 ) ) ;
#159 = DIRECTION ( 'NONE',  ( 0.000000000000000000, 1.000000000000000000, 0.000000000000000000 ) ) ;
#160 = CARTESIAN_POINT ( 'NONE',  ( 0.000000000000000000, 3.000000000000000000, 0.000000000000000000 ) ) ;
#161 = DIRECTION ( 'NONE',  ( 0.000000000000000000, 0.000000000000000000, 1.000000000000000000 ) ) ;
#162 = ORIENTED_EDGE ( 'NONE', *, *, #114, .T. ) ;
#163 = ORIENTED_EDGE ( 'NONE', *, *, #170, .T. ) ;
#164 = ADVANCED_FACE ( 'NONE', ( #123 ), #93, .F. ) ;
#165 = PRODUCT_CONTEXT ( 'NONE', #66, 'mechanical' ) ;
#166 = DIRECTION ( 'NONE',  ( 0.000000000000000000, 1.000000000000000000, 0.000000000000000000 ) ) ;
#167 = CARTESIAN_POINT ( 'NONE',  ( 0.000000000000000000, 3.000000000000000000, -12.50000000000000000 ) ) ;
#168 = AXIS2_PLACEMENT_3D ( 'NONE', #128, #72, #87 ) ;
#169 = CARTESIAN_POINT ( 'NONE',  ( 4.898587196589412829E-16, 3.000000000000000000, 4.000000000000000000 ) ) ;
#170 = EDGE_CURVE ( 'NONE', #22, #54, #73, .T. ) ;
#171 = DIRECTION ( 'NONE',  ( 0.000000000000000000, 0.000000000000000000, -1.000000000000000000 ) ) ;
#172 = PRODUCT ( 'Washer', 'Washer', '', ( #165 ) ) ;
#173 = AXIS2_PLACEMENT_3D ( 'NONE', #196, #30, #43 ) ;
#174 = DIRECTION ( 'NONE',  ( 0.000000000000000000, 0.000000000000000000, 1.000000000000000000 ) ) ;
#175 = EDGE_LOOP ( 'NONE', ( #193, #84 ) ) ;
#176 =( NAMED_UNIT ( * ) SI_UNIT ( $, .STERADIAN. ) SOLID_ANGLE_UNIT ( ) );
#177 = VERTEX_POINT ( 'NONE', #59 ) ;
#178 =( GEOMETRIC_REPRESENTATION_CONTEXT ( 3 ) GLOBAL_UNCERTAINTY_ASSIGNED_CONTEXT ( ( #68 ) ) GLOBAL_UNIT_ASSIGNED_CONTEXT ( ( #112, #109, #110 ) ) REPRESENTATION_CONTEXT ( 'NONE', 'WORKASPACE' ) );
#179 = EDGE_LOOP ( 'NONE', ( #197, #146, #133, #76 ) ) ;
#180 = VERTEX_POINT ( 'NONE', #21 ) ;
#181 = EDGE_LOOP ( 'NONE', ( #131, #9, #163, #51 ) ) ;
#182 = STYLED_ITEM ( 'NONE', ( #4 ), #156 ) ;
#183 = FACE_BOUND ( 'NONE', #175, .T. ) ;
#184 = FACE_BOUND ( 'NONE', #191, .T. ) ;
#185 = EDGE_CURVE ( 'NONE', #54, #22, #137, .T. ) ;
#186 = DIRECTION ( 'NONE',  ( 0.000000000000000000, 0.000000000000000000, 1.000000000000000000 ) ) ;
#187 = SURFACE_STYLE_FILL_AREA ( #125 ) ;
#188 = DIRECTION ( 'NONE',  ( 0.000000000000000000, 1.000000000000000000, 0.000000000000000000 ) ) ;
#189 = SURFACE_SIDE_STYLE ('',( #187 ) ) ;
#190 = PRODUCT_DEFINITION ( 'General', '', #153, #20 ) ;
#191 = EDGE_LOOP ( 'NONE', ( #162, #48 ) ) ;
#192 = APPLICATION_PROTOCOL_DEFINITION ( 'draft international standard', 'automotive_design', 1998, #97 ) ;
#193 = ORIENTED_EDGE ( 'NONE', *, *, #86, .F. ) ;
#194 = AXIS2_PLACEMENT_3D ( 'NONE', #15, #28, #186 ) ;
#195 = DIRECTION ( 'NONE',  ( 0.000000000000000000, 1.000000000000000000, 0.000000000000000000 ) ) ;
#196 = CARTESIAN_POINT ( 'NONE',  ( 0.000000000000000000, 0.000000000000000000, 0.000000000000000000 ) ) ;
#197 = ORIENTED_EDGE ( 'NONE', *, *, #86, .T. ) ;
#198 = AXIS2_PLACEMENT_3D ( 'NONE', #160, #113, #2 ) ;
#199 = PLANE ( 'NONE',  #64 ) ;
ENDSEC;
END-ISO-10303-21;
